<?xml version="1.0" encoding="UTF-8"?>
<svg width="1920px" height="1080px" viewBox="0 0 1920 1080" version="1.1" xmlns="http://www.w3.org/2000/svg" xmlns:xlink="http://www.w3.org/1999/xlink">
    <title>blue-banner-twitter-mbauniversity-2023-all-rights-reserved</title>
    <g id="blue-banner-twitter-mbauniversity-2023-all-rights-reserved" stroke="none" stroke-width="1" fill="none" fill-rule="evenodd">
        <rect fill="#002967" x="0" y="0" width="1920" height="1080"></rect>
        <g id="Group" transform="translate(501.000000, 449.000000)" fill="#FFFFFF" fill-rule="nonzero">
            <path d="M990.878355,160.491757 L990.878355,160.776634 C990.368337,160.776634 990.113329,161.04252 990.113329,161.574291 C990.113329,162.08707 990.264445,162.694809 990.566677,163.397506 L993.400107,170.063637 L996.715221,162.229509 C996.828558,161.982615 996.885226,161.745217 996.885226,161.517316 C996.885226,161.422356 996.861615,161.27517 996.814391,161.075756 C996.767167,160.876341 996.488546,160.776634 995.978529,160.776634 L995.978529,160.491757 L999.010299,160.491757 L999.010299,160.776634 C997.990264,160.776634 997.34802,161.194455 997.083567,162.030095 L989.489974,179.977371 C989.282189,180.471158 988.998846,180.888978 988.639945,181.230831 C988.129928,181.74361 987.553797,182 986.911553,182 C986.099303,182 985.414557,181.634407 984.857316,180.903222 C984.300075,180.172037 984.002564,179.255681 983.964785,178.154155 L983.964785,178.125667 C983.964785,177.688855 984.120624,177.309019 984.432301,176.986158 C984.743979,176.663297 985.126492,176.501866 985.57984,176.501866 C986.033189,176.501866 986.415702,176.663297 986.72738,176.986158 C987.039057,177.309019 987.194896,177.688855 987.194896,178.125667 C987.194896,178.581471 987.039057,178.966056 986.72738,179.279421 C986.415702,179.592786 986.028467,179.749469 985.565673,179.749469 C985.10288,179.749469 984.871483,179.901403 984.871483,180.205272 C984.871483,180.452166 985.041489,180.746539 985.3815,181.088392 C985.834849,181.487221 986.344867,181.686635 986.911553,181.686635 C987.346012,181.686635 987.752137,181.567936 988.129928,181.330538 C988.507718,181.09314 988.809951,180.756035 989.036625,180.319223 L991.388372,174.792602 L986.713212,163.767847 C985.882073,161.773705 984.965931,160.776634 983.964785,160.776634 L983.964785,160.491757 L990.878355,160.491757 Z M840.734895,160.520245 C841.641593,160.520245 842.505789,160.719659 843.327484,161.118487 C844.149178,161.517316 844.819757,162.08707 845.339219,162.827752 C845.858681,163.568433 846.118412,164.442057 846.118412,165.448624 L846.118412,171.431049 C846.118412,172.038787 846.241194,172.694005 846.486758,173.396703 C846.732322,174.0994 847.110113,174.450749 847.62013,174.450749 L847.62013,174.764114 L844.361686,174.764114 C843.965005,174.764114 843.624994,174.716635 843.341651,174.621676 C843.058308,174.526716 842.826911,174.422261 842.64746,174.30831 C842.46801,174.194359 842.340505,174.089904 842.264947,173.994945 L842.15161,173.880994 C841.547145,174.241839 840.980459,174.531464 840.451552,174.74987 C839.922645,174.968276 839.270956,175.077479 838.496485,175.077479 C836.626421,175.077479 835.17665,174.726131 834.14717,174.023433 C833.117691,173.320735 832.602951,172.409128 832.602951,171.28861 C832.602951,170.301035 832.905183,169.512874 833.509648,168.924128 C834.114113,168.335381 834.86025,167.865333 835.748058,167.513985 C836.635866,167.162636 837.533119,166.854019 838.439817,166.588133 C839.459852,166.303256 840.333492,165.994639 841.06074,165.662282 C841.787987,165.329925 842.15161,164.869373 842.15161,164.280626 L842.15161,163.312043 C842.15161,161.773705 841.518811,161.004536 840.253212,161.004536 L839.941535,161.033024 C838.959279,161.20395 838.10925,161.602779 837.391448,162.229509 C837.844796,162.248501 838.222587,162.409931 838.52482,162.713801 C838.827052,163.01767 838.978168,163.38801 838.978168,163.824822 C838.978168,164.280626 838.82233,164.665211 838.510652,164.978576 C838.198975,165.291941 837.825907,165.448624 837.391448,165.448624 C836.938099,165.448624 836.555586,165.291941 836.243908,164.978576 C835.932231,164.665211 835.776392,164.280626 835.776392,163.824822 C835.776392,163.407002 835.927509,163.036662 836.229741,162.713801 C837.344224,161.25143 838.845942,160.520245 840.734895,160.520245 Z M853.258656,171.03222 C853.806452,171.03222 854.278691,171.226887 854.675371,171.616219 C855.072051,172.005552 855.270391,172.475599 855.270391,173.026362 C855.270391,173.596117 855.072051,174.075661 854.675371,174.464993 C854.278691,174.854325 853.806452,175.048992 853.258656,175.048992 C852.71086,175.048992 852.243344,174.854325 851.856108,174.464993 C851.468873,174.075661 851.275255,173.596117 851.275255,173.026362 C851.275255,172.475599 851.468873,172.005552 851.856108,171.616219 C852.243344,171.226887 852.71086,171.03222 853.258656,171.03222 Z M1063.56513,154.566307 C1065.18963,154.566307 1066.66774,155.026859 1067.99945,155.947963 C1069.33116,156.869066 1070.3937,158.103535 1071.18706,159.651369 C1071.98042,161.199202 1072.3771,162.913215 1072.3771,164.793406 C1072.3771,166.692588 1071.98042,168.416096 1071.18706,169.96393 C1070.3937,171.511764 1069.33116,172.746233 1067.99945,173.667336 C1066.66774,174.58844 1065.18963,175.048992 1063.56513,175.048992 C1061.92174,175.048992 1060.43419,174.58844 1059.10248,173.667336 C1057.77077,172.746233 1056.70823,171.511764 1055.91487,169.96393 C1055.12151,168.416096 1054.72483,166.692588 1054.72483,164.793406 C1054.72483,162.913215 1055.12151,161.199202 1055.91487,159.651369 C1056.70823,158.103535 1057.77077,156.869066 1059.10248,155.947963 C1060.43419,155.026859 1061.92174,154.566307 1063.56513,154.566307 Z M1104.70654,154.822697 L1099.06801,162.941703 C1100.73029,163.283555 1102.08562,164.005245 1103.13398,165.106771 C1104.18235,166.208297 1104.70654,167.480749 1104.70654,168.924128 C1104.70654,170.595408 1103.99346,172.034039 1102.5673,173.24002 C1101.14114,174.446001 1099.42691,175.048992 1097.42462,175.048992 C1095.51678,175.048992 1093.89228,174.626424 1092.55112,173.781287 C1091.20997,172.936151 1090.40716,171.848869 1090.14271,170.519441 L1090.11437,170.092125 C1090.11437,169.579346 1090.29382,169.095054 1090.65272,168.63925 C1091.01163,168.183447 1091.54998,167.955545 1092.26778,167.955545 C1092.85336,167.955545 1093.35865,168.164455 1093.78367,168.582275 C1094.20868,169.000095 1094.42119,169.512874 1094.42119,170.120613 C1094.42119,170.709359 1094.20868,171.217391 1093.78367,171.644707 C1093.35865,172.072023 1092.85336,172.285681 1092.26778,172.285681 C1091.96555,172.285681 1091.6822,172.228705 1091.41775,172.114755 C1092.47556,172.912411 1093.75061,173.31124 1095.24288,173.31124 C1095.88513,173.31124 1096.59348,173.202037 1097.36795,172.983631 C1098.14242,172.765225 1098.84606,172.342656 1099.47886,171.715926 C1100.11166,171.089196 1100.42806,170.301035 1100.42806,169.351444 C1100.42806,168.382861 1100.30528,167.5947 1100.05971,166.986961 C1099.62525,165.999387 1099.0019,165.325177 1098.18965,164.964332 C1097.84964,164.831389 1097.62296,164.764918 1097.50963,164.764918 L1101.44809,159.124345 L1091.10607,159.124345 L1094.16618,154.822697 L1104.70654,154.822697 Z M783.131262,171.03222 C783.679058,171.03222 784.151296,171.226887 784.547977,171.616219 C784.944657,172.005552 785.142997,172.475599 785.142997,173.026362 C785.142997,173.596117 784.944657,174.075661 784.547977,174.464993 C784.151296,174.854325 783.679058,175.048992 783.131262,175.048992 C782.583465,175.048992 782.115949,174.854325 781.728714,174.464993 C781.341478,174.075661 781.147861,173.596117 781.147861,173.026362 C781.147861,172.475599 781.341478,172.005552 781.728714,171.616219 C782.115949,171.226887 782.583465,171.03222 783.131262,171.03222 Z M926.842835,160.235367 C927.900649,160.235367 928.868738,160.434781 929.747101,160.83361 C930.625464,161.232438 931.347989,161.806941 931.914675,162.557118 C932.481361,163.307295 932.764704,164.261634 932.764704,165.420136 C932.764704,166.939482 931.914675,167.927057 930.214617,168.382861 C929.251251,168.648746 927.995097,168.781689 926.446155,168.781689 L924.972771,168.781689 C925.463899,171.402561 926.682274,172.712997 928.627896,172.712997 C929.459035,172.712997 930.148503,172.556314 930.6963,172.242949 C931.244096,171.929584 931.688,171.573487 932.028012,171.174659 C932.330245,170.832806 932.556919,170.509945 932.708035,170.206076 L932.991378,169.636321 L932.73637,170.462466 C932.566364,171.013229 932.264131,171.639959 931.829672,172.342656 C931.395213,173.045354 930.77658,173.672084 929.973775,174.222847 C929.17097,174.77361 928.127323,175.048992 926.842835,175.048992 C925.086108,175.048992 923.58439,174.322554 922.337681,172.86968 C921.090972,171.416805 920.467617,169.674305 920.467617,167.642179 C920.467617,165.591062 921.090972,163.843814 922.337681,162.400435 C923.58439,160.957057 925.086108,160.235367 926.842835,160.235367 Z M1123.54885,154.537819 C1125.40002,154.537819 1127.07647,154.998371 1128.57819,155.919475 C1130.0799,156.840578 1131.26994,158.075047 1132.14831,159.622881 C1133.02667,161.170715 1133.46585,162.884727 1133.46585,164.764918 C1133.46585,166.6641 1133.02667,168.392357 1132.14831,169.949686 C1131.26994,171.507016 1130.0799,172.746233 1128.57819,173.667336 C1127.07647,174.58844 1125.40002,175.048992 1123.54885,175.048992 C1121.67878,175.048992 1119.98345,174.58844 1118.46284,173.667336 C1116.94223,172.746233 1115.7333,171.507016 1114.83605,169.949686 C1113.9388,168.392357 1113.49017,166.6641 1113.49017,164.764918 C1113.49017,162.884727 1113.9388,161.170715 1114.83605,159.622881 C1115.7333,158.075047 1116.94223,156.840578 1118.46284,155.919475 C1119.98345,154.998371 1121.67878,154.537819 1123.54885,154.537819 Z M960.163973,160.235367 L960.163973,163.340531 L959.852295,163.340531 L959.852295,163.255068 C959.852295,163.122125 959.823961,162.922711 959.767292,162.656825 C959.559508,161.916144 959.063657,161.360633 958.279742,160.990292 C957.495826,160.619952 956.603296,160.434781 955.60215,160.434781 C955.20547,160.434781 954.827679,160.463269 954.468778,160.520245 C953.467633,160.767138 952.96706,161.317901 952.96706,162.172534 C952.96706,162.438419 953.056786,162.775524 953.236236,163.183848 C953.415687,163.592173 953.732086,163.948269 954.185435,164.252139 L960.220641,168.26891 C961.372903,169.028583 961.949034,169.949686 961.949034,171.03222 C961.949034,172.133746 961.330401,173.07859 960.093137,173.86675 C958.855872,174.654911 957.358877,175.048992 955.60215,175.048992 C953.902092,175.048992 952.475932,174.697643 951.323671,173.994945 C950.908101,173.748052 950.653092,173.577125 950.558645,173.482166 C950.256412,173.235272 950.029738,173.083338 949.878622,173.026362 L949.680281,172.997874 C949.623613,172.997874 949.590556,173.012118 949.581111,173.040606 C949.571667,173.069094 949.562222,173.088086 949.552777,173.097582 C949.543332,173.107077 949.53861,173.116573 949.53861,173.126069 C949.53861,173.135565 949.434717,173.140313 949.226933,173.140313 L949.226933,169.636321 L949.53861,169.636321 L949.566944,170.03515 C949.585834,170.320027 949.642502,170.66188 949.73695,171.060708 C949.982514,172.105259 950.360305,172.855436 950.870322,173.31124 C952.287037,174.336798 953.864313,174.849577 955.60215,174.849577 C956.03661,174.849577 956.461624,174.811594 956.877194,174.735627 C957.802781,174.431757 958.265575,173.928474 958.265575,173.225776 C958.265575,173.149809 958.23724,172.888671 958.180572,172.442364 C958.123903,171.996056 957.746112,171.526008 957.0472,171.03222 L951.011994,167.043937 C949.821953,166.265272 949.226933,165.334673 949.226933,164.252139 C949.226933,163.131621 949.850287,162.182029 951.096996,161.403365 C952.343706,160.6247 953.845424,160.235367 955.60215,160.235367 C956.508848,160.235367 957.358877,160.349318 958.152237,160.57722 L958.152237,160.548732 C958.530028,160.662683 958.841705,160.719659 959.087269,160.719659 C959.313944,160.719659 959.498117,160.676927 959.639788,160.591464 C959.78146,160.506001 959.852295,160.406294 959.852295,160.292343 L959.852295,160.235367 L960.163973,160.235367 Z M1187.53175,52.8365908 L1187.53175,54.4644616 C1184.61736,54.4644616 1183.16017,55.9838077 1183.16017,59.0224999 C1183.16017,61.9526673 1184.02369,65.4254584 1185.75073,69.440873 L1200.32266,107.53305 L1219.26616,62.7666027 C1219.9138,61.3557814 1220.23763,59.9992224 1220.23763,58.6969257 C1220.23763,58.1543021 1220.1027,57.3132355 1219.83285,56.173726 C1219.563,55.0342164 1217.97088,54.4644616 1215.0565,54.4644616 L1215.0565,52.8365908 L1234,52.8365908 L1234,54.4644616 C1228.17123,54.4644616 1224.50126,56.8520055 1222.9901,61.6270932 C1209.20414,95.3719557 1198.86467,120.544947 1191.97169,137.146066 C1189.40191,143.335138 1185.54725,152.347434 1180.40769,164.182954 C1179.22035,167.004597 1177.60125,169.392141 1175.55039,171.345586 C1172.636,174.275753 1168.53427,174.926901 1164.86431,174.926901 C1160.22288,174.926901 1156.31005,172.8378 1153.12581,168.659599 C1149.94157,164.481397 1148.24152,159.245079 1148.02564,152.950645 L1148.02564,152.787858 C1148.02564,150.29179 1148.91614,148.121295 1150.69716,146.276375 C1152.47817,144.431455 1155.47351,142.695059 1158.06407,142.695059 C1160.65464,142.695059 1162.84043,143.617519 1164.62144,145.46244 C1166.40245,147.30736 1167.29296,149.477854 1167.29296,151.973923 C1167.29296,154.578516 1166.40245,156.776142 1164.62144,158.5668 C1162.84043,160.357458 1160.62765,161.252787 1157.98312,161.252787 C1155.33858,161.252787 1154.82587,162.93492 1154.82587,164.671315 C1154.82587,165.964568 1155.64217,166.801867 1157.27476,168.437085 L1157.74025,168.903779 C1160.33082,171.182798 1162.43565,172.322308 1165.67386,172.322308 C1168.15648,172.322308 1169.66764,172.457964 1171.82645,171.101405 C1173.98525,169.744846 1175.7123,167.818532 1177.00758,165.322464 L1190.44613,134.555705 L1163.73093,71.5571051 C1158.98157,60.1620094 1153.74647,54.4644616 1148.02564,54.4644616 L1148.02564,52.8365908 L1187.53175,52.8365908 Z M763.042242,160.520245 L763.042242,160.805122 C762.551115,160.805122 762.305551,161.061512 762.305551,161.574291 L762.305551,161.659754 C762.305551,162.153542 762.447222,162.732792 762.730565,163.397506 L765.507327,169.978174 L769.530797,160.520245 L773.525934,169.978174 L776.812713,162.229509 C776.90716,162.001607 776.954384,161.783201 776.954384,161.574291 C776.954384,161.46034 776.935495,161.303658 776.897715,161.104243 C776.859936,160.904829 776.595483,160.805122 776.104355,160.805122 L776.104355,160.520245 L779.079457,160.520245 L779.079457,160.805122 C778.078311,160.805122 777.445512,161.213446 777.181058,162.030095 L771.797541,174.764114 L771.599201,174.764114 L767.689068,165.534087 L763.778934,174.764114 L763.580594,174.764114 L758.905435,163.739359 C758.112074,161.783201 757.214821,160.805122 756.213676,160.805122 L756.213676,160.520245 L763.042242,160.520245 Z M911.627316,160.548732 L911.627316,160.862098 C911.136188,160.862098 910.890624,161.146975 910.890624,161.71673 C910.890624,162.191525 911.032295,162.76128 911.315638,163.425994 L914.0924,169.978174 L917.379179,162.286485 C917.473626,162.039591 917.52085,161.811689 917.52085,161.602779 C917.52085,161.50782 917.501961,161.360633 917.464181,161.161219 C917.426402,160.961805 917.161949,160.862098 916.670821,160.862098 L916.670821,160.548732 L919.617588,160.548732 L919.617588,160.862098 C918.635333,160.862098 918.011978,161.270422 917.747524,162.08707 L912.364007,174.764114 L912.165667,174.764114 L907.518842,163.767847 C906.725481,161.830681 905.828229,160.862098 904.827083,160.862098 L904.827083,160.548732 L911.627316,160.548732 Z M1063.56513,154.851185 C1062.26176,154.851185 1061.15672,155.824516 1060.25002,157.771178 C1059.34332,159.71784 1058.88997,162.058583 1058.88997,164.793406 C1058.88997,167.54722 1059.34332,169.897459 1060.25002,171.844121 C1061.15672,173.790783 1062.26176,174.764114 1063.56513,174.764114 C1064.84962,174.764114 1065.94521,173.790783 1066.85191,171.844121 C1067.75861,169.897459 1068.21196,167.54722 1068.21196,164.793406 C1068.21196,162.058583 1067.75861,159.71784 1066.85191,157.771178 C1065.94521,155.824516 1064.84962,154.851185 1063.56513,154.851185 Z M739.921453,160.520245 L739.921453,160.805122 C739.430325,160.805122 739.184761,161.061512 739.184761,161.574291 L739.184761,161.659754 C739.184761,162.153542 739.326433,162.732792 739.609776,163.397506 L742.386537,169.978174 L746.410008,160.520245 L750.405144,169.978174 L753.691923,162.229509 C753.786371,162.001607 753.833595,161.783201 753.833595,161.574291 C753.833595,161.46034 753.814705,161.303658 753.776926,161.104243 C753.739147,160.904829 753.474694,160.805122 752.983566,160.805122 L752.983566,160.520245 L755.958667,160.520245 L755.958667,160.805122 C754.957522,160.805122 754.324723,161.213446 754.060269,162.030095 L748.676752,174.764114 L748.478412,174.764114 L744.568278,165.534087 L740.658145,174.764114 L740.459805,174.764114 L735.784645,163.739359 C734.991285,161.783201 734.094032,160.805122 733.092887,160.805122 L733.092887,160.520245 L739.921453,160.520245 Z M806.138714,160.520245 C807.026522,160.520245 807.885996,160.705415 808.717135,161.075756 C809.548275,161.446096 810.23302,161.973119 810.771372,162.656825 C811.309724,163.340531 811.5789,164.128692 811.5789,165.021307 L811.5789,171.402561 C811.5789,172.010299 811.711126,172.670265 811.97558,173.382459 C812.240033,174.094652 812.617824,174.450749 813.108952,174.450749 L813.108952,174.764114 L807.583763,174.764114 L807.583763,163.425994 C807.545984,161.697738 806.988743,160.83361 805.912039,160.83361 C804.363098,160.909577 803.116388,161.422356 802.171912,162.371948 C802.851935,163.150613 803.191947,164.033733 803.191947,165.021307 L803.191947,171.402561 C803.191947,172.010299 803.324173,172.670265 803.588627,173.382459 C803.85308,174.094652 804.240316,174.450749 804.750333,174.450749 L804.750333,174.764114 L799.225144,174.764114 L799.225144,163.425994 C799.187365,161.697738 798.630124,160.83361 797.553421,160.83361 C796.533386,160.871593 795.626688,161.118487 794.833328,161.574291 L794.833328,171.402561 C794.833328,172.010299 794.965555,172.670265 795.230008,173.382459 C795.494462,174.094652 795.872252,174.450749 796.36338,174.450749 L796.36338,174.764114 L789.308139,174.764114 L789.308139,174.450749 C789.799267,174.450749 790.177058,174.094652 790.441511,173.382459 C790.705965,172.670265 790.838191,172.010299 790.838191,171.402561 L790.838191,165.420136 C790.838191,165.021307 790.772078,164.688951 790.639851,164.423065 C790.507625,164.157179 790.342341,163.953017 790.144001,163.810579 C789.945661,163.66814 789.747321,163.568433 789.548981,163.511457 C789.350641,163.454482 789.175912,163.416498 789.024796,163.397506 L788.826456,163.369019 L794.833328,160.520245 L794.833328,161.232438 C795.702246,160.757643 796.684502,160.520245 797.780095,160.520245 C799.442374,160.520245 800.830755,161.061512 801.945237,162.144046 C803.05972,161.061512 804.457545,160.520245 806.138714,160.520245 Z M886.636462,160.520245 C887.467602,160.520245 888.303464,160.695919 889.144048,161.047268 C889.984632,161.398617 890.678822,161.911396 891.226619,162.585606 C891.774415,163.259816 892.048314,164.071716 892.048314,165.021307 L892.048314,171.402561 C892.048314,172.010299 892.18054,172.670265 892.444994,173.382459 C892.709447,174.094652 893.096683,174.450749 893.6067,174.450749 L893.6067,174.764114 L888.081512,174.764114 L888.081512,163.425994 C888.043733,161.697738 887.486491,160.83361 886.409788,160.83361 C885.389753,160.871593 884.483055,161.118487 883.689695,161.574291 L883.689695,171.402561 C883.689695,172.010299 883.821922,172.670265 884.086375,173.382459 C884.350829,174.094652 884.728619,174.450749 885.219747,174.450749 L885.219747,174.764114 L878.164506,174.764114 L878.164506,174.450749 C878.655634,174.450749 879.033425,174.094652 879.297878,173.382459 C879.562332,172.670265 879.694559,172.010299 879.694559,171.402561 L879.694559,165.420136 C879.694559,165.021307 879.628445,164.688951 879.496218,164.423065 C879.363992,164.157179 879.198708,163.953017 879.000368,163.810579 C878.802028,163.66814 878.603688,163.568433 878.405348,163.511457 C878.207008,163.454482 878.03228,163.416498 877.881163,163.397506 L877.682823,163.369019 L883.689695,160.520245 L883.689695,161.232438 C884.558614,160.757643 885.540869,160.520245 886.636462,160.520245 Z M716.800664,160.520245 L716.800664,160.805122 C716.309536,160.805122 716.063972,161.061512 716.063972,161.574291 L716.063972,161.659754 C716.063972,162.153542 716.205643,162.732792 716.488986,163.397506 L719.265748,169.978174 L723.289218,160.520245 L727.284355,169.978174 L730.571134,162.229509 C730.665581,162.001607 730.712805,161.783201 730.712805,161.574291 C730.712805,161.46034 730.693916,161.303658 730.656137,161.104243 C730.618358,160.904829 730.353904,160.805122 729.862776,160.805122 L729.862776,160.520245 L732.837878,160.520245 L732.837878,160.805122 C731.836733,160.805122 731.203933,161.213446 730.93948,162.030095 L725.555963,174.764114 L725.357622,174.764114 L721.447489,165.534087 L717.537355,174.764114 L717.339015,174.764114 L712.663856,163.739359 C711.870495,161.783201 710.973242,160.805122 709.972097,160.805122 L709.972097,160.520245 L716.800664,160.520245 Z M969.627629,160.548732 L969.627629,171.431049 C969.627629,172.019795 969.759856,172.670265 970.024309,173.382459 C970.288763,174.094652 970.675998,174.450749 971.186016,174.450749 L971.186016,174.764114 L964.130775,174.764114 L964.130775,174.450749 C964.621903,174.450749 964.999693,174.094652 965.264147,173.382459 C965.5286,172.670265 965.660827,172.019795 965.660827,171.431049 L965.660827,165.448624 C965.660827,165.030803 965.594714,164.693698 965.462487,164.437309 C965.33026,164.180919 965.164977,163.981505 964.966637,163.839066 C964.768297,163.696628 964.569956,163.592173 964.371616,163.525701 C964.173276,163.45923 963.998548,163.425994 963.847432,163.425994 L963.649092,163.397506 L969.627629,160.548732 Z M821.920919,153.369822 L821.920919,160.748147 C822.600943,160.463269 823.3093,160.320831 824.045992,160.320831 C825.783829,160.320831 827.266657,161.028276 828.494477,162.443167 C829.722297,163.858058 830.336207,165.562575 830.336207,167.556716 C830.336207,169.531866 829.722297,171.226887 828.494477,172.641778 C827.266657,174.056669 825.783829,174.764114 824.045992,174.764114 C823.3093,174.764114 822.600943,174.621676 821.920919,174.336798 L821.920919,174.764114 L816.367396,174.764114 L816.367396,174.450749 C816.877414,174.450749 817.264649,174.094652 817.529103,173.382459 C817.793556,172.670265 817.925783,172.010299 817.925783,171.402561 L817.925783,158.298201 C817.925783,157.880381 817.854947,157.543276 817.713276,157.286886 C817.571604,157.030497 817.401598,156.826335 817.203258,156.6744 C817.004918,156.522465 816.806578,156.41801 816.608238,156.361035 C816.409898,156.304059 816.23517,156.266076 816.084053,156.247084 L815.885713,156.218596 L821.920919,153.369822 Z M944.211761,160.520245 C944.608442,160.520245 945.090125,160.581968 945.656811,160.705415 C946.223497,160.828862 946.724069,161.071008 947.158529,161.431852 C947.592988,161.792697 947.810218,162.324468 947.810218,163.027166 C947.810218,163.48297 947.654379,163.867554 947.342702,164.180919 C947.031024,164.494284 946.648511,164.650967 946.195162,164.650967 C945.760703,164.650967 945.387635,164.494284 945.075958,164.180919 C944.76428,163.867554 944.608442,163.444986 944.608442,162.913215 C944.608442,162.780272 944.66511,162.547622 944.778447,162.215265 C944.891785,161.882908 944.948453,161.593283 944.948453,161.346389 L944.948453,161.061512 C944.948453,160.909577 944.702889,160.83361 944.211761,160.83361 C943.116168,160.83361 942.133913,161.080504 941.264994,161.574291 L941.264994,171.402561 C941.264994,172.010299 941.397221,172.670265 941.661674,173.382459 C941.926128,174.094652 942.303918,174.450749 942.795046,174.450749 L942.795046,174.764114 L935.739805,174.764114 L935.739805,174.450749 C936.230933,174.450749 936.608724,174.094652 936.873177,173.382459 C937.137631,172.670265 937.269858,172.010299 937.269858,171.402561 L937.269858,165.420136 C937.269858,165.021307 937.203744,164.693698 937.071518,164.437309 C936.939291,164.180919 936.774007,163.976757 936.575667,163.824822 C936.377327,163.672888 936.178987,163.568433 935.980647,163.511457 C935.782307,163.454482 935.617023,163.416498 935.484797,163.397506 L935.258122,163.369019 L941.264994,160.520245 L941.264994,161.232438 C942.133913,160.757643 943.116168,160.520245 944.211761,160.520245 Z M1081.38741,154.537819 C1081.84076,154.537819 1082.45939,154.618535 1083.24331,154.779965 C1084.02722,154.941396 1084.8253,155.240517 1085.63755,155.677329 C1086.4498,156.114141 1087.13927,156.731375 1087.70596,157.529032 C1088.27264,158.326689 1088.55599,159.371239 1088.55599,160.662683 C1088.55599,162.049087 1088.19709,163.136369 1087.47928,163.92453 C1086.76148,164.71269 1085.85006,165.329925 1084.74502,165.776233 C1083.63999,166.22254 1082.46411,166.616621 1081.2174,166.958474 C1079.87625,167.319318 1078.62009,167.751382 1077.44894,168.254666 C1076.27779,168.757949 1075.38054,169.484387 1074.75718,170.433978 L1088.55599,170.433978 L1085.49588,174.764114 L1073.65214,174.764114 C1073.65214,172.769973 1073.97327,171.179407 1074.61551,169.992418 C1075.25775,168.805429 1076.05112,167.85109 1076.99559,167.1294 C1077.94007,166.407711 1078.91288,165.780981 1079.91402,165.249209 C1080.65072,164.850381 1081.33074,164.432561 1081.95409,163.995749 C1082.57745,163.558937 1083.08274,163.050906 1083.46998,162.471655 C1083.85721,161.892404 1084.05083,161.165967 1084.05083,160.292343 C1083.99416,158.640054 1083.54082,157.462561 1082.69079,156.759863 C1081.89743,156.114141 1081.00962,155.79128 1080.02736,155.79128 C1079.97069,155.79128 1079.66374,155.800776 1079.1065,155.819768 C1078.54926,155.83876 1077.94007,156.133133 1077.27893,156.702888 C1077.86451,156.721879 1078.35564,156.940285 1078.75232,157.358106 C1079.149,157.775926 1079.34734,158.279209 1079.34734,158.867956 C1079.34734,159.456702 1079.13955,159.964734 1078.72398,160.39205 C1078.30841,160.819366 1077.7984,161.033024 1077.19393,161.033024 C1076.60836,161.033024 1076.10306,160.819366 1075.67805,160.39205 C1075.25303,159.964734 1075.04053,159.456702 1075.04053,158.867956 C1075.04053,158.564087 1075.12553,158.170006 1075.29553,157.685715 C1075.46554,157.201423 1075.77722,156.721879 1076.23057,156.247084 C1076.68391,155.772288 1077.32616,155.368712 1078.1573,155.036355 C1078.98844,154.703998 1080.06514,154.537819 1081.38741,154.537819 Z M873.319341,160.520245 L873.319341,171.402561 C873.319341,172.010299 873.451568,172.670265 873.716021,173.382459 C873.980475,174.094652 874.36771,174.450749 874.877727,174.450749 L874.877727,174.764114 L869.324205,174.764114 L869.324205,174.051921 C868.474175,174.507725 867.501364,174.745122 866.405772,174.764114 C864.894609,174.726131 863.610121,174.289319 862.552307,173.453678 C861.494493,172.618038 860.965586,171.554496 860.965586,170.263051 L860.965586,165.420136 C860.965586,164.698446 860.729467,164.166675 860.257228,163.824822 C859.917217,163.577929 859.548871,163.43549 859.152191,163.397506 L858.95385,163.369019 L864.960722,160.520245 L864.960722,171.858365 C864.998501,173.586621 865.546298,174.450749 866.604112,174.450749 C867.643036,174.412765 868.549734,174.165872 869.324205,173.710068 L869.324205,165.420136 C869.324205,165.002316 869.258091,164.665211 869.125864,164.408821 C868.993638,164.152431 868.828354,163.953017 868.630014,163.810579 C868.431674,163.66814 868.233334,163.563685 868.034994,163.497213 C867.836654,163.430742 867.67137,163.397506 867.539144,163.397506 L867.312469,163.369019 L873.319341,160.520245 Z M979.686306,154.822697 L979.686306,159.580149 L982.54807,159.580149 L982.54807,159.893514 L979.686306,159.893514 L979.686306,171.060708 C979.686306,171.49752 979.752419,171.977064 979.884646,172.499339 C980.016873,173.021614 980.21049,173.47267 980.465499,173.852507 C980.720508,174.232343 981.027463,174.422261 981.386364,174.422261 L981.386364,174.764114 L979.686306,174.764114 C978.458486,174.764114 977.414839,174.327302 976.555366,173.453678 C975.695892,172.580054 975.266155,171.535504 975.266155,170.320027 L975.266155,160.263855 L975.237821,159.893514 L972.602731,159.893514 L972.602731,159.580149 L975.181152,159.580149 C975.067815,159.181321 974.897809,158.872704 974.671135,158.654298 C974.44446,158.435892 974.203619,158.279209 973.94861,158.18425 C973.693601,158.089291 973.471649,158.032315 973.282754,158.013324 L973.027745,157.984836 L979.686306,154.822697 Z M902.135325,160.548732 L902.135325,171.431049 C902.135325,172.019795 902.267552,172.670265 902.532005,173.382459 C902.796458,174.094652 903.183694,174.450749 903.693711,174.450749 L903.693711,174.764114 L896.63847,174.764114 L896.63847,174.450749 C897.129598,174.450749 897.507389,174.094652 897.771842,173.382459 C898.036296,172.670265 898.168523,172.019795 898.168523,171.431049 L898.168523,165.448624 C898.168523,165.030803 898.102409,164.693698 897.970183,164.437309 C897.837956,164.180919 897.672672,163.981505 897.474332,163.839066 C897.275992,163.696628 897.077652,163.592173 896.879312,163.525701 C896.680972,163.45923 896.506244,163.425994 896.355127,163.425994 L896.156787,163.397506 L902.135325,160.548732 Z M1045.71452,154.537819 C1046.16787,154.537819 1046.7865,154.618535 1047.57042,154.779965 C1048.35434,154.941396 1049.15242,155.240517 1049.96467,155.677329 C1050.77692,156.114141 1051.46639,156.731375 1052.03307,157.529032 C1052.59976,158.326689 1052.8831,159.371239 1052.8831,160.662683 C1052.8831,162.049087 1052.5242,163.136369 1051.8064,163.92453 C1051.0886,164.71269 1050.17718,165.329925 1049.07214,165.776233 C1047.9671,166.22254 1046.79123,166.616621 1045.54452,166.958474 C1044.20336,167.319318 1042.94721,167.751382 1041.77606,168.254666 C1040.6049,168.757949 1039.70765,169.484387 1039.0843,170.433978 L1052.8831,170.433978 L1049.823,174.764114 L1037.97926,174.764114 C1037.97926,172.769973 1038.30038,171.179407 1038.94263,169.992418 C1039.58487,168.805429 1040.37823,167.85109 1041.32271,167.1294 C1042.26718,166.407711 1043.23999,165.780981 1044.24114,165.249209 C1044.97783,164.850381 1045.65786,164.432561 1046.28121,163.995749 C1046.90456,163.558937 1047.40986,163.050906 1047.79709,162.471655 C1048.18433,161.892404 1048.37795,161.165967 1048.37795,160.292343 C1048.32128,158.640054 1047.86793,157.462561 1047.0179,156.759863 C1046.22454,156.114141 1045.33673,155.79128 1044.35448,155.79128 C1044.29781,155.79128 1043.99085,155.800776 1043.43361,155.819768 C1042.87637,155.83876 1042.26718,156.133133 1041.60605,156.702888 C1042.19163,156.721879 1042.68275,156.940285 1043.07943,157.358106 C1043.47611,157.775926 1043.67445,158.279209 1043.67445,158.867956 C1043.67445,159.456702 1043.46667,159.964734 1043.0511,160.39205 C1042.63553,160.819366 1042.12551,161.033024 1041.52105,161.033024 C1040.93547,161.033024 1040.43018,160.819366 1040.00516,160.39205 C1039.58015,159.964734 1039.36764,159.456702 1039.36764,158.867956 C1039.36764,158.564087 1039.45264,158.170006 1039.62265,157.685715 C1039.79265,157.201423 1040.10433,156.721879 1040.55768,156.247084 C1041.01103,155.772288 1041.65327,155.368712 1042.48441,155.036355 C1043.31555,154.703998 1044.39226,154.537819 1045.71452,154.537819 Z M842.15161,164.679455 C842.15161,165.15425 841.93438,165.591062 841.499921,165.989891 C841.065462,166.388719 840.546,166.797043 839.941535,167.214863 C839.450407,167.537724 838.973446,167.889073 838.510652,168.26891 C838.047859,168.648746 837.665346,169.066566 837.363113,169.52237 C837.060881,169.978174 836.909764,170.500449 836.909764,171.089196 C836.909764,172.190722 837.150606,173.026362 837.632289,173.596117 C838.113972,174.165872 838.72316,174.450749 839.459852,174.450749 C840.083206,174.450749 840.687671,174.294067 841.273247,173.980701 C841.858822,173.667336 842.15161,173.130817 842.15161,172.371144 L842.15161,164.679455 Z M823.025957,160.634196 C822.648166,160.634196 822.279821,160.757643 821.920919,161.004536 L821.920919,174.108896 C822.279821,174.336798 822.648166,174.450749 823.025957,174.450749 C823.970434,174.450749 824.782684,173.776539 825.462707,172.42812 C826.14273,171.0797 826.482742,169.455899 826.482742,167.556716 C826.482742,165.638542 826.14273,164.005245 825.462707,162.656825 C824.782684,161.308405 823.970434,160.634196 823.025957,160.634196 Z M1123.54885,155.335476 C1121.05543,155.335476 1118.87369,156.25658 1117.00362,158.098787 C1115.20912,160.016961 1114.31187,162.239005 1114.31187,164.764918 C1114.31187,167.309823 1115.20912,169.550858 1117.00362,171.488024 C1118.87369,173.330231 1121.05543,174.251335 1123.54885,174.251335 C1126.00449,174.251335 1128.15789,173.330231 1130.00907,171.488024 C1131.78468,169.550858 1132.67249,167.309823 1132.67249,164.764918 C1132.67249,162.239005 1131.78468,160.016961 1130.00907,158.098787 C1128.15789,156.25658 1126.00449,155.335476 1123.54885,155.335476 Z M1123.52051,158.839468 C1124.57833,158.839468 1125.48503,159.171825 1126.24061,159.836539 C1126.99619,160.501253 1127.55343,161.365381 1127.91233,162.428923 C1127.969,162.542874 1128.00678,162.647329 1128.02567,162.742288 L1128.054,162.998678 C1128.054,163.378515 1127.92178,163.701376 1127.65732,163.967261 C1127.39287,164.233147 1127.07175,164.366089 1126.69396,164.366089 C1126.31616,164.366089 1125.99504,164.233147 1125.73059,163.967261 C1125.46614,163.701376 1125.33391,163.378515 1125.33391,162.998678 C1125.33391,162.846743 1125.3528,162.704305 1125.39058,162.571362 L1125.41891,161.859168 C1125.41891,160.871593 1125.18279,160.11192 1124.71055,159.580149 C1124.35165,159.200313 1123.95497,159.010395 1123.52051,159.010395 C1122.91605,159.010395 1122.48159,159.380735 1122.21714,160.121416 C1121.95268,160.862098 1121.79212,161.821185 1121.73545,162.998678 C1121.73545,167.024945 1122.8216,169.038079 1124.9939,169.038079 L1125.02223,169.038079 C1125.85337,169.000095 1126.52395,168.791185 1127.03397,168.411348 C1127.65522,167.938663 1128.1123,167.398451 1128.40521,166.790713 L1128.50735,166.559645 C1128.31846,167.395286 1127.969,168.192942 1127.45898,168.952615 C1126.53339,170.282043 1125.22057,170.946757 1123.52051,170.946757 C1122.08491,170.946757 1120.85709,170.353263 1119.83705,169.166274 C1118.81702,167.979284 1118.307,166.550149 1118.307,164.878869 C1118.307,163.22658 1118.81702,161.806941 1119.83705,160.619952 C1120.85709,159.432963 1122.08491,158.839468 1123.52051,158.839468 Z M926.842835,160.434781 C926.21948,160.434781 925.747242,160.767138 925.42612,161.431852 C924.934992,162.457411 924.689428,163.862806 924.689428,165.648038 C924.689428,166.863515 924.774431,167.870081 924.944437,168.667738 C926.625605,168.667738 927.806201,168.126471 928.486224,167.043937 C928.807347,166.531158 928.967908,165.809468 928.967908,164.878869 C928.967908,164.575 928.949018,164.252139 928.911239,163.910286 C928.779012,162.846743 928.55706,162.001607 928.245383,161.374877 C927.933706,160.748147 927.46619,160.434781 926.842835,160.434781 Z M1011.69717,154.415729 L1011.69717,156.42615 L1011.54875,156.42615 C1011.54875,156.143985 1011.48444,155.861821 1011.35581,155.579657 C1011.06887,154.904478 1010.51972,154.566889 1009.70837,154.566889 L1008.35777,154.566889 L1008.35777,163.288788 C1008.35777,163.792653 1008.4864,164.178109 1008.74366,164.445157 C1009.00092,164.712206 1009.26807,164.84573 1009.54511,164.84573 L1009.54511,164.996889 L1004.94416,164.996889 L1004.94416,164.84573 C1005.22121,164.84573 1005.48836,164.712206 1005.74562,164.445157 C1006.00288,164.178109 1006.13151,163.792653 1006.13151,163.288788 L1006.13151,154.566889 L1004.7809,154.566889 C1003.95966,154.566889 1003.40557,154.904478 1003.11863,155.579657 C1002.99989,155.861821 1002.94052,156.143985 1002.94052,156.42615 L1002.79211,156.42615 L1002.79211,154.415729 L1011.69717,154.415729 Z M1014.93055,154.415729 L1018.41963,160.485894 L1021.90871,154.415729 L1025.45955,154.415729 L1025.45955,154.567105 C1025.16107,154.567105 1024.88061,154.698297 1024.61815,154.960682 C1024.3557,155.223066 1024.22447,155.611597 1024.22447,156.126274 L1024.22447,163.286344 C1024.22447,163.801022 1024.3557,164.189552 1024.61815,164.451937 C1024.88061,164.714321 1025.16107,164.845514 1025.45955,164.845514 L1025.45955,164.996889 L1020.67364,164.996889 L1020.67364,164.845514 C1020.96182,164.845514 1021.23972,164.714321 1021.50731,164.451937 C1021.77491,164.189552 1021.90871,163.801022 1021.90871,163.286344 L1021.90871,154.673068 L1017.33894,162.620291 L1013.89618,156.640952 L1013.89618,163.286344 C1013.89618,163.801022 1014.02741,164.189552 1014.28986,164.451937 C1014.55231,164.714321 1014.83278,164.845514 1015.13125,164.845514 L1015.13125,164.996889 L1012.50672,164.996889 L1012.50672,164.845514 C1012.79491,164.845514 1013.06765,164.714321 1013.32496,164.451937 C1013.58227,164.189552 1013.72121,163.801022 1013.7418,163.286344 L1013.7418,156.368475 L1012.61479,154.415729 L1014.93055,154.415729 Z M900.151924,153.6547 C900.69972,153.6547 901.167236,153.854114 901.554472,154.252942 C901.941707,154.65177 902.135325,155.126566 902.135325,155.677329 C902.135325,156.228092 901.941707,156.69814 901.554472,157.087472 C901.167236,157.476805 900.69972,157.671471 900.151924,157.671471 C899.604127,157.671471 899.136611,157.476805 898.749376,157.087472 C898.36214,156.69814 898.168523,156.228092 898.168523,155.677329 C898.168523,155.126566 898.36214,154.65177 898.749376,154.252942 C899.136611,153.854114 899.604127,153.6547 900.151924,153.6547 Z M967.644228,153.6547 C968.192025,153.6547 968.659541,153.854114 969.046776,154.252942 C969.434011,154.65177 969.627629,155.126566 969.627629,155.677329 C969.627629,156.228092 969.434011,156.69814 969.046776,157.087472 C968.659541,157.476805 968.192025,157.671471 967.644228,157.671471 C967.096432,157.671471 966.628916,157.476805 966.24168,157.087472 C965.854445,156.69814 965.660827,156.228092 965.660827,155.677329 C965.660827,155.126566 965.854445,154.65177 966.24168,154.252942 C966.628916,153.854114 967.096432,153.6547 967.644228,153.6547 Z M734.533686,52.8365908 L734.533686,54.6846646 C731.637255,54.6846646 730.18904,56.3647316 730.18904,59.7248658 C730.18904,62.5249775 731.024549,65.8851117 732.695567,69.8052682 L749.071543,108.446811 L768.455352,63.0849999 C769.012358,61.6289418 769.290861,60.2848881 769.290861,59.0528389 C769.290861,58.4928166 769.17946,57.6247819 768.956658,56.448735 C768.733855,55.272688 767.174239,54.6846646 764.277807,54.6846646 L764.277807,52.8365908 L783.327413,52.8365908 L783.327413,54.6846646 C777.53455,54.6846646 773.858311,57.0927607 772.298694,61.908953 L740.549351,136.671937 L737.708621,136.671937 L710.303925,71.8213486 C705.625075,60.3968926 700.333518,54.6846646 694.429254,54.6846646 L694.429254,52.8365908 L734.533686,52.8365908 Z M821.28774,52.6738037 C827.30504,52.6738037 832.811943,53.8023565 837.808451,56.0594619 C842.804959,58.3165674 846.914989,61.5678741 850.138542,65.8133821 C853.362096,70.05889 854.973872,75.459821 854.973872,82.016175 C854.973872,90.6146721 850.138542,96.2036952 840.467882,98.7832443 C834.987842,100.287981 827.842299,101.04035 819.031253,101.04035 L810.650015,101.04035 C813.443761,115.872757 820.3744,123.288961 831.441933,123.288961 C836.169811,123.288961 840.091801,122.402241 843.207903,120.628801 C846.324004,118.855361 848.849121,116.840088 850.783253,114.582983 C852.502481,112.648321 853.791903,110.82114 854.651517,109.101441 L856.263294,105.877004 L854.812695,110.552437 C853.845629,113.669392 852.1264,117.216272 849.655009,121.193077 C847.183618,125.169882 843.664573,128.716762 839.097872,131.833718 C834.531172,134.950673 828.594461,136.50915 821.28774,136.50915 C811.294725,136.50915 802.752309,132.397994 795.660492,124.175681 C788.568675,115.953368 785.022766,106.091967 785.022766,94.591477 C785.022766,82.9835059 788.568675,73.0952343 795.660492,64.9266621 C802.752309,56.7580898 811.294725,52.6738037 821.28774,52.6738037 Z M466.363925,25.8139354 L466.363925,27.4466801 C463.332551,27.4466801 460.382374,28.9161503 457.513395,31.8550907 C454.644415,34.7940311 453.209926,39.0391672 453.209926,44.5904991 L452.39795,101.899837 C452.39795,105.709575 452.885136,109.954711 453.859506,114.635246 C456.133037,125.955609 462.899497,129.983045 472.534937,129.983045 C484.119117,129.983045 491.146151,129.594311 499.428298,123.444306 C507.710446,117.294301 510.227569,110.681685 510.227569,101.973714 C510.227569,96.1683993 510.654963,77.0406611 511.509749,44.5904991 C511.509749,39.0391672 510.07526,34.7940311 507.20628,31.8550907 C504.337301,28.9161503 501.387124,27.4466801 498.35575,27.4466801 L498.35575,25.8139354 L531.157127,25.8139354 L531.157127,27.4466801 C528.017489,27.4466801 525.040246,28.9161503 522.225399,31.8550907 C519.410551,34.7940311 518.003127,39.0391672 518.003127,44.5904991 L516.720948,101.973714 C516.720948,111.117084 513.25652,120.559791 504.703714,127.036344 C496.150908,133.512898 484.660434,134.881279 472.534937,134.881279 C463.224287,134.881279 455.293996,132.377738 448.744062,129.003399 C442.194128,125.62906 437.186947,121.383924 433.72252,116.26799 C430.258092,111.152057 428.525878,106.036124 428.525878,100.92019 L428.525878,44.5904991 C428.525878,39.0391672 427.118454,34.9756311 424.303607,32.0366907 C421.488759,29.0977503 418.511516,27.4466801 415.371879,27.4466801 L415.371879,25.8139354 L466.363925,25.8139354 Z M1123.51526,26.1395096 L1123.51526,53.1220756 L1139.74616,53.1220756 L1139.74616,56.5150929 L1123.51526,56.5150929 L1123.51526,113.388526 C1123.51526,115.865967 1123.89023,118.585766 1124.64017,121.547924 C1125.39011,124.510082 1126.48824,127.068309 1127.93456,129.222606 C1129.38088,131.376903 1131.12182,132.454051 1133.15738,132.454051 L1133.15738,134.392918 L1123.51526,134.392918 C1116.5515,134.392918 1113.28854,131.668322 1109.8268,126.892115 C1106.36505,122.115908 1105.43628,116.342915 1105.43628,109.449166 L1105.91839,58.6155322 L1105.75769,56.5150929 L1090.8124,56.5150929 L1090.8124,53.1220756 L1105.43628,53.1220756 C1104.79347,50.8600641 1103.82926,49.109698 1102.54365,47.8709774 C1101.25803,46.6322568 1099.89206,45.7436094 1098.44574,45.2050353 C1096.99943,44.6664611 1095.74059,44.3433166 1094.66925,44.2356018 L1093.22293,44.0740295 L1123.51526,26.1395096 Z M1010.43035,52.8365908 L1010.43035,71.1350868 L1008.75216,71.1350868 L1008.75216,70.674539 C1008.75216,69.9581314 1008.5996,68.8835199 1008.29448,67.4507047 C1007.17569,63.4592907 1004.50584,60.4657302 1000.28495,58.4700232 C996.064059,56.4743162 991.258344,55.4764627 985.867807,55.4764627 C983.731933,55.4764627 981.697768,55.6299786 979.765312,55.9370104 C974.374774,57.2674818 971.679506,59.4528261 971.679506,64.0583038 C971.679506,65.491119 972.16262,67.3077241 973.128848,69.508119 C974.095077,71.7085139 975.79869,73.627463 978.239688,75.2649661 L1010.73547,96.9107113 C1016.93968,101.004469 1020.04178,105.968151 1020.04178,111.801756 C1020.04178,117.737705 1016.71083,122.829316 1010.04894,127.07659 C1003.38705,131.323864 995.326674,134.230131 985.867807,134.230131 C976.714064,134.230131 969.035091,132.336768 962.830888,128.550042 C960.593306,127.219571 959.220245,126.298475 958.711704,125.786755 C957.084372,124.456284 955.863873,123.637532 955.050207,123.330501 L953.98227,123.176985 C953.677145,123.176985 953.499156,123.253743 953.448302,123.407259 C953.397447,123.560775 953.346593,123.663118 953.295739,123.71429 C953.244885,123.765462 953.219458,123.816634 953.219458,123.867806 C953.219458,123.918978 952.660063,123.944564 951.541272,123.944564 L951.541272,103.496845 L953.219458,103.496845 L953.37202,105.646068 C953.473729,107.181228 953.778853,109.023419 954.287395,111.172642 C955.609602,116.801559 957.643767,120.844145 960.38989,123.300399 C968.018009,128.826973 976.510648,131.590259 985.867807,131.590259 C988.207096,131.590259 990.495532,131.385571 992.733114,130.976196 C997.716818,129.338692 1000.20867,127.409208 1000.20867,123.622482 C1000.20867,123.213106 1000.05611,121.805877 999.750983,119.400794 C999.445858,116.995711 997.411693,114.462698 993.648488,111.801756 L961.152702,90.3095266 C954.745082,86.1134247 951.541272,81.0985712 951.541272,75.2649661 C951.541272,69.2266732 954.897644,64.1094757 961.610389,59.9133738 C968.323133,55.7172719 976.408939,52.8365908 985.867807,52.8365908 C990.749803,52.8365908 995.326674,53.4506545 999.598421,54.6787819 C1002.07332,55.1905016 1003.75151,55.4463615 1004.63298,55.4463615 C1005.85348,55.4463615 1006.84513,55.2160876 1007.60795,54.7555398 C1008.37076,54.2949921 1008.75216,53.7576863 1008.75216,53.1436226 L1008.75216,52.8365908 L1010.43035,52.8365908 Z M596.997242,52.8365908 C610.916407,52.8365908 622.755697,61.6837148 622.755697,77.1259675 L622.755697,125.704721 C622.755697,131.817279 627.7154,132.460706 628.835333,134.230131 L596.837252,134.230131 C597.957185,132.460706 602.916887,131.817279 602.916887,125.704721 L602.916887,77.1259675 C602.916887,65.8659915 595.237348,59.7534332 586.117895,59.7534332 C580.678221,59.91429 574.758576,62.4879988 569.638883,68.4397003 L569.638883,125.704721 C569.638883,131.817279 574.598585,132.460706 575.718518,134.230131 L543.720437,134.230131 C544.84037,132.460706 549.800073,131.817279 549.800073,125.704721 L549.800073,68.4397003 C549.800073,62.327142 544.84037,61.6837148 543.720437,59.91429 L569.638883,53.8017316 L569.638883,63.6139963 C577.638403,53.6408748 587.717799,52.8365908 596.997242,52.8365908 Z M920.714009,52.8365908 C922.95831,52.8365908 925.683533,53.185804 928.889677,53.8842304 C932.095821,54.5826569 934.927916,56.7585238 937.38596,58.8000779 C939.844004,60.8416321 941.073026,63.8502382 941.073026,67.8258963 C941.073026,70.4047015 940.191336,72.5805684 938.427956,74.353497 C936.664577,76.1264256 934.50043,77.0128899 931.935514,77.0128899 C929.47747,77.0128899 927.366758,76.1264256 925.603379,74.353497 C923.84,72.5805684 922.95831,70.1898011 922.95831,67.1811949 C922.95831,66.4290434 923.278924,65.1127782 923.920153,63.2323994 C924.561382,61.3520206 924.881997,60.5192814 924.881997,59.1224286 L924.881997,57.5106753 C924.881997,56.6510736 923.492667,56.2212727 920.714009,56.2212727 C914.515463,56.2212727 908.958146,57.6181255 904.042058,60.4118312 L904.042058,115.211443 C904.042058,118.64985 904.790159,122.383745 906.286359,126.413128 C907.78256,130.442511 909.91999,132.457203 912.698648,132.457203 L912.698648,134.230131 L872.782151,134.230131 L872.782151,132.457203 C875.560809,132.457203 877.698239,130.442511 879.19444,126.413128 C880.69064,122.383745 881.438741,118.64985 881.438741,115.211443 L881.438741,81.3646238 C881.438741,79.1081692 881.06469,77.2546529 880.31659,75.804075 C879.56849,74.353497 878.633364,73.1984072 877.511214,72.3388054 C876.389063,71.4792037 875.266913,70.8882275 874.144762,70.5658768 C873.022612,70.2435262 872.087486,70.0286257 871.339386,69.9211755 L870.056928,69.7600002 L904.042058,53.6424674 L904.042058,56.865974 C908.958146,54.1797185 914.515463,52.8365908 920.714009,52.8365908 Z M305.095017,25 L339.721376,113.344549 C342.091633,119.0576 345.105981,123.65401 348.764421,127.133777 C352.422861,130.613545 355.900955,132.405366 359.198703,132.509239 L359.198703,134.067344 L309.114148,134.067344 L309.114148,132.509239 C311.896624,132.509239 314.421462,131.262755 316.688664,128.769787 C318.131429,127.107809 318.852812,125.030336 318.852812,122.537368 C318.852812,121.083136 318.646703,119.525032 318.234484,117.863053 L314.369935,107.735371 L274.487789,107.735371 L269.695749,120.356021 C268.974366,122.32962 268.613675,124.095473 268.613675,125.653578 C268.613675,127.211682 269.232003,128.743819 270.468658,130.249987 C271.705314,131.756155 273.766407,132.509239 276.651937,132.509239 L276.651937,134.067344 L249.909258,134.067344 L249.909258,132.509239 C257.74141,132.197618 263.357888,128.094609 266.758691,120.20021 L304.012944,25 L305.095017,25 Z M23.5556342,25.1558105 L58.5791429,87.6358176 L93.6026516,25.1558105 L129.246045,25.1558105 L129.246045,26.7139154 C126.249934,26.7139154 123.434623,28.064273 120.800111,30.7649882 C118.165599,33.4657034 116.848343,37.4648393 116.848343,42.762396 L116.848343,116.460759 C116.848343,121.758315 118.165599,125.757451 120.800111,128.458166 C123.434623,131.158882 126.249934,132.509239 129.246045,132.509239 L129.246045,134.067344 L81.2049494,134.067344 L81.2049494,132.509239 C84.0977466,132.509239 86.8872296,131.158882 89.5733984,128.458166 C92.2595672,125.757451 93.6026516,121.758315 93.6026516,116.460759 L95.1523644,29.3626938 L49.2808663,111.163202 L15.4971278,48.0599527 L15.4971278,116.460759 C15.4971278,121.758315 16.8143836,125.757451 19.4488953,128.458166 C22.083407,131.158882 24.8987186,132.509239 27.89483,132.509239 L27.89483,134.067344 L0,134.067344 L0,132.509239 C2.89279718,132.509239 5.63062308,131.158882 8.21347771,128.458166 C10.7963323,125.757451 12.1910738,121.758315 12.3977022,116.460759 L12.3977022,45.2553639 L1.08479894,25.1558105 L23.5556342,25.1558105 Z M205.508474,25 C214.745664,25 222.633601,27.441031 229.172286,32.3230931 C235.710971,37.2051552 238.980313,43.1259538 238.980313,50.0854891 C238.980313,55.7985405 236.774804,60.8364131 232.363787,65.1991068 C227.952769,69.5618006 222.218447,72.5741368 215.160819,74.2361153 C225.02074,75.6903466 233.142202,79.1441458 239.525203,84.597513 C245.908205,90.0508802 249.099706,96.4650788 249.099706,103.840109 C249.099706,112.253875 245.051949,119.395189 236.956434,125.264051 C228.86092,131.132913 219.104787,134.067344 207.688036,134.067344 L147.905775,134.067344 L147.905775,132.509239 C150.811857,132.509239 153.614151,131.132913 156.312655,128.380261 C159.01116,125.627609 160.360413,121.654442 160.360413,116.460759 L160.360413,42.6065855 C160.360413,37.3090288 159.01116,33.3098929 156.312655,30.6091777 C153.614151,27.9084625 150.811857,26.5581049 147.905775,26.5581049 L147.905775,25 L205.508474,25 Z M1066.09903,52.8365908 L1066.09903,115.021256 C1066.09903,118.385522 1066.85461,122.102494 1068.36577,126.172171 C1069.87694,130.241848 1072.08971,132.276686 1075.0041,132.276686 L1075.0041,134.067344 L1034.68843,134.067344 L1034.68843,132.276686 C1037.49488,132.276686 1039.65368,130.241848 1041.16484,126.172171 C1042.67601,122.102494 1043.43159,118.385522 1043.43159,115.021256 L1043.43159,80.8359687 C1043.43159,78.4484248 1043.0538,76.522111 1042.29822,75.0570273 C1041.54264,73.5919436 1040.59816,72.452434 1039.46479,71.6384986 C1038.33141,70.8245632 1037.19804,70.2276773 1036.06467,69.8478407 C1034.9313,69.4680042 1033.93285,69.278086 1033.06933,69.278086 L1031.93596,69.1152989 L1066.09903,52.8365908 Z M680.428719,52.8365908 L680.428719,115.021256 C680.428719,118.385522 681.1843,122.102494 682.695463,126.172171 C684.206625,130.241848 686.419399,132.276686 689.333785,132.276686 L689.333785,134.067344 L649.018122,134.067344 L649.018122,132.276686 C651.824567,132.276686 653.983371,130.241848 655.494534,126.172171 C657.005697,122.102494 657.761278,118.385522 657.761278,115.021256 L657.761278,80.8359687 C657.761278,78.4484248 657.383487,76.522111 656.627906,75.0570273 C655.872325,73.5919436 654.927848,72.452434 653.794476,71.6384986 C652.661104,70.8245632 651.527732,70.2276773 650.39436,69.8478407 C649.260988,69.4680042 648.262541,69.278086 647.39902,69.278086 L646.265647,69.1152989 L680.428719,52.8365908 Z M197.590128,75.463995 L184.33559,75.463995 L184.33559,132.439473 L197.590128,132.439473 C205.309246,132.439473 211.911123,129.606438 217.39576,123.940369 C222.880396,118.274299 225.622714,111.45403 225.622714,103.479562 C225.622714,95.5050933 222.880396,88.711056 217.39576,83.09745 C211.911123,77.4838439 205.309246,75.463995 197.590128,75.463995 Z M295.632049,56.7434807 L275.814904,105.579605 L313.863822,105.579605 L295.632049,56.7434807 Z M821.533,55.9295453 C817.994563,55.9295453 815.313929,57.8004873 813.491098,61.5423713 C810.703239,67.3155636 809.309309,73.6233109 809.309309,83.672942 C809.309309,90.5152441 809.791824,94.577861 810.756852,99.0681217 C820.299909,99.0681217 827.001493,97.6248236 830.861606,91.5308983 C832.684437,88.6443022 833.595853,84.5816853 833.595853,79.3430478 C833.595853,77.6324722 833.488628,75.8149858 833.274177,73.8905883 C832.523599,67.903574 831.263701,64.7497004 829.494483,61.2216384 C827.725265,57.6935763 825.071437,55.9295453 821.533,55.9295453 Z M194.445111,26.6278708 L184.33559,26.6278708 L184.33559,73.0221888 L194.445111,73.0221888 C200.868869,72.3994463 206.186898,70.6350091 210.399198,66.1720211 C214.611498,61.709033 216.717648,56.3638263 216.717648,50.1364011 C216.717648,43.9089758 214.611498,38.5637692 210.399198,34.1007811 C206.186898,29.637793 200.868869,27.1468229 194.445111,26.6278708 Z M667.346367,26.1395096 C670.968532,26.1395096 674.059862,27.4487333 676.620357,30.0671808 C679.180853,32.6856283 680.461101,35.8028278 680.461101,39.4187791 C680.461101,43.0347304 679.180853,46.1207578 676.620357,48.6768614 C674.059862,51.2329649 670.968532,52.5110166 667.346367,52.5110166 C663.724203,52.5110166 660.632873,51.2329649 658.072377,48.6768614 C655.511882,46.1207578 654.231634,43.0347304 654.231634,39.4187791 C654.231634,35.8028278 655.511882,32.6856283 658.072377,30.0671808 C660.632873,27.4487333 663.724203,26.1395096 667.346367,26.1395096 Z M1052.69286,26.1395096 C1056.31502,26.1395096 1059.40635,27.4487333 1061.96685,30.0671808 C1064.52734,32.6856283 1065.80759,35.8028278 1065.80759,39.4187791 C1065.80759,43.0347304 1064.52734,46.1207578 1061.96685,48.6768614 C1059.40635,51.2329649 1056.31502,52.5110166 1052.69286,52.5110166 C1049.07069,52.5110166 1045.97936,51.2329649 1043.41887,48.6768614 C1040.85837,46.1207578 1039.57812,43.0347304 1039.57812,39.4187791 C1039.57812,35.8028278 1040.85837,32.6856283 1043.41887,30.0671808 C1045.97936,27.4487333 1049.07069,26.1395096 1052.69286,26.1395096 Z" id="MBA-University"></path>
            <path d="M1256.58865,26 C1254.24823,26 1252.12648,25.4162037 1250.2234,24.2486111 C1248.32033,23.0810185 1246.80733,21.5101852 1245.6844,19.5361111 C1244.56147,17.562037 1244,15.3712963 1244,12.9638889 C1244,10.5805556 1244.56147,8.40787037 1245.6844,6.44583333 C1246.80733,4.4837963 1248.32033,2.91898148 1250.2234,1.75138889 C1252.12648,0.583796296 1254.24823,0 1256.58865,0 C1258.90544,0 1261.00355,0.583796296 1262.88298,1.75138889 C1264.76241,2.91898148 1266.25177,4.4837963 1267.35106,6.44583333 C1268.45035,8.40787037 1269,10.5805556 1269,12.9638889 C1269,15.3712963 1268.45035,17.562037 1267.35106,19.5361111 C1266.25177,21.5101852 1264.76241,23.0810185 1262.88298,24.2486111 C1261.00355,25.4162037 1258.90544,26 1256.58865,26 Z M1256.57218,25.1875 C1259.70009,25.1875 1262.44302,24.0005648 1264.80098,21.6266943 C1267.06269,19.1304593 1268.19355,16.2426581 1268.19355,12.9632907 C1268.19355,9.70839608 1267.06269,6.84506777 1264.80098,4.37330572 C1262.44302,1.99943524 1259.70009,0.8125 1256.57218,0.8125 C1253.39616,0.8125 1250.61713,1.99943524 1248.23512,4.37330572 C1245.94934,6.84506777 1244.80645,9.70839608 1244.80645,12.9632907 C1244.80645,16.2426581 1245.94934,19.1304593 1248.23512,21.6266943 C1250.61713,24.0005648 1253.39616,25.1875 1256.57218,25.1875 Z M1256.22187,21.125 C1254.4109,21.125 1252.86203,20.3682598 1251.57528,18.8547794 C1250.28854,17.341299 1249.64516,15.5190686 1249.64516,13.3880882 C1249.64516,11.2813235 1250.28854,9.47120098 1251.57528,7.95772059 C1252.86203,6.4442402 1254.4109,5.6875 1256.22187,5.6875 C1257.55628,5.6875 1258.70006,6.11127451 1259.6532,6.95882353 C1260.60635,7.80637255 1261.3093,8.90818627 1261.76204,10.2642647 C1261.83353,10.4095588 1261.88118,10.5427451 1261.90501,10.6638235 L1261.94076,10.9907353 C1261.94076,11.475049 1261.77396,11.8867157 1261.44035,12.2257353 C1261.10675,12.5647549 1260.70167,12.7342647 1260.22509,12.7342647 C1259.74852,12.7342647 1259.34343,12.5647549 1259.00983,12.2257353 C1258.67623,11.8867157 1258.50943,11.475049 1258.50943,10.9907353 C1258.50943,10.7970098 1258.53326,10.6153922 1258.58091,10.4458824 L1258.61666,9.53779412 C1258.61666,8.27857843 1258.3188,7.30995098 1257.72308,6.63191176 C1257.27034,6.14759804 1256.76993,5.90544118 1256.22187,5.90544118 C1255.45936,5.90544118 1254.9113,6.37764706 1254.5777,7.32205882 C1254.24409,8.26647059 1254.04155,9.48936275 1253.97007,10.9907353 C1253.97007,16.1244608 1255.34021,18.6913235 1258.08051,18.6913235 L1258.11625,18.6913235 C1259.16472,18.6428922 1260.01063,18.3765196 1260.65401,17.8922059 C1261.53567,17.2141667 1262.15521,16.4271569 1262.51264,15.5311765 C1262.53647,15.5069608 1262.54839,15.4827451 1262.54839,15.4585294 L1262.54839,15.4948529 C1262.54839,15.5190686 1262.53647,15.5311765 1262.51264,15.5311765 C1262.27436,16.5966667 1261.83353,17.6137255 1261.19015,18.5823529 C1260.02255,20.277451 1258.36646,21.125 1256.22187,21.125 Z" id="Shape"></path>
        </g>
    </g>
</svg>