<?xml version="1.0" encoding="UTF-8"?>
<svg width="1080px" height="1080px" viewBox="0 0 1080 1080" version="1.1" xmlns="http://www.w3.org/2000/svg" xmlns:xlink="http://www.w3.org/1999/xlink">
    <title>light-shield-mbauniversity-2023-all-rights-reserved</title>
    <g id="light-shield-mbauniversity-2023-all-rights-reserved" stroke="none" stroke-width="1" fill="none" fill-rule="evenodd">
        <rect id="Rectangle" fill="#002967" x="0" y="0" width="1080" height="540"></rect>
        <path d="M714.665,608.35 C712.355,608.35 710.260833,607.784167 708.3825,606.6525 C706.504167,605.520833 705.010833,603.998333 703.9025,602.085 C702.794167,600.171667 702.24,598.048333 702.24,595.715 C702.24,593.405 702.794167,591.299167 703.9025,589.3975 C705.010833,587.495833 706.504167,585.979167 708.3825,584.8475 C710.260833,583.715833 712.355,583.15 714.665,583.15 C716.951667,583.15 719.0225,583.715833 720.8775,584.8475 C722.7325,585.979167 724.2025,587.495833 725.2875,589.3975 C726.3725,591.299167 726.915,593.405 726.915,595.715 C726.915,598.048333 726.3725,600.171667 725.2875,602.085 C724.2025,603.998333 722.7325,605.520833 720.8775,606.6525 C719.0225,607.784167 716.951667,608.35 714.665,608.35 Z M714.665,607.37 C717.698333,607.37 720.358333,606.238333 722.645,603.975 C724.838333,601.595 725.935,598.841667 725.935,595.715 C725.935,592.611667 724.838333,589.881667 722.645,587.525 C720.358333,585.261667 717.698333,584.13 714.665,584.13 C711.585,584.13 708.89,585.261667 706.58,587.525 C704.363333,589.881667 703.255,592.611667 703.255,595.715 C703.255,598.841667 704.363333,601.595 706.58,603.975 C708.89,606.238333 711.585,607.37 714.665,607.37 Z M714.63,603.31 C712.856667,603.31 711.34,602.580833 710.08,601.1225 C708.82,599.664167 708.19,597.908333 708.19,595.855 C708.19,593.825 708.82,592.080833 710.08,590.6225 C711.34,589.164167 712.856667,588.435 714.63,588.435 C715.936667,588.435 717.056667,588.843333 717.99,589.66 C718.923333,590.476667 719.611667,591.538333 720.055,592.845 C720.125,592.985 720.171667,593.113333 720.195,593.23 L720.23,593.545 C720.23,594.011667 720.066667,594.408333 719.74,594.735 C719.413333,595.061667 719.016667,595.225 718.55,595.225 C718.083333,595.225 717.686667,595.061667 717.36,594.735 C717.033333,594.408333 716.87,594.011667 716.87,593.545 C716.87,593.358333 716.893333,593.183333 716.94,593.02 L716.975,592.145 C716.975,590.931667 716.683333,589.998333 716.1,589.345 C715.656667,588.878333 715.166667,588.645 714.63,588.645 C713.883333,588.645 713.346667,589.1 713.02,590.01 C712.693333,590.92 712.495,592.098333 712.425,593.545 C712.425,598.491667 713.766667,600.965 716.45,600.965 L716.485,600.965 C717.511667,600.918333 718.34,600.661667 718.97,600.195 C719.833333,599.541667 720.44,598.783333 720.79,597.92 C720.813333,597.896667 720.825,597.873333 720.825,597.85 L720.825,597.885 C720.825,597.908333 720.813333,597.92 720.79,597.92 C720.556667,598.946667 720.125,599.926667 719.495,600.86 C718.351667,602.493333 716.73,603.31 714.63,603.31 Z M701,929 L583.052632,929 L583.052632,923.797595 C591.263158,923.797595 597.578947,917.885772 602,906.062124 C606.421053,894.238477 608.631579,883.439546 608.631579,873.665331 L608.631579,774.346693 C608.631579,767.410154 607.526316,761.813627 605.315789,757.557114 C603.105263,753.300601 600.342105,749.98998 597.026316,747.625251 C593.710526,745.260521 590.394737,743.526386 587.078947,742.422846 C583.763158,741.319305 580.842105,740.767535 578.315789,740.767535 L575,740.294589 L674.947368,693 L674.947368,873.665331 C674.947368,883.439546 677.157895,894.238477 681.578947,906.062124 C686,917.885772 692.473684,923.797595 701,923.797595 L701,929 Z M635,692 C624.504762,692 615.547619,688.316785 608.128571,680.950355 C600.709524,673.583924 597,664.690307 597,654.269504 C597,643.8487 600.709524,634.865248 608.128571,627.319149 C615.547619,619.77305 624.504762,616 635,616 C645.495238,616 654.452381,619.77305 661.871429,627.319149 C669.290476,634.865248 673,643.8487 673,654.269504 C673,664.690307 669.290476,673.583924 661.871429,680.950355 C654.452381,688.316785 645.495238,692 635,692 Z M505,929 L387.052632,929 L387.052632,923.797595 C395.263158,923.797595 401.578947,917.885772 406,906.062124 C410.421053,894.238477 412.631579,883.439546 412.631579,873.665331 L412.631579,774.346693 C412.631579,767.410154 411.526316,761.813627 409.315789,757.557114 C407.105263,753.300601 404.342105,749.98998 401.026316,747.625251 C397.710526,745.260521 394.394737,743.526386 391.078947,742.422846 C387.763158,741.319305 384.842105,740.767535 382.315789,740.767535 L379,740.294589 L478.947368,693 L478.947368,873.665331 C478.947368,883.439546 481.157895,894.238477 485.578947,906.062124 C490,917.885772 496.473684,923.797595 505,923.797595 L505,929 Z M440,692 C429.504762,692 420.547619,688.316785 413.128571,680.950355 C405.709524,673.583924 402,664.690307 402,654.269504 C402,643.8487 405.709524,634.865248 413.128571,627.319149 C420.547619,619.77305 429.504762,616 440,616 C450.495238,616 459.452381,619.77305 466.871429,627.319149 C474.290476,634.865248 478,643.8487 478,654.269504 C478,664.690307 474.290476,673.583924 466.871429,680.950355 C459.452381,688.316785 450.495238,692 440,692 Z" id="Shape" fill="#002967" fill-rule="nonzero"></path>
        <circle id="Oval" stroke="#002967" stroke-width="33" cx="540" cy="540" r="523.5"></circle>
        <path d="M704.433145,477 L704.433145,477.291391 C703.958569,477.291391 703.721281,477.563355 703.721281,478.107285 C703.721281,478.631788 703.861896,479.253422 704.143126,479.972185 L706.779661,486.790728 L709.864407,478.777483 C709.969868,478.524945 710.022599,478.282119 710.022599,478.049007 C710.022599,477.951876 710.000628,477.801325 709.956685,477.597351 C709.912743,477.393377 709.653484,477.291391 709.178908,477.291391 L709.178908,477 L712,477 L712,477.291391 C711.050847,477.291391 710.453233,477.718764 710.207156,478.57351 L703.141243,496.931126 C702.947897,497.436203 702.684244,497.863576 702.350282,498.213245 C701.875706,498.737748 701.339611,499 700.741996,499 C699.98619,499 699.349027,498.626049 698.830508,497.878146 C698.31199,497.130243 698.035154,496.192936 698,495.066225 L698,495.037086 C698,494.590287 698.145009,494.201766 698.435028,493.871523 C698.725047,493.54128 699.080979,493.376159 699.502825,493.376159 C699.92467,493.376159 700.280603,493.54128 700.570621,493.871523 C700.86064,494.201766 701.00565,494.590287 701.00565,495.037086 C701.00565,495.503311 700.86064,495.896689 700.570621,496.217219 C700.280603,496.537748 699.920276,496.698013 699.489642,496.698013 C699.059008,496.698013 698.843691,496.853422 698.843691,497.164238 C698.843691,497.416777 699.001883,497.717881 699.318267,498.06755 C699.740113,498.475497 700.214689,498.67947 700.741996,498.67947 C701.146265,498.67947 701.524168,498.558057 701.875706,498.315232 C702.227244,498.072406 702.508475,497.727594 702.719397,497.280795 L704.907721,491.627815 L700.557439,480.350993 C699.784055,478.311258 698.931576,477.291391 698,477.291391 L698,477 L704.433145,477 Z M835.070922,472 C836.92435,472 838.602837,472.471528 840.106383,473.414583 C841.609929,474.357639 842.801418,475.621528 843.680851,477.20625 C844.560284,478.790972 845,480.545833 845,482.470833 C845,484.415278 844.560284,486.184722 843.680851,487.779167 C842.801418,489.373611 841.609929,490.642361 840.106383,491.585417 C838.602837,492.528472 836.92435,493 835.070922,493 C833.198582,493 831.501182,492.528472 829.978723,491.585417 C828.456265,490.642361 827.245863,489.373611 826.347518,487.779167 C825.509062,486.291019 825.061886,484.650426 825.005989,482.857389 L825.004,482.767 L825.005266,482.803075 C825.082494,485.222773 826.009237,487.363214 827.785494,489.224398 C829.720679,491.074799 831.978395,492 834.558642,492 C837.099794,492 839.328189,491.074799 841.243827,489.224398 C843.081276,487.278614 844,485.02761 844,482.471386 C844,479.934237 843.081276,477.702309 841.243827,475.775602 C839.328189,473.925201 837.099794,473 834.558642,473 C831.978395,473 829.720679,473.925201 827.785494,475.775602 C826.009237,477.618539 825.082494,479.740733 825.005266,482.142184 L825.004,482.187 L825.005989,482.088102 C825.061886,480.312608 825.509062,478.685324 826.347518,477.20625 C827.245863,475.621528 828.456265,474.357639 829.978723,473.414583 C831.501182,472.471528 833.198582,472 835.070922,472 Z M567.985816,489 C568.534279,489 569.007092,489.193853 569.404255,489.58156 C569.801418,489.969267 570,490.437352 570,490.985816 C570,491.553191 569.801418,492.030733 569.404255,492.41844 C569.007092,492.806147 568.534279,493 567.985816,493 C567.437352,493 566.969267,492.806147 566.58156,492.41844 C566.193853,492.030733 566,491.553191 566,490.985816 C566,490.437352 566.193853,489.969267 566.58156,489.58156 C566.969267,489.193853 567.437352,489 567.985816,489 Z M555.581132,479 C556.426415,479 557.232075,479.191781 557.998113,479.575342 C558.764151,479.958904 559.389308,480.506849 559.873585,481.219178 C560.357862,481.931507 560.6,482.771689 560.6,483.739726 L560.6,489.493151 C560.6,490.077626 560.714465,490.707763 560.943396,491.383562 C561.172327,492.059361 561.524528,492.39726 562,492.39726 L562,492.69863 L558.962264,492.69863 C558.592453,492.69863 558.275472,492.652968 558.011321,492.561644 C557.74717,492.47032 557.531447,492.369863 557.364151,492.260274 C557.196855,492.150685 557.077987,492.050228 557.007547,491.958904 L556.901887,491.849315 C556.338365,492.196347 555.810063,492.474886 555.316981,492.684932 C554.823899,492.894977 554.216352,493 553.49434,493 C551.750943,493 550.399371,492.6621 549.439623,491.986301 C548.479874,491.310502 548,490.43379 548,489.356164 C548,488.406393 548.281761,487.648402 548.845283,487.082192 C549.408805,486.515982 550.104403,486.063927 550.932075,485.726027 C551.759748,485.388128 552.596226,485.091324 553.441509,484.835616 C554.392453,484.561644 555.206918,484.26484 555.884906,483.945205 C556.562893,483.625571 556.901887,483.182648 556.901887,482.616438 L556.901887,481.684932 C556.901887,480.205479 556.31195,479.465753 555.132075,479.465753 L554.841509,479.493151 C553.925786,479.657534 553.133333,480.041096 552.464151,480.643836 C552.886792,480.6621 553.238994,480.817352 553.520755,481.109589 C553.802516,481.401826 553.943396,481.757991 553.943396,482.178082 C553.943396,482.616438 553.798113,482.986301 553.507547,483.287671 C553.216981,483.589041 552.869182,483.739726 552.464151,483.739726 C552.041509,483.739726 551.684906,483.589041 551.39434,483.287671 C551.103774,482.986301 550.958491,482.616438 550.958491,482.178082 C550.958491,481.776256 551.099371,481.420091 551.381132,481.109589 C552.420126,479.703196 553.820126,479 555.581132,479 Z M775.513644,472 C777.078117,472 778.501605,472.472184 779.784109,473.416551 C781.066613,474.360918 782.089888,475.626565 782.853933,477.213491 C783.617978,478.800417 784,480.557719 784,482.485396 C784,484.432545 783.617978,486.199583 782.853933,487.786509 C782.089888,489.373435 781.066613,490.639082 779.784109,491.583449 C778.501605,492.527816 777.078117,493 775.513644,493 C773.930979,493 772.498395,492.527816 771.215891,491.583449 C769.933387,490.639082 768.910112,489.373435 768.146067,487.786509 C767.382022,486.199583 767,484.432545 767,482.485396 C767,480.557719 767.382022,478.800417 768.146067,477.213491 C768.910112,475.626565 769.933387,474.360918 771.215891,473.416551 C772.498395,472.472184 773.930979,472 775.513644,472 Z M498.985816,489 C499.534279,489 500.007092,489.193853 500.404255,489.58156 C500.801418,489.969267 501,490.437352 501,490.985816 C501,491.553191 500.801418,492.030733 500.404255,492.41844 C500.007092,492.806147 499.534279,493 498.985816,493 C498.437352,493 497.969267,492.806147 497.58156,492.41844 C497.193853,492.030733 497,491.553191 497,490.985816 C497,490.437352 497.193853,489.969267 497.58156,489.58156 C497.969267,489.193853 498.437352,489 498.985816,489 Z M775.513644,472.292072 C774.258427,472.292072 773.194222,473.289986 772.321027,475.285814 C771.447833,477.281641 771.011236,479.681502 771.011236,482.485396 C771.011236,485.308762 771.447833,487.718359 772.321027,489.714186 C773.194222,491.710014 774.258427,492.707928 775.513644,492.707928 C776.750669,492.707928 777.805778,491.710014 778.678973,489.714186 C779.552167,487.718359 779.988764,485.308762 779.988764,482.485396 C779.988764,479.681502 779.552167,477.281641 778.678973,475.285814 C777.805778,473.289986 776.750669,472.292072 775.513644,472.292072 Z M556.901887,483 C556.901887,483.456621 556.699371,483.876712 556.29434,484.260274 C555.889308,484.643836 555.405031,485.03653 554.841509,485.438356 C554.383648,485.748858 553.938994,486.086758 553.507547,486.452055 C553.076101,486.817352 552.719497,487.219178 552.437736,487.657534 C552.155975,488.09589 552.015094,488.598174 552.015094,489.164384 C552.015094,490.223744 552.239623,491.027397 552.688679,491.575342 C553.137736,492.123288 553.70566,492.39726 554.392453,492.39726 C554.973585,492.39726 555.537107,492.246575 556.083019,491.945205 C556.628931,491.643836 556.901887,491.127854 556.901887,490.39726 L556.901887,483 Z M536.847059,471 L536.847059,478.242344 C537.505882,477.962716 538.192157,477.822903 538.905882,477.822903 C540.589542,477.822903 542.026144,478.51731 543.215686,479.906125 C544.405229,481.29494 545,482.968043 545,484.925433 C545,486.864181 544.405229,488.527963 543.215686,489.916778 C542.026144,491.305593 540.589542,492 538.905882,492 C538.192157,492 537.505882,491.860186 536.847059,491.580559 L536.847059,492 L531.466667,492 L531.466667,491.69241 C531.960784,491.69241 532.335948,491.342876 532.592157,490.643808 C532.848366,489.94474 532.976471,489.296937 532.976471,488.700399 L532.976471,475.83755 C532.976471,475.42743 532.907843,475.096538 532.770588,474.844874 C532.633333,474.593209 532.468627,474.39281 532.276471,474.243675 C532.084314,474.094541 531.892157,473.992011 531.7,473.936085 C531.507843,473.88016 531.338562,473.842876 531.192157,473.824234 L531,473.796272 L536.847059,471 Z M432.868649,478 L432.868649,478.28 C432.374639,478.28 432.127633,478.532 432.127633,479.036 L432.127633,479.12 C432.127633,479.605333 432.270136,480.174667 432.555143,480.828 L435.348203,487.296 L439.395291,478 L443.413879,487.296 L446.71995,479.68 C446.814952,479.456 446.862454,479.241333 446.862454,479.036 C446.862454,478.924 446.843453,478.77 446.805452,478.574 C446.767451,478.378 446.501446,478.28 446.007435,478.28 L446.007435,478 L455.868649,478 L455.868649,478.28 C455.374639,478.28 455.127633,478.532 455.127633,479.036 L455.127633,479.12 C455.127633,479.605333 455.270136,480.174667 455.555143,480.828 L458.348203,487.296 L462.395291,478 L466.413879,487.296 L469.71995,479.68 C469.814952,479.456 469.862454,479.241333 469.862454,479.036 C469.862454,478.924 469.843453,478.77 469.805452,478.574 C469.767451,478.378 469.501446,478.28 469.007435,478.28 L469.007435,478 L478.868649,478 L478.868649,478.28 C478.374639,478.28 478.127633,478.532 478.127633,479.036 L478.127633,479.12 C478.127633,479.605333 478.270136,480.174667 478.555143,480.828 L481.348203,487.296 L485.395291,478 L489.413879,487.296 L492.71995,479.68 C492.814952,479.456 492.862454,479.241333 492.862454,479.036 C492.862454,478.924 492.843453,478.77 492.805452,478.574 C492.767451,478.378 492.501446,478.28 492.007435,478.28 L492.007435,478 L495,478 L495,478.28 C493.992978,478.28 493.356464,478.681333 493.090458,479.484 L487.675341,492 L487.475836,492 L483.542751,482.928 L479.609665,492 L479.410161,492 L474.707559,481.164 C473.909542,479.241333 473.007022,478.28 472,478.28 C470.992978,478.28 470.356464,478.681333 470.090458,479.484 L464.675341,492 L464.475836,492 L460.542751,482.928 L456.609665,492 L456.410161,492 L451.707559,481.164 C450.909542,479.241333 450.007022,478.28 449,478.28 C447.992978,478.28 447.356464,478.681333 447.090458,479.484 L441.675341,492 L441.475836,492 L437.542751,482.928 L433.609665,492 L433.410161,492 L428.707559,481.164 C427.909542,479.241333 427.007022,478.28 426,478.28 L426,478 L432.868649,478 Z M816,472 L810.590291,480.028169 C812.185113,480.366197 813.485437,481.079812 814.491262,482.169014 C815.497087,483.258216 816,484.516432 816,485.943662 C816,487.596244 815.315858,489.018779 813.947573,490.211268 C812.579288,491.403756 810.934628,492 809.013592,492 C807.183172,492 805.624595,491.58216 804.337864,490.746479 C803.051133,489.910798 802.280906,488.835681 802.027184,487.521127 L802,487.098592 C802,486.591549 802.172168,486.112676 802.516505,485.661972 C802.860841,485.211268 803.377346,484.985915 804.066019,484.985915 C804.627832,484.985915 805.112621,485.192488 805.520388,485.605634 C805.928155,486.018779 806.132039,486.525822 806.132039,487.126761 C806.132039,487.70892 805.928155,488.211268 805.520388,488.633803 C805.112621,489.056338 804.627832,489.267606 804.066019,489.267606 C803.776052,489.267606 803.504207,489.211268 803.250485,489.098592 C804.265372,489.887324 805.488673,490.28169 806.920388,490.28169 C807.53657,490.28169 808.216181,490.173709 808.959223,489.957746 C809.702265,489.741784 810.377346,489.323944 810.984466,488.704225 C811.591586,488.084507 811.895146,487.305164 811.895146,486.366197 C811.895146,485.408451 811.777346,484.629108 811.541748,484.028169 C811.124919,483.051643 810.526861,482.384977 809.747573,482.028169 C809.421359,481.896714 809.203883,481.830986 809.095146,481.830986 L812.873786,476.253521 L802.951456,476.253521 L805.887379,472 L816,472 Z M600.434164,478 C601.217082,478 602.004448,478.172667 602.796263,478.518 C603.588078,478.863333 604.241993,479.367333 604.758007,480.03 C605.274021,480.692667 605.532028,481.490667 605.532028,482.424 L605.532028,488.696 C605.532028,489.293333 605.656584,489.942 605.905694,490.642 C606.154804,491.342 606.519573,491.692 607,491.692 L607,492 L601.795374,492 L601.795374,480.856 C601.759786,479.157333 601.234875,478.308 600.220641,478.308 C599.259786,478.345333 598.405694,478.588 597.658363,479.036 L597.658363,488.696 C597.658363,489.293333 597.782918,489.942 598.032028,490.642 C598.281139,491.342 598.637011,491.692 599.099644,491.692 L599.099644,492 L592.453737,492 L592.453737,491.692 C592.91637,491.692 593.272242,491.342 593.521352,490.642 C593.770463,489.942 593.895018,489.293333 593.895018,488.696 L593.895018,482.816 C593.895018,482.424 593.83274,482.097333 593.708185,481.836 C593.58363,481.574667 593.427936,481.374 593.241103,481.234 C593.05427,481.094 592.867438,480.996 592.680605,480.94 C592.493772,480.884 592.329181,480.846667 592.186833,480.828 L592,480.8 L597.658363,478 L597.658363,478.7 C598.476868,478.233333 599.402135,478 600.434164,478 Z M658.559819,478 C658.939052,478 659.399549,478.060667 659.941309,478.182 C660.48307,478.303333 660.961625,478.541333 661.376975,478.896 C661.792325,479.250667 662,479.773333 662,480.464 C662,480.912 661.851016,481.29 661.553047,481.598 C661.255079,481.906 660.889391,482.06 660.455982,482.06 C660.040632,482.06 659.683973,481.906 659.386005,481.598 C659.088036,481.29 658.939052,480.874667 658.939052,480.352 C658.939052,480.221333 658.993228,479.992667 659.10158,479.666 C659.209932,479.339333 659.264108,479.054667 659.264108,478.812 L659.264108,478.532 C659.264108,478.382667 659.029345,478.308 658.559819,478.308 C657.512415,478.308 656.573363,478.550667 655.742664,479.036 L655.742664,488.696 C655.742664,489.293333 655.869074,489.942 656.121896,490.642 C656.374718,491.342 656.735892,491.692 657.205418,491.692 L657.205418,492 L650.460497,492 L650.460497,491.692 C650.930023,491.692 651.291196,491.342 651.544018,490.642 C651.79684,489.942 651.923251,489.293333 651.923251,488.696 L651.923251,482.816 C651.923251,482.424 651.860045,482.102 651.733634,481.85 C651.607223,481.598 651.44921,481.397333 651.259594,481.248 C651.069977,481.098667 650.880361,480.996 650.690745,480.94 C650.501129,480.884 650.343115,480.846667 650.216704,480.828 L650,480.8 L655.742664,478 L655.742664,478.7 C656.573363,478.233333 657.512415,478 658.559819,478 Z M625.436782,478 L625.436782,478.308617 C624.971903,478.308617 624.739464,478.589178 624.739464,479.150301 C624.739464,479.617902 624.873563,480.179025 625.141762,480.833667 L627.770115,487.286573 L630.881226,479.711423 C630.970626,479.46827 631.015326,479.243821 631.015326,479.038076 C631.015326,478.944556 630.997446,478.799599 630.961686,478.603206 C630.925926,478.406814 630.675607,478.308617 630.210728,478.308617 L630.210728,478 L633,478 L633,478.308617 C632.070243,478.308617 631.480204,478.710755 631.229885,479.51503 L626.1341,492 L625.94636,492 L621.547893,481.170341 C620.796935,479.262525 619.947637,478.308617 619,478.308617 L619,478 L625.436782,478 Z M640.108597,478 C641.122172,478 642.049774,478.188462 642.891403,478.565385 C643.733032,478.942308 644.425339,479.485256 644.968326,480.194231 C645.511312,480.903205 645.782805,481.805128 645.782805,482.9 C645.782805,484.335897 644.968326,485.269231 643.339367,485.7 C642.41629,485.951282 641.21267,486.076923 639.728507,486.076923 L638.316742,486.076923 C638.78733,488.553846 639.954751,489.792308 641.819005,489.792308 C642.615385,489.792308 643.276018,489.644231 643.800905,489.348077 C644.325792,489.051923 644.751131,488.715385 645.076923,488.338462 C645.366516,488.015385 645.58371,487.710256 645.728507,487.423077 L646,486.884615 L645.755656,487.665385 C645.59276,488.185897 645.303167,488.778205 644.886878,489.442308 C644.470588,490.10641 643.877828,490.698718 643.108597,491.219231 C642.339367,491.739744 641.339367,492 640.108597,492 C638.425339,492 636.986425,491.313462 635.791855,489.940385 C634.597285,488.567308 634,486.920513 634,485 C634,483.061538 634.597285,481.410256 635.791855,480.046154 C636.986425,478.682051 638.425339,478 640.108597,478 Z M616.552632,477.8583 L616.552632,488.684211 C616.552632,489.269906 616.675439,489.917004 616.921053,490.625506 C617.166667,491.334008 617.526316,491.688259 618,491.688259 L618,492 L611.447368,492 L611.447368,491.688259 C611.903509,491.688259 612.254386,491.334008 612.5,490.625506 C612.745614,489.917004 612.868421,489.269906 612.868421,488.684211 L612.868421,482.732794 C612.868421,482.317139 612.807018,481.981781 612.684211,481.726721 C612.561404,481.47166 612.407895,481.273279 612.223684,481.131579 C612.039474,480.989879 611.855263,480.885965 611.671053,480.819838 C611.486842,480.753711 611.324561,480.720648 611.184211,480.720648 L611,480.692308 L616.552632,477.8583 Z M673.316258,478 L673.316258,480.934615 L673.022272,480.934615 L673.022272,480.853846 C673.022272,480.728205 672.995546,480.539744 672.942094,480.288462 C672.746102,479.588462 672.278396,479.063462 671.538976,478.713462 C670.799555,478.363462 669.957684,478.188462 669.013363,478.188462 C668.639198,478.188462 668.282851,478.215385 667.944321,478.269231 C667,478.502564 666.52784,479.023077 666.52784,479.830769 C666.52784,480.082051 666.612472,480.400641 666.781737,480.786538 C666.951002,481.172436 667.249443,481.508974 667.67706,481.796154 L673.36971,485.592308 C674.45657,486.310256 675,487.180769 675,488.203846 C675,489.244872 674.416481,490.137821 673.249443,490.882692 C672.082405,491.627564 670.670379,492 669.013363,492 C667.4098,492 666.064588,491.667949 664.977728,491.003846 C664.585746,490.770513 664.345212,490.608974 664.256125,490.519231 C663.971047,490.285897 663.757238,490.142308 663.614699,490.088462 L663.427617,490.061538 C663.374165,490.061538 663.342984,490.075 663.334076,490.101923 C663.325167,490.128846 663.316258,490.146795 663.30735,490.155769 C663.298441,490.164744 663.293987,490.173718 663.293987,490.182692 C663.293987,490.191667 663.195991,490.196154 663,490.196154 L663,486.884615 L663.293987,486.884615 L663.320713,487.261538 C663.33853,487.530769 663.391982,487.853846 663.481069,488.230769 C663.712695,489.217949 664.069042,489.926923 664.550111,490.357692 C665.886414,491.326923 667.374165,491.811538 669.013363,491.811538 C669.423163,491.811538 669.824053,491.775641 670.216036,491.703846 C671.089087,491.416667 671.525612,490.941026 671.525612,490.276923 C671.525612,490.205128 671.498886,489.958333 671.445434,489.536538 C671.391982,489.114744 671.035635,488.670513 670.376392,488.203846 L664.683742,484.434615 C663.561247,483.698718 663,482.819231 663,481.796154 C663,480.737179 663.587973,479.839744 664.76392,479.103846 C665.939866,478.367949 667.356347,478 669.013363,478 C669.868597,478 670.670379,478.107692 671.418708,478.323077 L671.418708,478.296154 C671.775056,478.403846 672.069042,478.457692 672.300668,478.457692 C672.514477,478.457692 672.688196,478.417308 672.821826,478.336538 C672.955457,478.255769 673.022272,478.161538 673.022272,478.053846 L673.022272,478 L673.316258,478 Z M683.552632,477.8583 L683.552632,488.684211 C683.552632,489.269906 683.675439,489.917004 683.921053,490.625506 C684.166667,491.334008 684.526316,491.688259 685,491.688259 L685,492 L678.447368,492 L678.447368,491.688259 C678.903509,491.688259 679.254386,491.334008 679.5,490.625506 C679.745614,489.917004 679.868421,489.269906 679.868421,488.684211 L679.868421,482.732794 C679.868421,482.317139 679.807018,481.981781 679.684211,481.726721 C679.561404,481.47166 679.407895,481.273279 679.223684,481.131579 C679.039474,480.989879 678.855263,480.885965 678.671053,480.819838 C678.486842,480.753711 678.324561,480.720648 678.184211,480.720648 L678,480.692308 L683.552632,477.8583 Z M587.532028,478 L587.532028,488.696 C587.532028,489.293333 587.656584,489.942 587.905694,490.642 C588.154804,491.342 588.519573,491.692 589,491.692 L589,492 L583.768683,492 L583.768683,491.3 C582.967972,491.748 582.051601,491.981333 581.019573,492 C579.596085,491.962667 578.386121,491.533333 577.38968,490.712 C576.393238,489.890667 575.895018,488.845333 575.895018,487.576 L575.895018,482.816 C575.895018,482.106667 575.672598,481.584 575.227758,481.248 C574.907473,481.005333 574.560498,480.865333 574.186833,480.828 L574,480.8 L579.658363,478 L579.658363,489.144 C579.69395,490.842667 580.209964,491.692 581.206406,491.692 C582.185053,491.654667 583.039146,491.412 583.768683,490.964 L583.768683,482.816 C583.768683,482.405333 583.706406,482.074 583.581851,481.822 C583.457295,481.57 583.301601,481.374 583.114769,481.234 C582.927936,481.094 582.741103,480.991333 582.55427,480.926 C582.367438,480.860667 582.211744,480.828 582.087189,480.828 L581.873665,480.8 L587.532028,478 Z M794.26616,472 C794.692015,472 795.273131,472.079812 796.009506,472.239437 C796.745881,472.399061 797.495564,472.694836 798.258555,473.126761 C799.021546,473.558685 799.669202,474.169014 800.201521,474.957746 C800.73384,475.746479 801,476.779343 801,478.056338 C801,479.42723 800.662864,480.502347 799.988593,481.28169 C799.314322,482.061033 798.458175,482.671362 797.420152,483.112676 C796.382129,483.553991 795.277567,483.943662 794.106464,484.28169 C792.846641,484.638498 791.666667,485.065728 790.56654,485.56338 C789.466413,486.061033 788.623574,486.779343 788.038023,487.71831 L801,487.71831 L798.125475,492 L787,492 C787,490.028169 787.301648,488.455399 787.904943,487.28169 C788.508238,486.107981 789.253485,485.164319 790.140684,484.450704 C791.027883,483.737089 791.941698,483.117371 792.882129,482.591549 C793.574144,482.197183 794.212928,481.784038 794.798479,481.352113 C795.38403,480.920188 795.858682,480.41784 796.222433,479.84507 C796.586185,479.2723 796.768061,478.553991 796.768061,477.690141 C796.714829,476.056338 796.288973,474.892019 795.490494,474.197183 C794.745247,473.558685 793.91128,473.239437 792.988593,473.239437 C792.935361,473.239437 792.647022,473.248826 792.123574,473.267606 C791.600127,473.286385 791.027883,473.577465 790.406844,474.140845 C790.956907,474.159624 791.418251,474.375587 791.790875,474.788732 C792.163498,475.201878 792.34981,475.699531 792.34981,476.28169 C792.34981,476.86385 792.154626,477.366197 791.764259,477.788732 C791.373891,478.211268 790.894804,478.422535 790.326996,478.422535 C789.776933,478.422535 789.302281,478.211268 788.903042,477.788732 C788.503802,477.366197 788.304183,476.86385 788.304183,476.28169 C788.304183,475.981221 788.38403,475.591549 788.543726,475.112676 C788.703422,474.633803 788.996198,474.159624 789.422053,473.690141 C789.847909,473.220657 790.451204,472.821596 791.231939,472.492958 C792.012674,472.164319 793.024081,472 794.26616,472 Z M521.110852,478 C521.988331,478 522.837806,478.182 523.659277,478.546 C524.480747,478.91 525.157526,479.428 525.689615,480.1 C526.221704,480.772 526.487748,481.546667 526.487748,482.424 L526.487748,488.696 C526.487748,489.293333 526.618436,489.942 526.879813,490.642 C527.14119,491.342 527.514586,491.692 528,491.692 L528,492 L522.53909,492 L522.53909,480.856 C522.50175,479.157333 521.950992,478.308 520.886814,478.308 C519.355893,478.382667 518.123687,478.886667 517.190198,479.82 C517.86231,480.585333 518.198366,481.453333 518.198366,482.424 L518.198366,488.696 C518.198366,489.293333 518.329055,489.942 518.590432,490.642 C518.851809,491.342 519.234539,491.692 519.738623,491.692 L519.738623,492 L514.277713,492 L514.277713,480.856 C514.240373,479.157333 513.689615,478.308 512.625438,478.308 C511.61727,478.345333 510.72112,478.588 509.936989,479.036 L509.936989,488.696 C509.936989,489.293333 510.067678,489.942 510.329055,490.642 C510.590432,491.342 510.963827,491.692 511.449242,491.692 L511.449242,492 L504.476079,492 L504.476079,491.692 C504.961494,491.692 505.334889,491.342 505.596266,490.642 C505.857643,489.942 505.988331,489.293333 505.988331,488.696 L505.988331,482.816 C505.988331,482.424 505.922987,482.097333 505.792299,481.836 C505.66161,481.574667 505.49825,481.374 505.302217,481.234 C505.106184,481.094 504.910152,480.996 504.714119,480.94 C504.518086,480.884 504.345391,480.846667 504.196033,480.828 L504,480.8 L509.936989,478 L509.936989,478.7 C510.795799,478.233333 511.766628,478 512.849475,478 C514.492415,478 515.864644,478.532 516.966161,479.596 C518.067678,478.532 519.449242,478 521.110852,478 Z M758.26616,472 C758.692015,472 759.273131,472.079812 760.009506,472.239437 C760.745881,472.399061 761.495564,472.694836 762.258555,473.126761 C763.021546,473.558685 763.669202,474.169014 764.201521,474.957746 C764.73384,475.746479 765,476.779343 765,478.056338 C765,479.42723 764.662864,480.502347 763.988593,481.28169 C763.314322,482.061033 762.458175,482.671362 761.420152,483.112676 C760.382129,483.553991 759.277567,483.943662 758.106464,484.28169 C756.846641,484.638498 755.666667,485.065728 754.56654,485.56338 C753.466413,486.061033 752.623574,486.779343 752.038023,487.71831 L765,487.71831 L762.125475,492 L751,492 C751,490.028169 751.301648,488.455399 751.904943,487.28169 C752.508238,486.107981 753.253485,485.164319 754.140684,484.450704 C755.027883,483.737089 755.941698,483.117371 756.882129,482.591549 C757.574144,482.197183 758.212928,481.784038 758.798479,481.352113 C759.38403,480.920188 759.858682,480.41784 760.222433,479.84507 C760.586185,479.2723 760.768061,478.553991 760.768061,477.690141 C760.714829,476.056338 760.288973,474.892019 759.490494,474.197183 C758.745247,473.558685 757.91128,473.239437 756.988593,473.239437 C756.935361,473.239437 756.647022,473.248826 756.123574,473.267606 C755.600127,473.286385 755.027883,473.577465 754.406844,474.140845 C754.956907,474.159624 755.418251,474.375587 755.790875,474.788732 C756.163498,475.201878 756.34981,475.699531 756.34981,476.28169 C756.34981,476.86385 756.154626,477.366197 755.764259,477.788732 C755.373891,478.211268 754.894804,478.422535 754.326996,478.422535 C753.776933,478.422535 753.302281,478.211268 752.903042,477.788732 C752.503802,477.366197 752.304183,476.86385 752.304183,476.28169 C752.304183,475.981221 752.38403,475.591549 752.543726,475.112676 C752.703422,474.633803 752.996198,474.159624 753.422053,473.690141 C753.847909,473.220657 754.451204,472.821596 755.231939,472.492958 C756.012674,472.164319 757.024081,472 758.26616,472 Z M693.122507,472 L693.122507,476.771429 L696,476.771429 L696,477.085714 L693.122507,477.085714 L693.122507,488.285714 C693.122507,488.72381 693.188984,489.204762 693.321937,489.728571 C693.454891,490.252381 693.649573,490.704762 693.905983,491.085714 C694.162393,491.466667 694.471035,491.657143 694.831909,491.657143 L694.831909,492 L693.122507,492 C691.887939,492 690.838557,491.561905 689.974359,490.685714 C689.110161,489.809524 688.678063,488.761905 688.678063,487.542857 L688.678063,477.457143 L688.649573,477.085714 L686,477.085714 L686,476.771429 L688.592593,476.771429 C688.478632,476.371429 688.307692,476.061905 688.079772,475.842857 C687.851852,475.62381 687.609687,475.466667 687.353276,475.371429 C687.096866,475.27619 686.873694,475.219048 686.683761,475.2 L686.42735,475.171429 L693.122507,472 Z M898.078273,372.458515 L898.078273,374.052402 C895.198165,374.052402 893.758111,375.540029 893.758111,378.515284 C893.758111,381.384279 894.611476,384.784571 896.318207,388.716157 L910.718749,426.0131 L929.439453,382.181223 C930.079477,380.799854 930.399489,379.471616 930.399489,378.196507 C930.399489,377.665211 930.26615,376.841703 929.999474,375.725983 C929.732797,374.610262 928.159404,374.052402 925.279296,374.052402 L925.279296,372.458515 L944,372.458515 L944,374.052402 C938.239783,374.052402 934.61298,376.390102 933.119591,381.065502 C919.495769,414.105888 909.277903,438.753354 902.465992,455.007899 C899.92644,461.067764 896.117112,469.891914 891.038009,481.480349 C889.864631,484.243086 888.264571,486.580786 886.237828,488.49345 C883.35772,491.362445 879.304234,492 875.677431,492 C871.090592,492 867.22378,489.954512 864.076995,485.863537 C860.93021,481.772562 859.250147,476.64556 859.036805,470.482533 L859.036805,470.323144 C859.036805,467.879185 859.916838,465.754003 861.676905,463.947598 C863.436971,462.141194 866.397082,460.441048 868.957178,460.441048 C871.517275,460.441048 873.677356,461.34425 875.437422,463.150655 C877.197488,464.95706 878.077521,467.082242 878.077521,469.526201 C878.077521,472.076419 877.197488,474.228166 875.437422,475.981441 C873.677356,477.734716 871.490607,478.611354 868.877175,478.611354 C866.263744,478.611354 865.757058,480.25837 865.757058,481.958515 C865.757058,483.339884 866.717094,484.189956 868.637166,486.10262 C871.197263,488.334061 873.277341,489.449782 876.477461,489.449782 C878.930887,489.449782 880.424276,489.582606 882.55769,488.254367 C884.691103,486.926128 886.397834,485.040029 887.677882,482.59607 L900.958382,452.471616 L874.557389,390.78821 C869.863879,379.631004 864.690351,374.052402 859.036805,374.052402 L859.036805,372.458515 L898.078273,372.458515 Z M537.917647,478.130493 C537.551634,478.130493 537.194771,478.251664 536.847059,478.494008 L536.847059,491.356858 C537.194771,491.580559 537.551634,491.69241 537.917647,491.69241 C538.83268,491.69241 539.619608,491.030626 540.278431,489.707057 C540.937255,488.383489 541.266667,486.789614 541.266667,484.925433 C541.266667,483.04261 540.937255,481.439414 540.278431,480.115846 C539.619608,478.792277 538.83268,478.130493 537.917647,478.130493 Z M835.096953,477 C836.131117,477 837.017544,477.329412 837.756233,477.988235 C838.494922,478.647059 839.039705,479.503529 839.390582,480.557647 C839.445983,480.670588 839.482918,480.774118 839.501385,480.868235 L839.529086,481.122353 C839.529086,481.498824 839.399815,481.818824 839.141274,482.082353 C838.882733,482.345882 838.56879,482.477647 838.199446,482.477647 C837.830102,482.477647 837.516159,482.345882 837.257618,482.082353 C836.999077,481.818824 836.869806,481.498824 836.869806,481.122353 C836.869806,480.971765 836.888273,480.830588 836.925208,480.698824 L836.952909,479.992941 C836.952909,479.014118 836.722068,478.261176 836.260388,477.734118 C835.909511,477.357647 835.521699,477.169412 835.096953,477.169412 C834.506002,477.169412 834.081256,477.536471 833.822715,478.270588 C833.564174,479.004706 833.407202,479.955294 833.351801,481.122353 C833.351801,485.112941 834.413666,487.108235 836.537396,487.108235 L836.565097,487.108235 C837.377655,487.070588 838.033241,486.863529 838.531856,486.487059 C839.139222,486.018562 839.586083,485.483137 839.872439,484.880784 L839.972299,484.651765 C839.787627,485.48 839.445983,486.270588 838.947368,487.023529 C838.042475,488.341176 836.759003,489 835.096953,489 C833.693444,489 832.493075,488.411765 831.495845,487.235294 C830.498615,486.058824 830,484.642353 830,482.985882 C830,481.348235 830.498615,479.941176 831.495845,478.764706 C832.493075,477.588235 833.693444,477 835.096953,477 Z M640.108597,478.188462 C639.511312,478.188462 639.058824,478.502564 638.751131,479.130769 C638.280543,480.1 638.045249,481.428205 638.045249,483.115385 C638.045249,484.264103 638.126697,485.215385 638.289593,485.969231 C639.900452,485.969231 641.031674,485.457692 641.683258,484.434615 C641.99095,483.95 642.144796,483.267949 642.144796,482.388462 C642.144796,482.101282 642.126697,481.796154 642.090498,481.473077 C641.963801,480.467949 641.751131,479.669231 641.452489,479.076923 C641.153846,478.484615 640.705882,478.188462 640.108597,478.188462 Z M724.035714,473 L724.035714,474.9 L723.885119,474.9 C723.885119,474.633333 723.819861,474.366667 723.689345,474.1 C723.398194,473.461905 722.840992,473.142857 722.017738,473.142857 L720.647321,473.142857 L720.647321,481.385714 C720.647321,481.861905 720.777837,482.22619 721.038869,482.478571 C721.299901,482.730952 721.570972,482.857143 721.852083,482.857143 L721.852083,483 L717.183631,483 L717.183631,482.857143 C717.464742,482.857143 717.735813,482.730952 717.996845,482.478571 C718.257877,482.22619 718.388393,481.861905 718.388393,481.385714 L718.388393,473.142857 L717.017976,473.142857 C716.184683,473.142857 715.62246,473.461905 715.33131,474.1 C715.210833,474.366667 715.150595,474.633333 715.150595,474.9 L715,474.9 L715,473 L724.035714,473 Z M727.316533,473 L730.856802,478.736767 L734.397071,473 L738,473 L738,473.143062 C737.697145,473.143062 737.412566,473.267048 737.146263,473.515021 C736.879959,473.762995 736.746807,474.130186 736.746807,474.616595 L736.746807,481.383405 C736.746807,481.869814 736.879959,482.237005 737.146263,482.484979 C737.412566,482.732952 737.697145,482.856938 738,482.856938 L738,483 L733.143879,483 L733.143879,482.856938 C733.43629,482.856938 733.718259,482.732952 733.989784,482.484979 C734.261309,482.237005 734.397071,481.869814 734.397071,481.383405 L734.397071,473.243205 L729.760259,480.753934 L726.266985,475.103004 L726.266985,481.383405 C726.266985,481.869814 726.400136,482.237005 726.66644,482.484979 C726.932743,482.732952 727.217322,482.856938 727.520177,482.856938 L727.520177,483 L724.857143,483 L724.857143,482.856938 C725.149554,482.856938 725.426301,482.732952 725.687383,482.484979 C725.948465,482.237005 726.089449,481.869814 726.110335,481.383405 L726.110335,474.845494 L724.966797,473 L727.316533,473 Z M681.710526,471 C682.219298,471 682.653509,471.198381 683.013158,471.595142 C683.372807,471.991903 683.552632,472.464238 683.552632,473.012146 C683.552632,473.560054 683.372807,474.027665 683.013158,474.41498 C682.653509,474.802294 682.219298,474.995951 681.710526,474.995951 C681.201754,474.995951 680.767544,474.802294 680.407895,474.41498 C680.048246,474.027665 679.868421,473.560054 679.868421,473.012146 C679.868421,472.464238 680.048246,471.991903 680.407895,471.595142 C680.767544,471.198381 681.201754,471 681.710526,471 Z M614.710526,471 C615.219298,471 615.653509,471.198381 616.013158,471.595142 C616.372807,471.991903 616.552632,472.464238 616.552632,473.012146 C616.552632,473.560054 616.372807,474.027665 616.013158,474.41498 C615.653509,474.802294 615.219298,474.995951 614.710526,474.995951 C614.201754,474.995951 613.767544,474.802294 613.407895,474.41498 C613.048246,474.027665 612.868421,473.560054 612.868421,473.012146 C612.868421,472.464238 613.048246,471.991903 613.407895,471.595142 C613.767544,471.198381 614.201754,471 614.710526,471 Z M450.408054,372.458515 L450.408054,374.268008 C447.545688,374.268008 446.114505,375.913001 446.114505,379.202987 C446.114505,381.944642 446.940188,385.234628 448.591553,389.072945 L464.774927,426.907785 L483.930757,382.492973 C484.481212,381.067312 484.756439,379.751318 484.756439,378.54499 C484.756439,377.996659 484.646348,377.146745 484.426166,375.99525 C484.205985,374.843755 482.664711,374.268008 479.802345,374.268008 L479.802345,372.458515 L498.627903,372.458515 L498.627903,374.268008 C492.903172,374.268008 489.27017,376.625831 487.728896,381.341478 L456.352967,454.543668 L453.545647,454.543668 L426.463266,391.046937 C421.839444,379.860984 416.610123,374.268008 410.775301,374.268008 L410.775301,372.458515 L450.408054,372.458515 Z M536.141768,372.299127 C542.088296,372.299127 547.530432,373.404119 552.468174,375.614104 C557.405916,377.824089 561.467607,381.007519 564.653248,385.164396 C567.838888,389.321272 569.431708,394.60945 569.431708,401.02893 C569.431708,409.44792 564.653248,414.920264 555.096327,417.445961 C549.680739,418.919284 542.619237,419.655946 533.91182,419.655946 L525.629156,419.655946 C528.390044,434.178703 535.23917,441.440082 546.176535,441.440082 C550.848807,441.440082 554.724669,440.571874 557.804121,438.835457 C560.883573,437.099041 563.378991,435.12584 565.290376,432.915855 C566.989384,431.021582 568.26364,429.232547 569.113144,427.548749 L570.705964,424.391627 L569.272426,428.969453 C568.316734,432.021337 566.617726,435.494171 564.175401,439.387953 C561.733077,443.281736 558.25542,446.75457 553.74243,449.806454 C549.22944,452.858338 543.362553,454.384279 536.141768,454.384279 C526.266284,454.384279 517.824337,450.35895 510.815929,442.308291 C503.807521,434.257631 500.303317,424.602102 500.303317,413.341703 C500.303317,401.976067 503.807521,392.294228 510.815929,384.296187 C517.824337,376.298147 526.266284,372.299127 536.141768,372.299127 Z M185.392314,346 L185.392314,347.598659 C182.396593,347.598659 179.481114,349.037451 176.645877,351.915037 C173.810641,354.792622 172.393023,358.949134 172.393023,364.384574 L171.590597,420.49749 C171.590597,424.227693 172.072053,428.384205 173.034963,432.967027 C175.281754,444.051059 181.968632,447.994417 191.490747,447.994417 C202.938682,447.994417 209.883069,447.613798 218.067808,441.592184 C226.252547,435.57057 228.740065,429.096003 228.740065,420.569824 L228.740572,420.213124 C228.757129,414.13135 229.179327,395.521834 230.007165,364.384574 C230.007165,358.949134 228.589547,354.792622 225.754311,351.915037 C222.919074,349.037451 220.003595,347.598659 217.007874,347.598659 L217.007874,346 L249.423464,346 L249.423464,347.598659 C246.320753,347.598659 243.378526,349.037451 240.596785,351.915037 C237.815044,354.792622 236.424173,358.949134 236.424173,364.384574 L235.157073,420.569824 C235.157073,429.522312 231.733392,438.767887 223.281178,445.109233 C214.828964,451.450579 203.473633,452.790393 191.490747,452.790393 C182.289602,452.790393 174.452581,450.339117 167.979683,447.035222 C161.506785,443.731328 156.558495,439.574815 153.134814,434.565685 C149.711132,429.556555 147.999291,424.547425 147.999291,419.538295 L147.999291,364.384574 C147.999291,358.949134 146.608421,354.970431 143.826679,352.092846 C141.044938,349.21526 138.102711,347.598659 135,347.598659 L135,346 L185.392314,346 Z M834.814701,346.318777 L834.814701,372.73804 L850.854707,372.73804 L850.854707,376.060223 L834.814701,376.060223 L834.814701,431.746334 C834.814701,434.172055 835.185262,436.835074 835.926384,439.735392 C836.667506,442.635711 837.752721,445.140531 839.182029,447.249853 C840.611336,449.359176 842.331799,450.413837 844.343417,450.413837 L844.343417,452.312227 L834.814701,452.312227 C827.93285,452.312227 824.708266,449.644511 821.287235,444.968014 C817.866204,440.291518 816.948357,434.639046 816.948357,427.889214 L817.424793,378.116812 L817.265981,376.060223 L802.49647,376.060223 L802.49647,372.73804 L816.948357,372.73804 C816.313109,370.523252 815.360238,368.809427 814.089742,367.596567 C812.819247,366.383706 811.469345,365.513611 810.040038,364.98628 C808.61073,364.45895 807.366703,364.142551 806.307957,364.037085 L804.87865,363.878886 L834.814701,346.318777 Z M314.489215,372.458515 C328.244673,372.458515 339.944718,381.120942 339.944718,396.240813 L339.944718,443.805409 C339.944718,449.790358 344.846088,450.420353 345.952849,452.152838 L314.331106,452.152838 C315.437867,450.420353 320.339238,449.790358 320.339238,443.805409 L320.339238,396.240813 C320.339238,385.215907 312.750019,379.230958 303.737823,379.230958 C298.362127,379.388456 292.512104,381.908435 287.452625,387.735886 L287.452625,443.805409 C287.452625,449.790358 292.353996,450.420353 293.460757,452.152838 L261.839014,452.152838 C262.945775,450.420353 267.847145,449.790358 267.847145,443.805409 L267.847145,387.735886 C267.847145,381.750936 262.945775,381.120942 261.839014,379.388456 L287.452625,373.403507 L287.452625,383.010926 C295.358061,373.246009 305.31891,372.458515 314.489215,372.458515 Z M723.059816,372.458515 L723.059816,390.375002 L721.401368,390.375002 L721.401368,389.924068 C721.401368,389.222617 721.2506,388.17044 720.949064,386.767537 C719.843431,382.85945 717.204991,379.928384 713.033741,377.974341 C708.862492,376.020297 704.113299,375.043276 698.786161,375.043276 C696.675408,375.043276 694.665168,375.193587 692.755439,375.494209 C687.428301,376.796904 684.764733,378.936626 684.764733,383.445957 C684.764733,384.84886 685.242165,386.627541 686.197029,388.781999 C687.151893,390.936458 688.83547,392.815346 691.247759,394.418663 L723.361353,415.61252 C729.492586,419.620814 732.558203,424.480871 732.558203,430.19269 C732.558203,436.004717 729.266434,440.990033 722.682896,445.148639 C716.099358,449.307244 708.13378,452.152838 698.786161,452.152838 C689.740078,452.152838 682.15142,450.299002 676.020186,446.59133 L675.723945,446.416174 L675.163238,446.080769 C673.454741,445.050124 672.383478,444.318445 671.949449,443.885731 C670.341256,442.583036 669.135112,441.781377 668.331015,441.480755 L667.275639,441.330444 C666.974103,441.330444 666.798207,441.405599 666.747951,441.55591 C666.697695,441.706221 666.647439,441.806429 666.597183,441.856532 C666.546927,441.906636 666.521799,441.95674 666.521799,442.006843 C666.521799,442.056947 665.968983,442.081999 664.86335,442.081999 L664.86335,422.061158 L666.521799,422.061158 L666.672567,424.165513 C666.773079,425.668623 667.074615,427.472355 667.577175,429.57671 C668.883832,435.088115 670.894072,439.046305 673.607897,441.451282 C681.146299,446.862479 689.539054,449.568078 698.786161,449.568078 C701.097938,449.568078 703.359458,449.367663 705.570723,448.966834 C710.495813,447.363516 712.958357,445.474313 712.958357,441.76664 C712.958357,441.365811 712.807589,439.98796 712.506053,437.633087 C712.204517,435.278214 710.194276,432.798082 706.475331,430.19269 L674.361737,409.149145 C668.029479,405.040643 664.86335,400.130483 664.86335,394.418663 C664.86335,388.506429 668.180247,383.496061 674.814041,379.387559 C681.447836,375.279058 689.438542,372.458515 698.786161,372.458515 C703.610738,372.458515 708.13378,373.059759 712.355285,374.262248 C714.801078,374.763285 716.459526,375.013803 717.330631,375.013803 C718.536775,375.013803 719.516767,374.788336 720.270608,374.337403 C721.024448,373.88647 721.401368,373.360382 721.401368,372.759137 L721.401368,372.458515 L723.059816,372.458515 Z M634.398656,372.458515 C636.616561,372.458515 639.309731,372.800438 642.478167,373.484284 C645.646603,374.168129 648.445389,376.298572 650.874523,378.297505 C653.303657,380.296439 654.518224,383.242236 654.518224,387.134896 C654.518224,389.659864 653.646904,391.790307 651.904264,393.526222 C650.161625,395.262138 648.02293,396.130096 645.488182,396.130096 C643.059047,396.130096 640.97316,395.262138 639.230521,393.526222 C637.487881,391.790307 636.616561,389.44945 636.616561,386.503653 C636.616561,385.767204 636.933405,384.478418 637.567092,382.637295 C638.200779,380.796172 638.517622,379.980818 638.517622,378.613126 L638.517622,377.035021 C638.517622,376.193365 637.144634,375.772537 634.398656,375.772537 C628.273013,375.772537 622.781057,377.140228 617.922789,379.875611 L617.922789,433.531195 C617.922789,436.897819 618.66209,440.553764 620.140694,444.499027 C621.619297,448.444291 623.731588,450.416922 626.477566,450.416922 L626.477566,452.152838 L587.030538,452.152838 L587.030538,450.416922 C589.776516,450.416922 591.888806,448.444291 593.36741,444.499027 C594.846013,440.553764 595.585315,436.897819 595.585315,433.531195 L595.585315,400.390981 C595.585315,398.181633 595.215664,396.366812 594.476363,394.946517 C593.737061,393.526222 592.812934,392.395247 591.703981,391.553591 C590.595028,390.711935 589.486076,390.133296 588.377123,389.817675 C587.268171,389.502054 586.344044,389.29164 585.604742,389.186433 L584.337367,389.028622 L617.922789,373.247568 L617.922789,376.403779 C622.781057,373.773603 628.273013,372.458515 634.398656,372.458515 Z M396.93943,372.458515 L396.93943,433.344978 C396.93943,436.63901 397.686125,440.278384 399.179514,444.2631 C400.672904,448.247817 402.859653,450.240175 405.739761,450.240175 L405.739761,451.99345 L365.898263,451.99345 L365.898263,450.240175 C368.6717,450.240175 370.805114,448.247817 372.298503,444.2631 C373.791893,440.278384 374.538588,436.63901 374.538588,433.344978 L374.538588,399.873362 C374.538588,397.535662 374.16524,395.649563 373.418546,394.215066 C372.671851,392.780568 371.738482,391.664847 370.61844,390.867904 C369.498398,390.070961 368.378356,389.486536 367.258314,389.114629 C366.138272,388.742722 365.151568,388.556769 364.298203,388.556769 L363.178161,388.39738 L396.93943,372.458515 Z M778.073761,372.458515 L778.073761,433.344978 C778.073761,436.63901 778.820456,440.278384 780.313845,444.2631 C781.807235,448.247817 783.993984,450.240175 786.874092,450.240175 L786.874092,451.99345 L747.032594,451.99345 L747.032594,450.240175 C749.806031,450.240175 751.939445,448.247817 753.432834,444.2631 C754.926224,440.278384 755.672919,436.63901 755.672919,433.344978 L755.672919,399.873362 C755.672919,397.535662 755.299571,395.649563 754.552877,394.215066 C753.806182,392.780568 752.872813,391.664847 751.752771,390.867904 C750.632729,390.070961 749.512687,389.486536 748.392645,389.114629 C747.272603,388.742722 746.285899,388.556769 745.432534,388.556769 L744.312492,388.39738 L778.073761,372.458515 Z M536.384143,375.4869 C532.887323,375.4869 530.238217,377.318783 528.436825,380.982549 C525.681754,386.635217 524.304219,392.81128 524.304219,402.65111 C524.304219,409.350568 524.781058,413.328371 525.734736,417.724891 C535.165555,417.724891 541.78832,416.311724 545.603033,410.345019 C547.404425,407.518685 548.305122,403.540881 548.305122,398.411609 C548.305122,396.736744 548.199157,394.9572 547.987229,393.072978 C547.245479,387.210952 546.000399,384.12292 544.251989,380.668512 C542.503579,377.214104 539.880964,375.4869 536.384143,375.4869 Z M384.010944,346.318777 C387.590507,346.318777 390.645479,347.600669 393.17586,350.164452 C395.706241,352.728236 396.971431,355.780359 396.971431,359.320821 C396.971431,362.861284 395.706241,365.882886 393.17586,368.385627 C390.645479,370.888368 387.590507,372.139738 384.010944,372.139738 C380.431381,372.139738 377.376409,370.888368 374.846028,368.385627 C372.315647,365.882886 371.050457,362.861284 371.050457,359.320821 C371.050457,355.780359 372.315647,352.728236 374.846028,350.164452 C377.376409,347.600669 380.431381,346.318777 384.010944,346.318777 Z M764.825263,346.318777 C768.404826,346.318777 771.459798,347.600669 773.990179,350.164452 C776.52056,352.728236 777.78575,355.780359 777.78575,359.320821 C777.78575,362.861284 776.52056,365.882886 773.990179,368.385627 C771.459798,370.888368 768.404826,372.139738 764.825263,372.139738 C761.2457,372.139738 758.190728,370.888368 755.660347,368.385627 C753.129966,365.882886 751.864776,362.861284 751.864776,359.320821 C751.864776,355.780359 753.129966,352.728236 755.660347,350.164452 C758.190728,347.600669 761.2457,346.318777 764.825263,346.318777 Z M429.282857,296 L319.897143,296 L319.897143,292.471429 C326.48381,292.471429 332.835238,289.413333 338.951429,283.297143 C345.067619,277.180952 348.125714,268.124286 348.125714,256.127143 L351.654286,58.88 L247.208571,244.13 L170.285714,101.222857 L170.285714,256.127143 C170.285714,268.124286 173.285,277.180952 179.283571,283.297143 C185.282143,289.413333 191.692381,292.471429 198.514286,292.471429 L198.514286,296 L135,296 L135,292.471429 C141.586667,292.471429 147.820476,289.413333 153.701429,283.297143 C159.582381,277.180952 162.758095,268.124286 163.228571,256.127143 L163.228571,94.8714286 L137.47,49.3528571 L188.634286,49.3528571 L268.38,190.848571 L348.125714,49.3528571 L429.282857,49.3528571 L429.282857,52.8814286 C422.460952,52.8814286 416.050714,55.9395238 410.052143,62.0557143 C404.053571,68.1719048 401.054286,77.2285714 401.054286,89.2257143 L401.054286,256.127143 C401.054286,268.124286 404.053571,277.180952 410.052143,283.297143 C416.050714,289.413333 422.460952,292.471429 429.282857,292.471429 L429.282857,296 Z M599.577819,296 L463.700896,296 L463.700896,292.471429 C470.306024,292.471429 476.675255,289.354524 482.808588,283.120714 C488.941921,276.886905 492.008588,267.889048 492.008588,256.127143 L492.008588,88.8728571 C492.008588,76.8757143 488.941921,67.8190476 482.808588,61.7028571 C476.675255,55.5866667 470.306024,52.5285714 463.700896,52.5285714 L463.700896,49 L594.623973,49 C615.618844,49 633.54705,54.5280952 648.408588,65.5842857 C663.270126,76.6404762 670.700896,90.0490476 670.700896,105.81 C670.700896,118.748095 665.688075,130.157143 655.662434,140.037143 C645.636793,149.917143 632.60346,156.739048 616.562434,160.502857 C638.972691,163.79619 657.431665,171.617857 671.939357,183.967857 C686.44705,196.317857 693.700896,210.84381 693.700896,227.545714 C693.700896,246.6 684.500896,262.772619 666.100896,276.063571 C647.700896,289.354524 625.526537,296 599.577819,296 Z M568.803335,158 C583.48301,156.590604 595.635855,152.597315 605.261871,142.496644 C614.887888,132.395973 619.700896,120.298658 619.700896,106.204698 C619.700896,92.1107383 614.887888,80.0134228 605.261871,69.9127517 C595.635855,59.8120805 583.48301,54.1744966 568.803335,53 L545.700896,53 L545.700896,158 L568.803335,158 Z M576.878017,292 C594.452433,292 609.483184,285.585635 621.970268,272.756906 C634.457353,259.928177 640.700896,244.486188 640.700896,226.430939 C640.700896,208.375691 634.457353,192.993094 621.970268,180.283149 C609.483184,167.573204 594.452433,163 576.878017,163 L546.700896,163 L546.700896,292 L576.878017,292 Z M944.700896,296 L830.59057,296 L830.59057,292.471429 C836.930033,292.471429 842.682508,289.648571 847.847996,284.002857 C851.135125,280.239048 852.778689,275.534286 852.778689,269.888571 C852.778689,266.595238 852.309099,263.066667 851.36992,259.302857 L842.565111,236.367143 L751.699481,236.367143 L740.781518,264.948571 C739.137954,269.418095 738.316172,273.417143 738.316172,276.945714 C738.316172,280.474286 739.724941,283.944048 742.54248,287.355 C745.360019,290.765952 750.055917,292.471429 756.630174,292.471429 L756.630174,296 L695.700896,296 L695.700896,292.471429 C713.545309,291.765714 726.341631,282.47381 734.089863,264.595714 L818.968222,49 L821.433569,49 L900.324658,249.07 C905.724941,262.008095 912.592692,272.417381 920.927911,280.297857 C929.263131,288.178333 937.187459,292.23619 944.700896,292.471429 L944.700896,296 Z M841.700896,232 L800.013396,121 L754.700896,232 L841.700896,232 Z" id="MBA-University" fill="#FFFFFF" fill-rule="nonzero"></path>
        <path d="M918.191489,104 C913.13617,104 908.553191,102.765046 904.442553,100.295139 C900.331915,97.8252315 897.06383,94.5023148 894.638298,90.3263889 C892.212766,86.150463 891,81.5162037 891,76.4236111 C891,71.3819444 892.212766,66.7858796 894.638298,62.6354167 C897.06383,58.4849537 900.331915,55.1747685 904.442553,52.7048611 C908.553191,50.2349537 913.13617,49 918.191489,49 C923.195745,49 927.72766,50.2349537 931.787234,52.7048611 C935.846809,55.1747685 939.06383,58.4849537 941.438298,62.6354167 C943.812766,66.7858796 945,71.3819444 945,76.4236111 C945,81.5162037 943.812766,86.150463 941.438298,90.3263889 C939.06383,94.5023148 935.846809,97.8252315 931.787234,100.295139 C927.72766,102.765046 923.195745,104 918.191489,104 Z M918.651235,102 C925.204733,102 930.951646,99.5165663 935.891975,94.5496988 C940.630658,89.3268072 943,83.2846386 943,76.4231928 C943,69.6129518 940.630658,63.621988 935.891975,58.4503012 C930.951646,53.4834337 925.204733,51 918.651235,51 C911.996914,51 906.174383,53.4834337 901.183642,58.4503012 C896.394547,63.621988 894,69.6129518 894,76.4231928 C894,83.2846386 896.394547,89.3268072 901.183642,94.5496988 C906.174383,99.5165663 911.996914,102 918.651235,102 Z M918.271468,93 C914.341644,93 910.980609,91.4313725 908.188366,88.2941176 C905.396122,85.1568627 904,81.3796078 904,76.9623529 C904,72.5952941 905.396122,68.8431373 908.188366,65.7058824 C910.980609,62.5686275 914.341644,61 918.271468,61 C921.167128,61 923.649123,61.8784314 925.717452,63.6352941 C927.78578,65.3921569 929.311173,67.6760784 930.293629,70.4870588 C930.448753,70.7882353 930.55217,71.0643137 930.603878,71.3152941 L930.68144,71.9929412 C930.68144,72.9968627 930.319483,73.8501961 929.595568,74.5529412 C928.871653,75.2556863 927.992613,75.6070588 926.958449,75.6070588 C925.924284,75.6070588 925.045245,75.2556863 924.32133,74.5529412 C923.597415,73.8501961 923.235457,72.9968627 923.235457,71.9929412 C923.235457,71.5913725 923.287165,71.214902 923.390582,70.8635294 L923.468144,68.9811765 C923.468144,66.3709804 922.821791,64.3631373 921.529086,62.9576471 C920.54663,61.9537255 919.460757,61.4517647 918.271468,61.4517647 C916.616805,61.4517647 915.427516,62.4305882 914.703601,64.3882353 C913.979686,66.3458824 913.540166,68.8807843 913.385042,71.9929412 C913.385042,82.6345098 916.358264,87.9552941 922.304709,87.9552941 L922.382271,87.9552941 C924.657433,87.854902 926.493075,87.3027451 927.889197,86.2988235 C929.802401,84.8933333 931.146814,83.2619608 931.922438,81.4047059 C931.974146,81.3545098 932,81.3043137 932,81.2541176 L932,81.3294118 C932,81.3796078 931.974146,81.4047059 931.922438,81.4047059 C931.405355,83.6133333 930.448753,85.7215686 929.052632,87.7294118 C926.518929,91.2431373 922.925208,93 918.271468,93 Z" id="Shape" fill="#FFFFFF" fill-rule="nonzero"></path>
    </g>
</svg>