<?xml version="1.0" encoding="UTF-8"?>
<svg width="1920px" height="1080px" viewBox="0 0 1920 1080" version="1.1" xmlns="http://www.w3.org/2000/svg" xmlns:xlink="http://www.w3.org/1999/xlink">
    <title>branding-corporate-dark-2023-ALL-RIGHTS-RESERVED-PENCIL-WORKS-LLC</title>
    <g id="branding-corporate-dark-2023-ALL-RIGHTS-RESERVED-PENCIL-WORKS-LLC" stroke="none" stroke-width="1" fill="none" fill-rule="evenodd">
        <path d="M1422.28352,614.465 L1422.28352,614.815 C1421.65352,614.815 1421.33852,615.141667 1421.33852,615.795 C1421.33852,616.425 1421.52518,617.171667 1421.89852,618.035 L1425.39852,626.225 L1429.49352,616.6 C1429.63352,616.296667 1429.70352,616.005 1429.70352,615.725 C1429.70352,615.608333 1429.67435,615.4275 1429.61602,615.1825 C1429.55768,614.9375 1429.21352,614.815 1428.58352,614.815 L1428.58352,614.465 L1432.32852,614.465 L1432.32852,614.815 C1431.06852,614.815 1430.27518,615.328333 1429.94852,616.355 L1420.56852,638.405 C1420.31185,639.011667 1419.96185,639.525 1419.51852,639.945 C1418.88852,640.575 1418.17685,640.89 1417.38352,640.89 C1416.38018,640.89 1415.53435,640.440833 1414.84602,639.5425 C1414.15768,638.644167 1413.79018,637.518333 1413.74352,636.165 L1413.74352,636.13 C1413.74352,635.593333 1413.93602,635.126667 1414.32102,634.73 C1414.70602,634.333333 1415.17852,634.135 1415.73852,634.135 C1416.29852,634.135 1416.77102,634.333333 1417.15602,634.73 C1417.54102,635.126667 1417.73352,635.593333 1417.73352,636.13 C1417.73352,636.69 1417.54102,637.1625 1417.15602,637.5475 C1416.77102,637.9325 1416.29268,638.125 1415.72102,638.125 C1415.14935,638.125 1414.86352,638.311667 1414.86352,638.685 C1414.86352,638.988333 1415.07352,639.35 1415.49352,639.77 C1416.05352,640.26 1416.68352,640.505 1417.38352,640.505 C1417.92018,640.505 1418.42185,640.359167 1418.88852,640.0675 C1419.35518,639.775833 1419.72852,639.361667 1420.00852,638.825 L1422.91352,632.035 L1417.13852,618.49 C1416.11185,616.04 1414.98018,614.815 1413.74352,614.815 L1413.74352,614.465 L1422.28352,614.465 Z M1236.81852,614.5 C1237.93852,614.5 1239.00602,614.745 1240.02102,615.235 C1241.03602,615.725 1241.86435,616.425 1242.50602,617.335 C1243.14768,618.245 1243.46852,619.318333 1243.46852,620.555 L1243.46852,627.905 C1243.46852,628.651667 1243.62018,629.456667 1243.92352,630.32 C1244.22685,631.183333 1244.69352,631.615 1245.32352,631.615 L1245.32352,632 L1241.29852,632 C1240.80852,632 1240.38852,631.941667 1240.03852,631.825 C1239.68852,631.708333 1239.40268,631.58 1239.18102,631.44 C1238.95935,631.3 1238.80185,631.171667 1238.70852,631.055 L1238.56852,630.915 C1237.82185,631.358333 1237.12185,631.714167 1236.46852,631.9825 C1235.81518,632.250833 1235.01018,632.385 1234.05352,632.385 C1231.74352,632.385 1229.95268,631.953333 1228.68102,631.09 C1227.40935,630.226667 1226.77352,629.106667 1226.77352,627.73 C1226.77352,626.516667 1227.14685,625.548333 1227.89352,624.825 C1228.64018,624.101667 1229.56185,623.524167 1230.65852,623.0925 C1231.75518,622.660833 1232.86352,622.281667 1233.98352,621.955 C1235.24352,621.605 1236.32268,621.225833 1237.22102,620.8175 C1238.11935,620.409167 1238.56852,619.843333 1238.56852,619.12 L1238.56852,617.93 C1238.56852,616.04 1237.78685,615.095 1236.22352,615.095 L1235.83852,615.13 C1234.62518,615.34 1233.57518,615.83 1232.68852,616.6 C1233.24852,616.623333 1233.71518,616.821667 1234.08852,617.195 C1234.46185,617.568333 1234.64852,618.023333 1234.64852,618.56 C1234.64852,619.12 1234.45602,619.5925 1234.07102,619.9775 C1233.68602,620.3625 1233.22518,620.555 1232.68852,620.555 C1232.12852,620.555 1231.65602,620.3625 1231.27102,619.9775 C1230.88602,619.5925 1230.69352,619.12 1230.69352,618.56 C1230.69352,618.046667 1230.88018,617.591667 1231.25352,617.195 C1232.63018,615.398333 1234.48518,614.5 1236.81852,614.5 Z M1586.165,607.15 C1588.45167,607.15 1590.5225,607.715833 1592.3775,608.8475 C1594.2325,609.979167 1595.7025,611.495833 1596.7875,613.3975 C1597.8725,615.299167 1598.415,617.405 1598.415,619.715 C1598.415,622.048333 1597.8725,624.171667 1596.7875,626.085 C1595.7025,627.998333 1594.2325,629.520833 1592.3775,630.6525 C1590.5225,631.784167 1588.45167,632.35 1586.165,632.35 C1583.855,632.35 1581.76083,631.784167 1579.8825,630.6525 C1578.00417,629.520833 1576.51083,627.998333 1575.4025,626.085 C1574.29417,624.171667 1573.74,622.048333 1573.74,619.715 C1573.74,617.405 1574.29417,615.299167 1575.4025,613.3975 C1576.51083,611.495833 1578.00417,609.979167 1579.8825,608.8475 C1581.76083,607.715833 1583.855,607.15 1586.165,607.15 Z M1512.07,607.185 C1514.07667,607.185 1515.9025,607.750833 1517.5475,608.8825 C1519.1925,610.014167 1520.505,611.530833 1521.485,613.4325 C1522.465,615.334167 1522.955,617.44 1522.955,619.75 C1522.955,622.083333 1522.465,624.200833 1521.485,626.1025 C1520.505,628.004167 1519.1925,629.520833 1517.5475,630.6525 C1515.9025,631.784167 1514.07667,632.35 1512.07,632.35 C1510.04,632.35 1508.2025,631.784167 1506.5575,630.6525 C1504.9125,629.520833 1503.6,628.004167 1502.62,626.1025 C1501.64,624.200833 1501.15,622.083333 1501.15,619.75 C1501.15,617.44 1501.64,615.334167 1502.62,613.4325 C1503.6,611.530833 1504.9125,610.014167 1506.5575,608.8825 C1508.2025,607.750833 1510.04,607.185 1512.07,607.185 Z M1562.89,607.5 L1555.925,617.475 C1557.97833,617.895 1559.6525,618.781667 1560.9475,620.135 C1562.2425,621.488333 1562.89,623.051667 1562.89,624.825 C1562.89,626.878333 1562.00917,628.645833 1560.2475,630.1275 C1558.48583,631.609167 1556.36833,632.35 1553.895,632.35 C1551.53833,632.35 1549.53167,631.830833 1547.875,630.7925 C1546.21833,629.754167 1545.22667,628.418333 1544.9,626.785 L1544.865,626.26 C1544.865,625.63 1545.08667,625.035 1545.53,624.475 C1545.97333,623.915 1546.63833,623.635 1547.525,623.635 C1548.24833,623.635 1548.8725,623.891667 1549.3975,624.405 C1549.9225,624.918333 1550.185,625.548333 1550.185,626.295 C1550.185,627.018333 1549.9225,627.6425 1549.3975,628.1675 C1548.8725,628.6925 1548.24833,628.955 1547.525,628.955 C1547.15167,628.955 1546.80167,628.885 1546.475,628.745 C1547.78167,629.725 1549.35667,630.215 1551.2,630.215 C1551.99333,630.215 1552.86833,630.080833 1553.825,629.8125 C1554.78167,629.544167 1555.65083,629.025 1556.4325,628.255 C1557.21417,627.485 1557.605,626.516667 1557.605,625.35 C1557.605,624.16 1557.45333,623.191667 1557.15,622.445 C1556.61333,621.231667 1555.84333,620.403333 1554.84,619.96 C1554.42,619.796667 1554.14,619.715 1554,619.715 L1558.865,612.785 L1546.09,612.785 L1549.87,607.5 L1562.89,607.5 Z M1252.28852,627.415 C1252.96518,627.415 1253.54852,627.654167 1254.03852,628.1325 C1254.52852,628.610833 1254.77352,629.188333 1254.77352,629.865 C1254.77352,630.565 1254.52852,631.154167 1254.03852,631.6325 C1253.54852,632.110833 1252.96518,632.35 1252.28852,632.35 C1251.61185,632.35 1251.03435,632.110833 1250.55602,631.6325 C1250.07768,631.154167 1249.83852,630.565 1249.83852,629.865 C1249.83852,629.188333 1250.07768,628.610833 1250.55602,628.1325 C1251.03435,627.654167 1251.61185,627.415 1252.28852,627.415 Z M1343.18352,614.15 C1344.49018,614.15 1345.68602,614.395 1346.77102,614.885 C1347.85602,615.375 1348.74852,616.080833 1349.44852,617.0025 C1350.14852,617.924167 1350.49852,619.096667 1350.49852,620.52 C1350.49852,622.386667 1349.44852,623.6 1347.34852,624.16 C1346.15852,624.486667 1344.60685,624.65 1342.69352,624.65 L1340.87352,624.65 C1341.48018,627.87 1342.98518,629.48 1345.38852,629.48 C1346.41518,629.48 1347.26685,629.2875 1347.94352,628.9025 C1348.62018,628.5175 1349.16852,628.08 1349.58852,627.59 C1349.96185,627.17 1350.24185,626.773333 1350.42852,626.4 L1350.77852,625.7 L1350.46352,626.715 C1350.25352,627.391667 1349.88018,628.161667 1349.34352,629.025 C1348.80685,629.888333 1348.04268,630.658333 1347.05102,631.335 C1346.05935,632.011667 1344.77018,632.35 1343.18352,632.35 C1341.01352,632.35 1339.15852,631.4575 1337.61852,629.6725 C1336.07852,627.8875 1335.30852,625.746667 1335.30852,623.25 C1335.30852,620.73 1336.07852,618.583333 1337.61852,616.81 C1339.15852,615.036667 1341.01352,614.15 1343.18352,614.15 Z M1165.66352,627.415 C1166.34018,627.415 1166.92352,627.654167 1167.41352,628.1325 C1167.90352,628.610833 1168.14852,629.188333 1168.14852,629.865 C1168.14852,630.565 1167.90352,631.154167 1167.41352,631.6325 C1166.92352,632.110833 1166.34018,632.35 1165.66352,632.35 C1164.98685,632.35 1164.40935,632.110833 1163.93102,631.6325 C1163.45268,631.154167 1163.21352,630.565 1163.21352,629.865 C1163.21352,629.188333 1163.45268,628.610833 1163.93102,628.1325 C1164.40935,627.654167 1164.98685,627.415 1165.66352,627.415 Z M1384.34352,614.15 L1384.34352,617.965 L1383.95852,617.965 L1383.95852,617.86 C1383.95852,617.696667 1383.92352,617.451667 1383.85352,617.125 C1383.59685,616.215 1382.98435,615.5325 1382.01602,615.0775 C1381.04768,614.6225 1379.94518,614.395 1378.70852,614.395 C1378.21852,614.395 1377.75185,614.43 1377.30852,614.5 C1376.07185,614.803333 1375.45352,615.48 1375.45352,616.53 C1375.45352,616.856667 1375.56435,617.270833 1375.78602,617.7725 C1376.00768,618.274167 1376.39852,618.711667 1376.95852,619.085 L1384.41352,624.02 C1385.83685,624.953333 1386.54852,626.085 1386.54852,627.415 C1386.54852,628.768333 1385.78435,629.929167 1384.25602,630.8975 C1382.72768,631.865833 1380.87852,632.35 1378.70852,632.35 C1376.60852,632.35 1374.84685,631.918333 1373.42352,631.055 C1372.91018,630.751667 1372.59518,630.541667 1372.47852,630.425 C1372.10518,630.121667 1371.82518,629.935 1371.63852,629.865 L1371.39352,629.83 C1371.32352,629.83 1371.28268,629.8475 1371.27102,629.8825 C1371.25935,629.9175 1371.24768,629.940833 1371.23602,629.9525 C1371.22435,629.964167 1371.21852,629.975833 1371.21852,629.9875 C1371.21852,629.999167 1371.09018,630.005 1370.83352,630.005 L1370.83352,625.7 L1371.21852,625.7 L1371.25352,626.19 C1371.27685,626.54 1371.34685,626.96 1371.46352,627.45 C1371.76685,628.733333 1372.23352,629.655 1372.86352,630.215 C1374.61352,631.475 1376.56185,632.105 1378.70852,632.105 C1379.24518,632.105 1379.77018,632.058333 1380.28352,631.965 C1381.42685,631.591667 1381.99852,630.973333 1381.99852,630.11 C1381.99852,630.016667 1381.96352,629.695833 1381.89352,629.1475 C1381.82352,628.599167 1381.35685,628.021667 1380.49352,627.415 L1373.03852,622.515 C1371.56852,621.558333 1370.83352,620.415 1370.83352,619.085 C1370.83352,617.708333 1371.60352,616.541667 1373.14352,615.585 C1374.68352,614.628333 1376.53852,614.15 1378.70852,614.15 C1379.82852,614.15 1380.87852,614.29 1381.85852,614.57 L1381.85852,614.535 C1382.32518,614.675 1382.71018,614.745 1383.01352,614.745 C1383.29352,614.745 1383.52102,614.6925 1383.69602,614.5875 C1383.87102,614.4825 1383.95852,614.36 1383.95852,614.22 L1383.95852,614.15 L1384.34352,614.15 Z M1665.2,482.2 L1665.2,484.2 C1661.6,484.2 1659.8,486.066667 1659.8,489.8 C1659.8,493.4 1660.86667,497.666667 1663,502.6 L1681,549.4 L1704.4,494.4 C1705.2,492.666667 1705.6,491 1705.6,489.4 C1705.6,488.733333 1705.43333,487.7 1705.1,486.3 C1704.76667,484.9 1702.8,484.2 1699.2,484.2 L1699.2,482.2 L1722.6,482.2 L1722.6,484.2 C1715.4,484.2 1710.86667,487.133333 1709,493 C1691.97086,534.458895 1679.19901,565.3864 1670.68444,585.782514 C1667.51012,593.3864 1662.74864,604.458895 1656.4,619 C1654.93333,622.466667 1652.93333,625.4 1650.4,627.8 C1646.8,631.4 1641.73333,632.2 1637.2,632.2 C1631.46667,632.2 1626.63333,629.633333 1622.7,624.5 C1618.76667,619.366667 1616.66667,612.933333 1616.4,605.2 L1616.4,605 C1616.4,601.933333 1617.5,599.266667 1619.7,597 C1621.9,594.733333 1625.6,592.6 1628.8,592.6 C1632,592.6 1634.7,593.733333 1636.9,596 C1639.1,598.266667 1640.2,600.933333 1640.2,604 C1640.2,607.2 1639.1,609.9 1636.9,612.1 C1634.7,614.3 1631.96667,615.4 1628.7,615.4 C1625.43333,615.4 1624.8,617.466667 1624.8,619.6 C1624.8,621.333333 1626,622.4 1628.4,624.8 C1631.6,627.6 1634.2,629 1638.2,629 C1641.26667,629 1643.13333,629.166667 1645.8,627.5 C1648.46667,625.833333 1650.6,623.466667 1652.2,620.4 L1668.8,582.6 L1635.8,505.2 C1629.93333,491.2 1623.46667,484.2 1616.4,484.2 L1616.4,482.2 L1665.2,482.2 Z M1083.72852,614.5 L1083.72852,614.85 C1083.12185,614.85 1082.81852,615.165 1082.81852,615.795 L1082.81852,615.9 C1082.81852,616.506667 1082.99352,617.218333 1083.34352,618.035 L1086.77352,626.12 L1091.74352,614.5 L1096.67852,626.12 L1100.73852,616.6 C1100.85518,616.32 1100.91352,616.051667 1100.91352,615.795 C1100.91352,615.655 1100.89018,615.4625 1100.84352,615.2175 C1100.79685,614.9725 1100.47018,614.85 1099.86352,614.85 L1099.86352,614.5 L1103.53852,614.5 L1103.53852,614.85 C1102.30185,614.85 1101.52018,615.351667 1101.19352,616.355 L1094.54352,632 L1094.29852,632 L1089.46852,620.66 L1084.63852,632 L1084.39352,632 L1078.61852,618.455 C1077.63852,616.051667 1076.53018,614.85 1075.29352,614.85 L1075.29352,614.5 L1083.72852,614.5 Z M1364.63852,614.5 C1365.12852,614.5 1365.72352,614.575833 1366.42352,614.7275 C1367.12352,614.879167 1367.74185,615.176667 1368.27852,615.62 C1368.81518,616.063333 1369.08352,616.716667 1369.08352,617.58 C1369.08352,618.14 1368.89102,618.6125 1368.50602,618.9975 C1368.12102,619.3825 1367.64852,619.575 1367.08852,619.575 C1366.55185,619.575 1366.09102,619.3825 1365.70602,618.9975 C1365.32102,618.6125 1365.12852,618.093333 1365.12852,617.44 C1365.12852,617.276667 1365.19852,616.990833 1365.33852,616.5825 C1365.47852,616.174167 1365.54852,615.818333 1365.54852,615.515 L1365.54852,615.165 C1365.54852,614.978333 1365.24518,614.885 1364.63852,614.885 C1363.28518,614.885 1362.07185,615.188333 1360.99852,615.795 L1360.99852,627.87 C1360.99852,628.616667 1361.16185,629.4275 1361.48852,630.3025 C1361.81518,631.1775 1362.28185,631.615 1362.88852,631.615 L1362.88852,632 L1354.17352,632 L1354.17352,631.615 C1354.78018,631.615 1355.24685,631.1775 1355.57352,630.3025 C1355.90018,629.4275 1356.06352,628.616667 1356.06352,627.87 L1356.06352,620.52 C1356.06352,620.03 1355.98185,619.6275 1355.81852,619.3125 C1355.65518,618.9975 1355.45102,618.746667 1355.20602,618.56 C1354.96102,618.373333 1354.71602,618.245 1354.47102,618.175 C1354.22602,618.105 1354.02185,618.058333 1353.85852,618.035 L1353.57852,618 L1360.99852,614.5 L1360.99852,615.375 C1362.07185,614.791667 1363.28518,614.5 1364.63852,614.5 Z M1490.02,607.15 C1490.58,607.15 1491.34417,607.249167 1492.3125,607.4475 C1493.28083,607.645833 1494.26667,608.013333 1495.27,608.55 C1496.27333,609.086667 1497.125,609.845 1497.825,610.825 C1498.525,611.805 1498.875,613.088333 1498.875,614.675 C1498.875,616.378333 1498.43167,617.714167 1497.545,618.6825 C1496.65833,619.650833 1495.5325,620.409167 1494.1675,620.9575 C1492.8025,621.505833 1491.35,621.99 1489.81,622.41 C1488.15333,622.853333 1486.60167,623.384167 1485.155,624.0025 C1483.70833,624.620833 1482.6,625.513333 1481.83,626.68 L1498.875,626.68 L1495.095,632 L1480.465,632 C1480.465,629.55 1480.86167,627.595833 1481.655,626.1375 C1482.44833,624.679167 1483.42833,623.506667 1484.595,622.62 C1485.76167,621.733333 1486.96333,620.963333 1488.2,620.31 C1489.11,619.82 1489.95,619.306667 1490.72,618.77 C1491.49,618.233333 1492.11417,617.609167 1492.5925,616.8975 C1493.07083,616.185833 1493.31,615.293333 1493.31,614.22 C1493.24,612.19 1492.68,610.743333 1491.63,609.88 C1490.65,609.086667 1489.55333,608.69 1488.34,608.69 C1488.27,608.69 1487.89083,608.701667 1487.2025,608.725 C1486.51417,608.748333 1485.76167,609.11 1484.945,609.81 C1485.66833,609.833333 1486.275,610.101667 1486.765,610.615 C1487.255,611.128333 1487.5,611.746667 1487.5,612.47 C1487.5,613.193333 1487.24333,613.8175 1486.73,614.3425 C1486.21667,614.8675 1485.58667,615.13 1484.84,615.13 C1484.11667,615.13 1483.4925,614.8675 1482.9675,614.3425 C1482.4425,613.8175 1482.18,613.193333 1482.18,612.47 C1482.18,612.096667 1482.285,611.6125 1482.495,611.0175 C1482.705,610.4225 1483.09,609.833333 1483.65,609.25 C1484.21,608.666667 1485.00333,608.170833 1486.03,607.7625 C1487.05667,607.354167 1488.38667,607.15 1490.02,607.15 Z M1140.84852,614.5 L1140.84852,614.85 C1140.24185,614.85 1139.93852,615.165 1139.93852,615.795 L1139.93852,615.9 C1139.93852,616.506667 1140.11352,617.218333 1140.46352,618.035 L1143.89352,626.12 L1148.86352,614.5 L1153.79852,626.12 L1157.85852,616.6 C1157.97518,616.32 1158.03352,616.051667 1158.03352,615.795 C1158.03352,615.655 1158.01018,615.4625 1157.96352,615.2175 C1157.91685,614.9725 1157.59018,614.85 1156.98352,614.85 L1156.98352,614.5 L1160.65852,614.5 L1160.65852,614.85 C1159.42185,614.85 1158.64018,615.351667 1158.31352,616.355 L1151.66352,632 L1151.41852,632 L1146.58852,620.66 L1141.75852,632 L1141.51352,632 L1135.73852,618.455 C1134.75852,616.051667 1133.65018,614.85 1132.41352,614.85 L1132.41352,614.5 L1140.84852,614.5 Z M1213.57852,605.715 L1213.57852,614.78 C1214.41852,614.43 1215.29352,614.255 1216.20352,614.255 C1218.35018,614.255 1220.18185,615.124167 1221.69852,616.8625 C1223.21518,618.600833 1223.97352,620.695 1223.97352,623.145 C1223.97352,625.571667 1223.21518,627.654167 1221.69852,629.3925 C1220.18185,631.130833 1218.35018,632 1216.20352,632 C1215.29352,632 1214.41852,631.825 1213.57852,631.475 L1213.57852,632 L1206.71852,632 L1206.71852,631.615 C1207.34852,631.615 1207.82685,631.1775 1208.15352,630.3025 C1208.48018,629.4275 1208.64352,628.616667 1208.64352,627.87 L1208.64352,611.77 C1208.64352,611.256667 1208.55602,610.8425 1208.38102,610.5275 C1208.20602,610.2125 1207.99602,609.961667 1207.75102,609.775 C1207.50602,609.588333 1207.26102,609.46 1207.01602,609.39 C1206.77102,609.32 1206.55518,609.273333 1206.36852,609.25 L1206.12352,609.215 L1213.57852,605.715 Z M1293.51852,614.5 C1294.54518,614.5 1295.57768,614.715833 1296.61602,615.1475 C1297.65435,615.579167 1298.51185,616.209167 1299.18852,617.0375 C1299.86518,617.865833 1300.20352,618.863333 1300.20352,620.03 L1300.20352,627.87 C1300.20352,628.616667 1300.36685,629.4275 1300.69352,630.3025 C1301.02018,631.1775 1301.49852,631.615 1302.12852,631.615 L1302.12852,632 L1295.30352,632 L1295.30352,618.07 C1295.25685,615.946667 1294.56852,614.885 1293.23852,614.885 C1291.97852,614.931667 1290.85852,615.235 1289.87852,615.795 L1289.87852,627.87 C1289.87852,628.616667 1290.04185,629.4275 1290.36852,630.3025 C1290.69518,631.1775 1291.16185,631.615 1291.76852,631.615 L1291.76852,632 L1283.05352,632 L1283.05352,631.615 C1283.66018,631.615 1284.12685,631.1775 1284.45352,630.3025 C1284.78018,629.4275 1284.94352,628.616667 1284.94352,627.87 L1284.94352,620.52 C1284.94352,620.03 1284.86185,619.621667 1284.69852,619.295 C1284.53518,618.968333 1284.33102,618.7175 1284.08602,618.5425 C1283.84102,618.3675 1283.59602,618.245 1283.35102,618.175 C1283.10602,618.105 1282.89018,618.058333 1282.70352,618.035 L1282.45852,618 L1289.87852,614.5 L1289.87852,615.375 C1290.95185,614.791667 1292.16518,614.5 1293.51852,614.5 Z M1277.06852,614.5 L1277.06852,627.87 C1277.06852,628.616667 1277.23185,629.4275 1277.55852,630.3025 C1277.88518,631.1775 1278.36352,631.615 1278.99352,631.615 L1278.99352,632 L1272.13352,632 L1272.13352,631.125 C1271.08352,631.685 1269.88185,631.976667 1268.52852,632 C1266.66185,631.953333 1265.07518,631.416667 1263.76852,630.39 C1262.46185,629.363333 1261.80852,628.056667 1261.80852,626.47 L1261.80852,620.52 C1261.80852,619.633333 1261.51685,618.98 1260.93352,618.56 C1260.51352,618.256667 1260.05852,618.081667 1259.56852,618.035 L1259.32352,618 L1266.74352,614.5 L1266.74352,628.43 C1266.79018,630.553333 1267.46685,631.615 1268.77352,631.615 C1270.05685,631.568333 1271.17685,631.265 1272.13352,630.705 L1272.13352,620.52 C1272.13352,620.006667 1272.05185,619.5925 1271.88852,619.2775 C1271.72518,618.9625 1271.52102,618.7175 1271.27602,618.5425 C1271.03102,618.3675 1270.78602,618.239167 1270.54102,618.1575 C1270.29602,618.075833 1270.09185,618.035 1269.92852,618.035 L1269.64852,618 L1277.06852,614.5 Z M1112.28852,614.5 L1112.28852,614.85 C1111.68185,614.85 1111.37852,615.165 1111.37852,615.795 L1111.37852,615.9 C1111.37852,616.506667 1111.55352,617.218333 1111.90352,618.035 L1115.33352,626.12 L1120.30352,614.5 L1125.23852,626.12 L1129.29852,616.6 C1129.41518,616.32 1129.47352,616.051667 1129.47352,615.795 C1129.47352,615.655 1129.45018,615.4625 1129.40352,615.2175 C1129.35685,614.9725 1129.03018,614.85 1128.42352,614.85 L1128.42352,614.5 L1132.09852,614.5 L1132.09852,614.85 C1130.86185,614.85 1130.08018,615.351667 1129.75352,616.355 L1123.10352,632 L1122.85852,632 L1118.02852,620.66 L1113.19852,632 L1112.95352,632 L1107.17852,618.455 C1106.19852,616.051667 1105.09018,614.85 1103.85352,614.85 L1103.85352,614.5 L1112.28852,614.5 Z M1312.66352,614.535 L1312.66352,627.905 C1312.66352,628.628333 1312.82685,629.4275 1313.15352,630.3025 C1313.48018,631.1775 1313.95852,631.615 1314.58852,631.615 L1314.58852,632 L1305.87352,632 L1305.87352,631.615 C1306.48018,631.615 1306.94685,631.1775 1307.27352,630.3025 C1307.60018,629.4275 1307.76352,628.628333 1307.76352,627.905 L1307.76352,620.555 C1307.76352,620.041667 1307.68185,619.6275 1307.51852,619.3125 C1307.35518,618.9975 1307.15102,618.7525 1306.90602,618.5775 C1306.66102,618.4025 1306.41602,618.274167 1306.17102,618.1925 C1305.92602,618.110833 1305.71018,618.07 1305.52352,618.07 L1305.27852,618.035 L1312.66352,614.535 Z M1396.03352,614.535 L1396.03352,627.905 C1396.03352,628.628333 1396.19685,629.4275 1396.52352,630.3025 C1396.85018,631.1775 1397.32852,631.615 1397.95852,631.615 L1397.95852,632 L1389.24352,632 L1389.24352,631.615 C1389.85018,631.615 1390.31685,631.1775 1390.64352,630.3025 C1390.97018,629.4275 1391.13352,628.628333 1391.13352,627.905 L1391.13352,620.555 C1391.13352,620.041667 1391.05185,619.6275 1390.88852,619.3125 C1390.72518,618.9975 1390.52102,618.7525 1390.27602,618.5775 C1390.03102,618.4025 1389.78602,618.274167 1389.54102,618.1925 C1389.29602,618.110833 1389.08018,618.07 1388.89352,618.07 L1388.64852,618.035 L1396.03352,614.535 Z M1194.08352,614.5 C1195.18018,614.5 1196.24185,614.7275 1197.26852,615.1825 C1198.29518,615.6375 1199.14102,616.285 1199.80602,617.125 C1200.47102,617.965 1200.80352,618.933333 1200.80352,620.03 L1200.80352,627.87 C1200.80352,628.616667 1200.96685,629.4275 1201.29352,630.3025 C1201.62018,631.1775 1202.08685,631.615 1202.69352,631.615 L1202.69352,632 L1195.86852,632 L1195.86852,618.07 C1195.82185,615.946667 1195.13352,614.885 1193.80352,614.885 C1191.89018,614.978333 1190.35018,615.608333 1189.18352,616.775 C1190.02352,617.731667 1190.44352,618.816667 1190.44352,620.03 L1190.44352,627.87 C1190.44352,628.616667 1190.60685,629.4275 1190.93352,630.3025 C1191.26018,631.1775 1191.73852,631.615 1192.36852,631.615 L1192.36852,632 L1185.54352,632 L1185.54352,618.07 C1185.49685,615.946667 1184.80852,614.885 1183.47852,614.885 C1182.21852,614.931667 1181.09852,615.235 1180.11852,615.795 L1180.11852,627.87 C1180.11852,628.616667 1180.28185,629.4275 1180.60852,630.3025 C1180.93518,631.1775 1181.40185,631.615 1182.00852,631.615 L1182.00852,632 L1173.29352,632 L1173.29352,631.615 C1173.90018,631.615 1174.36685,631.1775 1174.69352,630.3025 C1175.02018,629.4275 1175.18352,628.616667 1175.18352,627.87 L1175.18352,620.52 C1175.18352,620.03 1175.10185,619.621667 1174.93852,619.295 C1174.77518,618.968333 1174.57102,618.7175 1174.32602,618.5425 C1174.08102,618.3675 1173.83602,618.245 1173.59102,618.175 C1173.34602,618.105 1173.13018,618.058333 1172.94352,618.035 L1172.69852,618 L1180.11852,614.5 L1180.11852,615.375 C1181.19185,614.791667 1182.40518,614.5 1183.75852,614.5 C1185.81185,614.5 1187.52685,615.165 1188.90352,616.495 C1190.28018,615.165 1192.00685,614.5 1194.08352,614.5 Z M1534.085,607.15 C1534.645,607.15 1535.40917,607.249167 1536.3775,607.4475 C1537.34583,607.645833 1538.33167,608.013333 1539.335,608.55 C1540.33833,609.086667 1541.19,609.845 1541.89,610.825 C1542.59,611.805 1542.94,613.088333 1542.94,614.675 C1542.94,616.378333 1542.49667,617.714167 1541.61,618.6825 C1540.72333,619.650833 1539.5975,620.409167 1538.2325,620.9575 C1536.8675,621.505833 1535.415,621.99 1533.875,622.41 C1532.21833,622.853333 1530.66667,623.384167 1529.22,624.0025 C1527.77333,624.620833 1526.665,625.513333 1525.895,626.68 L1542.94,626.68 L1539.16,632 L1524.53,632 C1524.53,629.55 1524.92667,627.595833 1525.72,626.1375 C1526.51333,624.679167 1527.49333,623.506667 1528.66,622.62 C1529.82667,621.733333 1531.02833,620.963333 1532.265,620.31 C1533.175,619.82 1534.015,619.306667 1534.785,618.77 C1535.555,618.233333 1536.17917,617.609167 1536.6575,616.8975 C1537.13583,616.185833 1537.375,615.293333 1537.375,614.22 C1537.305,612.19 1536.745,610.743333 1535.695,609.88 C1534.715,609.086667 1533.61833,608.69 1532.405,608.69 C1532.335,608.69 1531.95583,608.701667 1531.2675,608.725 C1530.57917,608.748333 1529.82667,609.11 1529.01,609.81 C1529.73333,609.833333 1530.34,610.101667 1530.83,610.615 C1531.32,611.128333 1531.565,611.746667 1531.565,612.47 C1531.565,613.193333 1531.30833,613.8175 1530.795,614.3425 C1530.28167,614.8675 1529.65167,615.13 1528.905,615.13 C1528.18167,615.13 1527.5575,614.8675 1527.0325,614.3425 C1526.5075,613.8175 1526.245,613.193333 1526.245,612.47 C1526.245,612.096667 1526.35,611.6125 1526.56,611.0175 C1526.77,610.4225 1527.155,609.833333 1527.715,609.25 C1528.275,608.666667 1529.06833,608.170833 1530.095,607.7625 C1531.12167,607.354167 1532.45167,607.15 1534.085,607.15 Z M1512.07,607.535 C1510.46,607.535 1509.095,608.730833 1507.975,611.1225 C1506.855,613.514167 1506.295,616.39 1506.295,619.75 C1506.295,623.133333 1506.855,626.020833 1507.975,628.4125 C1509.095,630.804167 1510.46,632 1512.07,632 C1513.65667,632 1515.01,630.804167 1516.13,628.4125 C1517.25,626.020833 1517.81,623.133333 1517.81,619.75 C1517.81,616.39 1517.25,613.514167 1516.13,611.1225 C1515.01,608.730833 1513.65667,607.535 1512.07,607.535 Z M1408.45852,607.5 L1408.45852,613.345 L1411.99352,613.345 L1411.99352,613.73 L1408.45852,613.73 L1408.45852,627.45 C1408.45852,627.986667 1408.54018,628.575833 1408.70352,629.2175 C1408.86685,629.859167 1409.10602,630.413333 1409.42102,630.88 C1409.73602,631.346667 1410.11518,631.58 1410.55852,631.58 L1410.55852,632 L1408.45852,632 C1406.94185,632 1405.65268,631.463333 1404.59102,630.39 C1403.52935,629.316667 1402.99852,628.033333 1402.99852,626.54 L1402.99852,614.185 L1402.96352,613.73 L1399.70852,613.73 L1399.70852,613.345 L1402.89352,613.345 C1402.75352,612.855 1402.54352,612.475833 1402.26352,612.2075 C1401.98352,611.939167 1401.68602,611.746667 1401.37102,611.63 C1401.05602,611.513333 1400.78185,611.443333 1400.54852,611.42 L1400.23352,611.385 L1408.45852,607.5 Z M1324.38852,614.535 L1324.38852,614.92 C1323.78185,614.92 1323.47852,615.27 1323.47852,615.97 C1323.47852,616.553333 1323.65352,617.253333 1324.00352,618.07 L1327.43352,626.12 L1331.49352,616.67 C1331.61018,616.366667 1331.66852,616.086667 1331.66852,615.83 C1331.66852,615.713333 1331.64518,615.5325 1331.59852,615.2875 C1331.55185,615.0425 1331.22518,614.92 1330.61852,614.92 L1330.61852,614.535 L1334.25852,614.535 L1334.25852,614.92 C1333.04518,614.92 1332.27518,615.421667 1331.94852,616.425 L1325.29852,632 L1325.05352,632 L1319.31352,618.49 C1318.33352,616.11 1317.22518,614.92 1315.98852,614.92 L1315.98852,614.535 L1324.38852,614.535 Z M1214.94352,614.64 C1214.47685,614.64 1214.02185,614.791667 1213.57852,615.095 L1213.57852,631.195 C1214.02185,631.475 1214.47685,631.615 1214.94352,631.615 C1216.11018,631.615 1217.11352,630.786667 1217.95352,629.13 C1218.79352,627.473333 1219.21352,625.478333 1219.21352,623.145 C1219.21352,620.788333 1218.79352,618.781667 1217.95352,617.125 C1217.11352,615.468333 1216.11018,614.64 1214.94352,614.64 Z M1238.56852,619.61 C1238.56852,620.193333 1238.30018,620.73 1237.76352,621.22 C1237.22685,621.71 1236.58518,622.211667 1235.83852,622.725 C1235.23185,623.121667 1234.64268,623.553333 1234.07102,624.02 C1233.49935,624.486667 1233.02685,625 1232.65352,625.56 C1232.28018,626.12 1232.09352,626.761667 1232.09352,627.485 C1232.09352,628.838333 1232.39102,629.865 1232.98602,630.565 C1233.58102,631.265 1234.33352,631.615 1235.24352,631.615 C1236.01352,631.615 1236.76018,631.4225 1237.48352,631.0375 C1238.20685,630.6525 1238.56852,629.993333 1238.56852,629.06 L1238.56852,619.61 Z M1586.165,608.13 C1583.085,608.13 1580.39,609.261667 1578.08,611.525 C1575.86333,613.881667 1574.755,616.611667 1574.755,619.715 C1574.755,622.841667 1575.86333,625.595 1578.08,627.975 C1580.39,630.238333 1583.085,631.37 1586.165,631.37 C1589.19833,631.37 1591.85833,630.238333 1594.145,627.975 C1596.33833,625.595 1597.435,622.841667 1597.435,619.715 C1597.435,616.611667 1596.33833,613.881667 1594.145,611.525 C1591.85833,609.261667 1589.19833,608.13 1586.165,608.13 Z M1586.13,612.435 C1587.43667,612.435 1588.55667,612.843333 1589.49,613.66 C1590.42333,614.476667 1591.11167,615.538333 1591.555,616.845 C1591.625,616.985 1591.67167,617.113333 1591.695,617.23 L1591.73,617.545 C1591.73,618.011667 1591.56667,618.408333 1591.24,618.735 C1590.91333,619.061667 1590.51667,619.225 1590.05,619.225 C1589.58333,619.225 1589.18667,619.061667 1588.86,618.735 C1588.53333,618.408333 1588.37,618.011667 1588.37,617.545 C1588.37,617.358333 1588.39333,617.183333 1588.44,617.02 L1588.475,616.145 C1588.475,614.931667 1588.18333,613.998333 1587.6,613.345 C1587.15667,612.878333 1586.66667,612.645 1586.13,612.645 C1585.38333,612.645 1584.84667,613.1 1584.52,614.01 C1584.19333,614.92 1583.995,616.098333 1583.925,617.545 C1583.925,622.491667 1585.26667,624.965 1587.95,624.965 L1587.985,624.965 C1589.01167,624.918333 1589.84,624.661667 1590.47,624.195 C1591.247,623.607 1591.8161,622.93395 1592.1773,622.17585 L1592.29,621.92 C1592.05667,622.946667 1591.625,623.926667 1590.995,624.86 C1589.85167,626.493333 1588.23,627.31 1586.13,627.31 C1584.35667,627.31 1582.84,626.580833 1581.58,625.1225 C1580.32,623.664167 1579.69,621.908333 1579.69,619.855 C1579.69,617.825 1580.32,616.080833 1581.58,614.6225 C1582.84,613.164167 1584.35667,612.435 1586.13,612.435 Z M1343.18352,614.395 C1342.41352,614.395 1341.83018,614.803333 1341.43352,615.62 C1340.82685,616.88 1340.52352,618.606667 1340.52352,620.8 C1340.52352,622.293333 1340.62852,623.53 1340.83852,624.51 C1342.91518,624.51 1344.37352,623.845 1345.21352,622.515 C1345.61018,621.885 1345.80852,620.998333 1345.80852,619.855 C1345.80852,619.481667 1345.78518,619.085 1345.73852,618.665 C1345.57518,617.358333 1345.30102,616.32 1344.91602,615.55 C1344.53102,614.78 1343.95352,614.395 1343.18352,614.395 Z M1448,607 L1448,609.47 L1447.81667,609.47 C1447.81667,609.123333 1447.73722,608.776667 1447.57833,608.43 C1447.22389,607.600476 1446.54556,607.185714 1445.54333,607.185714 L1443.875,607.185714 L1443.875,617.901429 C1443.875,618.520476 1444.03389,618.994048 1444.35167,619.322143 C1444.66944,619.650238 1444.99944,619.814286 1445.34167,619.814286 L1445.34167,620 L1439.65833,620 L1439.65833,619.814286 C1440.00056,619.814286 1440.33056,619.650238 1440.64833,619.322143 C1440.96611,618.994048 1441.125,618.520476 1441.125,617.901429 L1441.125,607.185714 L1439.45667,607.185714 C1438.44222,607.185714 1437.75778,607.600476 1437.40333,608.43 C1437.25667,608.776667 1437.18333,609.123333 1437.18333,609.47 L1437,609.47 L1437,607 L1448,607 Z M1451.99404,607 L1456.30393,614.457797 L1460.61383,607 L1465,607 L1465,607.18598 C1464.63131,607.18598 1464.28486,607.347163 1463.96067,607.669528 C1463.63647,607.991893 1463.47437,608.469242 1463.47437,609.101574 L1463.47437,617.898426 C1463.47437,618.530758 1463.63647,619.008107 1463.96067,619.330472 C1464.28486,619.652837 1464.63131,619.81402 1465,619.81402 L1465,620 L1459.0882,620 L1459.0882,619.81402 C1459.44418,619.81402 1459.78745,619.652837 1460.118,619.330472 C1460.44855,619.008107 1460.61383,618.530758 1460.61383,617.898426 L1460.61383,607.316166 L1454.96901,617.080114 L1450.71633,609.733906 L1450.71633,617.898426 C1450.71633,618.530758 1450.87843,619.008107 1451.20262,619.330472 C1451.52682,619.652837 1451.87326,619.81402 1452.24195,619.81402 L1452.24195,620 L1449,620 L1449,619.81402 C1449.35598,619.81402 1449.69289,619.652837 1450.01073,619.330472 C1450.32857,619.008107 1450.5002,618.530758 1450.52563,617.898426 L1450.52563,609.399142 L1449.13349,607 L1451.99404,607 Z M1310.21352,606.065 C1310.89018,606.065 1311.46768,606.31 1311.94602,606.8 C1312.42435,607.29 1312.66352,607.873333 1312.66352,608.55 C1312.66352,609.226667 1312.42435,609.804167 1311.94602,610.2825 C1311.46768,610.760833 1310.89018,611 1310.21352,611 C1309.53685,611 1308.95935,610.760833 1308.48102,610.2825 C1308.00268,609.804167 1307.76352,609.226667 1307.76352,608.55 C1307.76352,607.873333 1308.00268,607.29 1308.48102,606.8 C1308.95935,606.31 1309.53685,606.065 1310.21352,606.065 Z M1393.58352,606.065 C1394.26018,606.065 1394.83768,606.31 1395.31602,606.8 C1395.79435,607.29 1396.03352,607.873333 1396.03352,608.55 C1396.03352,609.226667 1395.79435,609.804167 1395.31602,610.2825 C1394.83768,610.760833 1394.26018,611 1393.58352,611 C1392.90685,611 1392.32935,610.760833 1391.85102,610.2825 C1391.37268,609.804167 1391.13352,609.226667 1391.13352,608.55 C1391.13352,607.873333 1391.37268,607.29 1391.85102,606.8 C1392.32935,606.31 1392.90685,606.065 1393.58352,606.065 Z M1105.63327,482.2 L1105.63327,484.470541 C1102.05544,484.470541 1100.26653,486.534669 1100.26653,490.662926 C1100.26653,494.10314 1101.2986,498.231396 1103.36273,503.047695 L1123.59118,550.522645 L1147.53507,494.791182 C1148.22311,493.002271 1148.56713,491.350969 1148.56713,489.837275 C1148.56713,489.149232 1148.42953,488.082766 1148.15431,486.637876 C1147.87909,485.192986 1145.95257,484.470541 1142.37475,484.470541 L1142.37475,482.2 L1165.90581,482.2 L1165.90581,484.470541 C1158.75017,484.470541 1154.20908,487.429125 1152.28257,493.346293 L1113.06413,585.2 L1109.55511,585.2 L1075.70341,505.524649 C1069.92385,491.488577 1063.38744,484.470541 1056.09419,484.470541 L1056.09419,482.2 L1105.63327,482.2 Z M1212.79638,482 C1220.22926,482 1227.03167,483.386538 1233.20362,486.159615 C1239.37557,488.932692 1244.45249,492.927244 1248.43439,498.143269 C1252.41629,503.359295 1254.40724,509.994872 1254.40724,518.05 C1254.40724,528.614103 1248.43439,535.480769 1236.48869,538.65 C1229.71946,540.498718 1220.89291,541.423077 1210.00905,541.423077 L1199.65611,541.423077 C1203.10709,559.646154 1211.66817,568.757692 1225.33937,568.757692 C1231.17949,568.757692 1236.02413,567.668269 1239.8733,565.489423 C1243.72247,563.310577 1246.84163,560.834615 1249.23077,558.061538 C1251.35445,555.684615 1252.94721,553.439744 1254.00905,551.326923 L1256,547.365385 L1254.20814,553.109615 C1253.01357,556.939103 1250.88989,561.296795 1247.8371,566.182692 C1244.78431,571.06859 1240.43741,575.426282 1234.79638,579.255769 C1229.15535,583.085256 1221.82202,585 1212.79638,585 C1200.45249,585 1189.90045,579.949038 1181.14027,569.847115 C1172.38009,559.745192 1168,547.629487 1168,533.5 C1168,519.238462 1172.38009,507.089744 1181.14027,497.053846 C1189.90045,487.017949 1200.45249,482 1212.79638,482 Z M774.376048,449 L774.376048,451.005988 C770.631537,451.005988 766.987325,452.811377 763.443413,456.422156 C759.899501,460.032934 758.127545,465.248503 758.127545,472.068862 L757.124551,542.479042 C757.124551,547.159681 757.726347,552.37525 758.92994,558.125749 C761.738323,572.033932 770.096607,576.982036 781.998802,576.982036 C796.308184,576.982036 804.988341,576.504437 815.21888,568.948549 C825.449418,561.392661 828.5587,553.268409 828.5587,542.569807 C828.5587,535.437405 829.086638,511.93709 830.142515,472.068862 C830.142515,465.248503 828.370559,460.032934 824.826647,456.422156 C821.282735,452.811377 817.638523,451.005988 813.894012,451.005988 L813.894012,449 L854.411976,449 L854.411976,451.005988 C850.533733,451.005988 846.856088,452.811377 843.379042,456.422156 C839.901996,460.032934 838.163473,465.248503 838.163473,472.068862 L836.579658,542.569807 C836.579658,553.80334 832.300217,565.404637 821.735347,573.361723 C811.170476,581.318809 796.976846,583 781.998802,583 C770.497804,583 760.701896,579.924152 752.611078,575.778443 C744.520259,571.632735 738.33513,566.417166 734.055689,560.131737 C729.776248,553.846307 727.636527,547.560878 727.636527,541.275449 L727.636527,472.068862 C727.636527,465.248503 725.898004,460.256048 722.420958,456.645269 C718.943912,453.034491 715.266267,451.005988 711.388024,451.005988 L711.388024,449 L774.376048,449 Z M1586.12351,449.4 L1586.12351,482.550746 L1606.17276,482.550746 L1606.17276,486.719403 L1586.12351,486.719403 L1586.12351,556.59403 C1586.12351,559.637811 1586.58669,562.979353 1587.51306,566.618657 C1588.43943,570.25796 1589.7959,573.400995 1591.58246,576.047761 C1593.36903,578.694527 1595.51953,580.01791 1598.03396,580.01791 L1598.03396,582.4 L1586.12351,582.4 C1577.52152,582.4 1573.49094,579.052564 1569.21481,573.184522 C1564.93868,567.316481 1563.79142,560.223789 1563.79142,551.754138 L1564.38694,489.3 L1564.18843,486.719403 L1545.72724,486.719403 L1545.72724,482.550746 L1563.79142,482.550746 C1562.99739,479.771642 1561.80634,477.621144 1560.21828,476.099254 C1558.63022,474.577363 1556.94291,473.485572 1555.15634,472.823881 C1553.36978,472.162189 1551.8148,471.765174 1550.49142,471.632836 L1548.70485,471.434328 L1586.12351,449.4 Z M1335.61287,482.2 C1338.38515,482.2 1341.75149,482.629043 1345.71188,483.487129 C1349.67228,484.345215 1353.17063,487.018482 1356.20693,489.526733 C1359.24323,492.034983 1360.76139,495.731353 1360.76139,500.615842 C1360.76139,503.784158 1359.67228,506.457426 1357.49406,508.635644 C1355.31584,510.813861 1352.64257,511.90297 1349.47426,511.90297 C1346.43795,511.90297 1343.83069,510.813861 1341.65248,508.635644 C1339.47426,506.457426 1338.38515,503.520132 1338.38515,499.823762 C1338.38515,498.89967 1338.78119,497.282508 1339.57327,494.972277 C1340.36535,492.662046 1340.76139,491.638944 1340.76139,489.922772 L1340.76139,487.942574 C1340.76139,486.886469 1339.04521,486.358416 1335.61287,486.358416 C1327.95611,486.358416 1321.09142,488.074587 1315.01881,491.506931 L1315.01881,558.833663 C1315.01881,563.058086 1315.9429,567.645545 1317.79109,572.59604 C1319.63927,577.546535 1322.27954,580.021782 1325.71188,580.021782 L1325.71188,582.2 L1276.40495,582.2 L1276.40495,580.021782 C1279.83729,580.021782 1282.47756,577.546535 1284.32574,572.59604 C1286.17393,567.645545 1287.09802,563.058086 1287.09802,558.833663 L1287.09802,517.249505 C1287.09802,514.477228 1286.63597,512.2 1285.71188,510.417822 C1284.78779,508.635644 1283.63267,507.216502 1282.24653,506.160396 C1280.8604,505.10429 1279.47426,504.378218 1278.08812,503.982178 C1276.70198,503.586139 1275.54686,503.322112 1274.62277,503.190099 L1273.03861,502.992079 L1315.01881,483.190099 L1315.01881,487.150495 C1321.09142,483.850165 1327.95611,482.2 1335.61287,482.2 Z M1446.43516,482.2 L1446.43516,504.681509 L1444.36217,504.681509 L1444.36217,504.11568 C1444.36217,503.235503 1444.17372,501.915237 1443.79681,500.154882 C1442.41482,495.251036 1439.1169,491.573151 1433.90303,489.121228 C1428.68917,486.669305 1422.7529,485.443343 1416.09423,485.443343 C1413.45588,485.443343 1410.94318,485.631953 1408.55611,486.009172 C1401.89744,487.643787 1398.5681,490.328698 1398.5681,495.986982 C1398.5681,497.747337 1399.16487,499.979216 1400.3584,502.682618 C1401.55194,505.386021 1403.65633,507.743639 1406.67158,509.755473 L1446.81206,536.349408 C1454.47582,541.378994 1458.30769,547.477367 1458.30769,554.644527 C1458.30769,561.937426 1454.19314,568.192973 1445.96402,573.411169 C1437.73491,578.629364 1427.77831,582.2 1416.09423,582.2 C1404.78705,582.2 1395.30158,579.873817 1387.63783,575.22145 C1384.87385,573.586834 1383.17777,572.455178 1382.5496,571.826479 C1380.53943,570.191864 1379.03181,569.185947 1378.02673,568.808728 L1376.70756,568.620118 C1376.33065,568.620118 1376.11079,568.714423 1376.04797,568.903033 C1375.98515,569.091642 1375.92233,569.217382 1375.85952,569.280251 C1375.7967,569.343121 1375.76529,569.405991 1375.76529,569.468861 C1375.76529,569.531731 1375.0743,569.563166 1373.69231,569.563166 L1373.69231,544.441124 L1375.76529,544.441124 L1375.95374,547.081657 C1376.07938,548.967751 1376.45628,551.231065 1377.08446,553.871598 C1378.71772,560.787278 1381.23043,565.753994 1384.62258,568.771746 C1394.04523,575.561686 1404.53578,578.956657 1416.09423,578.956657 C1418.98384,578.956657 1421.81063,578.705178 1424.57461,578.202219 C1430.73074,576.190385 1433.80881,573.819822 1433.80881,569.167456 C1433.80881,568.664497 1433.62035,566.935577 1433.24345,563.980695 C1432.86654,561.025814 1430.35383,557.913757 1425.70533,554.644527 L1385.56484,528.239201 C1377.64982,523.083876 1373.69231,516.922633 1373.69231,509.755473 C1373.69231,502.336834 1377.83827,496.049852 1386.1302,490.894527 C1394.42213,485.739201 1404.41014,482.2 1416.09423,482.2 C1422.12472,482.2 1427.77831,482.954438 1433.05499,484.463314 C1436.11212,485.092012 1438.1851,485.406361 1439.27394,485.406361 C1440.78157,485.406361 1442.00651,485.123447 1442.94878,484.557618 C1443.89104,483.99179 1444.36217,483.331657 1444.36217,482.577219 L1444.36217,482.2 L1446.43516,482.2 Z M935.741107,482.2 C952.934783,482.2 967.559289,493.069565 967.559289,512.041897 L967.559289,571.725692 C967.559289,579.235573 973.685771,580.026087 975.06917,582.2 L935.543478,582.2 C936.926877,580.026087 943.05336,579.235573 943.05336,571.725692 L943.05336,512.041897 C943.05336,498.207905 933.567194,490.698024 922.302372,490.698024 C915.583004,490.895652 908.270751,494.057708 901.94664,501.36996 L901.94664,571.725692 C901.94664,579.235573 908.073123,580.026087 909.456522,582.2 L869.93083,582.2 C871.314229,580.026087 877.440711,579.235573 877.440711,571.725692 L877.440711,501.36996 C877.440711,493.860079 871.314229,493.069565 869.93083,490.895652 L901.94664,483.385771 L901.94664,495.441107 C911.828063,483.188142 924.278656,482.2 935.741107,482.2 Z M1038.8,482.2 L1038.8,558.6 C1038.8,562.733333 1039.73333,567.3 1041.6,572.3 C1043.46667,577.3 1046.2,579.8 1049.8,579.8 L1049.8,582 L1000,582 L1000,579.8 C1003.46667,579.8 1006.13333,577.3 1008,572.3 C1009.86667,567.3 1010.8,562.733333 1010.8,558.6 L1010.8,516.6 C1010.8,513.666667 1010.33333,511.3 1009.4,509.5 C1008.46667,507.7 1007.3,506.3 1005.9,505.3 C1004.5,504.3 1003.1,503.566667 1001.7,503.1 C1000.3,502.633333 999.066667,502.4 998,502.4 L996.6,502.2 L1038.8,482.2 Z M1515.2,482.2 L1515.2,558.6 C1515.2,562.733333 1516.13333,567.3 1518,572.3 C1519.86667,577.3 1522.6,579.8 1526.2,579.8 L1526.2,582 L1476.4,582 L1476.4,579.8 C1479.86667,579.8 1482.53333,577.3 1484.4,572.3 C1486.26667,567.3 1487.2,562.733333 1487.2,558.6 L1487.2,516.6 C1487.2,513.666667 1486.73333,511.3 1485.8,509.5 C1484.86667,507.7 1483.7,506.3 1482.3,505.3 C1480.9,504.3 1479.5,503.566667 1478.1,503.1 C1476.7,502.633333 1475.46667,502.4 1474.4,502.4 L1473,502.2 L1515.2,482.2 Z M575.168317,448 L617.940594,556.54 C620.868458,563.559048 624.591938,569.20619 629.111033,573.481429 C633.630127,577.756667 637.92645,579.958095 642,580.085714 L642,582 L580.132956,582 L580.132956,580.085714 C583.570014,580.085714 586.688826,578.554286 589.489392,575.491429 C591.27157,573.449524 592.162659,570.897143 592.162659,567.834286 C592.162659,566.047619 591.908062,564.133333 591.398868,562.091429 L586.625177,549.648571 L537.360679,549.648571 L531.441301,565.154286 C530.550212,567.579048 530.104668,569.748571 530.104668,571.662857 C530.104668,573.577143 530.868458,575.459524 532.39604,577.31 C533.923621,579.160476 536.46959,580.085714 540.033946,580.085714 L540.033946,582 L507,582 L507,580.085714 C516.674682,579.702857 523.612447,574.661905 527.813296,564.962857 L573.831683,448 L575.168317,448 Z M452.153846,448 C463.564103,448 473.307692,450.999048 481.384615,456.997143 C489.461538,462.995238 493.5,470.269524 493.5,478.82 C493.5,485.839048 490.775641,492.028571 485.326923,497.388571 C479.878205,502.748571 472.794872,506.449524 464.076923,508.491429 C476.25641,510.278095 486.288462,514.521429 494.173077,521.221429 C502.057692,527.921429 506,535.801905 506,544.862857 C506,555.2 501,563.97381 491,571.184286 C481,578.394762 468.948718,582 454.846154,582 L381,582 L381,580.085714 C384.589744,580.085714 388.051282,578.394762 391.384615,575.012857 C394.717949,571.630952 396.384615,566.749524 396.384615,560.368571 L396.384615,469.631429 C396.384615,463.122857 394.717949,458.209524 391.384615,454.891429 C388.051282,451.573333 384.589744,449.914286 381,449.914286 L381,448 L452.153846,448 Z M227.396247,448.191429 L270.659104,524.954286 L313.921961,448.191429 L357.950533,448.191429 L357.950533,450.105714 C354.24958,450.105714 350.771961,451.764762 347.517676,455.082857 C344.26339,458.400952 342.636247,463.314286 342.636247,469.822857 L342.636247,560.368571 C342.636247,566.877143 344.26339,571.790476 347.517676,575.108571 C350.771961,578.426667 354.24958,580.085714 357.950533,580.085714 L357.950533,582 L298.607676,582 L298.607676,580.085714 C302.181009,580.085714 305.626723,578.426667 308.944819,575.108571 C312.262914,571.790476 313.921961,566.877143 313.921961,560.368571 L315.836247,453.36 L259.17339,553.86 L217.441961,476.331429 L217.441961,560.368571 C217.441961,566.877143 219.069104,571.790476 222.32339,575.108571 C225.577676,578.426667 229.055295,580.085714 232.756247,580.085714 L232.756247,582 L198.299104,582 L198.299104,580.085714 C201.872438,580.085714 205.254342,578.426667 208.444819,575.108571 C211.635295,571.790476 213.358152,566.877143 213.61339,560.368571 L213.61339,472.885714 L199.639104,448.191429 L227.396247,448.191429 Z M442.372694,510 L426,510 L426,580 L442.372694,580 C451.907749,580 460.062731,576.519337 466.837638,569.558011 C473.612546,562.596685 477,554.217311 477,544.41989 C477,534.622468 473.612546,526.275322 466.837638,519.378453 C460.062731,512.481584 451.907749,510 442.372694,510 Z M563.479104,487.001 L539,547 L586,547 L563.479104,487.001 Z M1213.09934,486 C1208.72848,486 1205.41722,488.298637 1203.16556,492.895911 C1199.72185,499.988848 1198,507.738538 1198,520.085502 C1198,528.491945 1198.59603,533.483271 1199.78808,539 C1211.57616,539 1219.8543,537.226766 1224.62252,529.739777 C1226.87417,526.193309 1228,521.201983 1228,514.765799 C1228,512.664188 1227.86755,510.431227 1227.60265,508.066914 C1226.6755,500.711276 1225.11921,496.836431 1222.93377,492.501859 C1220.74834,488.167286 1217.4702,486 1213.09934,486 Z M438.487805,450 L426,450 L426,507 L438.487805,507 C446.422764,506.234899 452.99187,504.067114 458.195122,498.583893 C463.398374,493.100671 466,486.533557 466,478.88255 C466,471.231544 463.398374,464.66443 458.195122,459.181208 C452.99187,453.697987 446.422764,450.637584 438.487805,450 Z M1022.64,449.4 C1027.11429,449.4 1030.93286,451.008511 1034.09571,454.225532 C1037.25857,457.442553 1038.84,461.27234 1038.84,465.714894 C1038.84,470.157447 1037.25857,473.948936 1034.09571,477.089362 C1030.93286,480.229787 1027.11429,481.8 1022.64,481.8 C1018.16571,481.8 1014.34714,480.229787 1011.18429,477.089362 C1008.02143,473.948936 1006.44,470.157447 1006.44,465.714894 C1006.44,461.27234 1008.02143,457.442553 1011.18429,454.225532 C1014.34714,451.008511 1018.16571,449.4 1022.64,449.4 Z M1498.64,449.4 C1503.11429,449.4 1506.93286,451.008511 1510.09571,454.225532 C1513.25857,457.442553 1514.84,461.27234 1514.84,465.714894 C1514.84,470.157447 1513.25857,473.948936 1510.09571,477.089362 C1506.93286,480.229787 1503.11429,481.8 1498.64,481.8 C1494.16571,481.8 1490.34714,480.229787 1487.18429,477.089362 C1484.02143,473.948936 1482.44,470.157447 1482.44,465.714894 C1482.44,461.27234 1484.02143,457.442553 1487.18429,454.225532 C1490.34714,451.008511 1494.16571,449.4 1498.64,449.4 Z" id="MBA-University" fill="#FFFFFF" fill-rule="nonzero"></path>
    </g>
</svg>