<?xml version="1.0" encoding="UTF-8"?>
<svg width="1080px" height="1080px" viewBox="0 0 1080 1080" version="1.1" xmlns="http://www.w3.org/2000/svg" xmlns:xlink="http://www.w3.org/1999/xlink">
    <title>logo-branding-corporate-light-2023-ALL-RIGHTS-RESERVED-PENCIL-WORKS-LLC</title>
    <g id="logo-branding-corporate-light-2023-ALL-RIGHTS-RESERVED-PENCIL-WORKS-LLC" stroke="none" stroke-width="1" fill="none" fill-rule="evenodd">
        <rect id="Rectangle" fill="#FFFFFF" x="0" y="0" width="1080" height="540"></rect>
        <rect id="Rectangle-Copy" fill="#002967" x="0" y="540" width="1080" height="540"></rect>
        <path d="M695.569984,863.03218 L695.569984,863.296654 C695.09393,863.296654 694.855903,863.543497 694.855903,864.037183 C694.855903,864.513237 694.996956,865.077449 695.279062,865.729819 L697.923806,871.918521 L701.018157,864.645474 C701.123947,864.416263 701.176842,864.195867 701.176842,863.984288 C701.176842,863.89613 701.154802,863.759485 701.110723,863.574352 C701.066644,863.38922 700.806578,863.296654 700.330524,863.296654 L700.330524,863.03218 L703.1604,863.03218 L703.1604,863.296654 C702.208292,863.296654 701.608817,863.68455 701.361974,864.460342 L694.274059,881.122231 C694.080111,881.580654 693.815637,881.96855 693.480636,882.285919 C693.004582,882.761973 692.466817,883 691.867342,883 C691.109182,883 690.470035,882.660591 689.949902,881.981773 C689.429769,881.302956 689.152071,880.45223 689.116808,879.429595 L689.116808,879.403148 C689.116808,878.99762 689.262269,878.644988 689.55319,878.34525 C689.844112,878.045512 690.201153,877.895643 690.624312,877.895643 C691.047471,877.895643 691.404511,878.045512 691.695433,878.34525 C691.986355,878.644988 692.131816,878.99762 692.131816,879.403148 C692.131816,879.826307 691.986355,880.183347 691.695433,880.474269 C691.404511,880.765191 691.043063,880.910652 690.611088,880.910652 C690.179113,880.910652 689.963126,881.051705 689.963126,881.333811 C689.963126,881.563022 690.12181,881.836312 690.43918,882.153682 C690.862339,882.523946 691.338393,882.709078 691.867342,882.709078 C692.272869,882.709078 692.651949,882.59888 693.004582,882.378485 C693.357214,882.15809 693.63932,881.845128 693.8509,881.439601 L696.046038,876.308797 L691.68221,866.073636 C690.906418,864.222315 690.051284,863.296654 689.116808,863.296654 L689.116808,863.03218 L695.569984,863.03218 Z M555.424979,863.058627 C556.271297,863.058627 557.077944,863.243759 557.84492,863.614024 C558.611896,863.984288 559.237819,864.513237 559.722689,865.20087 C560.207558,865.888504 560.449993,866.699559 560.449993,867.634035 L560.449993,873.187998 C560.449993,873.75221 560.564599,874.360502 560.79381,875.012872 C561.023021,875.665242 561.375654,875.991427 561.851708,875.991427 L561.851708,876.282349 L558.810252,876.282349 C558.439988,876.282349 558.122618,876.23827 557.858144,876.150112 C557.593669,876.061954 557.377682,875.96498 557.210181,875.85919 C557.042681,875.7534 556.923667,875.656426 556.853141,875.568268 L556.747351,875.462479 C556.183139,875.797479 555.65419,876.066362 555.160505,876.269126 C554.666819,876.471889 554.058528,876.573271 553.335631,876.573271 C551.5901,876.573271 550.236872,876.247086 549.275948,875.594716 C548.315024,874.942345 547.834563,874.096027 547.834563,873.055761 C547.834563,872.138916 548.116669,871.407204 548.680881,870.860623 C549.245093,870.314043 549.941542,869.87766 550.770229,869.551475 C551.598915,869.22529 552.436418,868.938776 553.282736,868.691933 C554.234844,868.427458 555.050307,868.140944 555.729125,867.832391 C556.407942,867.523837 556.747351,867.09627 556.747351,866.54969 L556.747351,865.650477 C556.747351,864.222315 556.156692,863.508234 554.975372,863.508234 L554.684451,863.534681 C553.767606,863.693366 552.974182,864.06363 552.304181,864.645474 C552.72734,864.663106 553.079972,864.812974 553.362078,865.095081 C553.644184,865.377187 553.785237,865.721003 553.785237,866.126531 C553.785237,866.54969 553.639776,866.90673 553.348855,867.197652 C553.057933,867.488574 552.709708,867.634035 552.304181,867.634035 C551.881021,867.634035 551.523981,867.488574 551.233059,867.197652 C550.942137,866.90673 550.796676,866.54969 550.796676,866.126531 C550.796676,865.738635 550.937729,865.394818 551.219835,865.095081 C552.260101,863.737445 553.661816,863.058627 555.424979,863.058627 Z M501.657326,872.817734 C502.168643,872.817734 502.609434,872.998458 502.979698,873.359907 C503.349962,873.721355 503.535094,874.157738 503.535094,874.669055 C503.535094,875.198004 503.349962,875.643203 502.979698,876.004651 C502.609434,876.3661 502.168643,876.546824 501.657326,876.546824 C501.146008,876.546824 500.709626,876.3661 500.348177,876.004651 C499.986729,875.643203 499.806005,875.198004 499.806005,874.669055 C499.806005,874.157738 499.986729,873.721355 500.348177,873.359907 C500.709626,872.998458 501.146008,872.817734 501.657326,872.817734 Z M635.798761,862.794153 C636.786132,862.794153 637.689753,862.979285 638.509624,863.349549 C639.329495,863.719813 640.003904,864.25317 640.532853,864.94962 C641.061802,865.646069 641.326277,866.532058 641.326277,867.607588 C641.326277,869.018118 640.532853,869.934963 638.946007,870.358122 C638.046794,870.604965 636.87429,870.728386 635.428497,870.728386 L634.053229,870.728386 C634.511652,873.161551 635.648892,874.378133 637.46495,874.378133 C638.240741,874.378133 638.884296,874.232672 639.395613,873.94175 C639.90693,873.650829 640.321274,873.320236 640.638643,872.949971 C640.920749,872.632602 641.132329,872.332864 641.273382,872.050758 L641.537856,871.521809 L641.299829,872.288785 C641.141144,872.800102 640.859038,873.381946 640.453511,874.034317 C640.047983,874.686687 639.470548,875.268531 638.721203,875.779848 C637.971859,876.291165 636.997712,876.546824 635.798761,876.546824 C634.159019,876.546824 632.757305,875.872414 631.593617,874.523594 C630.42993,873.174775 629.848086,871.557073 629.848086,869.670488 C629.848086,867.766272 630.42993,866.144162 631.593617,864.804159 C632.757305,863.464155 634.159019,862.794153 635.798761,862.794153 Z M801.818044,857.769139 L796.555003,865.30666 C798.106586,865.624029 799.371655,866.294031 800.350211,867.316666 C801.328766,868.3393 801.818044,869.520619 801.818044,870.860623 C801.818044,872.412207 801.15245,873.747803 799.821262,874.867411 C798.490074,875.987019 796.890004,876.546824 795.021051,876.546824 C793.240256,876.546824 791.723936,876.15452 790.47209,875.369912 C789.220245,874.585305 788.470901,873.575894 788.224058,872.34168 L788.19761,871.944968 C788.19761,871.468914 788.365111,871.019308 788.700112,870.596149 C789.035113,870.17299 789.537614,869.96141 790.207616,869.96141 C790.754197,869.96141 791.225843,870.155358 791.622554,870.543254 C792.019266,870.93115 792.217622,871.407204 792.217622,871.971416 C792.217622,872.517996 792.019266,872.989643 791.622554,873.386354 C791.225843,873.783066 790.754197,873.981422 790.207616,873.981422 C789.92551,873.981422 789.661036,873.928527 789.414193,873.822737 C790.401564,874.563265 791.591699,874.93353 792.984598,874.93353 C793.584073,874.93353 794.245259,874.832148 794.968156,874.629384 C795.691053,874.42662 796.347831,874.034317 796.938491,873.452473 C797.52915,872.870629 797.82448,872.138916 797.82448,871.257335 C797.82448,870.358122 797.709874,869.626409 797.480663,869.062197 C797.075136,868.145352 796.493292,867.51943 795.735132,867.184429 C795.417762,867.061007 795.206183,866.999296 795.100393,866.999296 L798.776588,861.762703 L789.123271,861.762703 L791.979595,857.769139 L801.818044,857.769139 Z M666.900955,862.794153 L666.900955,865.676924 L666.610033,865.676924 L666.610033,865.597582 C666.610033,865.474161 666.583585,865.289028 666.530691,865.042186 C666.336743,864.354552 665.873912,863.838827 665.1422,863.49501 C664.410487,863.151193 663.577393,862.979285 662.642916,862.979285 C662.272652,862.979285 661.92002,863.005732 661.585019,863.058627 C660.650542,863.287839 660.183304,863.799156 660.183304,864.592579 C660.183304,864.839422 660.267054,865.152383 660.434555,865.531463 C660.602055,865.910543 660.897385,866.241136 661.320544,866.523242 L666.95385,870.252332 C668.029379,870.957597 668.567144,871.812731 668.567144,872.817734 C668.567144,873.840369 667.989708,874.717542 666.834836,875.449255 C665.679964,876.180967 664.282658,876.546824 662.642916,876.546824 C661.05607,876.546824 659.724882,876.220639 658.649352,875.568268 C658.261456,875.339057 658.023429,875.180372 657.935271,875.092214 C657.653165,874.863003 657.441586,874.72195 657.300533,874.669055 L657.115401,874.642608 C657.062506,874.642608 657.03165,874.655831 657.022834,874.682279 C657.014019,874.708726 657.005203,874.726358 656.996387,874.735174 C656.987571,874.74399 656.983163,874.752805 656.983163,874.761621 C656.983163,874.770437 656.886189,874.774845 656.692241,874.774845 L656.692241,871.521809 L656.983163,871.521809 L657.009611,871.892074 C657.027242,872.156548 657.080137,872.473917 657.168295,872.844182 C657.397507,873.813921 657.750139,874.510371 658.226193,874.93353 C659.548565,875.885638 661.020806,876.361692 662.642916,876.361692 C663.048444,876.361692 663.445155,876.326428 663.833051,876.255902 C664.697001,875.973796 665.128976,875.506558 665.128976,874.854187 C665.128976,874.783661 665.102529,874.541226 665.049634,874.126883 C664.996739,873.712539 664.644106,873.276156 663.991736,872.817734 L658.35843,869.115092 C657.247638,868.392195 656.692241,867.528245 656.692241,866.523242 C656.692241,865.482976 657.274085,864.601395 658.437773,863.878498 C659.60146,863.155601 661.003175,862.794153 662.642916,862.794153 C663.489235,862.794153 664.282658,862.899943 665.023186,863.111522 L665.023186,863.085075 C665.375819,863.190865 665.666741,863.243759 665.895952,863.243759 C666.107531,863.243759 666.27944,863.204088 666.411677,863.124746 C666.543914,863.045404 666.610033,862.952838 666.610033,862.847048 L666.610033,862.794153 L666.900955,862.794153 Z M763.416355,857.531112 C764.932676,857.531112 766.312351,857.958679 767.55538,858.813813 C768.79841,859.668947 769.790189,860.815003 770.530718,862.25198 C771.271246,863.688958 771.64151,865.280213 771.64151,867.025744 C771.64151,868.788907 771.271246,870.388977 770.530718,871.825955 C769.790189,873.262933 768.79841,874.408989 767.55538,875.264123 C766.312351,876.119257 764.932676,876.546824 763.416355,876.546824 C761.882404,876.546824 760.493913,876.119257 759.250883,875.264123 C758.007853,874.408989 757.016074,873.262933 756.275546,871.825955 C755.535017,870.388977 755.164753,868.788907 755.164753,867.025744 C755.164753,865.280213 755.535017,863.688958 756.275546,862.25198 C757.016074,860.815003 758.007853,859.668947 759.250883,858.813813 C760.493913,857.958679 761.882404,857.531112 763.416355,857.531112 Z M819.405594,857.504664 C821.133494,857.504664 822.698301,857.932231 824.100015,858.787365 C825.50173,859.642499 826.612523,860.788555 827.432393,862.225533 C828.252264,863.662511 828.662199,865.253765 828.662199,866.999296 C828.662199,868.762459 828.252264,870.366938 827.432393,871.812731 C826.612523,873.258525 825.50173,874.408989 824.100015,875.264123 C822.698301,876.119257 821.133494,876.546824 819.405594,876.546824 C817.660063,876.546824 816.077624,876.119257 814.658278,875.264123 C813.238932,874.408989 812.110507,873.258525 811.273005,871.812731 C810.435503,870.366938 810.016751,868.762459 810.016751,866.999296 C810.016751,865.253765 810.435503,863.662511 811.273005,862.225533 C812.110507,860.788555 813.238932,859.642499 814.658278,858.787365 C816.077624,857.932231 817.660063,857.504664 819.405594,857.504664 Z M567.114749,872.817734 C567.626066,872.817734 568.066857,872.998458 568.437121,873.359907 C568.807386,873.721355 568.992518,874.157738 568.992518,874.669055 C568.992518,875.198004 568.807386,875.643203 568.437121,876.004651 C568.066857,876.3661 567.626066,876.546824 567.114749,876.546824 C566.603432,876.546824 566.167049,876.3661 565.805601,876.004651 C565.444152,875.643203 565.263428,875.198004 565.263428,874.669055 C565.263428,874.157738 565.444152,873.721355 565.805601,873.359907 C566.167049,872.998458 566.603432,872.817734 567.114749,872.817734 Z M879.1277,763.08729 L879.1277,764.598572 C876.407392,764.598572 875.047238,766.009102 875.047238,768.830163 C875.047238,771.550472 875.853255,774.774541 877.46529,778.502371 L891.066832,813.866382 L908.748838,772.306113 C909.353351,770.996335 909.655607,769.736933 909.655607,768.527907 C909.655607,768.024146 909.529667,767.243316 909.277786,766.185419 C909.025906,765.127521 907.539812,764.598572 904.819503,764.598572 L904.819503,763.08729 L922.501508,763.08729 L922.501508,764.598572 C917.060891,764.598572 913.635318,766.81512 912.224787,771.248215 C899.356869,802.576267 889.705931,825.946365 883.271972,841.35851 C880.873324,847.10432 877.275353,855.471154 872.478057,866.459013 C871.369784,869.078569 869.858501,871.295117 867.94421,873.108656 C865.223901,875.828965 861.395319,876.433478 857.969745,876.433478 C853.637402,876.433478 849.985136,874.493998 847.012947,870.61504 C844.040758,866.736081 842.453912,861.874789 842.252407,856.031164 L842.252407,855.880035 C842.252407,853.562736 843.083613,851.547692 844.746023,849.834905 C846.408434,848.122119 849.204307,846.510084 851.622359,846.510084 C854.040411,846.510084 856.080642,847.366477 857.743053,849.079264 C859.405464,850.792051 860.236669,852.807094 860.236669,855.124394 C860.236669,857.542446 859.405464,859.582678 857.743053,861.245088 C856.080642,862.907499 854.015223,863.738704 851.546795,863.738704 C849.078367,863.738704 848.599794,865.300363 848.599794,866.912398 C848.599794,868.222176 849.506563,869.028193 851.320102,870.841732 C853.738154,872.957528 855.702822,874.015426 858.725387,874.015426 C861.042686,874.015426 862.453217,874.141366 864.46826,872.881964 C866.483304,871.622562 868.095338,869.834211 869.304364,867.516911 L881.848009,838.953671 L856.911848,780.467038 C852.478752,769.888061 847.592272,764.598572 842.252407,764.598572 L842.252407,763.08729 L879.1277,763.08729 Z M612.73659,863.085075 L612.73659,873.187998 C612.73659,873.734579 612.860011,874.338462 613.106854,874.999648 C613.353697,875.660834 613.715145,875.991427 614.191199,875.991427 L614.191199,876.282349 L607.605786,876.282349 L607.605786,875.991427 C608.064208,875.991427 608.416841,875.660834 608.663683,874.999648 C608.910526,874.338462 609.033948,873.734579 609.033948,873.187998 L609.033948,867.634035 C609.033948,867.246139 608.972237,866.933178 608.848816,866.695151 C608.725394,866.457124 608.571117,866.271992 608.385985,866.139755 C608.200853,866.007517 608.015721,865.910543 607.830589,865.848833 C607.645457,865.787122 607.482364,865.756267 607.341311,865.756267 L607.156179,865.729819 L612.73659,863.085075 Z M675.734401,863.085075 L675.734401,873.187998 C675.734401,873.734579 675.857822,874.338462 676.104665,874.999648 C676.351508,875.660834 676.712956,875.991427 677.18901,875.991427 L677.18901,876.282349 L670.603597,876.282349 L670.603597,875.991427 C671.062019,875.991427 671.414652,875.660834 671.661495,874.999648 C671.908337,874.338462 672.031759,873.734579 672.031759,873.187998 L672.031759,867.634035 C672.031759,867.246139 671.970048,866.933178 671.846627,866.695151 C671.723205,866.457124 671.568929,866.271992 671.383796,866.139755 C671.198664,866.007517 671.013532,865.910543 670.8284,865.848833 C670.643268,865.787122 670.480175,865.756267 670.339122,865.756267 L670.15399,865.729819 L675.734401,863.085075 Z M780.051798,857.504664 C780.474957,857.504664 781.052393,857.579599 781.784105,857.729467 C782.515818,857.879336 783.260754,858.157034 784.018914,858.562562 C784.777074,858.968089 785.420629,859.541117 785.949578,860.281646 C786.478526,861.022174 786.743001,861.991914 786.743001,863.190865 C786.743001,864.477973 786.408,865.487384 785.737998,866.219097 C785.067996,866.950809 784.21727,867.523837 783.18582,867.938181 C782.154369,868.352524 781.0568,868.71838 779.893113,869.03575 C778.641267,869.370751 777.468764,869.77187 776.375603,870.239108 C775.282442,870.706347 774.44494,871.380756 773.863096,872.262338 L786.743001,872.262338 L783.886677,876.282349 L772.831645,876.282349 C772.831645,874.431028 773.131383,872.954379 773.730859,871.852402 C774.330334,870.750426 775.070862,869.864436 775.952444,869.194434 C776.834025,868.524432 777.742054,867.942589 778.676531,867.448903 C779.364164,867.078639 779.998903,866.690743 780.580746,866.285215 C781.16259,865.879688 781.634236,865.408042 781.995685,864.870277 C782.357133,864.332513 782.537857,863.658103 782.537857,862.847048 C782.484962,861.313096 782.061803,860.219935 781.26838,859.567565 C780.527852,858.968089 779.699165,858.668352 778.78232,858.668352 C778.729425,858.668352 778.442911,858.677167 777.922778,858.694799 C777.402645,858.712431 776.834025,858.985721 776.216918,859.51467 C776.763499,859.532301 777.221921,859.735065 777.592185,860.122961 C777.96245,860.510857 778.147582,860.978095 778.147582,861.524676 C778.147582,862.071256 777.953634,862.542902 777.565738,862.939614 C777.177842,863.336325 776.701788,863.534681 776.137576,863.534681 C775.590995,863.534681 775.119349,863.336325 774.722638,862.939614 C774.325926,862.542902 774.12757,862.071256 774.12757,861.524676 C774.12757,861.24257 774.206913,860.876713 774.365597,860.427107 C774.524282,859.9775 774.815204,859.532301 775.238363,859.091511 C775.661522,858.65072 776.260997,858.276048 777.036789,857.967494 C777.812581,857.658941 778.817584,857.504664 780.051798,857.504664 Z M685.123244,857.769139 L685.123244,862.185862 L687.794435,862.185862 L687.794435,862.476784 L685.123244,862.476784 L685.123244,872.844182 C685.123244,873.249709 685.184954,873.694908 685.308376,874.179777 C685.431797,874.664647 685.612521,875.083398 685.850548,875.436031 C686.088575,875.788664 686.375089,875.96498 686.71009,875.96498 L686.71009,876.282349 L685.123244,876.282349 C683.977188,876.282349 683.00304,875.876822 682.200801,875.065767 C681.398562,874.254712 680.997442,873.284972 680.997442,872.156548 L680.997442,862.8206 L680.970995,862.476784 L678.511383,862.476784 L678.511383,862.185862 L680.9181,862.185862 C680.81231,861.815597 680.653626,861.529084 680.442046,861.32632 C680.230466,861.123556 680.005663,860.978095 679.767636,860.889937 C679.529609,860.801779 679.322438,860.748884 679.146121,860.731252 L678.908094,860.704805 L685.123244,857.769139 Z M482.906088,863.058627 L482.906088,863.323102 C482.447666,863.323102 482.218454,863.561129 482.218454,864.037183 L482.218454,864.116525 C482.218454,864.574947 482.350692,865.112712 482.615166,865.729819 L485.207016,871.839179 L488.962553,863.058627 L492.691642,871.839179 L495.759546,864.645474 C495.847704,864.433894 495.891783,864.231131 495.891783,864.037183 C495.891783,863.931393 495.874151,863.785932 495.838888,863.6008 C495.803625,863.415668 495.556782,863.323102 495.09836,863.323102 L495.09836,863.058627 L497.875341,863.058627 L497.875341,863.323102 C496.940865,863.323102 496.350205,863.702182 496.103362,864.460342 L491.078348,876.282349 L490.893216,876.282349 L487.243469,867.713377 L483.593721,876.282349 L483.408589,876.282349 L479.044761,866.047188 C478.304233,864.231131 477.46673,863.323102 476.532254,863.323102 L476.532254,863.058627 L482.906088,863.058627 Z M585.839539,863.058627 L585.839539,873.161551 C585.839539,873.725763 585.962961,874.338462 586.209804,874.999648 C586.456646,875.660834 586.818095,875.991427 587.294149,875.991427 L587.294149,876.282349 L582.11045,876.282349 L582.11045,875.621163 C581.317026,876.044322 580.408998,876.264718 579.386363,876.282349 C577.975833,876.247086 576.776882,875.841559 575.789511,875.065767 C574.802139,874.289975 574.308454,873.302604 574.308454,872.103653 L574.308454,867.607588 C574.308454,866.937586 574.088058,866.4439 573.647268,866.126531 C573.329898,865.89732 572.986082,865.765082 572.615817,865.729819 L572.430685,865.703372 L578.037543,863.058627 L578.037543,873.58471 C578.072807,875.189188 578.584124,875.991427 579.571495,875.991427 C580.541235,875.956164 581.387553,875.726953 582.11045,875.303794 L582.11045,867.607588 C582.11045,867.219692 582.048739,866.90673 581.925318,866.668703 C581.801896,866.430676 581.64762,866.245544 581.462487,866.113307 C581.277355,865.98107 581.092223,865.884096 580.907091,865.822385 C580.721959,865.760675 580.567682,865.729819 580.444261,865.729819 L580.232681,865.703372 L585.839539,863.058627 Z M439.74386,863.058627 L439.74386,863.323102 C439.285437,863.323102 439.056226,863.561129 439.056226,864.037183 L439.056226,864.116525 C439.056226,864.574947 439.188463,865.112712 439.452938,865.729819 L442.044787,871.839179 L445.800324,863.058627 L449.529414,871.839179 L452.597317,864.645474 C452.685475,864.433894 452.729554,864.231131 452.729554,864.037183 C452.729554,863.931393 452.711923,863.785932 452.67666,863.6008 C452.641396,863.415668 452.394554,863.323102 451.936131,863.323102 L451.936131,863.058627 L454.713113,863.058627 L454.713113,863.323102 C453.778636,863.323102 453.187977,863.702182 452.941134,864.460342 L447.91612,876.282349 L447.730988,876.282349 L444.08124,867.713377 L440.431493,876.282349 L440.246361,876.282349 L435.882533,866.047188 C435.142004,864.231131 434.304502,863.323102 433.370026,863.323102 L433.370026,863.058627 L439.74386,863.058627 Z M621.596483,863.085075 L621.596483,863.375997 C621.138061,863.375997 620.90885,863.640471 620.90885,864.16942 C620.90885,864.610211 621.041087,865.13916 621.305562,865.756267 L623.897411,871.839179 L626.965315,864.698369 C627.053473,864.469158 627.097552,864.257578 627.097552,864.06363 C627.097552,863.975472 627.07992,863.838827 627.044657,863.653695 C627.009394,863.468563 626.762551,863.375997 626.304128,863.375997 L626.304128,863.085075 L629.054663,863.085075 L629.054663,863.375997 C628.137818,863.375997 627.555974,863.755077 627.309131,864.513237 L622.284117,876.282349 L622.098985,876.282349 L617.761604,866.073636 C617.021076,864.27521 616.183573,863.375997 615.249097,863.375997 L615.249097,863.085075 L621.596483,863.085075 Z M763.416355,857.795586 C762.199773,857.795586 761.168323,858.699207 760.322004,860.506449 C759.475686,862.313691 759.052527,864.486789 759.052527,867.025744 C759.052527,869.58233 759.475686,871.764244 760.322004,873.571486 C761.168323,875.378728 762.199773,876.282349 763.416355,876.282349 C764.615306,876.282349 765.637941,875.378728 766.484259,873.571486 C767.330577,871.764244 767.753736,869.58233 767.753736,867.025744 C767.753736,864.486789 767.330577,862.313691 766.484259,860.506449 C765.637941,858.699207 764.615306,857.795586 763.416355,857.795586 Z M537.863876,856.420319 L537.863876,863.270207 C538.498615,863.005732 539.159801,862.873495 539.847435,862.873495 C541.469544,862.873495 542.853627,863.530273 543.999683,864.84383 C545.145739,866.157386 545.718767,867.739825 545.718767,869.591146 C545.718767,871.424835 545.145739,872.998458 543.999683,874.312015 C542.853627,875.625571 541.469544,876.282349 539.847435,876.282349 C539.159801,876.282349 538.498615,876.150112 537.863876,875.885638 L537.863876,876.282349 L532.680177,876.282349 L532.680177,875.991427 C533.156231,875.991427 533.51768,875.660834 533.764522,874.999648 C534.011365,874.338462 534.134787,873.725763 534.134787,873.161551 L534.134787,860.995727 C534.134787,860.607831 534.068668,860.294869 533.936431,860.056842 C533.804194,859.818815 533.645509,859.629275 533.460377,859.488222 C533.275245,859.347169 533.090113,859.250195 532.904981,859.197301 C532.719848,859.144406 532.556756,859.109142 532.415703,859.091511 L532.230571,859.065063 L537.863876,856.420319 Z M461.324974,863.058627 L461.324974,863.323102 C460.866551,863.323102 460.63734,863.561129 460.63734,864.037183 L460.63734,864.116525 C460.63734,864.574947 460.769577,865.112712 461.034052,865.729819 L463.625901,871.839179 L467.381438,863.058627 L471.110528,871.839179 L474.178431,864.645474 C474.26659,864.433894 474.310669,864.231131 474.310669,864.037183 C474.310669,863.931393 474.293037,863.785932 474.257774,863.6008 C474.222511,863.415668 473.975668,863.323102 473.517245,863.323102 L473.517245,863.058627 L476.294227,863.058627 L476.294227,863.323102 C475.359751,863.323102 474.769091,863.702182 474.522248,864.460342 L469.497234,876.282349 L469.312102,876.282349 L465.662355,867.713377 L462.012607,876.282349 L461.827475,876.282349 L457.463647,866.047188 C456.723118,864.231131 455.885616,863.323102 454.95114,863.323102 L454.95114,863.058627 L461.324974,863.058627 Z M598.269838,863.058627 C599.04563,863.058627 599.825829,863.22172 600.610437,863.547905 C601.395044,863.87409 602.043007,864.350144 602.554324,864.976067 C603.065641,865.60199 603.3213,866.355742 603.3213,867.237323 L603.3213,873.161551 C603.3213,873.725763 603.444721,874.338462 603.691564,874.999648 C603.938407,875.660834 604.299855,875.991427 604.775909,875.991427 L604.775909,876.282349 L599.618658,876.282349 L599.618658,865.756267 C599.583394,864.151788 599.063261,863.349549 598.058258,863.349549 C597.10615,863.384812 596.259832,863.614024 595.519304,864.037183 L595.519304,873.161551 C595.519304,873.725763 595.642725,874.338462 595.889568,874.999648 C596.136411,875.660834 596.489043,875.991427 596.947466,875.991427 L596.947466,876.282349 L590.362052,876.282349 L590.362052,875.991427 C590.820475,875.991427 591.173107,875.660834 591.41995,874.999648 C591.666793,874.338462 591.790214,873.725763 591.790214,873.161551 L591.790214,867.607588 C591.790214,867.237323 591.728504,866.92877 591.605082,866.681927 C591.481661,866.435084 591.327384,866.245544 591.142252,866.113307 C590.95712,865.98107 590.771988,865.888504 590.586856,865.835609 C590.401723,865.782714 590.238631,865.747451 590.097578,865.729819 L589.912446,865.703372 L595.519304,863.058627 L595.519304,863.719813 C596.330359,863.279023 597.247203,863.058627 598.269838,863.058627 Z M746.754466,857.504664 C747.177625,857.504664 747.755061,857.579599 748.486773,857.729467 C749.218486,857.879336 749.963422,858.157034 750.721582,858.562562 C751.479742,858.968089 752.123297,859.541117 752.652246,860.281646 C753.181195,861.022174 753.445669,861.991914 753.445669,863.190865 C753.445669,864.477973 753.110668,865.487384 752.440666,866.219097 C751.770664,866.950809 750.919938,867.523837 749.888488,867.938181 C748.857038,868.352524 747.759469,868.71838 746.595781,869.03575 C745.343935,869.370751 744.171432,869.77187 743.078271,870.239108 C741.98511,870.706347 741.147608,871.380756 740.565764,872.262338 L753.445669,872.262338 L750.589345,876.282349 L739.534314,876.282349 C739.534314,874.431028 739.834051,872.954379 740.433527,871.852402 C741.033002,870.750426 741.773531,869.864436 742.655112,869.194434 C743.536693,868.524432 744.444722,867.942589 745.379199,867.448903 C746.066832,867.078639 746.701571,866.690743 747.283415,866.285215 C747.865258,865.879688 748.336905,865.408042 748.698353,864.870277 C749.059801,864.332513 749.240526,863.658103 749.240526,862.847048 C749.187631,861.313096 748.764472,860.219935 747.971048,859.567565 C747.23052,858.968089 746.401833,858.668352 745.484988,858.668352 C745.432094,858.668352 745.14558,858.677167 744.625447,858.694799 C744.105314,858.712431 743.536693,858.985721 742.919586,859.51467 C743.466167,859.532301 743.924589,859.735065 744.294854,860.122961 C744.665118,860.510857 744.85025,860.978095 744.85025,861.524676 C744.85025,862.071256 744.656302,862.542902 744.268406,862.939614 C743.88051,863.336325 743.404456,863.534681 742.840244,863.534681 C742.293664,863.534681 741.822018,863.336325 741.425306,862.939614 C741.028594,862.542902 740.830238,862.071256 740.830238,861.524676 C740.830238,861.24257 740.909581,860.876713 741.068265,860.427107 C741.22695,859.9775 741.517872,859.532301 741.941031,859.091511 C742.36419,858.65072 742.963666,858.276048 743.739457,857.967494 C744.515249,857.658941 745.520252,857.504664 746.754466,857.504664 Z M523.13265,863.058627 C523.961337,863.058627 524.763576,863.230536 525.539367,863.574352 C526.315159,863.918169 526.954306,864.407447 527.456807,865.042186 C527.959309,865.676924 528.210559,866.408637 528.210559,867.237323 L528.210559,873.161551 C528.210559,873.725763 528.333981,874.338462 528.580823,874.999648 C528.827666,875.660834 529.180299,875.991427 529.638721,875.991427 L529.638721,876.282349 L524.48147,876.282349 L524.48147,865.756267 C524.446206,864.151788 523.926073,863.349549 522.92107,863.349549 C521.475277,863.420076 520.311589,863.89613 519.430008,864.777711 C520.064747,865.500608 520.382116,866.320479 520.382116,867.237323 L520.382116,873.161551 C520.382116,873.725763 520.505537,874.338462 520.75238,874.999648 C520.999223,875.660834 521.360671,875.991427 521.836725,875.991427 L521.836725,876.282349 L516.679474,876.282349 L516.679474,865.756267 C516.64421,864.151788 516.124077,863.349549 515.119075,863.349549 C514.166967,863.384812 513.320648,863.614024 512.58012,864.037183 L512.58012,873.161551 C512.58012,873.725763 512.703541,874.338462 512.950384,874.999648 C513.197227,875.660834 513.54986,875.991427 514.008282,875.991427 L514.008282,876.282349 L507.422868,876.282349 L507.422868,875.991427 C507.881291,875.991427 508.233923,875.660834 508.480766,874.999648 C508.727609,874.338462 508.85103,873.725763 508.85103,873.161551 L508.85103,867.607588 C508.85103,867.237323 508.78932,866.92877 508.665898,866.681927 C508.542477,866.435084 508.3882,866.245544 508.203068,866.113307 C508.017936,865.98107 507.832804,865.888504 507.647672,865.835609 C507.46254,865.782714 507.299447,865.747451 507.158394,865.729819 L506.973262,865.703372 L512.58012,863.058627 L512.58012,863.719813 C513.391175,863.279023 514.30802,863.058627 515.330654,863.058627 C516.882237,863.058627 518.178162,863.561129 519.218428,864.566132 C520.258694,863.561129 521.563435,863.058627 523.13265,863.058627 Z M652.011044,863.058627 C652.381308,863.058627 652.830915,863.11593 653.359864,863.230536 C653.888812,863.345141 654.356051,863.569945 654.761578,863.904946 C655.167106,864.239946 655.369869,864.733632 655.369869,865.386002 C655.369869,865.809161 655.224408,866.166202 654.933486,866.457124 C654.642565,866.748046 654.285524,866.893507 653.862365,866.893507 C653.456837,866.893507 653.108613,866.748046 652.817691,866.457124 C652.526769,866.166202 652.381308,865.773898 652.381308,865.280213 C652.381308,865.156791 652.434203,864.940804 652.539993,864.63225 C652.645783,864.323697 652.698677,864.054814 652.698677,863.825603 L652.698677,863.561129 C652.698677,863.420076 652.469466,863.349549 652.011044,863.349549 C650.988409,863.349549 650.071565,863.57876 649.26051,864.037183 L649.26051,873.161551 C649.26051,873.725763 649.383931,874.338462 649.630774,874.999648 C649.877617,875.660834 650.230249,875.991427 650.688672,875.991427 L650.688672,876.282349 L644.103258,876.282349 L644.103258,875.991427 C644.561681,875.991427 644.914313,875.660834 645.161156,874.999648 C645.407999,874.338462 645.53142,873.725763 645.53142,873.161551 L645.53142,867.607588 C645.53142,867.237323 645.469709,866.933178 645.346288,866.695151 C645.222867,866.457124 645.06859,866.267584 644.883458,866.126531 C644.698326,865.985478 644.513194,865.888504 644.328061,865.835609 C644.142929,865.782714 643.988653,865.747451 643.865231,865.729819 L643.653652,865.703372 L649.26051,863.058627 L649.26051,863.719813 C650.071565,863.279023 650.988409,863.058627 652.011044,863.058627 Z M556.747351,866.919954 C556.747351,867.360745 556.544587,867.766272 556.13906,868.136537 C555.733532,868.506801 555.248663,868.885881 554.684451,869.273777 C554.226028,869.573514 553.78083,869.899699 553.348855,870.252332 C552.91688,870.604965 552.559839,870.99286 552.277733,871.41602 C551.995627,871.839179 551.854574,872.324049 551.854574,872.870629 C551.854574,873.893264 552.079377,874.669055 552.528984,875.198004 C552.97859,875.726953 553.54721,875.991427 554.234844,875.991427 C554.816688,875.991427 555.3809,875.845966 555.92748,875.555045 C556.474061,875.264123 556.747351,874.766029 556.747351,874.060764 L556.747351,866.919954 Z M538.895327,863.164417 C538.542694,863.164417 538.198877,863.279023 537.863876,863.508234 L537.863876,875.674058 C538.198877,875.885638 538.542694,875.991427 538.895327,875.991427 C539.776908,875.991427 540.535068,875.365505 541.169807,874.113659 C541.804545,872.861813 542.121915,871.354309 542.121915,869.591146 C542.121915,867.810351 541.804545,866.294031 541.169807,865.042186 C540.535068,863.79034 539.776908,863.164417 538.895327,863.164417 Z M819.405594,858.245193 C817.078219,858.245193 815.041766,859.100327 813.296235,860.810595 C811.62123,862.591389 810.783727,864.65429 810.783727,866.999296 C810.783727,869.361935 811.62123,871.442467 813.296235,873.240893 C815.041766,874.951161 817.078219,875.806295 819.405594,875.806295 C821.697706,875.806295 823.707712,874.951161 825.435611,873.240893 C827.092984,871.442467 827.921671,869.361935 827.921671,866.999296 C827.921671,864.65429 827.092984,862.591389 825.435611,860.810595 C823.707712,859.100327 821.697706,858.245193 819.405594,858.245193 Z M819.379147,861.498228 C820.366518,861.498228 821.212836,861.806782 821.918101,862.423889 C822.623366,863.040996 823.143499,863.843235 823.4785,864.830606 C823.531395,864.936396 823.566659,865.03337 823.58429,865.121528 L823.610738,865.359555 C823.610738,865.712188 823.487316,866.011925 823.240473,866.258768 C822.993631,866.505611 822.693893,866.629032 822.34126,866.629032 C821.988628,866.629032 821.68889,866.505611 821.442047,866.258768 C821.195204,866.011925 821.071783,865.712188 821.071783,865.359555 C821.071783,865.218502 821.089415,865.086265 821.124678,864.962843 L821.151125,864.301657 C821.151125,863.384812 820.93073,862.679547 820.489939,862.185862 C820.154938,861.833229 819.784674,861.656913 819.379147,861.656913 C818.814934,861.656913 818.409407,862.00073 818.162564,862.688363 C817.915721,863.375997 817.765853,864.266394 817.712958,865.359555 C817.712958,869.09746 818.726776,870.966413 820.754414,870.966413 L820.780861,870.966413 C821.556653,870.93115 822.182576,870.737202 822.65863,870.384569 C823.238514,869.945738 823.665156,869.444216 823.938555,868.880004 L824.033897,868.665485 C823.85758,869.441277 823.531395,870.181806 823.055341,870.887071 C822.191391,872.121285 820.965993,872.738392 819.379147,872.738392 C818.039143,872.738392 816.893087,872.187403 815.940979,871.085427 C814.988871,869.98345 814.512817,868.65667 814.512817,867.105086 C814.512817,865.571135 814.988871,864.25317 815.940979,863.151193 C816.893087,862.049217 818.039143,861.498228 819.379147,861.498228 Z M635.798761,862.979285 C635.216917,862.979285 634.776126,863.287839 634.476389,863.904946 C634.017966,864.857054 633.788755,866.161794 633.788755,867.819167 C633.788755,868.947592 633.868097,869.882068 634.026782,870.622596 C635.595997,870.622596 636.697974,870.120095 637.332713,869.115092 C637.63245,868.639038 637.782319,867.969036 637.782319,867.105086 C637.782319,866.82298 637.764687,866.523242 637.729424,866.205873 C637.606003,865.218502 637.398831,864.433894 637.107909,863.852051 C636.816987,863.270207 636.380605,862.979285 635.798761,862.979285 Z M715.00242,857.391318 L715.00242,859.257752 L714.863886,859.257752 C714.863886,858.995796 714.803855,858.733841 714.683792,858.471885 C714.415959,857.845063 713.903382,857.531651 713.146062,857.531651 L711.8854,857.531651 L711.8854,865.628887 C711.8854,866.096665 712.005463,866.454515 712.245589,866.702437 C712.485715,866.95036 712.735077,867.074321 712.993674,867.074321 L712.993674,867.214654 L708.699113,867.214654 L708.699113,867.074321 C708.95771,867.074321 709.207072,866.95036 709.447198,866.702437 C709.687324,866.454515 709.807387,866.096665 709.807387,865.628887 L709.807387,857.531651 L708.546725,857.531651 C707.780169,857.531651 707.262975,857.845063 706.995142,858.471885 C706.884315,858.733841 706.828901,858.995796 706.828901,859.257752 L706.690367,859.257752 L706.690367,857.391318 L715.00242,857.391318 Z M718.020482,857.391318 L721.277215,863.026737 L724.533948,857.391318 L727.848322,857.391318 L727.848322,857.531852 C727.569722,857.531852 727.307935,857.653648 727.062959,857.897241 C726.817984,858.140833 726.695496,858.501538 726.695496,858.979354 L726.695496,865.626618 C726.695496,866.104435 726.817984,866.465139 727.062959,866.708731 C727.307935,866.952324 727.569722,867.07412 727.848322,867.07412 L727.848322,867.214654 L723.381122,867.214654 L723.381122,867.07412 C723.650115,867.07412 723.9095,866.952324 724.159279,866.708731 C724.409058,866.465139 724.533948,866.104435 724.533948,865.626618 L724.533948,857.630226 L720.268492,865.008268 L717.054991,859.45717 L717.054991,865.626618 C717.054991,866.104435 717.177478,866.465139 717.422454,866.708731 C717.667429,866.952324 717.929217,867.07412 718.207816,867.07412 L718.207816,867.214654 L715.758062,867.214654 L715.758062,867.07412 C716.027054,867.07412 716.281637,866.952324 716.521809,866.708731 C716.761981,866.465139 716.891674,866.104435 716.910887,865.626618 L716.910887,859.204208 L715.858934,857.391318 L718.020482,857.391318 Z M673.88308,856.684793 C674.394397,856.684793 674.83078,856.869925 675.192228,857.24019 C675.553677,857.610454 675.734401,858.051245 675.734401,858.562562 C675.734401,859.073879 675.553677,859.510262 675.192228,859.87171 C674.83078,860.233159 674.394397,860.413883 673.88308,860.413883 C673.371763,860.413883 672.93538,860.233159 672.573931,859.87171 C672.212483,859.510262 672.031759,859.073879 672.031759,858.562562 C672.031759,858.051245 672.212483,857.610454 672.573931,857.24019 C672.93538,856.869925 673.371763,856.684793 673.88308,856.684793 Z M610.885269,856.684793 C611.396586,856.684793 611.832969,856.869925 612.194417,857.24019 C612.555866,857.610454 612.73659,858.051245 612.73659,858.562562 C612.73659,859.073879 612.555866,859.510262 612.194417,859.87171 C611.832969,860.233159 611.396586,860.413883 610.885269,860.413883 C610.373951,860.413883 609.937569,860.233159 609.57612,859.87171 C609.214672,859.510262 609.033948,859.073879 609.033948,858.562562 C609.033948,858.051245 609.214672,857.610454 609.57612,857.24019 C609.937569,856.869925 610.373951,856.684793 610.885269,856.684793 Z M456.295993,763.08729 L456.295993,764.803004 C453.592443,764.803004 452.240668,766.362745 452.240668,769.482225 C452.240668,772.081793 453.020538,775.201274 454.580278,778.840668 L469.865735,814.714699 L487.958724,772.601706 C488.478638,771.249931 488.738595,770.002139 488.738595,768.858329 C488.738595,768.338416 488.634612,767.53255 488.426646,766.440732 C488.218681,765.348913 486.762923,764.803004 484.059373,764.803004 L484.059373,763.08729 L501.840414,763.08729 L501.840414,764.803004 C496.433314,764.803004 493.001885,767.038632 491.546127,771.509888 L461.911059,840.918339 L459.2595,840.918339 L433.679756,780.712357 C429.312483,770.106122 424.373305,764.803004 418.862222,764.803004 L418.862222,763.08729 L456.295993,763.08729 Z M537.272862,762.936161 C542.889454,762.936161 548.029638,763.983887 552.693415,766.079338 C557.357191,768.17479 561.193524,771.193237 564.202412,775.134682 C567.2113,779.076126 568.715745,784.090241 568.715745,790.177029 C568.715745,798.1597 564.202412,803.348437 555.175747,805.743238 C550.060637,807.140206 543.390935,807.83869 535.166641,807.83869 L527.343531,807.83869 C529.951234,821.608798 536.420344,828.493853 546.75086,828.493853 C551.163896,828.493853 554.82471,827.67064 557.733302,826.024214 C560.641894,824.377788 562.998857,822.506849 564.80419,820.411398 C566.40893,818.615296 567.612486,816.918979 568.414856,815.322444 L569.9193,812.328942 L568.5653,816.66952 C567.662634,819.563239 566.057893,822.856091 563.751079,826.548076 C561.444265,830.240062 558.159562,833.532914 553.89697,836.426633 C549.634378,839.320351 544.093009,840.76721 537.272862,840.76721 C527.945309,840.76721 519.971755,836.950495 513.352201,829.317066 C506.732647,821.683636 503.42287,812.528509 503.42287,801.851686 C503.42287,791.075079 506.732647,781.895007 513.352201,774.311469 C519.971755,766.72793 527.945309,762.936161 537.272862,762.936161 Z M205.984373,738 L205.984373,739.515807 C203.154866,739.515807 200.40115,740.880034 197.723223,743.608487 C195.045297,746.33694 193.706334,750.278039 193.706334,755.431784 L192.94843,808.63662 C192.94843,812.173504 193.403173,816.114603 194.312657,820.459917 C196.434787,830.969515 202.750651,834.708506 211.744441,834.708506 C222.5572,834.708506 229.116285,834.347613 236.846902,828.638072 C244.577519,822.928531 246.92702,816.789511 246.92702,808.705206 C246.92702,803.315669 247.325952,785.557861 248.123816,755.431784 C248.123816,750.278039 246.784853,746.33694 244.106927,743.608487 C241.429001,740.880034 238.675284,739.515807 235.845777,739.515807 L235.845777,738 L266.462822,738 L266.462822,739.515807 C263.532262,739.515807 260.753281,740.880034 258.125882,743.608487 C255.498483,746.33694 254.184783,750.278039 254.184783,755.431784 L252.987987,808.705206 C252.987987,817.193727 249.754265,825.960146 241.771013,831.972848 C233.787761,837.98555 223.062469,839.255928 211.744441,839.255928 C203.053812,839.255928 195.65162,836.93169 189.537864,833.799022 C183.424108,830.666353 178.750369,826.725254 175.516646,821.975725 C172.282924,817.226195 170.666063,812.476666 170.666063,807.727136 L170.666063,755.431784 C170.666063,750.278039 169.352363,746.505534 166.724964,743.777081 C164.097565,741.048628 161.318585,739.515807 158.388024,739.515807 L158.388024,738 L205.984373,738 Z M819.374241,738.302257 L819.374241,763.352328 L834.524284,763.352328 L834.524284,766.502337 L819.374241,766.502337 L819.374241,819.302488 C819.374241,821.602494 819.724242,824.127501 820.424244,826.877509 C821.124246,829.627517 822.149248,832.002524 823.499252,834.002529 C824.849256,836.002535 826.474261,837.002538 828.374266,837.002538 L828.374266,838.802543 L819.374241,838.802543 C812.874222,838.802543 809.828551,836.273082 806.597332,831.838948 C803.366113,827.404814 802.499192,822.045283 802.499192,815.645265 L802.949194,768.452342 L802.799193,766.502337 L788.849154,766.502337 L788.849154,763.352328 L802.499192,763.352328 C801.899191,761.252322 800.999188,759.627317 799.799185,758.477314 C798.599181,757.327311 797.324178,756.502308 795.974174,756.002307 C794.62417,755.502306 793.449167,755.202305 792.449164,755.102304 L791.09916,754.952304 L819.374241,738.302257 Z M327.918468,763.08729 C340.910719,763.08729 351.961599,771.300781 351.961599,785.637058 L351.961599,830.736595 C351.961599,836.411372 356.591022,837.008716 357.636375,838.651415 L327.769132,838.651415 C328.814486,837.008716 333.443908,836.411372 333.443908,830.736595 L333.443908,785.637058 C333.443908,775.183523 326.27577,769.508747 317.763606,769.508747 C312.686174,769.658083 307.160734,772.047463 302.381976,777.572903 L302.381976,830.736595 C302.381976,836.411372 307.011398,837.008716 308.056752,838.651415 L278.189509,838.651415 C279.234862,837.008716 283.864285,836.411372 283.864285,830.736595 L283.864285,777.572903 C283.864285,771.898126 279.234862,771.300781 278.189509,769.658083 L302.381976,763.983307 L302.381976,773.092816 C309.848786,763.833971 319.256968,763.08729 327.918468,763.08729 Z M630.07807,763.08729 C632.172917,763.08729 634.716659,763.411492 637.709298,764.059897 C640.701937,764.708302 643.345434,766.728333 645.63979,768.623671 C647.934147,770.519009 649.081325,773.312138 649.081325,777.003059 C649.081325,779.39717 648.258349,781.417201 646.612398,783.063152 C644.966447,784.709104 642.946416,785.532079 640.552305,785.532079 C638.257949,785.532079 636.287795,784.709104 634.641844,783.063152 C632.995892,781.417201 632.172917,779.197661 632.172917,776.404531 C632.172917,775.706249 632.472181,774.484255 633.070708,772.738549 C633.669236,770.992843 633.9685,770.219745 633.9685,768.922935 L633.9685,767.426616 C633.9685,766.628579 632.67169,766.22956 630.07807,766.22956 C624.292302,766.22956 619.105061,767.52637 614.516349,770.11999 L614.516349,820.994847 C614.516349,824.186995 615.214631,827.653468 616.611196,831.394266 C618.007761,835.135064 620.002853,837.005464 622.596473,837.005464 L622.596473,838.651415 L585.338122,838.651415 L585.338122,837.005464 C587.931742,837.005464 589.926835,835.135064 591.323399,831.394266 C592.719964,827.653468 593.418246,824.186995 593.418246,820.994847 L593.418246,789.572141 C593.418246,787.477294 593.069105,785.756527 592.370823,784.40984 C591.672541,783.063152 590.799688,781.99079 589.752264,781.192753 C588.704841,780.394716 587.657417,779.846066 586.609994,779.546802 C585.56257,779.247538 584.689717,779.048029 583.991435,778.948274 L582.794379,778.798642 L614.516349,763.835449 L614.516349,766.828088 C619.105061,764.334222 624.292302,763.08729 630.07807,763.08729 Z M713.819959,763.08729 L713.819959,780.075245 L712.253528,780.075245 L712.253528,779.647682 C712.253528,778.982583 712.111125,777.984936 711.826319,776.654739 C710.782032,772.94919 708.289982,770.170029 704.35017,768.317255 C700.410358,766.464481 695.924669,765.538094 690.893102,765.538094 C688.899462,765.538094 687.000757,765.680615 685.196988,765.965657 C680.165421,767.20084 677.649638,769.229669 677.649638,773.505302 C677.649638,774.835499 678.10058,776.521999 679.002465,778.564801 C679.904349,780.607603 681.494514,782.389117 683.77296,783.909342 L714.104765,804.004816 C719.895813,807.805379 722.791338,812.413561 722.791338,817.829362 C722.791338,823.340178 719.682209,828.067128 713.463952,832.010211 C707.245695,835.953295 699.722078,838.651415 690.893102,838.651415 C682.348931,838.651415 675.181322,836.893655 669.390273,833.378134 C667.301698,832.142952 666.020072,831.287825 665.545396,830.812755 C664.026433,829.577572 662.88721,828.817459 662.127728,828.532417 L661.130908,828.389896 C660.846102,828.389896 660.679966,828.461157 660.632498,828.603678 C660.585031,828.746199 660.537563,828.841213 660.490095,828.88872 C660.442628,828.936227 660.418894,828.983734 660.418894,829.031241 C660.418894,829.078748 659.89675,829.102502 658.852463,829.102502 L658.852463,810.119251 L660.418894,810.119251 L660.561297,812.114546 C660.656232,813.539757 660.941038,815.25001 661.415714,817.245305 C662.649872,822.471079 664.548576,826.224134 667.111827,828.504472 C674.231969,833.635231 682.159061,836.200611 690.893102,836.200611 C693.076612,836.200611 695.212655,836.010583 697.301229,835.630527 C701.953056,834.110302 704.278969,832.319007 704.278969,828.803487 C704.278969,828.42343 704.136566,827.116987 703.85176,824.884157 C703.566954,822.651326 701.66825,820.299728 698.155647,817.829362 L667.823842,797.876409 C661.842922,793.980833 658.852463,789.325144 658.852463,783.909342 C658.852463,778.303512 661.985325,773.552809 668.25105,769.657233 C674.516775,765.761656 682.064126,763.08729 690.893102,763.08729 C695.449993,763.08729 699.722078,763.657374 703.709357,764.797543 C706.019448,765.272613 707.585879,765.510148 708.408651,765.510148 C709.547874,765.510148 710.473492,765.296367 711.185506,764.868803 C711.897521,764.44124 712.253528,763.942416 712.253528,763.372332 L712.253528,763.08729 L713.819959,763.08729 Z M765.781513,763.08729 L765.781513,820.818281 C765.781513,823.941598 766.486778,827.39236 767.897308,831.170566 C769.307838,834.948773 771.373258,836.837876 774.093566,836.837876 L774.093566,838.500287 L736.462632,838.500287 L736.462632,836.837876 C739.082188,836.837876 741.097232,834.948773 742.507762,831.170566 C743.918292,827.39236 744.623557,823.941598 744.623557,820.818281 L744.623557,789.081349 C744.623557,786.864801 744.270925,785.07645 743.56566,783.716296 C742.860395,782.356142 741.978813,781.298244 740.920915,780.542603 C739.863018,779.786961 738.80512,779.232824 737.747222,778.880192 C736.689324,778.527559 735.757367,778.351243 734.951349,778.351243 L733.893452,778.200115 L765.781513,763.08729 Z M405.79402,763.08729 L405.79402,820.818281 C405.79402,823.941598 406.499285,827.39236 407.909815,831.170566 C409.320346,834.948773 411.385765,836.837876 414.106073,836.837876 L414.106073,838.500287 L376.475139,838.500287 L376.475139,836.837876 C379.094695,836.837876 381.109739,834.948773 382.520269,831.170566 C383.930799,827.39236 384.636065,823.941598 384.636065,820.818281 L384.636065,789.081349 C384.636065,786.864801 384.283432,785.07645 383.578167,783.716296 C382.872902,782.356142 381.99132,781.298244 380.933422,780.542603 C379.875525,779.786961 378.817627,779.232824 377.759729,778.880192 C376.701831,778.527559 375.769874,778.351243 374.963857,778.351243 L373.905959,778.200115 L405.79402,763.08729 Z M537.50179,765.958726 C534.198987,765.958726 531.696863,767.695671 529.99542,771.169561 C527.393211,776.529277 526.092107,782.385262 526.092107,791.715138 C526.092107,798.067393 526.542489,801.839045 527.443254,806.007713 C536.350813,806.007713 542.606121,804.667784 546.209179,799.010306 C547.910623,796.330448 548.761345,792.558797 548.761345,787.695351 C548.761345,786.107287 548.66126,784.419969 548.46109,782.633397 C547.760495,777.075174 546.584497,774.147181 544.933096,770.871799 C543.281695,767.596417 540.804592,765.958726 537.50179,765.958726 Z M393.582857,738.302257 C396.963812,738.302257 399.849282,739.517713 402.239267,741.948627 C404.629253,744.379541 405.824245,747.273487 405.824245,750.630463 C405.824245,753.98744 404.629253,756.852445 402.239267,759.22548 C399.849282,761.598516 396.963812,762.785033 393.582857,762.785033 C390.201902,762.785033 387.316432,761.598516 384.926447,759.22548 C382.536461,756.852445 381.341469,753.98744 381.341469,750.630463 C381.341469,747.273487 382.536461,744.379541 384.926447,741.948627 C387.316432,739.517713 390.201902,738.302257 393.582857,738.302257 Z M753.268093,738.302257 C756.649048,738.302257 759.534518,739.517713 761.924504,741.948627 C764.314489,744.379541 765.509482,747.273487 765.509482,750.630463 C765.509482,753.98744 764.314489,756.852445 761.924504,759.22548 C759.534518,761.598516 756.649048,762.785033 753.268093,762.785033 C749.887139,762.785033 747.001668,761.598516 744.611683,759.22548 C742.221698,756.852445 741.026705,753.98744 741.026705,750.630463 C741.026705,747.273487 742.221698,744.379541 744.611683,741.948627 C747.001668,739.517713 749.887139,738.302257 753.268093,738.302257 Z" id="MBA-University" fill="#FFFFFF" fill-rule="nonzero"></path>
        <g id="Group-2" transform="translate(135.000000, 146.000000)" fill="#002967" fill-rule="nonzero">
            <path d="M294.282857,247 L184.897143,247 L184.897143,243.471429 C191.48381,243.471429 197.835238,240.413333 203.951429,234.297143 C210.067619,228.180952 213.125714,219.124286 213.125714,207.127143 L216.654286,9.88 L112.208571,195.13 L35.2857143,52.2228571 L35.2857143,207.127143 C35.2857143,219.124286 38.285,228.180952 44.2835714,234.297143 C50.2821429,240.413333 56.692381,243.471429 63.5142857,243.471429 L63.5142857,247 L0,247 L0,243.471429 C6.58666667,243.471429 12.8204762,240.413333 18.7014286,234.297143 C24.582381,228.180952 27.7580952,219.124286 28.2285714,207.127143 L28.2285714,45.8714286 L2.47,0.352857143 L53.6342857,0.352857143 L133.38,141.848571 L213.125714,0.352857143 L294.282857,0.352857143 L294.282857,3.88142857 C287.460952,3.88142857 281.050714,6.93952381 275.052143,13.0557143 C269.053571,19.1719048 266.054286,28.2285714 266.054286,40.2257143 L266.054286,207.127143 C266.054286,219.124286 269.053571,228.180952 275.052143,234.297143 C281.050714,240.413333 287.460952,243.471429 294.282857,243.471429 L294.282857,247 Z" id="Path"></path>
            <path d="M464.577819,247 L328.700896,247 L328.700896,243.471429 C335.306024,243.471429 341.675255,240.354524 347.808588,234.120714 C353.941921,227.886905 357.008588,218.889048 357.008588,207.127143 L357.008588,39.8728571 C357.008588,27.8757143 353.941921,18.8190476 347.808588,12.7028571 C341.675255,6.58666667 335.306024,3.52857143 328.700896,3.52857143 L328.700896,0 L459.623973,0 C480.618844,0 498.54705,5.52809524 513.408588,16.5842857 C528.270126,27.6404762 535.700896,41.0490476 535.700896,56.81 C535.700896,69.7480952 530.688075,81.1571429 520.662434,91.0371429 C510.636793,100.917143 497.60346,107.739048 481.562434,111.502857 C503.972691,114.79619 522.431665,122.617857 536.939357,134.967857 C551.44705,147.317857 558.700896,161.84381 558.700896,178.545714 C558.700896,197.6 549.500896,213.772619 531.100896,227.063571 C512.700896,240.354524 490.526537,247 464.577819,247 Z M433.803335,109 C448.48301,107.590604 460.635855,103.597315 470.261871,93.4966443 C479.887888,83.3959732 484.700896,71.2986577 484.700896,57.204698 C484.700896,43.1107383 479.887888,31.0134228 470.261871,20.9127517 C460.635855,10.8120805 448.48301,5.17449664 433.803335,4 L410.700896,4 L410.700896,109 L433.803335,109 Z M441.878017,243 C459.452433,243 474.483184,236.585635 486.970268,223.756906 C499.457353,210.928177 505.700896,195.486188 505.700896,177.430939 C505.700896,159.375691 499.457353,143.993094 486.970268,131.283149 C474.483184,118.573204 459.452433,114 441.878017,114 L411.700896,114 L411.700896,243 L441.878017,243 Z" id="Shape"></path>
            <path d="M809.700896,247 L695.59057,247 L695.59057,243.471429 C701.930033,243.471429 707.682508,240.648571 712.847996,235.002857 C716.135125,231.239048 717.778689,226.534286 717.778689,220.888571 C717.778689,217.595238 717.309099,214.066667 716.36992,210.302857 L707.565111,187.367143 L616.699481,187.367143 L605.781518,215.948571 C604.137954,220.418095 603.316172,224.417143 603.316172,227.945714 C603.316172,231.474286 604.724941,234.944048 607.54248,238.355 C610.360019,241.765952 615.055917,243.471429 621.630174,243.471429 L621.630174,247 L560.700896,247 L560.700896,243.471429 C578.545309,242.765714 591.341631,233.47381 599.089863,215.595714 L683.968222,0 L686.433569,0 L765.324658,200.07 C770.724941,213.008095 777.592692,223.417381 785.927911,231.297857 C794.263131,239.178333 802.187459,243.23619 809.700896,243.471429 L809.700896,247 Z M706.700896,183 L665.013396,72 L619.700896,183 L706.700896,183 Z" id="Shape"></path>
        </g>
        <path d="M918.191489,201 C913.13617,201 908.553191,199.765046 904.442553,197.295139 C900.331915,194.825231 897.06383,191.502315 894.638298,187.326389 C892.212766,183.150463 891,178.516204 891,173.423611 C891,168.381944 892.212766,163.78588 894.638298,159.635417 C897.06383,155.484954 900.331915,152.174769 904.442553,149.704861 C908.553191,147.234954 913.13617,146 918.191489,146 C923.195745,146 927.72766,147.234954 931.787234,149.704861 C935.846809,152.174769 939.06383,155.484954 941.438298,159.635417 C943.812766,163.78588 945,168.381944 945,173.423611 C945,178.516204 943.812766,183.150463 941.438298,187.326389 C939.06383,191.502315 935.846809,194.825231 931.787234,197.295139 C927.72766,199.765046 923.195745,201 918.191489,201 Z M918.651235,199 C925.204733,199 930.951646,196.516566 935.891975,191.549699 C940.630658,186.326807 943,180.284639 943,173.423193 C943,166.612952 940.630658,160.621988 935.891975,155.450301 C930.951646,150.483434 925.204733,148 918.651235,148 C911.996914,148 906.174383,150.483434 901.183642,155.450301 C896.394547,160.621988 894,166.612952 894,173.423193 C894,180.284639 896.394547,186.326807 901.183642,191.549699 C906.174383,196.516566 911.996914,199 918.651235,199 Z M918.271468,190 C914.341644,190 910.980609,188.431373 908.188366,185.294118 C905.396122,182.156863 904,178.379608 904,173.962353 C904,169.595294 905.396122,165.843137 908.188366,162.705882 C910.980609,159.568627 914.341644,158 918.271468,158 C921.167128,158 923.649123,158.878431 925.717452,160.635294 C927.78578,162.392157 929.311173,164.676078 930.293629,167.487059 C930.448753,167.788235 930.55217,168.064314 930.603878,168.315294 L930.68144,168.992941 C930.68144,169.996863 930.319483,170.850196 929.595568,171.552941 C928.871653,172.255686 927.992613,172.607059 926.958449,172.607059 C925.924284,172.607059 925.045245,172.255686 924.32133,171.552941 C923.597415,170.850196 923.235457,169.996863 923.235457,168.992941 C923.235457,168.591373 923.287165,168.214902 923.390582,167.863529 L923.468144,165.981176 C923.468144,163.37098 922.821791,161.363137 921.529086,159.957647 C920.54663,158.953725 919.460757,158.451765 918.271468,158.451765 C916.616805,158.451765 915.427516,159.430588 914.703601,161.388235 C913.979686,163.345882 913.540166,165.880784 913.385042,168.992941 C913.385042,179.63451 916.358264,184.955294 922.304709,184.955294 L922.382271,184.955294 C924.657433,184.854902 926.493075,184.302745 927.889197,183.298824 C929.802401,181.893333 931.146814,180.261961 931.922438,178.404706 C931.974146,178.35451 932,178.304314 932,178.254118 L932,178.329412 C932,178.379608 931.974146,178.404706 931.922438,178.404706 C931.405355,180.613333 930.448753,182.721569 929.052632,184.729412 C926.518929,188.243137 922.925208,190 918.271468,190 Z" id="Shape" fill="#002967" fill-rule="nonzero"></path>
    </g>
</svg>