<?xml version="1.0" encoding="UTF-8"?>
<svg width="1599px" height="254px" viewBox="0 0 1599 254" version="1.1" xmlns="http://www.w3.org/2000/svg" xmlns:xlink="http://www.w3.org/1999/xlink">
    <title>light-menu-web-mbauniversity-2023-all-rights-reserved</title>
    <g id="light-menu-web-mbauniversity-2023-all-rights-reserved" stroke="none" stroke-width="1" fill="none" fill-rule="evenodd">
        <path d="M1239.28352,213.465 L1239.28352,213.815 C1238.65352,213.815 1238.33852,214.141667 1238.33852,214.795 C1238.33852,215.425 1238.52518,216.171667 1238.89852,217.035 L1242.39852,225.225 L1246.49352,215.6 C1246.63352,215.296667 1246.70352,215.005 1246.70352,214.725 C1246.70352,214.608333 1246.67435,214.4275 1246.61602,214.1825 C1246.55768,213.9375 1246.21352,213.815 1245.58352,213.815 L1245.58352,213.465 L1249.32852,213.465 L1249.32852,213.815 C1248.06852,213.815 1247.27518,214.328333 1246.94852,215.355 L1237.56852,237.405 C1237.31185,238.011667 1236.96185,238.525 1236.51852,238.945 C1235.88852,239.575 1235.17685,239.89 1234.38352,239.89 C1233.38018,239.89 1232.53435,239.440833 1231.84602,238.5425 C1231.15768,237.644167 1230.79018,236.518333 1230.74352,235.165 L1230.74352,235.13 C1230.74352,234.593333 1230.93602,234.126667 1231.32102,233.73 C1231.70602,233.333333 1232.17852,233.135 1232.73852,233.135 C1233.29852,233.135 1233.77102,233.333333 1234.15602,233.73 C1234.54102,234.126667 1234.73352,234.593333 1234.73352,235.13 C1234.73352,235.69 1234.54102,236.1625 1234.15602,236.5475 C1233.77102,236.9325 1233.29268,237.125 1232.72102,237.125 C1232.14935,237.125 1231.86352,237.311667 1231.86352,237.685 C1231.86352,237.988333 1232.07352,238.35 1232.49352,238.77 C1233.05352,239.26 1233.68352,239.505 1234.38352,239.505 C1234.92018,239.505 1235.42185,239.359167 1235.88852,239.0675 C1236.35518,238.775833 1236.72852,238.361667 1237.00852,237.825 L1239.91352,231.035 L1234.13852,217.49 C1233.11185,215.04 1231.98018,213.815 1230.74352,213.815 L1230.74352,213.465 L1239.28352,213.465 Z M1053.81852,213.5 C1054.93852,213.5 1056.00602,213.745 1057.02102,214.235 C1058.03602,214.725 1058.86435,215.425 1059.50602,216.335 C1060.14768,217.245 1060.46852,218.318333 1060.46852,219.555 L1060.46852,226.905 C1060.46852,227.651667 1060.62018,228.456667 1060.92352,229.32 C1061.22685,230.183333 1061.69352,230.615 1062.32352,230.615 L1062.32352,231 L1058.29852,231 C1057.80852,231 1057.38852,230.941667 1057.03852,230.825 C1056.68852,230.708333 1056.40268,230.58 1056.18102,230.44 C1055.95935,230.3 1055.80185,230.171667 1055.70852,230.055 L1055.56852,229.915 C1054.82185,230.358333 1054.12185,230.714167 1053.46852,230.9825 C1052.81518,231.250833 1052.01018,231.385 1051.05352,231.385 C1048.74352,231.385 1046.95268,230.953333 1045.68102,230.09 C1044.40935,229.226667 1043.77352,228.106667 1043.77352,226.73 C1043.77352,225.516667 1044.14685,224.548333 1044.89352,223.825 C1045.64018,223.101667 1046.56185,222.524167 1047.65852,222.0925 C1048.75518,221.660833 1049.86352,221.281667 1050.98352,220.955 C1052.24352,220.605 1053.32268,220.225833 1054.22102,219.8175 C1055.11935,219.409167 1055.56852,218.843333 1055.56852,218.12 L1055.56852,216.93 C1055.56852,215.04 1054.78685,214.095 1053.22352,214.095 L1052.83852,214.13 C1051.62518,214.34 1050.57518,214.83 1049.68852,215.6 C1050.24852,215.623333 1050.71518,215.821667 1051.08852,216.195 C1051.46185,216.568333 1051.64852,217.023333 1051.64852,217.56 C1051.64852,218.12 1051.45602,218.5925 1051.07102,218.9775 C1050.68602,219.3625 1050.22518,219.555 1049.68852,219.555 C1049.12852,219.555 1048.65602,219.3625 1048.27102,218.9775 C1047.88602,218.5925 1047.69352,218.12 1047.69352,217.56 C1047.69352,217.046667 1047.88018,216.591667 1048.25352,216.195 C1049.63018,214.398333 1051.48518,213.5 1053.81852,213.5 Z M1069.28852,226.415 C1069.96518,226.415 1070.54852,226.654167 1071.03852,227.1325 C1071.52852,227.610833 1071.77352,228.188333 1071.77352,228.865 C1071.77352,229.565 1071.52852,230.154167 1071.03852,230.6325 C1070.54852,231.110833 1069.96518,231.35 1069.28852,231.35 C1068.61185,231.35 1068.03435,231.110833 1067.55602,230.6325 C1067.07768,230.154167 1066.83852,229.565 1066.83852,228.865 C1066.83852,228.188333 1067.07768,227.610833 1067.55602,227.1325 C1068.03435,226.654167 1068.61185,226.415 1069.28852,226.415 Z M1329.07,206.185 C1331.07667,206.185 1332.9025,206.750833 1334.5475,207.8825 C1336.1925,209.014167 1337.505,210.530833 1338.485,212.4325 C1339.465,214.334167 1339.955,216.44 1339.955,218.75 C1339.955,221.083333 1339.465,223.200833 1338.485,225.1025 C1337.505,227.004167 1336.1925,228.520833 1334.5475,229.6525 C1332.9025,230.784167 1331.07667,231.35 1329.07,231.35 C1327.04,231.35 1325.2025,230.784167 1323.5575,229.6525 C1321.9125,228.520833 1320.6,227.004167 1319.62,225.1025 C1318.64,223.200833 1318.15,221.083333 1318.15,218.75 C1318.15,216.44 1318.64,214.334167 1319.62,212.4325 C1320.6,210.530833 1321.9125,209.014167 1323.5575,207.8825 C1325.2025,206.750833 1327.04,206.185 1329.07,206.185 Z M1379.89,206.5 L1372.925,216.475 C1374.97833,216.895 1376.6525,217.781667 1377.9475,219.135 C1379.2425,220.488333 1379.89,222.051667 1379.89,223.825 C1379.89,225.878333 1379.00917,227.645833 1377.2475,229.1275 C1375.48583,230.609167 1373.36833,231.35 1370.895,231.35 C1368.53833,231.35 1366.53167,230.830833 1364.875,229.7925 C1363.21833,228.754167 1362.22667,227.418333 1361.9,225.785 L1361.865,225.26 C1361.865,224.63 1362.08667,224.035 1362.53,223.475 C1362.97333,222.915 1363.63833,222.635 1364.525,222.635 C1365.24833,222.635 1365.8725,222.891667 1366.3975,223.405 C1366.9225,223.918333 1367.185,224.548333 1367.185,225.295 C1367.185,226.018333 1366.9225,226.6425 1366.3975,227.1675 C1365.8725,227.6925 1365.24833,227.955 1364.525,227.955 C1364.15167,227.955 1363.80167,227.885 1363.475,227.745 C1364.78167,228.725 1366.35667,229.215 1368.2,229.215 C1368.99333,229.215 1369.86833,229.080833 1370.825,228.8125 C1371.78167,228.544167 1372.65083,228.025 1373.4325,227.255 C1374.21417,226.485 1374.605,225.516667 1374.605,224.35 C1374.605,223.16 1374.45333,222.191667 1374.15,221.445 C1373.61333,220.231667 1372.84333,219.403333 1371.84,218.96 C1371.42,218.796667 1371.14,218.715 1371,218.715 L1375.865,211.785 L1363.09,211.785 L1366.87,206.5 L1379.89,206.5 Z M982.663516,226.415 C983.340182,226.415 983.923516,226.654167 984.413516,227.1325 C984.903516,227.610833 985.148516,228.188333 985.148516,228.865 C985.148516,229.565 984.903516,230.154167 984.413516,230.6325 C983.923516,231.110833 983.340182,231.35 982.663516,231.35 C981.986849,231.35 981.409349,231.110833 980.931016,230.6325 C980.452682,230.154167 980.213516,229.565 980.213516,228.865 C980.213516,228.188333 980.452682,227.610833 980.931016,227.1325 C981.409349,226.654167 981.986849,226.415 982.663516,226.415 Z M1160.18352,213.15 C1161.49018,213.15 1162.68602,213.395 1163.77102,213.885 C1164.85602,214.375 1165.74852,215.080833 1166.44852,216.0025 C1167.14852,216.924167 1167.49852,218.096667 1167.49852,219.52 C1167.49852,221.386667 1166.44852,222.6 1164.34852,223.16 C1163.15852,223.486667 1161.60685,223.65 1159.69352,223.65 L1157.87352,223.65 C1158.48018,226.87 1159.98518,228.48 1162.38852,228.48 C1163.41518,228.48 1164.26685,228.2875 1164.94352,227.9025 C1165.62018,227.5175 1166.16852,227.08 1166.58852,226.59 C1166.96185,226.17 1167.24185,225.773333 1167.42852,225.4 L1167.77852,224.7 L1167.46352,225.715 C1167.25352,226.391667 1166.88018,227.161667 1166.34352,228.025 C1165.80685,228.888333 1165.04268,229.658333 1164.05102,230.335 C1163.05935,231.011667 1161.77018,231.35 1160.18352,231.35 C1158.01352,231.35 1156.15852,230.4575 1154.61852,228.6725 C1153.07852,226.8875 1152.30852,224.746667 1152.30852,222.25 C1152.30852,219.73 1153.07852,217.583333 1154.61852,215.81 C1156.15852,214.036667 1158.01352,213.15 1160.18352,213.15 Z M1403.165,206.15 C1405.45167,206.15 1407.5225,206.715833 1409.3775,207.8475 C1411.2325,208.979167 1412.7025,210.495833 1413.7875,212.3975 C1414.8725,214.299167 1415.415,216.405 1415.415,218.715 C1415.415,221.048333 1414.8725,223.171667 1413.7875,225.085 C1412.7025,226.998333 1411.2325,228.520833 1409.3775,229.6525 C1407.5225,230.784167 1405.45167,231.35 1403.165,231.35 C1400.855,231.35 1398.76083,230.784167 1396.8825,229.6525 C1395.00417,228.520833 1393.51083,226.998333 1392.4025,225.085 C1391.29417,223.171667 1390.74,221.048333 1390.74,218.715 C1390.74,216.405 1391.29417,214.299167 1392.4025,212.3975 C1393.51083,210.495833 1395.00417,208.979167 1396.8825,207.8475 C1398.76083,206.715833 1400.855,206.15 1403.165,206.15 Z M1201.34352,213.15 L1201.34352,216.965 L1200.95852,216.965 L1200.95852,216.86 C1200.95852,216.696667 1200.92352,216.451667 1200.85352,216.125 C1200.59685,215.215 1199.98435,214.5325 1199.01602,214.0775 C1198.04768,213.6225 1196.94518,213.395 1195.70852,213.395 C1195.21852,213.395 1194.75185,213.43 1194.30852,213.5 C1193.07185,213.803333 1192.45352,214.48 1192.45352,215.53 C1192.45352,215.856667 1192.56435,216.270833 1192.78602,216.7725 C1193.00768,217.274167 1193.39852,217.711667 1193.95852,218.085 L1201.41352,223.02 C1202.83685,223.953333 1203.54852,225.085 1203.54852,226.415 C1203.54852,227.768333 1202.78435,228.929167 1201.25602,229.8975 C1199.72768,230.865833 1197.87852,231.35 1195.70852,231.35 C1193.60852,231.35 1191.84685,230.918333 1190.42352,230.055 C1189.91018,229.751667 1189.59518,229.541667 1189.47852,229.425 C1189.10518,229.121667 1188.82518,228.935 1188.63852,228.865 L1188.39352,228.83 C1188.32352,228.83 1188.28268,228.8475 1188.27102,228.8825 C1188.25935,228.9175 1188.24768,228.940833 1188.23602,228.9525 C1188.22435,228.964167 1188.21852,228.975833 1188.21852,228.9875 C1188.21852,228.999167 1188.09018,229.005 1187.83352,229.005 L1187.83352,224.7 L1188.21852,224.7 L1188.25352,225.19 C1188.27685,225.54 1188.34685,225.96 1188.46352,226.45 C1188.76685,227.733333 1189.23352,228.655 1189.86352,229.215 C1191.61352,230.475 1193.56185,231.105 1195.70852,231.105 C1196.24518,231.105 1196.77018,231.058333 1197.28352,230.965 C1198.42685,230.591667 1198.99852,229.973333 1198.99852,229.11 C1198.99852,229.016667 1198.96352,228.695833 1198.89352,228.1475 C1198.82352,227.599167 1198.35685,227.021667 1197.49352,226.415 L1190.03852,221.515 C1188.56852,220.558333 1187.83352,219.415 1187.83352,218.085 C1187.83352,216.708333 1188.60352,215.541667 1190.14352,214.585 C1191.68352,213.628333 1193.53852,213.15 1195.70852,213.15 C1196.82852,213.15 1197.87852,213.29 1198.85852,213.57 L1198.85852,213.535 C1199.32518,213.675 1199.71018,213.745 1200.01352,213.745 C1200.29352,213.745 1200.52102,213.6925 1200.69602,213.5875 C1200.87102,213.4825 1200.95852,213.36 1200.95852,213.22 L1200.95852,213.15 L1201.34352,213.15 Z M1482.2,81.2 L1482.2,83.2 C1478.6,83.2 1476.8,85.0666667 1476.8,88.8 C1476.8,92.4 1477.86667,96.6666667 1480,101.6 L1498,148.4 L1521.4,93.4 C1522.2,91.6666667 1522.6,90 1522.6,88.4 C1522.6,87.7333333 1522.43333,86.7 1522.1,85.3 C1521.76667,83.9 1519.8,83.2 1516.2,83.2 L1516.2,81.2 L1539.6,81.2 L1539.6,83.2 C1532.4,83.2 1527.86667,86.1333333 1526,92 C1508.97086,133.458895 1496.19901,164.3864 1487.68444,184.782514 C1484.51012,192.3864 1479.74864,203.458895 1473.4,218 C1471.93333,221.466667 1469.93333,224.4 1467.4,226.8 C1463.8,230.4 1458.73333,231.2 1454.2,231.2 C1448.46667,231.2 1443.63333,228.633333 1439.7,223.5 C1435.76667,218.366667 1433.66667,211.933333 1433.4,204.2 L1433.4,204 C1433.4,200.933333 1434.5,198.266667 1436.7,196 C1438.9,193.733333 1442.6,191.6 1445.8,191.6 C1449,191.6 1451.7,192.733333 1453.9,195 C1456.1,197.266667 1457.2,199.933333 1457.2,203 C1457.2,206.2 1456.1,208.9 1453.9,211.1 C1451.7,213.3 1448.96667,214.4 1445.7,214.4 C1442.43333,214.4 1441.8,216.466667 1441.8,218.6 C1441.8,220.333333 1443,221.4 1445.4,223.8 C1448.6,226.6 1451.2,228 1455.2,228 C1458.26667,228 1460.13333,228.166667 1462.8,226.5 C1465.46667,224.833333 1467.6,222.466667 1469.2,219.4 L1485.8,181.6 L1452.8,104.2 C1446.93333,90.2 1440.46667,83.2 1433.4,83.2 L1433.4,81.2 L1482.2,81.2 Z M957.848516,213.5 L957.848516,213.85 C957.241849,213.85 956.938516,214.165 956.938516,214.795 L956.938516,214.9 C956.938516,215.506667 957.113516,216.218333 957.463516,217.035 L960.893516,225.12 L965.863516,213.5 L970.798516,225.12 L974.858516,215.6 C974.975182,215.32 975.033516,215.051667 975.033516,214.795 C975.033516,214.655 975.010182,214.4625 974.963516,214.2175 C974.916849,213.9725 974.590182,213.85 973.983516,213.85 L973.983516,213.5 L977.658516,213.5 L977.658516,213.85 C976.421849,213.85 975.640182,214.351667 975.313516,215.355 L968.663516,231 L968.418516,231 L963.588516,219.66 L958.758516,231 L958.513516,231 L952.738516,217.455 C951.758516,215.051667 950.650182,213.85 949.413516,213.85 L949.413516,213.5 L957.848516,213.5 Z M1141.38852,213.535 L1141.38852,213.92 C1140.78185,213.92 1140.47852,214.27 1140.47852,214.97 C1140.47852,215.553333 1140.65352,216.253333 1141.00352,217.07 L1144.43352,225.12 L1148.49352,215.67 C1148.61018,215.366667 1148.66852,215.086667 1148.66852,214.83 C1148.66852,214.713333 1148.64518,214.5325 1148.59852,214.2875 C1148.55185,214.0425 1148.22518,213.92 1147.61852,213.92 L1147.61852,213.535 L1151.25852,213.535 L1151.25852,213.92 C1150.04518,213.92 1149.27518,214.421667 1148.94852,215.425 L1142.29852,231 L1142.05352,231 L1136.31352,217.49 C1135.33352,215.11 1134.22518,213.92 1132.98852,213.92 L1132.98852,213.535 L1141.38852,213.535 Z M1329.07,206.535 C1327.46,206.535 1326.095,207.730833 1324.975,210.1225 C1323.855,212.514167 1323.295,215.39 1323.295,218.75 C1323.295,222.133333 1323.855,225.020833 1324.975,227.4125 C1326.095,229.804167 1327.46,231 1329.07,231 C1330.65667,231 1332.01,229.804167 1333.13,227.4125 C1334.25,225.020833 1334.81,222.133333 1334.81,218.75 C1334.81,215.39 1334.25,212.514167 1333.13,210.1225 C1332.01,207.730833 1330.65667,206.535 1329.07,206.535 Z M929.288516,213.5 L929.288516,213.85 C928.681849,213.85 928.378516,214.165 928.378516,214.795 L928.378516,214.9 C928.378516,215.506667 928.553516,216.218333 928.903516,217.035 L932.333516,225.12 L937.303516,213.5 L942.238516,225.12 L946.298516,215.6 C946.415182,215.32 946.473516,215.051667 946.473516,214.795 C946.473516,214.655 946.450182,214.4625 946.403516,214.2175 C946.356849,213.9725 946.030182,213.85 945.423516,213.85 L945.423516,213.5 L949.098516,213.5 L949.098516,213.85 C947.861849,213.85 947.080182,214.351667 946.753516,215.355 L940.103516,231 L939.858516,231 L935.028516,219.66 L930.198516,231 L929.953516,231 L924.178516,217.455 C923.198516,215.051667 922.090182,213.85 920.853516,213.85 L920.853516,213.5 L929.288516,213.5 Z M1011.08352,213.5 C1012.18018,213.5 1013.24185,213.7275 1014.26852,214.1825 C1015.29518,214.6375 1016.14102,215.285 1016.80602,216.125 C1017.47102,216.965 1017.80352,217.933333 1017.80352,219.03 L1017.80352,226.87 C1017.80352,227.616667 1017.96685,228.4275 1018.29352,229.3025 C1018.62018,230.1775 1019.08685,230.615 1019.69352,230.615 L1019.69352,231 L1012.86852,231 L1012.86852,217.07 C1012.82185,214.946667 1012.13352,213.885 1010.80352,213.885 C1008.89018,213.978333 1007.35018,214.608333 1006.18352,215.775 C1007.02352,216.731667 1007.44352,217.816667 1007.44352,219.03 L1007.44352,226.87 C1007.44352,227.616667 1007.60685,228.4275 1007.93352,229.3025 C1008.26018,230.1775 1008.73852,230.615 1009.36852,230.615 L1009.36852,231 L1002.54352,231 L1002.54352,217.07 C1002.49685,214.946667 1001.80852,213.885 1000.47852,213.885 C999.218516,213.931667 998.098516,214.235 997.118516,214.795 L997.118516,226.87 C997.118516,227.616667 997.281849,228.4275 997.608516,229.3025 C997.935182,230.1775 998.401849,230.615 999.008516,230.615 L999.008516,231 L990.293516,231 L990.293516,230.615 C990.900182,230.615 991.366849,230.1775 991.693516,229.3025 C992.020182,228.4275 992.183516,227.616667 992.183516,226.87 L992.183516,219.52 C992.183516,219.03 992.101849,218.621667 991.938516,218.295 C991.775182,217.968333 991.571016,217.7175 991.326016,217.5425 C991.081016,217.3675 990.836016,217.245 990.591016,217.175 C990.346016,217.105 990.130182,217.058333 989.943516,217.035 L989.698516,217 L997.118516,213.5 L997.118516,214.375 C998.191849,213.791667 999.405182,213.5 1000.75852,213.5 C1002.81185,213.5 1004.52685,214.165 1005.90352,215.495 C1007.28018,214.165 1009.00685,213.5 1011.08352,213.5 Z M1110.51852,213.5 C1111.54518,213.5 1112.57768,213.715833 1113.61602,214.1475 C1114.65435,214.579167 1115.51185,215.209167 1116.18852,216.0375 C1116.86518,216.865833 1117.20352,217.863333 1117.20352,219.03 L1117.20352,226.87 C1117.20352,227.616667 1117.36685,228.4275 1117.69352,229.3025 C1118.02018,230.1775 1118.49852,230.615 1119.12852,230.615 L1119.12852,231 L1112.30352,231 L1112.30352,217.07 C1112.25685,214.946667 1111.56852,213.885 1110.23852,213.885 C1108.97852,213.931667 1107.85852,214.235 1106.87852,214.795 L1106.87852,226.87 C1106.87852,227.616667 1107.04185,228.4275 1107.36852,229.3025 C1107.69518,230.1775 1108.16185,230.615 1108.76852,230.615 L1108.76852,231 L1100.05352,231 L1100.05352,230.615 C1100.66018,230.615 1101.12685,230.1775 1101.45352,229.3025 C1101.78018,228.4275 1101.94352,227.616667 1101.94352,226.87 L1101.94352,219.52 C1101.94352,219.03 1101.86185,218.621667 1101.69852,218.295 C1101.53518,217.968333 1101.33102,217.7175 1101.08602,217.5425 C1100.84102,217.3675 1100.59602,217.245 1100.35102,217.175 C1100.10602,217.105 1099.89018,217.058333 1099.70352,217.035 L1099.45852,217 L1106.87852,213.5 L1106.87852,214.375 C1107.95185,213.791667 1109.16518,213.5 1110.51852,213.5 Z M900.728516,213.5 L900.728516,213.85 C900.121849,213.85 899.818516,214.165 899.818516,214.795 L899.818516,214.9 C899.818516,215.506667 899.993516,216.218333 900.343516,217.035 L903.773516,225.12 L908.743516,213.5 L913.678516,225.12 L917.738516,215.6 C917.855182,215.32 917.913516,215.051667 917.913516,214.795 C917.913516,214.655 917.890182,214.4625 917.843516,214.2175 C917.796849,213.9725 917.470182,213.85 916.863516,213.85 L916.863516,213.5 L920.538516,213.5 L920.538516,213.85 C919.301849,213.85 918.520182,214.351667 918.193516,215.355 L911.543516,231 L911.298516,231 L906.468516,219.66 L901.638516,231 L901.393516,231 L895.618516,217.455 C894.638516,215.051667 893.530182,213.85 892.293516,213.85 L892.293516,213.5 L900.728516,213.5 Z M1213.03352,213.535 L1213.03352,226.905 C1213.03352,227.628333 1213.19685,228.4275 1213.52352,229.3025 C1213.85018,230.1775 1214.32852,230.615 1214.95852,230.615 L1214.95852,231 L1206.24352,231 L1206.24352,230.615 C1206.85018,230.615 1207.31685,230.1775 1207.64352,229.3025 C1207.97018,228.4275 1208.13352,227.628333 1208.13352,226.905 L1208.13352,219.555 C1208.13352,219.041667 1208.05185,218.6275 1207.88852,218.3125 C1207.72518,217.9975 1207.52102,217.7525 1207.27602,217.5775 C1207.03102,217.4025 1206.78602,217.274167 1206.54102,217.1925 C1206.29602,217.110833 1206.08018,217.07 1205.89352,217.07 L1205.64852,217.035 L1213.03352,213.535 Z M1030.57852,204.715 L1030.57852,213.78 C1031.41852,213.43 1032.29352,213.255 1033.20352,213.255 C1035.35018,213.255 1037.18185,214.124167 1038.69852,215.8625 C1040.21518,217.600833 1040.97352,219.695 1040.97352,222.145 C1040.97352,224.571667 1040.21518,226.654167 1038.69852,228.3925 C1037.18185,230.130833 1035.35018,231 1033.20352,231 C1032.29352,231 1031.41852,230.825 1030.57852,230.475 L1030.57852,231 L1023.71852,231 L1023.71852,230.615 C1024.34852,230.615 1024.82685,230.1775 1025.15352,229.3025 C1025.48018,228.4275 1025.64352,227.616667 1025.64352,226.87 L1025.64352,210.77 C1025.64352,210.256667 1025.55602,209.8425 1025.38102,209.5275 C1025.20602,209.2125 1024.99602,208.961667 1024.75102,208.775 C1024.50602,208.588333 1024.26102,208.46 1024.01602,208.39 C1023.77102,208.32 1023.55518,208.273333 1023.36852,208.25 L1023.12352,208.215 L1030.57852,204.715 Z M1181.63852,213.5 C1182.12852,213.5 1182.72352,213.575833 1183.42352,213.7275 C1184.12352,213.879167 1184.74185,214.176667 1185.27852,214.62 C1185.81518,215.063333 1186.08352,215.716667 1186.08352,216.58 C1186.08352,217.14 1185.89102,217.6125 1185.50602,217.9975 C1185.12102,218.3825 1184.64852,218.575 1184.08852,218.575 C1183.55185,218.575 1183.09102,218.3825 1182.70602,217.9975 C1182.32102,217.6125 1182.12852,217.093333 1182.12852,216.44 C1182.12852,216.276667 1182.19852,215.990833 1182.33852,215.5825 C1182.47852,215.174167 1182.54852,214.818333 1182.54852,214.515 L1182.54852,214.165 C1182.54852,213.978333 1182.24518,213.885 1181.63852,213.885 C1180.28518,213.885 1179.07185,214.188333 1177.99852,214.795 L1177.99852,226.87 C1177.99852,227.616667 1178.16185,228.4275 1178.48852,229.3025 C1178.81518,230.1775 1179.28185,230.615 1179.88852,230.615 L1179.88852,231 L1171.17352,231 L1171.17352,230.615 C1171.78018,230.615 1172.24685,230.1775 1172.57352,229.3025 C1172.90018,228.4275 1173.06352,227.616667 1173.06352,226.87 L1173.06352,219.52 C1173.06352,219.03 1172.98185,218.6275 1172.81852,218.3125 C1172.65518,217.9975 1172.45102,217.746667 1172.20602,217.56 C1171.96102,217.373333 1171.71602,217.245 1171.47102,217.175 C1171.22602,217.105 1171.02185,217.058333 1170.85852,217.035 L1170.57852,217 L1177.99852,213.5 L1177.99852,214.375 C1179.07185,213.791667 1180.28518,213.5 1181.63852,213.5 Z M1351.085,206.15 C1351.645,206.15 1352.40917,206.249167 1353.3775,206.4475 C1354.34583,206.645833 1355.33167,207.013333 1356.335,207.55 C1357.33833,208.086667 1358.19,208.845 1358.89,209.825 C1359.59,210.805 1359.94,212.088333 1359.94,213.675 C1359.94,215.378333 1359.49667,216.714167 1358.61,217.6825 C1357.72333,218.650833 1356.5975,219.409167 1355.2325,219.9575 C1353.8675,220.505833 1352.415,220.99 1350.875,221.41 C1349.21833,221.853333 1347.66667,222.384167 1346.22,223.0025 C1344.77333,223.620833 1343.665,224.513333 1342.895,225.68 L1359.94,225.68 L1356.16,231 L1341.53,231 C1341.53,228.55 1341.92667,226.595833 1342.72,225.1375 C1343.51333,223.679167 1344.49333,222.506667 1345.66,221.62 C1346.82667,220.733333 1348.02833,219.963333 1349.265,219.31 C1350.175,218.82 1351.015,218.306667 1351.785,217.77 C1352.555,217.233333 1353.17917,216.609167 1353.6575,215.8975 C1354.13583,215.185833 1354.375,214.293333 1354.375,213.22 C1354.305,211.19 1353.745,209.743333 1352.695,208.88 C1351.715,208.086667 1350.61833,207.69 1349.405,207.69 C1349.335,207.69 1348.95583,207.701667 1348.2675,207.725 C1347.57917,207.748333 1346.82667,208.11 1346.01,208.81 C1346.73333,208.833333 1347.34,209.101667 1347.83,209.615 C1348.32,210.128333 1348.565,210.746667 1348.565,211.47 C1348.565,212.193333 1348.30833,212.8175 1347.795,213.3425 C1347.28167,213.8675 1346.65167,214.13 1345.905,214.13 C1345.18167,214.13 1344.5575,213.8675 1344.0325,213.3425 C1343.5075,212.8175 1343.245,212.193333 1343.245,211.47 C1343.245,211.096667 1343.35,210.6125 1343.56,210.0175 C1343.77,209.4225 1344.155,208.833333 1344.715,208.25 C1345.275,207.666667 1346.06833,207.170833 1347.095,206.7625 C1348.12167,206.354167 1349.45167,206.15 1351.085,206.15 Z M1094.06852,213.5 L1094.06852,226.87 C1094.06852,227.616667 1094.23185,228.4275 1094.55852,229.3025 C1094.88518,230.1775 1095.36352,230.615 1095.99352,230.615 L1095.99352,231 L1089.13352,231 L1089.13352,230.125 C1088.08352,230.685 1086.88185,230.976667 1085.52852,231 C1083.66185,230.953333 1082.07518,230.416667 1080.76852,229.39 C1079.46185,228.363333 1078.80852,227.056667 1078.80852,225.47 L1078.80852,219.52 C1078.80852,218.633333 1078.51685,217.98 1077.93352,217.56 C1077.51352,217.256667 1077.05852,217.081667 1076.56852,217.035 L1076.32352,217 L1083.74352,213.5 L1083.74352,227.43 C1083.79018,229.553333 1084.46685,230.615 1085.77352,230.615 C1087.05685,230.568333 1088.17685,230.265 1089.13352,229.705 L1089.13352,219.52 C1089.13352,219.006667 1089.05185,218.5925 1088.88852,218.2775 C1088.72518,217.9625 1088.52102,217.7175 1088.27602,217.5425 C1088.03102,217.3675 1087.78602,217.239167 1087.54102,217.1575 C1087.29602,217.075833 1087.09185,217.035 1086.92852,217.035 L1086.64852,217 L1094.06852,213.5 Z M1225.45852,206.5 L1225.45852,212.345 L1228.99352,212.345 L1228.99352,212.73 L1225.45852,212.73 L1225.45852,226.45 C1225.45852,226.986667 1225.54018,227.575833 1225.70352,228.2175 C1225.86685,228.859167 1226.10602,229.413333 1226.42102,229.88 C1226.73602,230.346667 1227.11518,230.58 1227.55852,230.58 L1227.55852,231 L1225.45852,231 C1223.94185,231 1222.65268,230.463333 1221.59102,229.39 C1220.52935,228.316667 1219.99852,227.033333 1219.99852,225.54 L1219.99852,213.185 L1219.96352,212.73 L1216.70852,212.73 L1216.70852,212.345 L1219.89352,212.345 C1219.75352,211.855 1219.54352,211.475833 1219.26352,211.2075 C1218.98352,210.939167 1218.68602,210.746667 1218.37102,210.63 C1218.05602,210.513333 1217.78185,210.443333 1217.54852,210.42 L1217.23352,210.385 L1225.45852,206.5 Z M1129.66352,213.535 L1129.66352,226.905 C1129.66352,227.628333 1129.82685,228.4275 1130.15352,229.3025 C1130.48018,230.1775 1130.95852,230.615 1131.58852,230.615 L1131.58852,231 L1122.87352,231 L1122.87352,230.615 C1123.48018,230.615 1123.94685,230.1775 1124.27352,229.3025 C1124.60018,228.4275 1124.76352,227.628333 1124.76352,226.905 L1124.76352,219.555 C1124.76352,219.041667 1124.68185,218.6275 1124.51852,218.3125 C1124.35518,217.9975 1124.15102,217.7525 1123.90602,217.5775 C1123.66102,217.4025 1123.41602,217.274167 1123.17102,217.1925 C1122.92602,217.110833 1122.71018,217.07 1122.52352,217.07 L1122.27852,217.035 L1129.66352,213.535 Z M1307.02,206.15 C1307.58,206.15 1308.34417,206.249167 1309.3125,206.4475 C1310.28083,206.645833 1311.26667,207.013333 1312.27,207.55 C1313.27333,208.086667 1314.125,208.845 1314.825,209.825 C1315.525,210.805 1315.875,212.088333 1315.875,213.675 C1315.875,215.378333 1315.43167,216.714167 1314.545,217.6825 C1313.65833,218.650833 1312.5325,219.409167 1311.1675,219.9575 C1309.8025,220.505833 1308.35,220.99 1306.81,221.41 C1305.15333,221.853333 1303.60167,222.384167 1302.155,223.0025 C1300.70833,223.620833 1299.6,224.513333 1298.83,225.68 L1315.875,225.68 L1312.095,231 L1297.465,231 C1297.465,228.55 1297.86167,226.595833 1298.655,225.1375 C1299.44833,223.679167 1300.42833,222.506667 1301.595,221.62 C1302.76167,220.733333 1303.96333,219.963333 1305.2,219.31 C1306.11,218.82 1306.95,218.306667 1307.72,217.77 C1308.49,217.233333 1309.11417,216.609167 1309.5925,215.8975 C1310.07083,215.185833 1310.31,214.293333 1310.31,213.22 C1310.24,211.19 1309.68,209.743333 1308.63,208.88 C1307.65,208.086667 1306.55333,207.69 1305.34,207.69 C1305.27,207.69 1304.89083,207.701667 1304.2025,207.725 C1303.51417,207.748333 1302.76167,208.11 1301.945,208.81 C1302.66833,208.833333 1303.275,209.101667 1303.765,209.615 C1304.255,210.128333 1304.5,210.746667 1304.5,211.47 C1304.5,212.193333 1304.24333,212.8175 1303.73,213.3425 C1303.21667,213.8675 1302.58667,214.13 1301.84,214.13 C1301.11667,214.13 1300.4925,213.8675 1299.9675,213.3425 C1299.4425,212.8175 1299.18,212.193333 1299.18,211.47 C1299.18,211.096667 1299.285,210.6125 1299.495,210.0175 C1299.705,209.4225 1300.09,208.833333 1300.65,208.25 C1301.21,207.666667 1302.00333,207.170833 1303.03,206.7625 C1304.05667,206.354167 1305.38667,206.15 1307.02,206.15 Z M1055.56852,218.61 C1055.56852,219.193333 1055.30018,219.73 1054.76352,220.22 C1054.22685,220.71 1053.58518,221.211667 1052.83852,221.725 C1052.23185,222.121667 1051.64268,222.553333 1051.07102,223.02 C1050.49935,223.486667 1050.02685,224 1049.65352,224.56 C1049.28018,225.12 1049.09352,225.761667 1049.09352,226.485 C1049.09352,227.838333 1049.39102,228.865 1049.98602,229.565 C1050.58102,230.265 1051.33352,230.615 1052.24352,230.615 C1053.01352,230.615 1053.76018,230.4225 1054.48352,230.0375 C1055.20685,229.6525 1055.56852,228.993333 1055.56852,228.06 L1055.56852,218.61 Z M1031.94352,213.64 C1031.47685,213.64 1031.02185,213.791667 1030.57852,214.095 L1030.57852,230.195 C1031.02185,230.475 1031.47685,230.615 1031.94352,230.615 C1033.11018,230.615 1034.11352,229.786667 1034.95352,228.13 C1035.79352,226.473333 1036.21352,224.478333 1036.21352,222.145 C1036.21352,219.788333 1035.79352,217.781667 1034.95352,216.125 C1034.11352,214.468333 1033.11018,213.64 1031.94352,213.64 Z M1403.165,207.13 C1400.085,207.13 1397.39,208.261667 1395.08,210.525 C1392.86333,212.881667 1391.755,215.611667 1391.755,218.715 C1391.755,221.841667 1392.86333,224.595 1395.08,226.975 C1397.39,229.238333 1400.085,230.37 1403.165,230.37 C1406.19833,230.37 1408.85833,229.238333 1411.145,226.975 C1413.33833,224.595 1414.435,221.841667 1414.435,218.715 C1414.435,215.611667 1413.33833,212.881667 1411.145,210.525 C1408.85833,208.261667 1406.19833,207.13 1403.165,207.13 Z M1403.13,211.435 C1404.43667,211.435 1405.55667,211.843333 1406.49,212.66 C1407.42333,213.476667 1408.11167,214.538333 1408.555,215.845 C1408.625,215.985 1408.67167,216.113333 1408.695,216.23 L1408.73,216.545 C1408.73,217.011667 1408.56667,217.408333 1408.24,217.735 C1407.91333,218.061667 1407.51667,218.225 1407.05,218.225 C1406.58333,218.225 1406.18667,218.061667 1405.86,217.735 C1405.53333,217.408333 1405.37,217.011667 1405.37,216.545 C1405.37,216.358333 1405.39333,216.183333 1405.44,216.02 L1405.475,215.145 C1405.475,213.931667 1405.18333,212.998333 1404.6,212.345 C1404.15667,211.878333 1403.66667,211.645 1403.13,211.645 C1402.38333,211.645 1401.84667,212.1 1401.52,213.01 C1401.19333,213.92 1400.995,215.098333 1400.925,216.545 C1400.925,221.491667 1402.26667,223.965 1404.95,223.965 L1404.985,223.965 C1406.01167,223.918333 1406.84,223.661667 1407.47,223.195 C1408.247,222.607 1408.8161,221.93395 1409.1773,221.17585 L1409.29,220.92 C1409.05667,221.946667 1408.625,222.926667 1407.995,223.86 C1406.85167,225.493333 1405.23,226.31 1403.13,226.31 C1401.35667,226.31 1399.84,225.580833 1398.58,224.1225 C1397.32,222.664167 1396.69,220.908333 1396.69,218.855 C1396.69,216.825 1397.32,215.080833 1398.58,213.6225 C1399.84,212.164167 1401.35667,211.435 1403.13,211.435 Z M1160.18352,213.395 C1159.41352,213.395 1158.83018,213.803333 1158.43352,214.62 C1157.82685,215.88 1157.52352,217.606667 1157.52352,219.8 C1157.52352,221.293333 1157.62852,222.53 1157.83852,223.51 C1159.91518,223.51 1161.37352,222.845 1162.21352,221.515 C1162.61018,220.885 1162.80852,219.998333 1162.80852,218.855 C1162.80852,218.481667 1162.78518,218.085 1162.73852,217.665 C1162.57518,216.358333 1162.30102,215.32 1161.91602,214.55 C1161.53102,213.78 1160.95352,213.395 1160.18352,213.395 Z M1265,206 L1265,208.47 L1264.81667,208.47 C1264.81667,208.123333 1264.73722,207.776667 1264.57833,207.43 C1264.22389,206.600476 1263.54556,206.185714 1262.54333,206.185714 L1260.875,206.185714 L1260.875,216.901429 C1260.875,217.520476 1261.03389,217.994048 1261.35167,218.322143 C1261.66944,218.650238 1261.99944,218.814286 1262.34167,218.814286 L1262.34167,219 L1256.65833,219 L1256.65833,218.814286 C1257.00056,218.814286 1257.33056,218.650238 1257.64833,218.322143 C1257.96611,217.994048 1258.125,217.520476 1258.125,216.901429 L1258.125,206.185714 L1256.45667,206.185714 C1255.44222,206.185714 1254.75778,206.600476 1254.40333,207.43 C1254.25667,207.776667 1254.18333,208.123333 1254.18333,208.47 L1254,208.47 L1254,206 L1265,206 Z M1268.99404,206 L1273.30393,213.457797 L1277.61383,206 L1282,206 L1282,206.18598 C1281.63131,206.18598 1281.28486,206.347163 1280.96067,206.669528 C1280.63647,206.991893 1280.47437,207.469242 1280.47437,208.101574 L1280.47437,216.898426 C1280.47437,217.530758 1280.63647,218.008107 1280.96067,218.330472 C1281.28486,218.652837 1281.63131,218.81402 1282,218.81402 L1282,219 L1276.0882,219 L1276.0882,218.81402 C1276.44418,218.81402 1276.78745,218.652837 1277.118,218.330472 C1277.44855,218.008107 1277.61383,217.530758 1277.61383,216.898426 L1277.61383,206.316166 L1271.96901,216.080114 L1267.71633,208.733906 L1267.71633,216.898426 C1267.71633,217.530758 1267.87843,218.008107 1268.20262,218.330472 C1268.52682,218.652837 1268.87326,218.81402 1269.24195,218.81402 L1269.24195,219 L1266,219 L1266,218.81402 C1266.35598,218.81402 1266.69289,218.652837 1267.01073,218.330472 C1267.32857,218.008107 1267.5002,217.530758 1267.52563,216.898426 L1267.52563,208.399142 L1266.13349,206 L1268.99404,206 Z M1127.21352,205.065 C1127.89018,205.065 1128.46768,205.31 1128.94602,205.8 C1129.42435,206.29 1129.66352,206.873333 1129.66352,207.55 C1129.66352,208.226667 1129.42435,208.804167 1128.94602,209.2825 C1128.46768,209.760833 1127.89018,210 1127.21352,210 C1126.53685,210 1125.95935,209.760833 1125.48102,209.2825 C1125.00268,208.804167 1124.76352,208.226667 1124.76352,207.55 C1124.76352,206.873333 1125.00268,206.29 1125.48102,205.8 C1125.95935,205.31 1126.53685,205.065 1127.21352,205.065 Z M1210.58352,205.065 C1211.26018,205.065 1211.83768,205.31 1212.31602,205.8 C1212.79435,206.29 1213.03352,206.873333 1213.03352,207.55 C1213.03352,208.226667 1212.79435,208.804167 1212.31602,209.2825 C1211.83768,209.760833 1211.26018,210 1210.58352,210 C1209.90685,210 1209.32935,209.760833 1208.85102,209.2825 C1208.37268,208.804167 1208.13352,208.226667 1208.13352,207.55 C1208.13352,206.873333 1208.37268,206.29 1208.85102,205.8 C1209.32935,205.31 1209.90685,205.065 1210.58352,205.065 Z M922.633267,81.2 L922.633267,83.4705411 C919.055444,83.4705411 917.266533,85.5346693 917.266533,89.6629259 C917.266533,93.1031396 918.298597,97.2313961 920.362725,102.047695 L940.591182,149.522645 L964.53507,93.7911824 C965.223113,92.0022712 965.567134,90.3509686 965.567134,88.8372745 C965.567134,88.1492318 965.429526,87.0827655 965.154309,85.6378758 C964.879092,84.192986 962.952572,83.4705411 959.374749,83.4705411 L959.374749,81.2 L982.905812,81.2 L982.905812,83.4705411 C975.750167,83.4705411 971.209085,86.4291249 969.282565,92.3462926 L930.064128,184.2 L926.55511,184.2 L892.703407,104.524649 C886.923848,90.4885772 880.387442,83.4705411 873.094188,83.4705411 L873.094188,81.2 L922.633267,81.2 Z M1029.79638,81 C1037.22926,81 1044.03167,82.3865385 1050.20362,85.1596154 C1056.37557,87.9326923 1061.45249,91.9272436 1065.43439,97.1432692 C1069.41629,102.359295 1071.40724,108.994872 1071.40724,117.05 C1071.40724,127.614103 1065.43439,134.480769 1053.48869,137.65 C1046.71946,139.498718 1037.89291,140.423077 1027.00905,140.423077 L1016.65611,140.423077 C1020.10709,158.646154 1028.66817,167.757692 1042.33937,167.757692 C1048.17949,167.757692 1053.02413,166.668269 1056.8733,164.489423 C1060.72247,162.310577 1063.84163,159.834615 1066.23077,157.061538 C1068.35445,154.684615 1069.94721,152.439744 1071.00905,150.326923 L1073,146.365385 L1071.20814,152.109615 C1070.01357,155.939103 1067.88989,160.296795 1064.8371,165.182692 C1061.78431,170.06859 1057.43741,174.426282 1051.79638,178.255769 C1046.15535,182.085256 1038.82202,184 1029.79638,184 C1017.45249,184 1006.90045,178.949038 998.140271,168.847115 C989.38009,158.745192 985,146.629487 985,132.5 C985,118.238462 989.38009,106.089744 998.140271,96.0538462 C1006.90045,86.0179487 1017.45249,81 1029.79638,81 Z M591.376048,48 L591.376048,50.005988 C587.631537,50.005988 583.987325,51.8113772 580.443413,55.4221557 C576.899501,59.0329341 575.127545,64.248503 575.127545,71.0688623 L574.124551,141.479042 C574.124551,146.159681 574.726347,151.37525 575.92994,157.125749 C578.738323,171.033932 587.096607,175.982036 598.998802,175.982036 C613.308184,175.982036 621.988341,175.504437 632.21888,167.948549 C642.449418,160.392661 645.5587,152.268409 645.5587,141.569807 C645.5587,134.437405 646.086638,110.93709 647.142515,71.0688623 C647.142515,64.248503 645.370559,59.0329341 641.826647,55.4221557 C638.282735,51.8113772 634.638523,50.005988 630.894012,50.005988 L630.894012,48 L671.411976,48 L671.411976,50.005988 C667.533733,50.005988 663.856088,51.8113772 660.379042,55.4221557 C656.901996,59.0329341 655.163473,64.248503 655.163473,71.0688623 L653.579658,141.569807 C653.579658,152.80334 649.300217,164.404637 638.735347,172.361723 C628.170476,180.318809 613.976846,182 598.998802,182 C587.497804,182 577.701896,178.924152 569.611078,174.778443 C561.520259,170.632735 555.33513,165.417166 551.055689,159.131737 C546.776248,152.846307 544.636527,146.560878 544.636527,140.275449 L544.636527,71.0688623 C544.636527,64.248503 542.898004,59.2560477 539.420958,55.6452693 C535.943912,52.0344908 532.266267,50.005988 528.388024,50.005988 L528.388024,48 L591.376048,48 Z M1403.12351,48.4 L1403.12351,81.5507463 L1423.17276,81.5507463 L1423.17276,85.719403 L1403.12351,85.719403 L1403.12351,155.59403 C1403.12351,158.637811 1403.58669,161.979353 1404.51306,165.618657 C1405.43943,169.25796 1406.7959,172.400995 1408.58246,175.047761 C1410.36903,177.694527 1412.51953,179.01791 1415.03396,179.01791 L1415.03396,181.4 L1403.12351,181.4 C1394.52152,181.4 1390.49094,178.052564 1386.21481,172.184522 C1381.93868,166.316481 1380.79142,159.223789 1380.79142,150.754138 L1381.38694,88.3 L1381.18843,85.719403 L1362.72724,85.719403 L1362.72724,81.5507463 L1380.79142,81.5507463 C1379.99739,78.7716418 1378.80634,76.6211443 1377.21828,75.0992537 C1375.63022,73.5773632 1373.94291,72.4855721 1372.15634,71.8238806 C1370.36978,71.1621891 1368.8148,70.7651741 1367.49142,70.6328358 L1365.70485,70.4343284 L1403.12351,48.4 Z M1263.43516,81.2 L1263.43516,103.681509 L1261.36217,103.681509 L1261.36217,103.11568 C1261.36217,102.235503 1261.17372,100.915237 1260.79681,99.1548817 C1259.41482,94.2510355 1256.1169,90.5731509 1250.90303,88.1212278 C1245.68917,85.6693047 1239.7529,84.4433432 1233.09423,84.4433432 C1230.45588,84.4433432 1227.94318,84.6319527 1225.55611,85.0091716 C1218.89744,86.643787 1215.5681,89.3286982 1215.5681,94.9869822 C1215.5681,96.7473373 1216.16487,98.979216 1217.3584,101.682618 C1218.55194,104.386021 1220.65633,106.743639 1223.67158,108.755473 L1263.81206,135.349408 C1271.47582,140.378994 1275.30769,146.477367 1275.30769,153.644527 C1275.30769,160.937426 1271.19314,167.192973 1262.96402,172.411169 C1254.73491,177.629364 1244.77831,181.2 1233.09423,181.2 C1221.78705,181.2 1212.30158,178.873817 1204.63783,174.22145 C1201.87385,172.586834 1200.17777,171.455178 1199.5496,170.826479 C1197.53943,169.191864 1196.03181,168.185947 1195.02673,167.808728 L1193.70756,167.620118 C1193.33065,167.620118 1193.11079,167.714423 1193.04797,167.903033 C1192.98515,168.091642 1192.92233,168.217382 1192.85952,168.280251 C1192.7967,168.343121 1192.76529,168.405991 1192.76529,168.468861 C1192.76529,168.531731 1192.0743,168.563166 1190.69231,168.563166 L1190.69231,143.441124 L1192.76529,143.441124 L1192.95374,146.081657 C1193.07938,147.967751 1193.45628,150.231065 1194.08446,152.871598 C1195.71772,159.787278 1198.23043,164.753994 1201.62258,167.771746 C1211.04523,174.561686 1221.53578,177.956657 1233.09423,177.956657 C1235.98384,177.956657 1238.81063,177.705178 1241.57461,177.202219 C1247.73074,175.190385 1250.80881,172.819822 1250.80881,168.167456 C1250.80881,167.664497 1250.62035,165.935577 1250.24345,162.980695 C1249.86654,160.025814 1247.35383,156.913757 1242.70533,153.644527 L1202.56484,127.239201 C1194.64982,122.083876 1190.69231,115.922633 1190.69231,108.755473 C1190.69231,101.336834 1194.83827,95.0498521 1203.1302,89.8945266 C1211.42213,84.7392012 1221.41014,81.2 1233.09423,81.2 C1239.12472,81.2 1244.77831,81.9544379 1250.05499,83.4633136 C1253.11212,84.0920118 1255.1851,84.4063609 1256.27394,84.4063609 C1257.78157,84.4063609 1259.00651,84.1234467 1259.94878,83.5576183 C1260.89104,82.9917899 1261.36217,82.3316568 1261.36217,81.5772189 L1261.36217,81.2 L1263.43516,81.2 Z M752.741107,81.2 C769.934783,81.2 784.559289,92.0695652 784.559289,111.041897 L784.559289,170.725692 C784.559289,178.235573 790.685771,179.026087 792.06917,181.2 L752.543478,181.2 C753.926877,179.026087 760.05336,178.235573 760.05336,170.725692 L760.05336,111.041897 C760.05336,97.2079051 750.567194,89.6980237 739.302372,89.6980237 C732.583004,89.8956522 725.270751,93.0577075 718.94664,100.36996 L718.94664,170.725692 C718.94664,178.235573 725.073123,179.026087 726.456522,181.2 L686.93083,181.2 C688.314229,179.026087 694.440711,178.235573 694.440711,170.725692 L694.440711,100.36996 C694.440711,92.8600791 688.314229,92.0695652 686.93083,89.8956522 L718.94664,82.3857708 L718.94664,94.4411067 C728.828063,82.1881423 741.278656,81.2 752.741107,81.2 Z M1152.61287,81.2 C1155.38515,81.2 1158.75149,81.6290429 1162.71188,82.4871287 C1166.67228,83.3452145 1170.17063,86.0184818 1173.20693,88.5267327 C1176.24323,91.0349835 1177.76139,94.7313531 1177.76139,99.6158416 C1177.76139,102.784158 1176.67228,105.457426 1174.49406,107.635644 C1172.31584,109.813861 1169.64257,110.90297 1166.47426,110.90297 C1163.43795,110.90297 1160.83069,109.813861 1158.65248,107.635644 C1156.47426,105.457426 1155.38515,102.520132 1155.38515,98.8237624 C1155.38515,97.89967 1155.78119,96.2825083 1156.57327,93.9722772 C1157.36535,91.6620462 1157.76139,90.6389439 1157.76139,88.9227723 L1157.76139,86.9425743 C1157.76139,85.8864686 1156.04521,85.3584158 1152.61287,85.3584158 C1144.95611,85.3584158 1138.09142,87.0745875 1132.01881,90.5069307 L1132.01881,157.833663 C1132.01881,162.058086 1132.9429,166.645545 1134.79109,171.59604 C1136.63927,176.546535 1139.27954,179.021782 1142.71188,179.021782 L1142.71188,181.2 L1093.40495,181.2 L1093.40495,179.021782 C1096.83729,179.021782 1099.47756,176.546535 1101.32574,171.59604 C1103.17393,166.645545 1104.09802,162.058086 1104.09802,157.833663 L1104.09802,116.249505 C1104.09802,113.477228 1103.63597,111.2 1102.71188,109.417822 C1101.78779,107.635644 1100.63267,106.216502 1099.24653,105.160396 C1097.8604,104.10429 1096.47426,103.378218 1095.08812,102.982178 C1093.70198,102.586139 1092.54686,102.322112 1091.62277,102.190099 L1090.03861,101.992079 L1132.01881,82.190099 L1132.01881,86.150495 C1138.09142,82.850165 1144.95611,81.2 1152.61287,81.2 Z M392.168317,47 L434.940594,155.54 C437.868458,162.559048 441.591938,168.20619 446.111033,172.481429 C450.630127,176.756667 454.92645,178.958095 459,179.085714 L459,181 L397.132956,181 L397.132956,179.085714 C400.570014,179.085714 403.688826,177.554286 406.489392,174.491429 C408.27157,172.449524 409.162659,169.897143 409.162659,166.834286 C409.162659,165.047619 408.908062,163.133333 408.398868,161.091429 L403.625177,148.648571 L354.360679,148.648571 L348.441301,164.154286 C347.550212,166.579048 347.104668,168.748571 347.104668,170.662857 C347.104668,172.577143 347.868458,174.459524 349.39604,176.31 C350.923621,178.160476 353.46959,179.085714 357.033946,179.085714 L357.033946,181 L324,181 L324,179.085714 C333.674682,178.702857 340.612447,173.661905 344.813296,163.962857 L390.831683,47 L392.168317,47 Z M44.3962471,47.1914286 L87.6591043,123.954286 L130.921961,47.1914286 L174.950533,47.1914286 L174.950533,49.1057143 C171.24958,49.1057143 167.771961,50.7647619 164.517676,54.0828571 C161.26339,57.4009524 159.636247,62.3142857 159.636247,68.8228571 L159.636247,159.368571 C159.636247,165.877143 161.26339,170.790476 164.517676,174.108571 C167.771961,177.426667 171.24958,179.085714 174.950533,179.085714 L174.950533,181 L115.607676,181 L115.607676,179.085714 C119.181009,179.085714 122.626723,177.426667 125.944819,174.108571 C129.262914,170.790476 130.921961,165.877143 130.921961,159.368571 L132.836247,52.36 L76.17339,152.86 L34.4419614,75.3314286 L34.4419614,159.368571 C34.4419614,165.877143 36.0691043,170.790476 39.32339,174.108571 C42.5776757,177.426667 46.0552948,179.085714 49.7562471,179.085714 L49.7562471,181 L15.2991043,181 L15.2991043,179.085714 C18.8724376,179.085714 22.2543424,177.426667 25.4448186,174.108571 C28.6352948,170.790476 30.3581519,165.877143 30.61339,159.368571 L30.61339,71.8857143 L16.6391043,47.1914286 L44.3962471,47.1914286 Z M269.153846,47 C280.564103,47 290.307692,49.9990476 298.384615,55.9971429 C306.461538,61.9952381 310.5,69.2695238 310.5,77.82 C310.5,84.8390476 307.775641,91.0285714 302.326923,96.3885714 C296.878205,101.748571 289.794872,105.449524 281.076923,107.491429 C293.25641,109.278095 303.288462,113.521429 311.173077,120.221429 C319.057692,126.921429 323,134.801905 323,143.862857 C323,154.2 318,162.97381 308,170.184286 C298,177.394762 285.948718,181 271.846154,181 L198,181 L198,179.085714 C201.589744,179.085714 205.051282,177.394762 208.384615,174.012857 C211.717949,170.630952 213.384615,165.749524 213.384615,159.368571 L213.384615,68.6314286 C213.384615,62.1228571 211.717949,57.2095238 208.384615,53.8914286 C205.051282,50.5733333 201.589744,48.9142857 198,48.9142857 L198,47 L269.153846,47 Z M1332.2,81.2 L1332.2,157.6 C1332.2,161.733333 1333.13333,166.3 1335,171.3 C1336.86667,176.3 1339.6,178.8 1343.2,178.8 L1343.2,181 L1293.4,181 L1293.4,178.8 C1296.86667,178.8 1299.53333,176.3 1301.4,171.3 C1303.26667,166.3 1304.2,161.733333 1304.2,157.6 L1304.2,115.6 C1304.2,112.666667 1303.73333,110.3 1302.8,108.5 C1301.86667,106.7 1300.7,105.3 1299.3,104.3 C1297.9,103.3 1296.5,102.566667 1295.1,102.1 C1293.7,101.633333 1292.46667,101.4 1291.4,101.4 L1290,101.2 L1332.2,81.2 Z M855.8,81.2 L855.8,157.6 C855.8,161.733333 856.733333,166.3 858.6,171.3 C860.466667,176.3 863.2,178.8 866.8,178.8 L866.8,181 L817,181 L817,178.8 C820.466667,178.8 823.133333,176.3 825,171.3 C826.866667,166.3 827.8,161.733333 827.8,157.6 L827.8,115.6 C827.8,112.666667 827.333333,110.3 826.4,108.5 C825.466667,106.7 824.3,105.3 822.9,104.3 C821.5,103.3 820.1,102.566667 818.7,102.1 C817.3,101.633333 816.066667,101.4 815,101.4 L813.6,101.2 L855.8,81.2 Z M259.372694,109 L243,109 L243,179 L259.372694,179 C268.907749,179 277.062731,175.519337 283.837638,168.558011 C290.612546,161.596685 294,153.217311 294,143.41989 C294,133.622468 290.612546,125.275322 283.837638,118.378453 C277.062731,111.481584 268.907749,109 259.372694,109 Z M380.479167,86 L356,146 L403,146 L380.479167,86 Z M1030.09934,85 C1025.72848,85 1022.41722,87.2986369 1020.16556,91.8959108 C1016.72185,98.9888476 1015,106.738538 1015,119.085502 C1015,127.491945 1015.59603,132.483271 1016.78808,138 C1028.57616,138 1036.8543,136.226766 1041.62252,128.739777 C1043.87417,125.193309 1045,120.201983 1045,113.765799 C1045,111.664188 1044.86755,109.431227 1044.60265,107.066914 C1043.6755,99.7112763 1042.11921,95.8364312 1039.93377,91.5018587 C1037.74834,87.1672862 1034.4702,85 1030.09934,85 Z M255.487805,49 L243,49 L243,106 L255.487805,106 C263.422764,105.234899 269.99187,103.067114 275.195122,97.5838926 C280.398374,92.1006711 283,85.533557 283,77.8825503 C283,70.2315436 280.398374,63.6644295 275.195122,58.1812081 C269.99187,52.6979866 263.422764,49.6375839 255.487805,49 Z M839.64,48.4 C844.114286,48.4 847.932857,50.0085106 851.095714,53.2255319 C854.258571,56.4425532 855.84,60.2723404 855.84,64.7148936 C855.84,69.1574468 854.258571,72.9489362 851.095714,76.0893617 C847.932857,79.2297872 844.114286,80.8 839.64,80.8 C835.165714,80.8 831.347143,79.2297872 828.184286,76.0893617 C825.021429,72.9489362 823.44,69.1574468 823.44,64.7148936 C823.44,60.2723404 825.021429,56.4425532 828.184286,53.2255319 C831.347143,50.0085106 835.165714,48.4 839.64,48.4 Z M1315.64,48.4 C1320.11429,48.4 1323.93286,50.0085106 1327.09571,53.2255319 C1330.25857,56.4425532 1331.84,60.2723404 1331.84,64.7148936 C1331.84,69.1574468 1330.25857,72.9489362 1327.09571,76.0893617 C1323.93286,79.2297872 1320.11429,80.8 1315.64,80.8 C1311.16571,80.8 1307.34714,79.2297872 1304.18429,76.0893617 C1301.02143,72.9489362 1299.44,69.1574468 1299.44,64.7148936 C1299.44,60.2723404 1301.02143,56.4425532 1304.18429,53.2255319 C1307.34714,50.0085106 1311.16571,48.4 1315.64,48.4 Z M1567.60993,47 C1564.7078,47 1562.07683,46.2814815 1559.71702,44.8444444 C1557.35721,43.4074074 1555.48109,41.4740741 1554.08865,39.0444444 C1552.69622,36.6148148 1552,33.9185185 1552,30.9555556 C1552,28.0222222 1552.69622,25.3481481 1554.08865,22.9333333 C1555.48109,20.5185185 1557.35721,18.5925926 1559.71702,17.1555556 C1562.07683,15.7185185 1564.7078,15 1567.60993,15 C1570.48274,15 1573.0844,15.7185185 1575.41489,17.1555556 C1577.74539,18.5925926 1579.5922,20.5185185 1580.95532,22.9333333 C1582.31844,25.3481481 1583,28.0222222 1583,30.9555556 C1583,33.9185185 1582.31844,36.6148148 1580.95532,39.0444444 C1579.5922,41.4740741 1577.74539,43.4074074 1575.41489,44.8444444 C1573.0844,46.2814815 1570.48274,47 1567.60993,47 Z M1567.58951,46 C1571.46811,46 1574.86934,44.5391566 1577.79321,41.6174699 C1580.59774,38.5451807 1582,34.9909639 1582,30.9548193 C1582,26.9487952 1580.59774,23.4246988 1577.79321,20.3825301 C1574.86934,17.4608434 1571.46811,16 1567.58951,16 C1563.65123,16 1560.20525,17.4608434 1557.25154,20.3825301 C1554.41718,23.4246988 1553,26.9487952 1553,30.9548193 C1553,34.9909639 1554.41718,38.5451807 1557.25154,41.6174699 C1560.20525,44.5391566 1563.65123,46 1567.58951,46 Z M1567.15512,41 C1564.90951,41 1562.98892,40.0686275 1561.39335,38.2058824 C1559.79778,36.3431373 1559,34.1003922 1559,31.4776471 C1559,28.8847059 1559.79778,26.6568627 1561.39335,24.7941176 C1562.98892,22.9313725 1564.90951,22 1567.15512,22 C1568.80979,22 1570.22807,22.5215686 1571.40997,23.5647059 C1572.59187,24.6078431 1573.46353,25.9639216 1574.02493,27.6329412 C1574.11357,27.8117647 1574.17267,27.9756863 1574.20222,28.1247059 L1574.24654,28.5270588 C1574.24654,29.1231373 1574.0397,29.6298039 1573.62604,30.0470588 C1573.21237,30.4643137 1572.71006,30.6729412 1572.11911,30.6729412 C1571.52816,30.6729412 1571.02585,30.4643137 1570.61219,30.0470588 C1570.19852,29.6298039 1569.99169,29.1231373 1569.99169,28.5270588 C1569.99169,28.2886275 1570.02124,28.065098 1570.08033,27.8564706 L1570.12465,26.7388235 C1570.12465,25.1890196 1569.75531,23.9968627 1569.01662,23.1623529 C1568.45522,22.5662745 1567.83472,22.2682353 1567.15512,22.2682353 C1566.2096,22.2682353 1565.53001,22.8494118 1565.11634,24.0117647 C1564.70268,25.1741176 1564.45152,26.6792157 1564.36288,28.5270588 C1564.36288,34.8454902 1566.06187,38.0047059 1569.45983,38.0047059 L1569.50416,38.0047059 C1570.80425,37.945098 1571.85319,37.6172549 1572.65097,37.0211765 C1573.74423,36.1866667 1574.51247,35.2180392 1574.95568,34.1152941 C1574.98523,34.0854902 1575,34.0556863 1575,34.0258824 L1575,34.0705882 C1575,34.1003922 1574.98523,34.1152941 1574.95568,34.1152941 C1574.6602,35.4266667 1574.11357,36.6784314 1573.31579,37.8705882 C1571.86796,39.9568627 1569.8144,41 1567.15512,41 Z" id="MBA-University" fill="#000000" fill-rule="nonzero"></path>
    </g>
</svg>