<?xml version="1.0" encoding="UTF-8"?>
<svg width="1080px" height="1080px" viewBox="0 0 1080 1080" version="1.1" xmlns="http://www.w3.org/2000/svg" xmlns:xlink="http://www.w3.org/1999/xlink">
    <title>basic-icon-students-branding-corporate-light-2023-ALL-RIGHTS-RESERVED-PENCIL-WORKS-LLC</title>
    <g id="basic-icon-students-branding-corporate-light-2023-ALL-RIGHTS-RESERVED-PENCIL-WORKS-LLC" stroke="none" stroke-width="1" fill="none" fill-rule="evenodd">
        <path d="M887,879 L632.383459,879 L632.383459,867.757515 C650.107769,867.757515 663.741855,854.981964 673.285714,829.430862 C682.829574,803.87976 687.601504,780.543086 687.601504,759.420842 L687.601504,544.791583 C687.601504,529.801603 685.215539,517.707415 680.443609,508.509018 C675.671679,499.310621 669.706767,492.156313 662.548872,487.046092 C655.390977,481.935872 648.233083,478.188377 641.075188,475.803607 C633.917293,473.418838 627.611529,472.226453 622.157895,472.226453 L615,471.204409 L830.759398,369 L830.759398,759.420842 C830.759398,780.543086 835.531328,803.87976 845.075188,829.430862 C854.619048,854.981964 868.593985,867.757515 887,867.757515 L887,879 Z M745.5,367 C722.714286,367 703.267857,359.003546 687.160714,343.010638 C671.053571,327.01773 663,307.70922 663,285.085106 C663,262.460993 671.053571,242.957447 687.160714,226.574468 C703.267857,210.191489 722.714286,202 745.5,202 C768.285714,202 787.732143,210.191489 803.839286,226.574468 C819.946429,242.957447 828,262.460993 828,285.085106 C828,307.70922 819.946429,327.01773 803.839286,343.010638 C787.732143,359.003546 768.285714,367 745.5,367 Z" id="Path-2-Copy" fill="#FFFFFF" fill-rule="nonzero"></path>
        <path d="M465,879 L210.383459,879 L210.383459,867.757515 C228.107769,867.757515 241.741855,854.981964 251.285714,829.430862 C260.829574,803.87976 265.601504,780.543086 265.601504,759.420842 L265.601504,544.791583 C265.601504,529.801603 263.215539,517.707415 258.443609,508.509018 C253.671679,499.310621 247.706767,492.156313 240.548872,487.046092 C233.390977,481.935872 226.233083,478.188377 219.075188,475.803607 C211.917293,473.418838 205.611529,472.226453 200.157895,472.226453 L193,471.204409 L408.759398,369 L408.759398,759.420842 C408.759398,780.543086 413.531328,803.87976 423.075188,829.430862 C432.619048,854.981964 446.593985,867.757515 465,867.757515 L465,879 Z M323.5,367 C300.714286,367 281.267857,359.003546 265.160714,343.010638 C249.053571,327.01773 241,307.70922 241,285.085106 C241,262.460993 249.053571,242.957447 265.160714,226.574468 C281.267857,210.191489 300.714286,202 323.5,202 C346.285714,202 365.732143,210.191489 381.839286,226.574468 C397.946429,242.957447 406,262.460993 406,285.085106 C406,307.70922 397.946429,327.01773 381.839286,343.010638 C365.732143,359.003546 346.285714,367 323.5,367 Z" id="Path-2-Copy-2" fill="#FFFFFF" fill-rule="nonzero"></path>
        <path d="M914.191489,202 C909.13617,202 904.553191,200.765046 900.442553,198.295139 C896.331915,195.825231 893.06383,192.502315 890.638298,188.326389 C888.212766,184.150463 887,179.516204 887,174.423611 C887,169.381944 888.212766,164.78588 890.638298,160.635417 C893.06383,156.484954 896.331915,153.174769 900.442553,150.704861 C904.553191,148.234954 909.13617,147 914.191489,147 C919.195745,147 923.72766,148.234954 927.787234,150.704861 C931.846809,153.174769 935.06383,156.484954 937.438298,160.635417 C939.812766,164.78588 941,169.381944 941,174.423611 C941,179.516204 939.812766,184.150463 937.438298,188.326389 C935.06383,192.502315 931.846809,195.825231 927.787234,198.295139 C923.72766,200.765046 919.195745,202 914.191489,202 Z M914.651235,200 C921.204733,200 926.951646,197.516566 931.891975,192.549699 C936.630658,187.326807 939,181.284639 939,174.423193 C939,167.612952 936.630658,161.621988 931.891975,156.450301 C926.951646,151.483434 921.204733,149 914.651235,149 C907.996914,149 902.174383,151.483434 897.183642,156.450301 C892.394547,161.621988 890,167.612952 890,174.423193 C890,181.284639 892.394547,187.326807 897.183642,192.549699 C902.174383,197.516566 907.996914,200 914.651235,200 Z M914.271468,191 C910.341644,191 906.980609,189.431373 904.188366,186.294118 C901.396122,183.156863 900,179.379608 900,174.962353 C900,170.595294 901.396122,166.843137 904.188366,163.705882 C906.980609,160.568627 910.341644,159 914.271468,159 C917.167128,159 919.649123,159.878431 921.717452,161.635294 C923.78578,163.392157 925.311173,165.676078 926.293629,168.487059 C926.448753,168.788235 926.55217,169.064314 926.603878,169.315294 L926.68144,169.992941 C926.68144,170.996863 926.319483,171.850196 925.595568,172.552941 C924.871653,173.255686 923.992613,173.607059 922.958449,173.607059 C921.924284,173.607059 921.045245,173.255686 920.32133,172.552941 C919.597415,171.850196 919.235457,170.996863 919.235457,169.992941 C919.235457,169.591373 919.287165,169.214902 919.390582,168.863529 L919.468144,166.981176 C919.468144,164.37098 918.821791,162.363137 917.529086,160.957647 C916.54663,159.953725 915.460757,159.451765 914.271468,159.451765 C912.616805,159.451765 911.427516,160.430588 910.703601,162.388235 C909.979686,164.345882 909.540166,166.880784 909.385042,169.992941 C909.385042,180.63451 912.358264,185.955294 918.304709,185.955294 L918.382271,185.955294 C920.657433,185.854902 922.493075,185.302745 923.889197,184.298824 C925.802401,182.893333 927.146814,181.261961 927.922438,179.404706 C927.974146,179.35451 928,179.304314 928,179.254118 L928,179.329412 C928,179.379608 927.974146,179.404706 927.922438,179.404706 C927.405355,181.613333 926.448753,183.721569 925.052632,185.729412 C922.518929,189.243137 918.925208,191 914.271468,191 Z" id="Shape" fill="#FFFFFF" fill-rule="nonzero"></path>
    </g>
</svg>