<?xml version="1.0" encoding="UTF-8"?>
<svg width="1080px" height="1080px" viewBox="0 0 1080 1080" version="1.1" xmlns="http://www.w3.org/2000/svg" xmlns:xlink="http://www.w3.org/1999/xlink">
    <title>basic-icon-student-teacher-branding-corporate-light-2023-ALL-RIGHTS-RESERVED-PENCIL-WORKS-LLC</title>
    <g id="basic-icon-student-teacher-branding-corporate-light-2023-ALL-RIGHTS-RESERVED-PENCIL-WORKS-LLC" stroke="none" stroke-width="1" fill="none" fill-rule="evenodd">
        <path d="M465,878.88601 L210.383459,878.88601 L210.383459,867.639642 C228.107769,867.639642 241.741855,854.859678 251.285714,829.29975 C260.829574,803.739822 265.601504,780.395087 265.601504,759.265547 L265.601504,544.56215 C265.601504,529.566992 263.215539,517.468626 258.443609,508.267052 C253.671679,499.065478 247.706767,491.908698 240.548872,486.796713 C233.390977,481.684727 226.233083,477.935938 219.075188,475.550344 C211.917293,473.164751 205.611529,471.971954 200.157895,471.971954 L193,470.949557 L408.759398,368.709845 L408.759398,759.265547 C408.759398,780.395087 413.531328,803.739822 423.075188,829.29975 C432.619048,854.859678 446.593985,867.639642 465,867.639642 L465,878.88601 Z M323.362694,365.891192 C300.592006,365.891192 281.158401,357.900011 265.06188,341.91765 C248.965359,325.935288 240.917098,306.639511 240.917098,284.030316 C240.917098,261.421122 248.965359,241.930438 265.06188,225.558263 C281.158401,209.186088 300.592006,201 323.362694,201 C346.133383,201 365.566987,209.186088 381.663509,225.558263 C397.76003,241.930438 405.80829,261.421122 405.80829,284.030316 C405.80829,306.639511 397.76003,325.935288 381.663509,341.91765 C365.566987,357.900011 346.133383,365.891192 323.362694,365.891192 Z" id="Path-2" fill="#FFFFFF" fill-rule="nonzero" transform="translate(329.000000, 539.943005) scale(-1, 1) translate(-329.000000, -539.943005) "></path>
        <path d="M887,878 L632.383459,878 L632.383459,866.757515 C650.107769,866.757515 663.741855,853.981964 673.285714,828.430862 C682.829574,802.87976 687.601504,779.543086 687.601504,758.420842 L687.601504,543.791583 C687.601504,528.801603 685.215539,516.707415 680.443609,507.509018 C675.671679,498.310621 669.706767,491.156313 662.548872,486.046092 C655.390977,480.935872 648.233083,477.188377 641.075188,474.803607 C633.917293,472.418838 627.611529,471.226453 622.157895,471.226453 L615,470.204409 L830.759398,368 L830.759398,758.420842 C830.759398,779.543086 835.531328,802.87976 845.075188,828.430862 C854.619048,853.981964 868.593985,866.757515 887,866.757515 L887,878 Z M745.5,366 C722.714286,366 703.267857,358.003546 687.160714,342.010638 C671.053571,326.01773 663,306.70922 663,284.085106 C663,261.460993 671.053571,241.957447 687.160714,225.574468 C703.267857,209.191489 722.714286,201 745.5,201 C768.285714,201 787.732143,209.191489 803.839286,225.574468 C819.946429,241.957447 828,261.460993 828,284.085106 C828,306.70922 819.946429,326.01773 803.839286,342.010638 C787.732143,358.003546 768.285714,366 745.5,366 Z" id="Path-2-Copy" fill="#FFFFFF" fill-rule="nonzero"></path>
        <path d="M914.191489,201 C909.13617,201 904.553191,199.765046 900.442553,197.295139 C896.331915,194.825231 893.06383,191.502315 890.638298,187.326389 C888.212766,183.150463 887,178.516204 887,173.423611 C887,168.381944 888.212766,163.78588 890.638298,159.635417 C893.06383,155.484954 896.331915,152.174769 900.442553,149.704861 C904.553191,147.234954 909.13617,146 914.191489,146 C919.195745,146 923.72766,147.234954 927.787234,149.704861 C931.846809,152.174769 935.06383,155.484954 937.438298,159.635417 C939.812766,163.78588 941,168.381944 941,173.423611 C941,178.516204 939.812766,183.150463 937.438298,187.326389 C935.06383,191.502315 931.846809,194.825231 927.787234,197.295139 C923.72766,199.765046 919.195745,201 914.191489,201 Z M914.651235,199 C921.204733,199 926.951646,196.516566 931.891975,191.549699 C936.630658,186.326807 939,180.284639 939,173.423193 C939,166.612952 936.630658,160.621988 931.891975,155.450301 C926.951646,150.483434 921.204733,148 914.651235,148 C907.996914,148 902.174383,150.483434 897.183642,155.450301 C892.394547,160.621988 890,166.612952 890,173.423193 C890,180.284639 892.394547,186.326807 897.183642,191.549699 C902.174383,196.516566 907.996914,199 914.651235,199 Z M914.271468,190 C910.341644,190 906.980609,188.431373 904.188366,185.294118 C901.396122,182.156863 900,178.379608 900,173.962353 C900,169.595294 901.396122,165.843137 904.188366,162.705882 C906.980609,159.568627 910.341644,158 914.271468,158 C917.167128,158 919.649123,158.878431 921.717452,160.635294 C923.78578,162.392157 925.311173,164.676078 926.293629,167.487059 C926.448753,167.788235 926.55217,168.064314 926.603878,168.315294 L926.68144,168.992941 C926.68144,169.996863 926.319483,170.850196 925.595568,171.552941 C924.871653,172.255686 923.992613,172.607059 922.958449,172.607059 C921.924284,172.607059 921.045245,172.255686 920.32133,171.552941 C919.597415,170.850196 919.235457,169.996863 919.235457,168.992941 C919.235457,168.591373 919.287165,168.214902 919.390582,167.863529 L919.468144,165.981176 C919.468144,163.37098 918.821791,161.363137 917.529086,159.957647 C916.54663,158.953725 915.460757,158.451765 914.271468,158.451765 C912.616805,158.451765 911.427516,159.430588 910.703601,161.388235 C909.979686,163.345882 909.540166,165.880784 909.385042,168.992941 C909.385042,179.63451 912.358264,184.955294 918.304709,184.955294 L918.382271,184.955294 C920.657433,184.854902 922.493075,184.302745 923.889197,183.298824 C925.802401,181.893333 927.146814,180.261961 927.922438,178.404706 C927.974146,178.35451 928,178.304314 928,178.254118 L928,178.329412 C928,178.379608 927.974146,178.404706 927.922438,178.404706 C927.405355,180.613333 926.448753,182.721569 925.052632,184.729412 C922.518929,188.243137 918.925208,190 914.271468,190 Z" id="Shape" fill="#FFFFFF" fill-rule="nonzero"></path>
    </g>
</svg>