<?xml version="1.0" encoding="UTF-8"?>
<svg width="1080px" height="1080px" viewBox="0 0 1080 1080" version="1.1" xmlns="http://www.w3.org/2000/svg" xmlns:xlink="http://www.w3.org/1999/xlink">
    <title>icon-student-teacher-branding-corporate-light-2023-ALL-RIGHTS-RESERVED-PENCIL-WORKS-LLC</title>
    <g id="icon-student-teacher-branding-corporate-light-2023-ALL-RIGHTS-RESERVED-PENCIL-WORKS-LLC" stroke="none" stroke-width="1" fill="none" fill-rule="evenodd">
        <g id="Group" transform="translate(193.000000, 201.000000)" fill="#002967" fill-rule="nonzero">
            <path d="M272,677.88601 L17.3834586,677.88601 L17.3834586,666.639642 C35.1077694,666.639642 48.7418546,653.859678 58.2857143,628.29975 C67.8295739,602.739822 72.6015038,579.395087 72.6015038,558.265547 L72.6015038,343.56215 C72.6015038,328.566992 70.2155388,316.468626 65.443609,307.267052 C60.6716792,298.065478 54.7067669,290.908698 47.5488722,285.796713 C40.3909774,280.684727 33.2330827,276.935938 26.075188,274.550344 C18.9172932,272.164751 12.6115288,270.971954 7.15789474,270.971954 L0,269.949557 L215.759398,167.709845 L215.759398,558.265547 C215.759398,579.395087 220.531328,602.739822 230.075188,628.29975 C239.619048,653.859678 253.593985,666.639642 272,666.639642 L272,677.88601 Z M130.362694,164.891192 C107.592006,164.891192 88.1584012,156.900011 72.0618801,140.91765 C55.965359,124.935288 47.9170984,105.639511 47.9170984,83.0303164 C47.9170984,60.4211223 55.965359,40.9304377 72.0618801,24.5582626 C88.1584012,8.18608753 107.592006,5.68434189e-14 130.362694,5.68434189e-14 C153.133383,5.68434189e-14 172.566987,8.18608753 188.663509,24.5582626 C204.76003,40.9304377 212.80829,60.4211223 212.80829,83.0303164 C212.80829,105.639511 204.76003,124.935288 188.663509,140.91765 C172.566987,156.900011 153.133383,164.891192 130.362694,164.891192 Z" id="Path-2" transform="translate(136.000000, 338.943005) scale(-1, 1) translate(-136.000000, -338.943005) "></path>
            <path d="M694,677 L439.383459,677 L439.383459,665.757515 C457.107769,665.757515 470.741855,652.981964 480.285714,627.430862 C489.829574,601.87976 494.601504,578.543086 494.601504,557.420842 L494.601504,342.791583 C494.601504,327.801603 492.215539,315.707415 487.443609,306.509018 C482.671679,297.310621 476.706767,290.156313 469.548872,285.046092 C462.390977,279.935872 455.233083,276.188377 448.075188,273.803607 C440.917293,271.418838 434.611529,270.226453 429.157895,270.226453 L422,269.204409 L637.759398,167 L637.759398,557.420842 C637.759398,578.543086 642.531328,601.87976 652.075188,627.430862 C661.619048,652.981964 675.593985,665.757515 694,665.757515 L694,677 Z M552.5,165 C529.714286,165 510.267857,157.003546 494.160714,141.010638 C478.053571,125.01773 470,105.70922 470,83.0851064 C470,60.4609929 478.053571,40.9574468 494.160714,24.5744681 C510.267857,8.19148936 529.714286,0 552.5,0 C575.285714,0 594.732143,8.19148936 610.839286,24.5744681 C626.946429,40.9574468 635,60.4609929 635,83.0851064 C635,105.70922 626.946429,125.01773 610.839286,141.010638 C594.732143,157.003546 575.285714,165 552.5,165 Z" id="Path-2-Copy"></path>
        </g>
        <path d="M914.191489,202 C909.13617,202 904.553191,200.765046 900.442553,198.295139 C896.331915,195.825231 893.06383,192.502315 890.638298,188.326389 C888.212766,184.150463 887,179.516204 887,174.423611 C887,169.381944 888.212766,164.78588 890.638298,160.635417 C893.06383,156.484954 896.331915,153.174769 900.442553,150.704861 C904.553191,148.234954 909.13617,147 914.191489,147 C919.195745,147 923.72766,148.234954 927.787234,150.704861 C931.846809,153.174769 935.06383,156.484954 937.438298,160.635417 C939.812766,164.78588 941,169.381944 941,174.423611 C941,179.516204 939.812766,184.150463 937.438298,188.326389 C935.06383,192.502315 931.846809,195.825231 927.787234,198.295139 C923.72766,200.765046 919.195745,202 914.191489,202 Z M914.651235,200 C921.204733,200 926.951646,197.516566 931.891975,192.549699 C936.630658,187.326807 939,181.284639 939,174.423193 C939,167.612952 936.630658,161.621988 931.891975,156.450301 C926.951646,151.483434 921.204733,149 914.651235,149 C907.996914,149 902.174383,151.483434 897.183642,156.450301 C892.394547,161.621988 890,167.612952 890,174.423193 C890,181.284639 892.394547,187.326807 897.183642,192.549699 C902.174383,197.516566 907.996914,200 914.651235,200 Z M914.271468,191 C910.341644,191 906.980609,189.431373 904.188366,186.294118 C901.396122,183.156863 900,179.379608 900,174.962353 C900,170.595294 901.396122,166.843137 904.188366,163.705882 C906.980609,160.568627 910.341644,159 914.271468,159 C917.167128,159 919.649123,159.878431 921.717452,161.635294 C923.78578,163.392157 925.311173,165.676078 926.293629,168.487059 C926.448753,168.788235 926.55217,169.064314 926.603878,169.315294 L926.68144,169.992941 C926.68144,170.996863 926.319483,171.850196 925.595568,172.552941 C924.871653,173.255686 923.992613,173.607059 922.958449,173.607059 C921.924284,173.607059 921.045245,173.255686 920.32133,172.552941 C919.597415,171.850196 919.235457,170.996863 919.235457,169.992941 C919.235457,169.591373 919.287165,169.214902 919.390582,168.863529 L919.468144,166.981176 C919.468144,164.37098 918.821791,162.363137 917.529086,160.957647 C916.54663,159.953725 915.460757,159.451765 914.271468,159.451765 C912.616805,159.451765 911.427516,160.430588 910.703601,162.388235 C909.979686,164.345882 909.540166,166.880784 909.385042,169.992941 C909.385042,180.63451 912.358264,185.955294 918.304709,185.955294 L918.382271,185.955294 C920.657433,185.854902 922.493075,185.302745 923.889197,184.298824 C925.802401,182.893333 927.146814,181.261961 927.922438,179.404706 C927.974146,179.35451 928,179.304314 928,179.254118 L928,179.329412 C928,179.379608 927.974146,179.404706 927.922438,179.404706 C927.405355,181.613333 926.448753,183.721569 925.052632,185.729412 C922.518929,189.243137 918.925208,191 914.271468,191 Z" id="Shape" fill="#002967" fill-rule="nonzero"></path>
    </g>
</svg>