<?xml version="1.0" encoding="UTF-8"?>
<svg width="1080px" height="1080px" viewBox="0 0 1080 1080" version="1.1" xmlns="http://www.w3.org/2000/svg" xmlns:xlink="http://www.w3.org/1999/xlink">
    <title>icon-student-branding-corporate-dark-2023-ALL-RIGHTS-RESERVED-PENCIL-WORKS-LLC</title>
    <g id="icon-student-branding-corporate-dark-2023-ALL-RIGHTS-RESERVED-PENCIL-WORKS-LLC" stroke="none" stroke-width="1" fill="none" fill-rule="evenodd">
        <path d="M676,878 L421.383459,878 L421.383459,866.757515 C439.107769,866.757515 452.741855,853.981964 462.285714,828.430862 C471.829574,802.87976 476.601504,779.543086 476.601504,758.420842 L476.601504,543.791583 C476.601504,528.801603 474.215539,516.707415 469.443609,507.509018 C464.671679,498.310621 458.706767,491.156313 451.548872,486.046092 C444.390977,480.935872 437.233083,477.188377 430.075188,474.803607 C422.917293,472.418838 416.611529,471.226453 411.157895,471.226453 L404,470.204409 L619.759398,368 L619.759398,758.420842 C619.759398,779.543086 624.531328,802.87976 634.075188,828.430862 C643.619048,853.981964 657.593985,866.757515 676,866.757515 L676,878 Z M534.5,366 C511.714286,366 492.267857,358.003546 476.160714,342.010638 C460.053571,326.01773 452,306.70922 452,284.085106 C452,261.460993 460.053571,241.957447 476.160714,225.574468 C492.267857,209.191489 511.714286,201 534.5,201 C557.285714,201 576.732143,209.191489 592.839286,225.574468 C608.946429,241.957447 617,261.460993 617,284.085106 C617,306.70922 608.946429,326.01773 592.839286,342.010638 C576.732143,358.003546 557.285714,366 534.5,366 Z" id="Path-2-Copy" fill="#FFFFFF" fill-rule="nonzero"></path>
        <path d="M703.191489,201 C698.13617,201 693.553191,199.765046 689.442553,197.295139 C685.331915,194.825231 682.06383,191.502315 679.638298,187.326389 C677.212766,183.150463 676,178.516204 676,173.423611 C676,168.381944 677.212766,163.78588 679.638298,159.635417 C682.06383,155.484954 685.331915,152.174769 689.442553,149.704861 C693.553191,147.234954 698.13617,146 703.191489,146 C708.195745,146 712.72766,147.234954 716.787234,149.704861 C720.846809,152.174769 724.06383,155.484954 726.438298,159.635417 C728.812766,163.78588 730,168.381944 730,173.423611 C730,178.516204 728.812766,183.150463 726.438298,187.326389 C724.06383,191.502315 720.846809,194.825231 716.787234,197.295139 C712.72766,199.765046 708.195745,201 703.191489,201 Z M703.651235,199 C710.204733,199 715.951646,196.516566 720.891975,191.549699 C725.630658,186.326807 728,180.284639 728,173.423193 C728,166.612952 725.630658,160.621988 720.891975,155.450301 C715.951646,150.483434 710.204733,148 703.651235,148 C696.996914,148 691.174383,150.483434 686.183642,155.450301 C681.394547,160.621988 679,166.612952 679,173.423193 C679,180.284639 681.394547,186.326807 686.183642,191.549699 C691.174383,196.516566 696.996914,199 703.651235,199 Z M703.271468,190 C699.341644,190 695.980609,188.431373 693.188366,185.294118 C690.396122,182.156863 689,178.379608 689,173.962353 C689,169.595294 690.396122,165.843137 693.188366,162.705882 C695.980609,159.568627 699.341644,158 703.271468,158 C706.167128,158 708.649123,158.878431 710.717452,160.635294 C712.78578,162.392157 714.311173,164.676078 715.293629,167.487059 C715.448753,167.788235 715.55217,168.064314 715.603878,168.315294 L715.68144,168.992941 C715.68144,169.996863 715.319483,170.850196 714.595568,171.552941 C713.871653,172.255686 712.992613,172.607059 711.958449,172.607059 C710.924284,172.607059 710.045245,172.255686 709.32133,171.552941 C708.597415,170.850196 708.235457,169.996863 708.235457,168.992941 C708.235457,168.591373 708.287165,168.214902 708.390582,167.863529 L708.468144,165.981176 C708.468144,163.37098 707.821791,161.363137 706.529086,159.957647 C705.54663,158.953725 704.460757,158.451765 703.271468,158.451765 C701.616805,158.451765 700.427516,159.430588 699.703601,161.388235 C698.979686,163.345882 698.540166,165.880784 698.385042,168.992941 C698.385042,179.63451 701.358264,184.955294 707.304709,184.955294 L707.382271,184.955294 C709.657433,184.854902 711.493075,184.302745 712.889197,183.298824 C714.802401,181.893333 716.146814,180.261961 716.922438,178.404706 C716.974146,178.35451 717,178.304314 717,178.254118 L717,178.329412 C717,178.379608 716.974146,178.404706 716.922438,178.404706 C716.405355,180.613333 715.448753,182.721569 714.052632,184.729412 C711.518929,188.243137 707.925208,190 703.271468,190 Z" id="Shape" fill="#FFFFFF" fill-rule="nonzero"></path>
    </g>
</svg>