<?xml version="1.0" encoding="UTF-8"?>
<svg width="16px" height="16px" viewBox="0 0 16 16" version="1.1" xmlns="http://www.w3.org/2000/svg" xmlns:xlink="http://www.w3.org/1999/xlink">
    <title>blue-mini-favicon-shield-mbauniversity-2023-all-rights-reserved</title>
    <g id="blue-mini-favicon-shield-mbauniversity-2023-all-rights-reserved" stroke="none" stroke-width="1" fill="none" fill-rule="evenodd">
        <g id="Group">
            <rect id="Rectangle" fill="#FFFFFF" x="0" y="0" width="16" height="8"></rect>
            <polygon id="Path-3" fill="#002967" points="0.27489763 8.551889 0.842600902 11.1924676 2 12.6862649 2.91111111 13.762963 4.17987302 14.7633842 6.35974603 15.6036525 8.5733466 15.8045282 10.2770503 15.6036525 11.6296296 14.7633842 13.3037037 13.5171429 14.7735251 11.7512666 15.5594349 9.68888889 15.7742176 8 0.27489763 8"></polygon>
            <circle id="Oval" stroke="#FFFFFF" stroke-width="33" cx="8" cy="8" r="1"></circle>
            <path d="M11.0164434,2.02962963 C10.9734489,2.02962963 10.9344716,2.01898491 10.8995114,1.99769547 C10.8645513,1.97640604 10.8367569,1.94776406 10.8161282,1.91176955 C10.7954995,1.87577503 10.7851852,1.8358299 10.7851852,1.79193416 C10.7851852,1.74847737 10.7954995,1.70886145 10.8161282,1.67308642 C10.8367569,1.63731139 10.8645513,1.60877915 10.8995114,1.58748971 C10.9344716,1.56620027 10.9734489,1.55555556 11.0164434,1.55555556 C11.0590036,1.55555556 11.0975466,1.56620027 11.1320725,1.58748971 C11.1665984,1.60877915 11.1939585,1.63731139 11.2141529,1.67308642 C11.2343473,1.70886145 11.2444444,1.74847737 11.2444444,1.79193416 C11.2444444,1.8358299 11.2343473,1.87577503 11.2141529,1.91176955 C11.1939585,1.94776406 11.1665984,1.97640604 11.1320725,1.99769547 C11.0975466,2.01898491 11.0590036,2.02962963 11.0164434,2.02962963 Z M11.0161408,2.01481481 C11.0736016,2.01481481 11.1239902,1.99389409 11.1673068,1.95205266 C11.2088554,1.90805444 11.2296296,1.85715454 11.2296296,1.79935297 C11.2296296,1.74198275 11.2088554,1.6915142 11.1673068,1.64794734 C11.1239902,1.60610591 11.0736016,1.58518519 11.0161408,1.58518519 C10.9577961,1.58518519 10.9067444,1.60610591 10.8629858,1.64794734 C10.8209953,1.6915142 10.8,1.74198275 10.8,1.79935297 C10.8,1.85715454 10.8209953,1.90805444 10.8629858,1.95205266 C10.9067444,1.99389409 10.9577961,2.01481481 11.0161408,2.01481481 Z M11.0245204,1.94074074 C10.991252,1.94074074 10.9627988,1.92694263 10.9391608,1.89934641 C10.9155227,1.87175018 10.9037037,1.83852433 10.9037037,1.79966885 C10.9037037,1.7612549 10.9155227,1.72824982 10.9391608,1.70065359 C10.9627988,1.67305737 10.991252,1.65925926 11.0245204,1.65925926 C11.0490339,1.65925926 11.0700455,1.6669862 11.0875551,1.68244009 C11.1050648,1.69789397 11.1179782,1.71798402 11.1262953,1.74271024 C11.1276085,1.74535948 11.128484,1.74778794 11.1289217,1.74999564 L11.1295783,1.75595643 C11.1295783,1.76478722 11.1265141,1.77229339 11.1203858,1.77847495 C11.1142574,1.7846565 11.1068158,1.78774728 11.0980609,1.78774728 C11.0893061,1.78774728 11.0818645,1.7846565 11.0757361,1.77847495 C11.0696077,1.77229339 11.0665436,1.76478722 11.0665436,1.75595643 C11.0665436,1.75242411 11.0669813,1.74911256 11.0678568,1.74602179 L11.0685134,1.72946405 C11.0685134,1.70650399 11.0630416,1.68884241 11.0520981,1.6764793 C11.043781,1.66764851 11.0345884,1.66323312 11.0245204,1.66323312 C11.0105126,1.66323312 11.0004446,1.67184314 10.9943162,1.68906318 C10.9881878,1.70628322 10.984467,1.72858097 10.9831538,1.75595643 C10.9831538,1.84956282 11.0083239,1.89636601 11.0586642,1.89636601 L11.0593208,1.89636601 C11.0785814,1.89548293 11.0941213,1.890626 11.1059403,1.88179521 C11.1221367,1.8694321 11.133518,1.85508206 11.1400841,1.8387451 C11.1405219,1.83830356 11.1407407,1.83786202 11.1407407,1.83742048 L11.1407407,1.83808279 C11.1407407,1.83852433 11.1405219,1.8387451 11.1400841,1.8387451 C11.1357067,1.85817284 11.1276085,1.8767175 11.1157895,1.89437908 C11.0943401,1.92528686 11.0639171,1.94074074 11.0245204,1.94074074 Z M11.0074074,8.01481481 L8.80239488,8.01481481 L8.80239488,7.91755059 C8.95588972,7.91755059 9.07396268,7.80702306 9.15661376,7.58596801 C9.23926483,7.36491295 9.28059036,7.163016 9.28059036,6.98027716 L9.28059036,5.12341469 C9.28059036,4.99372906 9.2599276,4.88909633 9.21860206,4.80951651 C9.17727652,4.72993669 9.1256196,4.66804128 9.0636313,4.62383027 C9.001643,4.57961926 8.93965469,4.54719785 8.87766639,4.52656604 C8.81567808,4.50593424 8.76106934,4.49561833 8.71384016,4.49561833 L8.65185185,4.48677613 L10.5203564,3.60255591 L10.5203564,6.98027716 C10.5203564,7.163016 10.561682,7.36491295 10.6443331,7.58596801 C10.7269841,7.80702306 10.8480089,7.91755059 11.0074074,7.91755059 L11.0074074,8.01481481 Z M9.77354497,3.5838599 C9.5773377,3.5838599 9.40988494,3.51499846 9.2711867,3.37727559 C9.13248845,3.23955272 9.06313933,3.07327755 9.06313933,2.87845007 C9.06313933,2.6836226 9.13248845,2.51566788 9.2711867,2.37458591 C9.40988494,2.23350395 9.5773377,2.16296296 9.77354497,2.16296296 C9.96975225,2.16296296 10.137205,2.23350395 10.2759033,2.37458591 C10.4146015,2.51566788 10.4839506,2.6836226 10.4839506,2.87845007 C10.4839506,3.07327755 10.4146015,3.23955272 10.2759033,3.37727559 C10.137205,3.51499846 9.96975225,3.5838599 9.77354497,3.5838599 Z M7.34814815,8.01481481 L5.14313562,8.01481481 L5.14313562,7.91755059 C5.29663047,7.91755059 5.41470343,7.80702306 5.4973545,7.58596801 C5.58000557,7.36491295 5.62133111,7.163016 5.62133111,6.98027716 L5.62133111,5.12341469 C5.62133111,4.99372906 5.60066834,4.88909633 5.5593428,4.80951651 C5.51801727,4.72993669 5.46636035,4.66804128 5.40437204,4.62383027 C5.34238374,4.57961926 5.28039543,4.54719785 5.21840713,4.52656604 C5.15641882,4.50593424 5.10181008,4.49561833 5.0545809,4.49561833 L4.99259259,4.48677613 L6.86109719,3.60255591 L6.86109719,6.98027716 C6.86109719,7.163016 6.90242272,7.36491295 6.9850738,7.58596801 C7.06772487,7.80702306 7.18874965,7.91755059 7.34814815,7.91755059 L7.34814815,8.01481481 Z M6.1329806,3.5838599 C5.93677333,3.5838599 5.76932057,3.51499846 5.63062232,3.37727559 C5.49192408,3.23955272 5.42257496,3.07327755 5.42257496,2.87845007 C5.42257496,2.6836226 5.49192408,2.51566788 5.63062232,2.37458591 C5.76932057,2.23350395 5.93677333,2.16296296 6.1329806,2.16296296 C6.32918787,2.16296296 6.49664063,2.23350395 6.63533888,2.37458591 C6.77403712,2.51566788 6.84338624,2.6836226 6.84338624,2.87845007 C6.84338624,3.07327755 6.77403712,3.23955272 6.63533888,3.37727559 C6.49664063,3.51499846 6.32918787,3.5838599 6.1329806,3.5838599 Z" id="Shape" fill="#002967" fill-rule="nonzero"></path>
        </g>
    </g>
</svg>