<?xml version="1.0" encoding="UTF-8"?>
<svg width="1080px" height="1080px" viewBox="0 0 1080 1080" version="1.1" xmlns="http://www.w3.org/2000/svg" xmlns:xlink="http://www.w3.org/1999/xlink">
    <title>blue-mini-icon-shield-mbauniversity-2023-all-rights-reserved</title>
    <g id="blue-mini-icon-shield-mbauniversity-2023-all-rights-reserved" stroke="none" stroke-width="1" fill="none" fill-rule="evenodd">
        <rect id="Rectangle" fill="#FFFFFF" x="0" y="0" width="1080" height="540"></rect>
        <polygon id="Path-3" fill="#002967" points="18.55559 577.252508 56.8755609 755.491564 135 856.322878 196.5 929 282.141429 996.528434 429.282857 1053.24654 578.700896 1066.80566 693.700896 1053.24654 785 996.528434 898 912.407149 997.212943 793.210497 1050.26186 654 1064.75969 540 18.55559 540"></polygon>
        <circle id="Oval" stroke="#FFFFFF" stroke-width="33" cx="540" cy="540" r="523.5"></circle>
        <path d="M743.609929,137 C740.707801,137 738.076832,136.281481 735.717021,134.844444 C733.35721,133.407407 731.481087,131.474074 730.088652,129.044444 C728.696217,126.614815 728,123.918519 728,120.955556 C728,118.022222 728.696217,115.348148 730.088652,112.933333 C731.481087,110.518519 733.35721,108.592593 735.717021,107.155556 C738.076832,105.718519 740.707801,105 743.609929,105 C746.482742,105 749.084397,105.718519 751.414894,107.155556 C753.74539,108.592593 755.592199,110.518519 756.955319,112.933333 C758.31844,115.348148 759,118.022222 759,120.955556 C759,123.918519 758.31844,126.614815 756.955319,129.044444 C755.592199,131.474074 753.74539,133.407407 751.414894,134.844444 C749.084397,136.281481 746.482742,137 743.609929,137 Z M743.589506,136 C747.468107,136 750.869342,134.587851 753.79321,131.763554 C756.597737,128.793675 758,125.357932 758,121.456325 C758,117.583835 756.597737,114.177209 753.79321,111.236446 C750.869342,108.412149 747.468107,107 743.589506,107 C739.651235,107 736.205247,108.412149 733.251543,111.236446 C730.417181,114.177209 729,117.583835 729,121.456325 C729,125.357932 730.417181,128.793675 733.251543,131.763554 C736.205247,134.587851 739.651235,136 743.589506,136 Z M744.155125,131 C741.909511,131 739.98892,130.068627 738.393352,128.205882 C736.797784,126.343137 736,124.100392 736,121.477647 C736,118.884706 736.797784,116.656863 738.393352,114.794118 C739.98892,112.931373 741.909511,112 744.155125,112 C745.809788,112 747.22807,112.521569 748.409972,113.564706 C749.591874,114.607843 750.463527,115.963922 751.024931,117.632941 C751.113573,117.811765 751.172669,117.975686 751.202216,118.124706 L751.246537,118.527059 C751.246537,119.123137 751.039705,119.629804 750.626039,120.047059 C750.212373,120.464314 749.710065,120.672941 749.119114,120.672941 C748.528163,120.672941 748.025854,120.464314 747.612188,120.047059 C747.198523,119.629804 746.99169,119.123137 746.99169,118.527059 C746.99169,118.288627 747.021237,118.065098 747.080332,117.856471 L747.124654,116.738824 C747.124654,115.18902 746.755309,113.996863 746.01662,113.162353 C745.455217,112.566275 744.834718,112.268235 744.155125,112.268235 C743.209603,112.268235 742.530009,112.849412 742.116343,114.011765 C741.702678,115.174118 741.451524,116.679216 741.362881,118.527059 C741.362881,124.84549 743.061865,128.004706 746.459834,128.004706 L746.504155,128.004706 C747.804247,127.945098 748.853186,127.617255 749.65097,127.021176 C750.744229,126.186667 751.512465,125.218039 751.955679,124.115294 C751.985226,124.08549 752,124.055686 752,124.025882 L752,124.070588 C752,124.100392 751.985226,124.115294 751.955679,124.115294 C751.660203,125.426667 751.113573,126.678431 750.315789,127.870588 C748.867959,129.956863 746.814404,131 744.155125,131 Z M743,541 L594.161654,541 L594.161654,534.434665 C604.522556,534.434665 612.492481,526.974057 618.071429,512.052841 C623.650376,497.131624 626.43985,483.50358 626.43985,471.168708 L626.43985,345.830492 C626.43985,337.076711 625.045113,330.014002 622.255639,324.642365 C619.466165,319.270727 615.979323,315.092786 611.795113,312.108543 C607.610902,309.1243 603.426692,306.935855 599.242481,305.543208 C595.058271,304.150561 591.37218,303.454238 588.184211,303.454238 L584,302.857389 L710.12406,243.172524 L710.12406,471.168708 C710.12406,483.50358 712.913534,497.131624 718.492481,512.052841 C724.071429,526.974057 732.240602,534.434665 743,534.434665 L743,541 Z M659.714286,241.910543 C646.470295,241.910543 635.167234,237.262396 625.805102,227.966102 C616.442971,218.669809 611.761905,207.446234 611.761905,194.29538 C611.761905,181.144525 616.442971,169.807582 625.805102,160.284549 C635.167234,150.761516 646.470295,146 659.714286,146 C672.958277,146 684.261338,150.761516 693.623469,160.284549 C702.985601,169.807582 707.666667,181.144525 707.666667,194.29538 C707.666667,207.446234 702.985601,218.669809 693.623469,227.966102 C684.261338,237.262396 672.958277,241.910543 659.714286,241.910543 Z M496,541 L347.161654,541 L347.161654,534.434665 C357.522556,534.434665 365.492481,526.974057 371.071429,512.052841 C376.650376,497.131624 379.43985,483.50358 379.43985,471.168708 L379.43985,345.830492 C379.43985,337.076711 378.045113,330.014002 375.255639,324.642365 C372.466165,319.270727 368.979323,315.092786 364.795113,312.108543 C360.610902,309.1243 356.426692,306.935855 352.242481,305.543208 C348.058271,304.150561 344.37218,303.454238 341.184211,303.454238 L337,302.857389 L463.12406,243.172524 L463.12406,471.168708 C463.12406,483.50358 465.913534,497.131624 471.492481,512.052841 C477.071429,526.974057 485.240602,534.434665 496,534.434665 L496,541 Z M413.97619,241.910543 C400.7322,241.910543 389.429138,237.262396 380.067007,227.966102 C370.704875,218.669809 366.02381,207.446234 366.02381,194.29538 C366.02381,181.144525 370.704875,169.807582 380.067007,160.284549 C389.429138,150.761516 400.7322,146 413.97619,146 C427.220181,146 438.523243,150.761516 447.885374,160.284549 C457.247506,169.807582 461.928571,181.144525 461.928571,194.29538 C461.928571,207.446234 457.247506,218.669809 447.885374,227.966102 C438.523243,237.262396 427.220181,241.910543 413.97619,241.910543 Z" id="Shape" fill="#002967" fill-rule="nonzero"></path>
    </g>
</svg>