<?xml version="1.0" encoding="UTF-8"?>
<svg width="1080px" height="1080px" viewBox="0 0 1080 1080" version="1.1" xmlns="http://www.w3.org/2000/svg" xmlns:xlink="http://www.w3.org/1999/xlink">
    <title>blue-mini-text-shield-mbauniversity-2023-all-rights-reserved</title>
    <g id="blue-mini-text-shield-mbauniversity-2023-all-rights-reserved" stroke="none" stroke-width="1" fill="none" fill-rule="evenodd">
        <rect id="Rectangle" fill="#FFFFFF" x="0" y="0" width="1080" height="540"></rect>
        <polygon id="Path-3" fill="#002967" points="18.55559 577.252508 56.8755609 755.491564 135 856.322878 196.5 929 282.141429 996.528434 429.282857 1053.24654 578.700896 1066.80566 693.700896 1053.24654 785 996.528434 898 912.407149 997.212943 793.210497 1050.26186 654 1064.75969 540 18.55559 540"></polygon>
        <circle id="Oval" stroke="#FFFFFF" stroke-width="33" cx="540" cy="540" r="523.5"></circle>
        <path d="M716.112715,712.786026 C706.082633,712.786026 697.668509,710.72903 690.870342,706.615037 C688.418544,705.169581 686.914032,704.16888 686.356805,703.612935 C684.573679,702.167478 683.236335,701.277966 682.344772,700.944399 L681.174596,700.777616 C680.84026,700.777616 680.645231,700.861007 680.589508,701.027791 C680.533785,701.194574 680.478063,701.305763 680.42234,701.361358 C680.366617,701.416952 680.338756,701.472547 680.338756,701.528141 C680.338756,701.583736 679.725807,701.611533 678.499908,701.611533 L678.499908,679.396627 L680.338756,679.396627 L680.505924,681.731596 C680.617369,683.399431 680.951705,685.400833 681.508932,687.735801 C682.957722,693.851196 685.186629,698.243161 688.195653,700.911696 C696.554055,706.915902 705.859742,709.918004 716.112715,709.918004 C718.675958,709.918004 721.183479,709.695626 723.635276,709.25087 C729.096099,707.471847 731.82651,705.375607 731.82651,701.261615 C731.82651,700.816859 731.659342,699.28801 731.325006,696.675069 C730.99067,694.062128 728.761763,691.3102 724.638285,688.419287 L689.031494,665.069599 C682.010436,660.510851 678.499908,655.06259 678.499908,648.724818 C678.499908,642.164668 682.177604,636.605219 689.532998,632.04647 C696.888391,627.487722 705.748297,624.358079 716.112715,624.358079 C721.462092,624.358079 726.477133,625.025213 731.157838,626.35948 C733.869675,626.915425 735.708523,627.193398 736.674383,627.193398 C738.011727,627.193398 739.098319,626.943223 739.934159,626.442872 C740.77,625.942522 741.18792,625.358779 741.18792,624.691646 L741.18792,624.358079 L743.026768,624.358079 L743.026768,644.238015 L741.18792,644.238015 L741.18792,643.737665 C741.18792,642.959342 741.020752,641.791858 740.686416,640.235212 C739.460517,635.898841 736.535076,632.646564 731.910094,630.478378 C727.285112,628.310193 722.019319,627.2261 716.112715,627.2261 C713.772362,627.2261 711.543455,627.392884 709.425994,627.726451 C703.51939,629.171908 700.566088,631.54612 700.566088,636.549624 C700.566088,638.10627 701.095453,640.079874 702.154184,642.470438 C703.212915,644.861001 705.079625,646.945794 707.754313,648.724818 L743.361104,672.241289 C750.159271,676.688848 753.558354,682.081514 753.558354,688.419287 C753.558354,694.868248 749.908519,700.3999 742.608848,705.014243 C735.309177,709.628586 726.477133,712.786026 716.112715,712.786026 Z M153.635599,713.49345 C143.433589,713.49345 134.744086,710.77354 127.56709,707.107575 C120.390094,703.44161 114.903548,698.82959 111.107451,693.271514 C107.311354,687.713438 105.413306,682.155362 105.413306,676.597286 L105.413306,615.399321 C105.413306,609.368218 103.871141,604.953492 100.786812,601.760555 C97.7024837,598.567617 94.4402128,596.773854 91,596.773854 L91,595 L146.873802,595 L146.873802,596.773854 C143.552217,596.773854 140.319603,598.370323 137.17596,601.56326 C134.032318,604.756197 132.460496,609.368218 132.460496,615.399321 L131.570786,677.661598 C131.570786,681.800591 132.104612,686.412611 133.172264,691.49766 C135.663453,703.796381 143.077705,708.171888 153.635599,708.171888 C166.328799,708.171888 174.02857,707.749557 183.103614,701.06804 C192.178658,694.386523 194.93676,687.202414 194.93676,677.74186 C194.93676,671.434823 195.40507,650.653977 196.34169,615.399321 C196.34169,609.368218 194.769869,604.756197 191.626226,601.56326 C188.482583,598.370323 185.249969,596.773854 181.928384,596.773854 L181.928384,595 L217.870021,595 L217.870021,596.773854 C214.429809,596.773854 211.167538,598.370323 208.083209,601.56326 C204.99888,604.756197 203.456716,609.368218 203.456716,615.399321 L202.051786,677.74186 C202.051786,687.675442 198.255689,697.934231 188.884075,704.970519 C179.51246,712.006807 166.921939,713.49345 153.635599,713.49345 Z M318.237839,703.52381 L318.237839,650.746656 C318.237839,633.969812 305.265107,624.358079 290.013382,624.358079 C279.845565,624.358079 268.801212,625.231873 260.035853,636.066918 L260.035853,625.406631 L231.636089,632.047465 C232.863239,633.969812 238.297762,634.668847 238.297762,641.309681 L238.297762,703.52381 C238.297762,710.164644 232.863239,710.86368 231.636089,712.786026 L266.697526,712.786026 C265.470376,710.86368 260.035853,710.164644 260.035853,703.52381 L260.035853,641.309681 C265.645683,634.843606 272.132049,632.047465 278.092493,631.872707 C288.085003,631.872707 296.499748,638.513541 296.499748,650.746656 L296.499748,703.52381 C296.499748,710.164644 291.065225,710.86368 289.838075,712.786026 L324.899512,712.786026 C323.672362,710.86368 318.237839,710.164644 318.237839,703.52381 Z M367.097425,624.004367 C363.12849,624.004367 359.74121,622.61586 356.935583,619.838846 C354.129957,617.061832 352.727144,613.709096 352.727144,609.780637 C352.727144,605.852179 354.129957,602.465577 356.935583,599.620831 C359.74121,596.776085 363.12849,595.353712 367.097425,595.353712 C371.066359,595.353712 374.45364,596.776085 377.259266,599.620831 C380.064892,602.465577 381.467706,605.852179 381.467706,609.780637 C381.467706,613.709096 380.064892,617.061832 377.259266,619.838846 C374.45364,622.61586 371.066359,624.004367 367.097425,624.004367 Z M391.189821,712.60917 L347.014514,712.60917 L347.014514,710.663755 C350.089636,710.663755 352.455114,708.453057 354.110949,704.031659 C355.766784,699.610262 356.594701,695.572052 356.594701,691.917031 L356.594701,654.777293 C356.594701,652.183406 356.180742,650.090611 355.352825,648.498908 C354.524908,646.907205 353.490011,645.669214 352.248135,644.784934 C351.006259,643.900655 349.764382,643.252183 348.522506,642.83952 C347.28063,642.426856 346.186597,642.220524 345.240405,642.220524 L343.998529,642.043668 L381.432223,624.358079 L381.432223,691.917031 C381.432223,695.572052 382.260141,699.610262 383.915976,704.031659 C385.57181,708.453057 387.996426,710.663755 391.189821,710.663755 L391.189821,712.60917 Z M789.335304,624.004367 C785.366369,624.004367 781.979089,622.61586 779.173462,619.838846 C776.367836,617.061832 774.965023,613.709096 774.965023,609.780637 C774.965023,605.852179 776.367836,602.465577 779.173462,599.620831 C781.979089,596.776085 785.366369,595.353712 789.335304,595.353712 C793.304239,595.353712 796.691519,596.776085 799.497145,599.620831 C802.302771,602.465577 803.705585,605.852179 803.705585,609.780637 C803.705585,613.709096 802.302771,617.061832 799.497145,619.838846 C796.691519,622.61586 793.304239,624.004367 789.335304,624.004367 Z M447.308543,715.438865 L444.195853,715.438865 L414.167552,644.983587 C409.040768,632.571777 403.242621,626.365871 396.773109,626.365871 L396.773109,624.358079 L440.716964,624.358079 L440.716964,626.365871 C437.543241,626.365871 435.95638,628.191138 435.95638,631.84167 C435.95638,634.883781 436.871877,638.534313 438.702871,642.793268 L456.646612,684.774392 L477.886142,635.492203 C478.496474,633.910305 478.801639,632.450092 478.801639,631.111564 C478.801639,630.503142 478.679573,629.560087 478.43544,628.282401 C478.191308,627.004715 476.48238,626.365871 473.308657,626.365871 L473.308657,624.358079 L494.181989,624.358079 L494.181989,626.365871 C487.834543,626.365871 483.806356,628.982086 482.097428,634.214516 L447.308543,715.438865 Z M535.776472,715.262009 C524.82677,715.262009 515.46654,710.795547 507.695783,701.862624 C499.925026,692.929701 496.039648,682.216031 496.039648,669.721616 C496.039648,657.11043 499.925026,646.367568 507.695783,637.49303 C515.46654,628.618492 524.82677,624.181223 535.776472,624.181223 C542.369842,624.181223 548.403952,625.40731 553.878804,627.859485 C559.353655,630.31166 563.857162,633.84396 567.389324,638.456384 C570.921486,643.068809 572.687567,648.936513 572.687567,656.059498 C572.687567,665.401117 567.389324,671.473169 556.792837,674.275655 C550.788162,675.910438 542.958535,676.72783 533.303959,676.72783 L524.120337,676.72783 C527.181544,692.842123 534.775693,700.899269 546.902783,700.899269 C552.083288,700.899269 556.380752,699.935915 559.795175,698.009206 C563.209599,696.082497 565.976459,693.893055 568.095756,691.44088 C569.979576,689.339016 571.392441,687.353922 572.334351,685.485598 L574.100432,681.982491 L572.510959,687.061996 C571.45131,690.448333 569.567491,694.301751 566.8595,698.62225 C564.151509,702.942749 560.295565,706.796166 555.291668,710.182503 C550.287772,713.56884 543.782707,715.262009 535.776472,715.262009 Z M524.237402,674.585153 C534.69407,674.585153 542.037235,673.017118 546.266898,666.396528 C548.264239,663.260458 549.26291,658.846731 549.26291,653.155347 C549.26291,651.296935 549.145419,649.322373 548.910438,647.23166 C548.088003,640.72722 546.707488,637.300774 544.768893,633.467801 C542.830297,629.634827 539.922403,627.718341 536.045212,627.718341 C532.168021,627.718341 529.230755,629.750978 527.233414,633.816253 C524.178657,640.088391 522.651279,646.941283 522.651279,657.85945 C522.651279,665.293096 523.179987,669.706823 524.237402,674.585153 Z M635.938661,712.786026 L592.200733,712.786026 L592.200733,710.859873 C595.245408,710.859873 597.587465,708.671062 599.226906,704.293441 C600.866346,699.91582 601.686066,695.859224 601.686066,692.123654 L601.686066,655.351636 C601.686066,652.900169 601.276206,650.886463 600.456486,649.310519 C599.636766,647.734576 598.612116,646.479658 597.382535,645.545765 C596.152955,644.611873 594.923375,643.969821 593.693794,643.619612 C592.464214,643.269402 591.439564,643.035929 590.619844,642.919192 L589.214609,642.744088 L626.453327,625.233603 L626.453327,628.7357 C631.84006,625.817286 637.92941,624.358079 644.721377,624.358079 C647.180538,624.358079 650.166661,624.737472 653.679748,625.49626 C657.192835,626.255048 660.296061,628.618963 662.989428,630.836958 C665.682794,633.054953 667.029477,636.323576 667.029477,640.642829 C667.029477,643.444507 666.063378,645.808422 664.131181,647.734576 C662.198983,649.660729 659.82765,650.623806 657.01718,650.623806 C654.323814,650.623806 652.011032,649.660729 650.078834,647.734576 C648.146637,645.808422 647.180538,643.211034 647.180538,639.94241 C647.180538,639.125254 647.531847,637.695231 648.234464,635.652341 C648.937081,633.609451 649.28839,632.704743 649.28839,631.187168 L649.28839,629.436119 C649.28839,628.502227 647.766052,628.03528 644.721377,628.03528 C637.92941,628.03528 631.84006,629.552856 626.453327,632.588006 L626.453327,692.123654 C626.453327,695.859224 627.273047,699.91582 628.912488,704.293441 C630.551928,708.671062 632.893986,710.859873 635.938661,710.859873 L635.938661,712.786026 Z M813.782522,712.60917 L769.607215,712.60917 L769.607215,710.663755 C772.682336,710.663755 775.047815,708.453057 776.70365,704.031659 C778.359484,699.610262 779.187402,695.572052 779.187402,691.917031 L779.187402,654.777293 C779.187402,652.183406 778.773443,650.090611 777.945526,648.498908 C777.117608,646.907205 776.082712,645.669214 774.840835,644.784934 C773.598959,643.900655 772.357083,643.252183 771.115207,642.83952 C769.873331,642.426856 768.779297,642.220524 767.833106,642.220524 L766.59123,642.043668 L804.024924,624.358079 L804.024924,691.917031 C804.024924,695.572052 804.852842,699.610262 806.508676,704.031659 C808.164511,708.453057 810.589126,710.663755 813.782522,710.663755 L813.782522,712.60917 Z M877.503146,712.962882 L866.937931,712.962882 C859.307498,712.962882 855.732156,710.002813 851.938998,704.813824 C848.14584,699.624835 847.128154,693.352914 847.128154,685.863375 L847.656414,630.636463 L847.480327,628.354494 L831.104245,628.354494 L831.104245,624.668236 L847.128154,624.668236 C846.423806,622.210731 845.367285,620.30909 843.958589,618.963314 C842.549894,617.617537 841.053155,616.652089 839.468373,616.066969 C837.883591,615.481848 836.504243,615.130776 835.330331,615.013752 L833.745548,614.838216 L866.937931,595.353712 L866.937931,624.668236 L884.722709,624.668236 L884.722709,628.354494 L866.937931,628.354494 L866.937931,690.143192 C866.937931,692.834745 867.348801,695.789603 868.17054,699.007764 C868.992279,702.225926 870.195539,705.005247 871.780321,707.345728 C873.365103,709.686209 875.272712,710.856449 877.503146,710.856449 L877.503146,712.962882 Z M912.245557,757 C907.159779,757 902.872349,754.730349 899.383269,750.191048 C895.894188,745.651747 894.031374,739.962882 893.794826,733.124454 L893.794826,732.947598 C893.794826,730.235808 894.770586,727.877729 896.722106,725.873362 C898.673625,723.868996 901.955726,721.982533 904.7943,721.982533 C907.632874,721.982533 910.027921,722.984716 911.979441,724.989083 C913.93096,726.99345 914.90672,729.351528 914.90672,732.063319 C914.90672,734.893013 913.93096,737.280568 911.979441,739.225983 C910.027921,741.171397 907.603306,742.144105 904.705595,742.144105 C901.807884,742.144105 901.246083,743.971616 901.246083,745.858079 C901.246083,747.39083 902.310548,748.334061 904.439479,750.456332 C907.278053,752.932314 909.584394,754.170306 913.132611,754.170306 C915.852911,754.170306 917.508746,754.317686 919.874225,752.843886 C922.239703,751.370087 924.132086,749.277293 925.551373,746.565502 L940.276475,713.139738 L911.003681,644.696507 C905.799629,632.316594 900.063344,626.126638 893.794826,626.126638 L893.794826,624.358079 L937.083079,624.358079 L937.083079,626.126638 C933.889684,626.126638 932.292986,627.777293 932.292986,631.078603 C932.292986,634.262009 933.239177,638.034934 935.13156,642.39738 L951.098538,683.781659 L971.855611,635.146288 C972.565254,633.613537 972.920076,632.139738 972.920076,630.724891 C972.920076,630.135371 972.772233,629.221616 972.476549,627.983624 C972.180864,626.745633 970.436324,626.126638 967.242928,626.126638 L967.242928,624.358079 L988,624.358079 L988,626.126638 C981.613209,626.126638 977.591895,628.720524 975.936061,633.908297 C960.830291,670.569547 949.500963,697.918105 941.948078,715.95397 C939.132283,722.67793 934.908591,732.46911 929.277001,745.327511 C927.975988,748.393013 926.201879,750.9869 923.954675,753.10917 C920.761279,756.292576 916.26687,757 912.245557,757 Z M417,540 L295.82494,540 L295.82494,536.094421 C303.121503,536.094421 310.157474,532.709585 316.932854,525.939914 C323.708233,519.170243 327.095923,509.145923 327.095923,495.866953 L331.004796,277.545064 L215.302158,482.587983 L130.088729,324.412017 L130.088729,495.866953 C130.088729,509.145923 133.411271,519.170243 140.056355,525.939914 C146.701439,532.709585 153.802558,536.094421 161.359712,536.094421 L161.359712,540 L91,540 L91,536.094421 C98.2965627,536.094421 105.202238,532.709585 111.717026,525.939914 C118.231815,519.170243 121.7498,509.145923 122.270983,495.866953 L122.270983,317.381974 L93.736211,267 L150.414868,267 L238.755396,423.613734 L327.095923,267 L417,267 L417,270.905579 C409.442846,270.905579 402.341727,274.290415 395.696643,281.060086 C389.051559,287.829757 385.729017,297.854077 385.729017,311.133047 L385.729017,495.866953 C385.729017,509.145923 389.051559,519.170243 395.696643,525.939914 C402.341727,532.709585 409.442846,536.094421 417,536.094421 L417,540 Z M605.646154,540 L455,540 L455,536.085714 C462.323077,536.085714 469.384615,532.628095 476.184615,525.712857 C482.984615,518.797619 486.384615,508.81619 486.384615,495.768571 L486.384615,310.231429 C486.384615,296.922857 482.984615,286.87619 476.184615,280.091429 C469.384615,273.306667 462.323077,269.914286 455,269.914286 L455,266 L600.153846,266 C623.430769,266 643.307692,272.132381 659.784615,284.397143 C676.261538,296.661905 684.5,311.53619 684.5,329.02 C684.5,343.372381 678.942308,356.028571 667.826923,366.988571 C656.711538,377.948571 642.261538,385.51619 624.476923,389.691429 C649.323077,393.344762 669.788462,402.021429 685.873077,415.721429 C701.957692,429.421429 710,445.535238 710,464.062857 C710,485.2 699.8,503.140476 679.4,517.884286 C659,532.628095 634.415385,540 605.646154,540 Z M571.526617,386.91498 C587.801909,385.35152 601.275716,380.921718 611.948038,369.716925 C622.620361,358.512132 627.956522,345.092438 627.956522,329.457843 C627.956522,313.823248 622.620361,300.403554 611.948038,289.198761 C601.275716,277.993968 587.801909,271.74013 571.526617,270.437247 L545.913043,270.437247 L545.913043,386.91498 L571.526617,386.91498 Z M580.478983,535.562753 C599.963661,535.562753 616.628189,528.447223 630.472565,514.216163 C644.316942,499.985103 651.23913,482.855123 651.23913,462.826224 C651.23913,442.797325 644.316942,425.73323 630.472565,411.633939 C616.628189,397.534648 599.963661,392.461538 580.478983,392.461538 L547.021739,392.461538 L547.021739,535.562753 L580.478983,535.562753 Z M989,540 L862.516266,540 L862.516266,536.085714 C869.54314,536.085714 875.919378,532.954286 881.644979,526.691429 C885.288543,522.51619 887.110325,517.297143 887.110325,511.034286 C887.110325,507.380952 886.589816,503.466667 885.548798,499.291429 L875.78925,473.848571 L775.070721,473.848571 L762.968883,505.554286 C761.1471,510.512381 760.236209,514.948571 760.236209,518.862857 C760.236209,522.777143 761.797737,526.62619 764.920792,530.41 C768.043847,534.19381 773.248939,536.085714 780.536068,536.085714 L780.536068,540 L713,540 L713,536.085714 C732.779349,535.302857 746.963225,524.995238 755.551627,505.162857 L849.633663,266 L852.366337,266 L939.811881,487.94 C945.797737,502.292381 953.410184,513.839524 962.649222,522.581429 C971.88826,531.323333 980.671853,535.824762 989,536.085714 L989,540 Z M874.831325,469.004049 L828.623494,345.870445 L778.39759,469.004049 L874.831325,469.004049 Z" id="MBA-University" fill="#002967" fill-rule="nonzero"></path>
        <path d="M962.191489,325 C957.13617,325 952.553191,323.765046 948.442553,321.295139 C944.331915,318.825231 941.06383,315.502315 938.638298,311.326389 C936.212766,307.150463 935,302.516204 935,297.423611 C935,292.381944 936.212766,287.78588 938.638298,283.635417 C941.06383,279.484954 944.331915,276.174769 948.442553,273.704861 C952.553191,271.234954 957.13617,270 962.191489,270 C967.195745,270 971.72766,271.234954 975.787234,273.704861 C979.846809,276.174769 983.06383,279.484954 985.438298,283.635417 C987.812766,287.78588 989,292.381944 989,297.423611 C989,302.516204 987.812766,307.150463 985.438298,311.326389 C983.06383,315.502315 979.846809,318.825231 975.787234,321.295139 C971.72766,323.765046 967.195745,325 962.191489,325 Z M962.651235,323 C969.204733,323 974.951646,320.516566 979.891975,315.549699 C984.630658,310.326807 987,304.284639 987,297.423193 C987,290.612952 984.630658,284.621988 979.891975,279.450301 C974.951646,274.483434 969.204733,272 962.651235,272 C955.996914,272 950.174383,274.483434 945.183642,279.450301 C940.394547,284.621988 938,290.612952 938,297.423193 C938,304.284639 940.394547,310.326807 945.183642,315.549699 C950.174383,320.516566 955.996914,323 962.651235,323 Z M962.271468,314 C958.341644,314 954.980609,312.431373 952.188366,309.294118 C949.396122,306.156863 948,302.379608 948,297.962353 C948,293.595294 949.396122,289.843137 952.188366,286.705882 C954.980609,283.568627 958.341644,282 962.271468,282 C965.167128,282 967.649123,282.878431 969.717452,284.635294 C971.78578,286.392157 973.311173,288.676078 974.293629,291.487059 C974.448753,291.788235 974.55217,292.064314 974.603878,292.315294 L974.68144,292.992941 C974.68144,293.996863 974.319483,294.850196 973.595568,295.552941 C972.871653,296.255686 971.992613,296.607059 970.958449,296.607059 C969.924284,296.607059 969.045245,296.255686 968.32133,295.552941 C967.597415,294.850196 967.235457,293.996863 967.235457,292.992941 C967.235457,292.591373 967.287165,292.214902 967.390582,291.863529 L967.468144,289.981176 C967.468144,287.37098 966.821791,285.363137 965.529086,283.957647 C964.54663,282.953725 963.460757,282.451765 962.271468,282.451765 C960.616805,282.451765 959.427516,283.430588 958.703601,285.388235 C957.979686,287.345882 957.540166,289.880784 957.385042,292.992941 C957.385042,303.63451 960.358264,308.955294 966.304709,308.955294 L966.382271,308.955294 C968.657433,308.854902 970.493075,308.302745 971.889197,307.298824 C973.802401,305.893333 975.146814,304.261961 975.922438,302.404706 C975.974146,302.35451 976,302.304314 976,302.254118 L976,302.329412 C976,302.379608 975.974146,302.404706 975.922438,302.404706 C975.405355,304.613333 974.448753,306.721569 973.052632,308.729412 C970.518929,312.243137 966.925208,314 962.271468,314 Z" id="Shape" fill="#002967" fill-rule="nonzero"></path>
        <path d="M631.40678,724 L631.40678,724.503311 C630.491525,724.503311 630.033898,724.973068 630.033898,725.912583 C630.033898,726.818543 630.305085,727.892274 630.847458,729.133775 L635.932203,740.911258 L641.881356,727.070199 C642.084746,726.633996 642.186441,726.21457 642.186441,725.811921 C642.186441,725.64415 642.144068,725.384106 642.059322,725.031788 C641.974576,724.67947 641.474576,724.503311 640.559322,724.503311 L640.559322,724 L646,724 L646,724.503311 C644.169492,724.503311 643.016949,725.241501 642.542373,726.717881 L628.915254,758.42649 C628.542373,759.298896 628.033898,760.037086 627.389831,760.64106 C626.474576,761.54702 625.440678,762 624.288136,762 C622.830508,762 621.601695,761.354084 620.601695,760.062252 C619.601695,758.770419 619.067797,757.151435 619,755.205298 L619,755.154967 C619,754.383223 619.279661,753.712141 619.838983,753.141722 C620.398305,752.571302 621.084746,752.286093 621.898305,752.286093 C622.711864,752.286093 623.398305,752.571302 623.957627,753.141722 C624.516949,753.712141 624.79661,754.383223 624.79661,755.154967 C624.79661,755.960265 624.516949,756.639735 623.957627,757.193377 C623.398305,757.74702 622.70339,758.023841 621.872881,758.023841 C621.042373,758.023841 620.627119,758.292274 620.627119,758.829139 C620.627119,759.265342 620.932203,759.78543 621.542373,760.389404 C622.355932,761.09404 623.271186,761.446358 624.288136,761.446358 C625.067797,761.446358 625.79661,761.236645 626.474576,760.817219 C627.152542,760.397792 627.694915,759.802208 628.101695,759.030464 L632.322034,749.266225 L623.932203,729.788079 C622.440678,726.264901 620.79661,724.503311 619,724.503311 L619,724 L631.40678,724 Z M304.656943,724 C306.229094,724 307.75107,724.338 309.22287,725.014 C310.694671,725.69 311.907235,726.652 312.86056,727.9 C313.813886,729.148 314.290548,730.586667 314.290548,732.216 L314.290548,743.864 C314.290548,744.973333 314.524699,746.178 314.992999,747.478 C315.461299,748.778 316.130299,749.428 317,749.428 L317,750 L307.215869,750 L307.215869,729.304 C307.148969,726.149333 306.162194,724.572 304.255543,724.572 C301.512641,724.710667 299.30494,725.646667 297.632439,727.38 C298.836639,728.801333 299.43874,730.413333 299.43874,732.216 L299.43874,743.864 C299.43874,744.973333 299.67289,746.178 300.14119,747.478 C300.60949,748.778 301.295216,749.428 302.198366,749.428 L302.198366,750 L292.414236,750 L292.414236,729.304 C292.347336,726.149333 291.36056,724.572 289.453909,724.572 C287.647608,724.641333 286.042007,725.092 284.637106,725.924 L284.637106,743.864 C284.637106,744.973333 284.871256,746.178 285.339557,747.478 C285.807857,748.778 286.476857,749.428 287.346558,749.428 L287.346558,750 L274.852975,750 L274.852975,749.428 C275.722676,749.428 276.391676,748.778 276.859977,747.478 C277.328277,746.178 277.562427,744.973333 277.562427,743.864 L277.562427,732.944 C277.562427,732.216 277.445352,731.609333 277.211202,731.124 C276.977052,730.638667 276.684364,730.266 276.333139,730.006 C275.981914,729.746 275.630688,729.564 275.279463,729.46 C274.928238,729.356 274.618825,729.286667 274.351225,729.252 L274,729.2 L284.637106,724 L284.637106,725.3 C286.175807,724.433333 287.915208,724 289.855309,724 C292.798911,724 295.257487,724.988 297.231039,726.964 C299.20459,724.988 301.679891,724 304.656943,724 Z M575.91314,724 L575.91314,729.45 L575.374165,729.45 L575.374165,729.3 C575.374165,729.066667 575.325167,728.716667 575.227171,728.25 C574.867854,726.95 574.010393,725.975 572.654788,725.325 C571.299183,724.675 569.755754,724.35 568.024499,724.35 C567.33853,724.35 566.685226,724.4 566.064588,724.5 C564.333333,724.933333 563.467706,725.9 563.467706,727.4 C563.467706,727.866667 563.622866,728.458333 563.933185,729.175 C564.243504,729.891667 564.790646,730.516667 565.57461,731.05 L576.011136,738.1 C578.003712,739.433333 579,741.05 579,742.95 C579,744.883333 577.930215,746.541667 575.790646,747.925 C573.651076,749.308333 571.062361,750 568.024499,750 C565.084633,750 562.618411,749.383333 560.625835,748.15 C559.907201,747.716667 559.466221,747.416667 559.302895,747.25 C558.780252,746.816667 558.38827,746.55 558.126949,746.45 L557.783964,746.4 C557.685969,746.4 557.628805,746.425 557.612472,746.475 C557.59614,746.525 557.579807,746.558333 557.563474,746.575 C557.547142,746.591667 557.538976,746.608333 557.538976,746.625 C557.538976,746.641667 557.359317,746.65 557,746.65 L557,740.5 L557.538976,740.5 L557.587973,741.2 C557.620638,741.7 557.718634,742.3 557.88196,743 C558.306607,744.833333 558.959911,746.15 559.841871,746.95 C562.291759,748.75 565.019302,749.65 568.024499,749.65 C568.775798,749.65 569.510765,749.583333 570.229399,749.45 C571.829993,748.916667 572.63029,748.033333 572.63029,746.8 C572.63029,746.666667 572.581292,746.208333 572.483296,745.425 C572.385301,744.641667 571.731997,743.816667 570.523385,742.95 L560.08686,735.95 C558.028953,734.583333 557,732.95 557,731.05 C557,729.083333 558.077951,727.416667 560.233853,726.05 C562.389755,724.683333 564.986637,724 568.024499,724 C569.592428,724 571.062361,724.2 572.434298,724.6 L572.434298,724.55 C573.087602,724.75 573.626578,724.85 574.051225,724.85 C574.443207,724.85 574.761693,724.775 575.006682,724.625 C575.25167,724.475 575.374165,724.3 575.374165,724.1 L575.374165,724 L575.91314,724 Z M422.161922,724 L422.161922,743.864 C422.161922,744.973333 422.402728,746.178 422.884342,747.478 C423.365955,748.778 424.071174,749.428 425,749.428 L425,750 L414.886121,750 L414.886121,748.7 C413.338078,749.532 411.566429,749.965333 409.571174,750 C406.819098,749.930667 404.479834,749.133333 402.553381,747.608 C400.626928,746.082667 399.663701,744.141333 399.663701,741.784 L399.663701,732.944 C399.663701,731.626667 399.233689,730.656 398.373665,730.032 C397.754448,729.581333 397.08363,729.321333 396.36121,729.252 L396,729.2 L406.939502,724 L406.939502,744.696 C407.008304,747.850667 408.005931,749.428 409.932384,749.428 C411.824437,749.358667 413.475682,748.908 414.886121,748.076 L414.886121,732.944 C414.886121,732.181333 414.765718,731.566 414.524911,731.098 C414.284104,730.63 413.983096,730.266 413.621886,730.006 C413.260676,729.746 412.899466,729.555333 412.538256,729.434 C412.177046,729.312667 411.876038,729.252 411.635231,729.252 L411.22242,729.2 L422.161922,724 Z M517.199095,724 C519.057315,724 520.757919,724.35 522.300905,725.05 C523.843891,725.75 525.113122,726.758333 526.108597,728.075 C527.104072,729.391667 527.60181,731.066667 527.60181,733.1 C527.60181,735.766667 526.108597,737.5 523.122172,738.3 C521.429864,738.766667 519.223228,739 516.502262,739 L513.914027,739 C514.776772,743.6 516.917044,745.9 520.334842,745.9 C521.794872,745.9 523.006033,745.625 523.968326,745.075 C524.930618,744.525 525.710407,743.9 526.307692,743.2 C526.838612,742.6 527.236802,742.033333 527.502262,741.5 L528,740.5 L527.552036,741.95 C527.253394,742.916667 526.722474,744.016667 525.959276,745.25 C525.196078,746.483333 524.109351,747.583333 522.699095,748.55 C521.288839,749.516667 519.455505,750 517.199095,750 C514.113122,750 511.475113,748.725 509.285068,746.175 C507.095023,743.625 506,740.566667 506,737 C506,733.4 507.095023,730.333333 509.285068,727.8 C511.475113,725.266667 514.113122,724 517.199095,724 Z M446.30605,724 C447.819692,724 449.341934,724.320667 450.872776,724.962 C452.403618,725.603333 453.667853,726.539333 454.66548,727.77 C455.663108,729.000667 456.161922,730.482667 456.161922,732.216 L456.161922,743.864 C456.161922,744.973333 456.402728,746.178 456.884342,747.478 C457.365955,748.778 458.071174,749.428 459,749.428 L459,750 L448.937722,750 L448.937722,729.304 C448.868921,726.149333 447.854093,724.572 445.893238,724.572 C444.035587,724.641333 442.384342,725.092 440.939502,725.924 L440.939502,743.864 C440.939502,744.973333 441.180308,746.178 441.661922,747.478 C442.143535,748.778 442.831554,749.428 443.725979,749.428 L443.725979,750 L430.877224,750 L430.877224,749.428 C431.771649,749.428 432.459668,748.778 432.941281,747.478 C433.422894,746.178 433.663701,744.973333 433.663701,743.864 L433.663701,732.944 C433.663701,732.216 433.543298,731.609333 433.302491,731.124 C433.061684,730.638667 432.760676,730.266 432.399466,730.006 C432.038256,729.746 431.677046,729.564 431.315836,729.46 C430.954626,729.356 430.636418,729.286667 430.36121,729.252 L430,729.2 L440.939502,724 L440.939502,725.3 C442.521945,724.433333 444.310795,724 446.30605,724 Z M549.693002,724 C550.388262,724 551.232506,724.112667 552.225734,724.338 C553.218962,724.563333 554.096313,725.005333 554.857788,725.664 C555.619263,726.322667 556,727.293333 556,728.576 C556,729.408 555.726862,730.11 555.180587,730.682 C554.634312,731.254 553.963883,731.54 553.1693,731.54 C552.407825,731.54 551.75395,731.254 551.207675,730.682 C550.6614,730.11 550.388262,729.338667 550.388262,728.368 C550.388262,728.125333 550.487585,727.700667 550.68623,727.094 C550.884876,726.487333 550.984199,725.958667 550.984199,725.508 L550.984199,724.988 C550.984199,724.710667 550.5538,724.572 549.693002,724.572 C547.772761,724.572 546.051166,725.022667 544.528217,725.924 L544.528217,743.864 C544.528217,744.973333 544.75997,746.178 545.223476,747.478 C545.686983,748.778 546.349135,749.428 547.209932,749.428 L547.209932,750 L534.844244,750 L534.844244,749.428 C535.705041,749.428 536.367193,748.778 536.8307,747.478 C537.294206,746.178 537.525959,744.973333 537.525959,743.864 L537.525959,732.944 C537.525959,732.216 537.410083,731.618 537.17833,731.15 C536.946576,730.682 536.656885,730.309333 536.309255,730.032 C535.961625,729.754667 535.613995,729.564 535.266366,729.46 C534.918736,729.356 534.629044,729.286667 534.397291,729.252 L534,729.2 L544.528217,724 L544.528217,725.3 C546.051166,724.433333 547.772761,724 549.693002,724 Z M144.945477,724 L144.945477,724.52 C144.086328,724.52 143.656753,724.988 143.656753,725.924 L143.656753,726.08 C143.656753,726.981333 143.904585,728.038667 144.400248,729.252 L149.257745,741.264 L156.296159,724 L163.285006,741.264 L169.034696,727.12 C169.199917,726.704 169.282528,726.305333 169.282528,725.924 C169.282528,725.716 169.249484,725.43 169.183395,725.066 C169.117307,724.702 168.654688,724.52 167.795539,724.52 L167.795539,724 L173,724 L173,724.52 C171.248658,724.52 170.141677,725.265333 169.679058,726.756 L160.261462,750 L159.914498,750 L153.074349,733.152 L146.234201,750 L145.887237,750 L137.708798,729.876 C136.320942,726.305333 134.751342,724.52 133,724.52 L133,724 L144.945477,724 Z M490.954023,724 L490.954023,724.573146 C490.090677,724.573146 489.659004,725.094188 489.659004,726.136273 C489.659004,727.004676 489.908046,728.04676 490.40613,729.262525 L495.287356,741.246493 L501.065134,727.178357 C501.231162,726.726787 501.314176,726.309953 501.314176,725.927856 C501.314176,725.754175 501.280971,725.48497 501.214559,725.12024 C501.148148,724.755511 500.683269,724.573146 499.819923,724.573146 L499.819923,724 L505,724 L505,724.573146 C503.273308,724.573146 502.177522,725.319973 501.712644,726.813627 L492.249042,750 L491.900383,750 L483.731801,729.887776 C482.337165,726.344689 480.759898,724.573146 479,724.573146 L479,724 L490.954023,724 Z M364.620755,724 C366.250943,724 367.804717,724.356164 369.282075,725.068493 C370.759434,725.780822 371.965094,726.798434 372.899057,728.121331 C373.833019,729.444227 374.3,731.004566 374.3,732.802348 L374.3,743.48728 C374.3,744.572733 374.520755,745.742988 374.962264,746.998043 C375.403774,748.253098 376.083019,748.880626 377,748.880626 L377,749.440313 L371.141509,749.440313 C370.428302,749.440313 369.816981,749.355512 369.307547,749.18591 C368.798113,749.016308 368.382075,748.829746 368.059434,748.626223 C367.736792,748.422701 367.507547,748.236138 367.371698,748.066536 L367.167925,747.863014 C366.081132,748.507502 365.062264,749.024788 364.111321,749.414873 C363.160377,749.804958 361.988679,750 360.596226,750 C357.233962,750 354.627358,749.372472 352.776415,748.117417 C350.925472,746.862361 350,745.234181 350,743.232877 C350,741.469015 350.543396,740.061318 351.630189,739.009785 C352.716981,737.958252 354.058491,737.118721 355.654717,736.491194 C357.250943,735.863666 358.864151,735.312459 360.49434,734.837573 C362.328302,734.328767 363.899057,733.77756 365.206604,733.183953 C366.514151,732.590346 367.167925,731.767776 367.167925,730.716243 L367.167925,728.986301 C367.167925,726.238748 366.030189,724.864971 363.754717,724.864971 L363.19434,724.915851 C361.428302,725.221135 359.9,725.933464 358.609434,727.052838 C359.424528,727.086758 360.103774,727.375082 360.64717,727.917808 C361.190566,728.460535 361.462264,729.121983 361.462264,729.902153 C361.462264,730.716243 361.182075,731.403131 360.621698,731.962818 C360.061321,732.522505 359.390566,732.802348 358.609434,732.802348 C357.79434,732.802348 357.106604,732.522505 356.546226,731.962818 C355.985849,731.403131 355.70566,730.716243 355.70566,729.902153 C355.70566,729.155903 355.977358,728.494455 356.520755,727.917808 C358.524528,725.305936 361.224528,724 364.620755,724 Z M186.945477,724 L186.945477,724.52 C186.086328,724.52 185.656753,724.988 185.656753,725.924 L185.656753,726.08 C185.656753,726.981333 185.904585,728.038667 186.400248,729.252 L191.257745,741.264 L198.296159,724 L205.285006,741.264 L211.034696,727.12 C211.199917,726.704 211.282528,726.305333 211.282528,725.924 C211.282528,725.716 211.249484,725.43 211.183395,725.066 C211.117307,724.702 210.654688,724.52 209.795539,724.52 L209.795539,724 L226.945477,724 L226.945477,724.52 C226.086328,724.52 225.656753,724.988 225.656753,725.924 L225.656753,726.08 C225.656753,726.981333 225.904585,728.038667 226.400248,729.252 L231.257745,741.264 L238.296159,724 L245.285006,741.264 L251.034696,727.12 C251.199917,726.704 251.282528,726.305333 251.282528,725.924 C251.282528,725.716 251.249484,725.43 251.183395,725.066 C251.117307,724.702 250.654688,724.52 249.795539,724.52 L249.795539,724 L255,724 L255,724.52 C253.248658,724.52 252.141677,725.265333 251.679058,726.756 L242.261462,750 L241.914498,750 L235.074349,733.152 L228.234201,750 L227.887237,750 L219.708798,729.876 C218.320942,726.305333 216.751342,724.52 215,724.52 C213.248658,724.52 212.141677,725.265333 211.679058,726.756 L202.261462,750 L201.914498,750 L195.074349,733.152 L188.234201,750 L187.887237,750 L179.708798,729.876 C178.320942,726.305333 176.751342,724.52 175,724.52 L175,724 L186.945477,724 Z M760.025682,712 C762.970572,712 765.65008,712.831943 768.064205,714.495828 C770.478331,716.159713 772.404494,718.389662 773.842697,721.185675 C775.280899,723.981688 776,727.077886 776,730.47427 C776,733.904961 775.280899,737.018312 773.842697,739.814325 C772.404494,742.610338 770.478331,744.840287 768.064205,746.504172 C765.65008,748.168057 762.970572,749 760.025682,749 C757.046549,749 754.34992,748.168057 751.935795,746.504172 C749.521669,744.840287 747.595506,742.610338 746.157303,739.814325 C744.719101,737.018312 744,733.904961 744,730.47427 C744,727.077886 744.719101,723.981688 746.157303,721.185675 C747.595506,718.389662 749.521669,716.159713 751.935795,714.495828 C754.34992,712.831943 757.046549,712 760.025682,712 Z M793.013308,714 C793.834601,714 794.955323,714.139671 796.375475,714.419014 C797.795627,714.698357 799.241445,715.215962 800.712928,715.971831 C802.184411,716.7277 803.43346,717.795775 804.460076,719.176056 C805.486692,720.556338 806,722.36385 806,724.598592 C806,726.997653 805.34981,728.879108 804.04943,730.242958 C802.749049,731.606808 801.097909,732.674883 799.096008,733.447183 C797.094106,734.219484 794.963878,734.901408 792.705323,735.492958 C790.275665,736.117371 788,736.865023 785.878327,737.735915 C783.756654,738.606808 782.131179,739.86385 781.001901,741.507042 L806,741.507042 L800.456274,749 L779,749 C779,745.549296 779.581749,742.796948 780.745247,740.742958 C781.908745,738.688967 783.346008,737.037559 785.057034,735.788732 C786.768061,734.539906 788.530418,733.455399 790.344106,732.535211 C791.678707,731.84507 792.910646,731.122066 794.039924,730.366197 C795.169202,729.610329 796.084601,728.731221 796.786122,727.728873 C797.487643,726.726526 797.838403,725.469484 797.838403,723.957746 C797.735741,721.098592 796.914449,719.061033 795.374525,717.84507 C793.937262,716.7277 792.328897,716.169014 790.54943,716.169014 C790.446768,716.169014 789.890684,716.185446 788.881179,716.21831 C787.871673,716.251174 786.768061,716.760563 785.570342,717.746479 C786.631179,717.779343 787.520913,718.157277 788.239544,718.880282 C788.958175,719.603286 789.31749,720.474178 789.31749,721.492958 C789.31749,722.511737 788.941065,723.390845 788.188213,724.130282 C787.435361,724.869718 786.511407,725.239437 785.41635,725.239437 C784.355513,725.239437 783.440114,724.869718 782.670152,724.130282 C781.90019,723.390845 781.515209,722.511737 781.515209,721.492958 C781.515209,720.967136 781.669202,720.285211 781.977186,719.447183 C782.285171,718.609155 782.84981,717.779343 783.671103,716.957746 C784.492395,716.13615 785.655894,715.437793 787.161597,714.862676 C788.6673,714.287559 790.617871,714 793.013308,714 Z M473.31203,724.083671 L473.31203,743.157895 C473.31203,744.189834 473.5401,745.32996 473.996241,746.578273 C474.452381,747.826586 475.120301,748.450742 476,748.450742 L476,749 L463.830827,749 L463.830827,748.450742 C464.677945,748.450742 465.329574,747.826586 465.785714,746.578273 C466.241855,745.32996 466.469925,744.189834 466.469925,743.157895 L466.469925,732.672065 C466.469925,731.939721 466.35589,731.348853 466.12782,730.89946 C465.899749,730.450067 465.614662,730.10054 465.272556,729.850877 C464.930451,729.601215 464.588346,729.418129 464.246241,729.301619 C463.904135,729.18511 463.602757,729.126856 463.342105,729.126856 L463,729.076923 L473.31203,724.083671 Z M610.820513,714 L610.820513,722.35 L616,722.35 L616,722.9 L610.820513,722.9 L610.820513,742.5 C610.820513,743.266667 610.940171,744.108333 611.179487,745.025 C611.418803,745.941667 611.769231,746.733333 612.230769,747.4 C612.692308,748.066667 613.247863,748.4 613.897436,748.4 L613.897436,749 L610.820513,749 C608.598291,749 606.709402,748.233333 605.153846,746.7 C603.598291,745.166667 602.820513,743.333333 602.820513,741.2 L602.820513,723.55 L602.769231,722.9 L598,722.9 L598,722.35 L602.666667,722.35 C602.461538,721.65 602.153846,721.108333 601.74359,720.725 C601.333333,720.341667 600.897436,720.066667 600.435897,719.9 C599.974359,719.733333 599.57265,719.633333 599.230769,719.6 L598.769231,719.55 L610.820513,714 Z M729.013308,714 C729.834601,714 730.955323,714.139671 732.375475,714.419014 C733.795627,714.698357 735.241445,715.215962 736.712928,715.971831 C738.184411,716.7277 739.43346,717.795775 740.460076,719.176056 C741.486692,720.556338 742,722.36385 742,724.598592 C742,726.997653 741.34981,728.879108 740.04943,730.242958 C738.749049,731.606808 737.097909,732.674883 735.096008,733.447183 C733.094106,734.219484 730.963878,734.901408 728.705323,735.492958 C726.275665,736.117371 724,736.865023 721.878327,737.735915 C719.756654,738.606808 718.131179,739.86385 717.001901,741.507042 L742,741.507042 L736.456274,749 L715,749 C715,745.549296 715.581749,742.796948 716.745247,740.742958 C717.908745,738.688967 719.346008,737.037559 721.057034,735.788732 C722.768061,734.539906 724.530418,733.455399 726.344106,732.535211 C727.678707,731.84507 728.910646,731.122066 730.039924,730.366197 C731.169202,729.610329 732.084601,728.731221 732.786122,727.728873 C733.487643,726.726526 733.838403,725.469484 733.838403,723.957746 C733.735741,721.098592 732.914449,719.061033 731.374525,717.84507 C729.937262,716.7277 728.328897,716.169014 726.54943,716.169014 C726.446768,716.169014 725.890684,716.185446 724.881179,716.21831 C723.871673,716.251174 722.768061,716.760563 721.570342,717.746479 C722.631179,717.779343 723.520913,718.157277 724.239544,718.880282 C724.958175,719.603286 725.31749,720.474178 725.31749,721.492958 C725.31749,722.511737 724.941065,723.390845 724.188213,724.130282 C723.435361,724.869718 722.511407,725.239437 721.41635,725.239437 C720.355513,725.239437 719.440114,724.869718 718.670152,724.130282 C717.90019,723.390845 717.515209,722.511737 717.515209,721.492958 C717.515209,720.967136 717.669202,720.285211 717.977186,719.447183 C718.285171,718.609155 718.84981,717.779343 719.671103,716.957746 C720.492395,716.13615 721.655894,715.437793 723.161597,714.862676 C724.6673,714.287559 726.617871,714 729.013308,714 Z M833,714 L822.953398,728.049296 C825.91521,728.640845 828.330097,729.889671 830.198058,731.795775 C832.066019,733.701878 833,735.903756 833,738.401408 C833,741.293427 831.72945,743.782864 829.18835,745.869718 C826.647249,747.956573 823.59288,749 820.025243,749 C816.62589,749 813.731392,748.268779 811.341748,746.806338 C808.952104,745.343897 807.521683,743.462441 807.050485,741.161972 L807,740.422535 C807,739.535211 807.319741,738.697183 807.959223,737.908451 C808.598706,737.119718 809.557929,736.725352 810.836893,736.725352 C811.880259,736.725352 812.780583,737.086854 813.537864,737.809859 C814.295146,738.532864 814.673786,739.420188 814.673786,740.471831 C814.673786,741.49061 814.295146,742.369718 813.537864,743.109155 C812.780583,743.848592 811.880259,744.21831 810.836893,744.21831 C810.298382,744.21831 809.793528,744.119718 809.32233,743.922535 C811.20712,745.302817 813.478964,745.992958 816.137864,745.992958 C817.282201,745.992958 818.544337,745.803991 819.924272,745.426056 C821.304207,745.048122 822.557929,744.316901 823.685437,743.232394 C824.812945,742.147887 825.376699,740.784038 825.376699,739.140845 C825.376699,737.464789 825.157929,736.100939 824.720388,735.049296 C823.946278,733.340376 822.835599,732.173709 821.38835,731.549296 C820.782524,731.319249 820.378641,731.204225 820.176699,731.204225 L827.194175,721.443662 L808.76699,721.443662 L814.219417,714 L833,714 Z M386.978723,743 C387.801418,743 388.510638,743.29078 389.106383,743.87234 C389.702128,744.453901 390,745.156028 390,745.978723 C390,746.829787 389.702128,747.546099 389.106383,748.12766 C388.510638,748.70922 387.801418,749 386.978723,749 C386.156028,749 385.453901,748.70922 384.87234,748.12766 C384.29078,747.546099 384,746.829787 384,745.978723 C384,745.156028 384.29078,744.453901 384.87234,743.87234 C385.453901,743.29078 386.156028,743 386.978723,743 Z M261.978723,743 C262.801418,743 263.510638,743.29078 264.106383,743.87234 C264.702128,744.453901 265,745.156028 265,745.978723 C265,746.829787 264.702128,747.546099 264.106383,748.12766 C263.510638,748.70922 262.801418,749 261.978723,749 C261.156028,749 260.453901,748.70922 259.87234,748.12766 C259.29078,747.546099 259,746.829787 259,745.978723 C259,745.156028 259.29078,744.453901 259.87234,743.87234 C260.453901,743.29078 261.156028,743 261.978723,743 Z M593.31203,724.083671 L593.31203,743.157895 C593.31203,744.189834 593.5401,745.32996 593.996241,746.578273 C594.452381,747.826586 595.120301,748.450742 596,748.450742 L596,749 L583.830827,749 L583.830827,748.450742 C584.677945,748.450742 585.329574,747.826586 585.785714,746.578273 C586.241855,745.32996 586.469925,744.189834 586.469925,743.157895 L586.469925,732.672065 C586.469925,731.939721 586.35589,731.348853 586.12782,730.89946 C585.899749,730.450067 585.614662,730.10054 585.272556,729.850877 C584.930451,729.601215 584.588346,729.418129 584.246241,729.301619 C583.904135,729.18511 583.602757,729.126856 583.342105,729.126856 L583,729.076923 L593.31203,724.083671 Z M331.858824,711 L331.858824,724.105193 C333.082353,723.599201 334.356863,723.346205 335.682353,723.346205 C338.80915,723.346205 341.477124,724.602752 343.686275,727.115846 C345.895425,729.628939 347,732.656458 347,736.198402 C347,739.706613 345.895425,742.717266 343.686275,745.23036 C341.477124,747.743453 338.80915,749 335.682353,749 C334.356863,749 333.082353,748.747004 331.858824,748.241012 L331.858824,749 L321.866667,749 L321.866667,748.443409 C322.784314,748.443409 323.481046,747.810919 323.956863,746.545939 C324.43268,745.280959 324.670588,744.108744 324.670588,743.029294 L324.670588,719.753662 C324.670588,719.01154 324.543137,718.412783 324.288235,717.95739 C324.033333,717.501997 323.727451,717.13937 323.370588,716.869507 C323.013725,716.599645 322.656863,716.414115 322.3,716.312916 C321.943137,716.211718 321.628758,716.144252 321.356863,716.110519 L321,716.05992 L331.858824,711 Z M866.624113,712 C869.867612,712 872.804965,712.830787 875.43617,714.492361 C878.067376,716.153935 880.152482,718.380787 881.691489,721.172917 C883.230496,723.965046 884,727.056944 884,730.448611 C884,733.874537 883.230496,736.99213 881.691489,739.801389 C880.152482,742.610648 878.067376,744.846065 875.43617,746.507639 C872.804965,748.169213 869.867612,749 866.624113,749 C863.347518,749 860.377069,748.169213 857.712766,746.507639 C855.048463,744.846065 852.93026,742.610648 851.358156,739.801389 C849.786052,736.99213 849,733.874537 849,730.448611 C849,727.056944 849.786052,723.965046 851.358156,721.172917 C852.93026,718.380787 855.048463,716.153935 857.712766,714.492361 C860.377069,712.830787 863.347518,712 866.624113,712 Z M367.167925,731.428571 C367.167925,732.276582 366.777358,733.056751 365.996226,733.76908 C365.215094,734.481409 364.281132,735.210698 363.19434,735.956947 C362.311321,736.533594 361.453774,737.161122 360.621698,737.83953 C359.789623,738.517939 359.101887,739.264188 358.558491,740.078278 C358.015094,740.892368 357.743396,741.825179 357.743396,742.876712 C357.743396,744.844097 358.176415,746.336595 359.042453,747.354207 C359.908491,748.37182 361.003774,748.880626 362.328302,748.880626 C363.449057,748.880626 364.535849,748.600783 365.588679,748.041096 C366.641509,747.481409 367.167925,746.523157 367.167925,745.166341 L367.167925,731.428571 Z M760.025682,712.514604 C757.662921,712.514604 755.659711,714.272833 754.016051,717.789291 C752.372392,721.305749 751.550562,725.534075 751.550562,730.47427 C751.550562,735.448771 752.372392,739.694251 754.016051,743.210709 C755.659711,746.727167 757.662921,748.485396 760.025682,748.485396 C762.3542,748.485396 764.340289,746.727167 765.983949,743.210709 C767.627608,739.694251 768.449438,735.448771 768.449438,730.47427 C768.449438,725.534075 767.627608,721.305749 765.983949,717.789291 C764.340289,714.272833 762.3542,712.514604 760.025682,712.514604 Z M333.847059,723.902796 C333.16732,723.902796 332.504575,724.122059 331.858824,724.560586 L331.858824,747.836218 C332.504575,748.241012 333.16732,748.443409 333.847059,748.443409 C335.546405,748.443409 337.007843,747.245894 338.231373,744.850866 C339.454902,742.455837 340.066667,739.571682 340.066667,736.198402 C340.066667,732.791389 339.454902,729.890368 338.231373,727.49534 C337.007843,725.100311 335.546405,723.902796 333.847059,723.902796 Z M866.098765,714 C861.753086,714 857.950617,715.606928 854.691358,718.820783 C851.563786,722.167169 850,726.043675 850,730.450301 C850,734.89006 851.563786,738.799699 854.691358,742.179217 C857.950617,745.393072 861.753086,747 866.098765,747 C870.378601,747 874.131687,745.393072 877.358025,742.179217 C880.452675,738.799699 882,734.89006 882,730.450301 C882,726.043675 880.452675,722.167169 877.358025,718.820783 C874.131687,715.606928 870.378601,714 866.098765,714 Z M867.174515,720 C869.036011,720 870.631579,720.576471 871.961219,721.729412 C873.290859,722.882353 874.271468,724.381176 874.903047,726.225882 C875.00277,726.423529 875.069252,726.604706 875.102493,726.769412 L875.152355,727.214118 C875.152355,727.872941 874.919668,728.432941 874.454294,728.894118 C873.98892,729.355294 873.423823,729.585882 872.759003,729.585882 C872.094183,729.585882 871.529086,729.355294 871.063712,728.894118 C870.598338,728.432941 870.365651,727.872941 870.365651,727.214118 C870.365651,726.950588 870.398892,726.703529 870.465374,726.472941 L870.515235,725.237647 C870.515235,723.524706 870.099723,722.207059 869.268698,721.284706 C868.637119,720.625882 867.939058,720.296471 867.174515,720.296471 C866.110803,720.296471 865.34626,720.938824 864.880886,722.223529 C864.415512,723.508235 864.132964,725.171765 864.033241,727.214118 C864.033241,734.197647 865.944598,737.689412 869.767313,737.689412 L869.817175,737.689412 C871.279778,737.623529 872.459834,737.261176 873.357341,736.602353 C874.492649,735.75095 875.316396,734.773241 875.828583,733.669224 L875.950139,733.390588 C875.617729,734.84 875.00277,736.223529 874.105263,737.541176 C872.476454,739.847059 870.166205,741 867.174515,741 C864.648199,741 862.487535,739.970588 860.692521,737.911765 C858.897507,735.852941 858,733.374118 858,730.475294 C858,727.609412 858.897507,725.147059 860.692521,723.088235 C862.487535,721.029412 864.648199,720 867.174515,720 Z M517.199095,724.35 C516.104072,724.35 515.27451,724.933333 514.710407,726.1 C513.847662,727.9 513.41629,730.366667 513.41629,733.5 C513.41629,735.633333 513.565611,737.4 513.864253,738.8 C516.817496,738.8 518.891403,737.85 520.085973,735.95 C520.650075,735.05 520.932127,733.783333 520.932127,732.15 C520.932127,731.616667 520.898944,731.05 520.832579,730.45 C520.600302,728.583333 520.210407,727.1 519.662896,726 C519.115385,724.9 518.294118,724.35 517.199095,724.35 Z M944.231626,599.901747 L944.231626,601.703057 C940.984829,601.703057 939.36143,603.384279 939.36143,606.746725 C939.36143,609.989083 940.323444,613.831878 942.247472,618.275109 L958.481457,660.425764 L979.585637,610.889738 C980.307148,609.328603 980.667903,607.827511 980.667903,606.386463 C980.667903,605.786026 980.517588,604.855349 980.216959,603.594432 C979.91633,602.333515 978.142617,601.703057 974.89582,601.703057 L974.89582,599.901747 L996,599.901747 L996,601.703057 C989.506406,601.703057 985.417847,604.344978 983.734322,609.628821 C968.375948,646.968983 956.857166,674.823995 949.177979,693.193858 C946.315097,700.042336 942.020775,710.014835 936.295011,723.111354 C934.972242,726.233624 933.168466,728.875546 930.883683,731.037118 C927.636886,734.279476 923.067319,735 918.97876,735 C913.807935,735 909.44881,732.688319 905.901384,728.064956 C902.353957,723.441594 900.459992,717.64738 900.219489,710.682314 L900.219489,710.502183 C900.219489,707.740175 901.211566,705.338428 903.195719,703.296943 C905.179873,701.255459 908.516859,699.334061 911.402901,699.334061 C914.288942,699.334061 916.72404,700.354803 918.708194,702.396288 C920.692348,704.437773 921.684424,706.83952 921.684424,709.601528 C921.684424,712.483624 920.692348,714.915393 918.708194,716.896834 C916.72404,718.878275 914.258879,719.868996 911.312712,719.868996 C908.366544,719.868996 907.795348,721.730349 907.795348,723.651747 C907.795348,725.212882 908.877614,726.173581 911.042145,728.335153 C913.928187,730.856987 916.273096,732.117904 919.880648,732.117904 C922.646438,732.117904 924.329963,732.268013 926.734998,730.766921 C929.140032,729.26583 931.06406,727.134279 932.507081,724.372271 L947.478423,690.327511 L917.716117,620.616812 C912.42504,608.007642 906.592831,601.703057 900.219489,601.703057 L900.219489,599.901747 L944.231626,599.901747 Z M674.303933,713 L680.499404,723.899857 L686.694875,713 L693,713 L693,713.271817 C692.470004,713.271817 691.97199,713.507392 691.505959,713.978541 C691.039928,714.44969 690.806913,715.147353 690.806913,716.071531 L690.806913,728.928469 C690.806913,729.852647 691.039928,730.55031 691.505959,731.021459 C691.97199,731.492608 692.470004,731.728183 693,731.728183 L693,732 L684.501788,732 L684.501788,731.728183 C685.013508,731.728183 685.506953,731.492608 685.982122,731.021459 C686.45729,730.55031 686.694875,729.852647 686.694875,728.928469 L686.694875,713.462089 L678.580453,727.732475 L672.467223,716.995708 L672.467223,728.928469 C672.467223,729.852647 672.700238,730.55031 673.166269,731.021459 C673.6323,731.492608 674.130314,731.728183 674.66031,731.728183 L674.66031,732 L670,732 L670,731.728183 C670.51172,731.728183 670.996027,731.492608 671.45292,731.021459 C671.909813,730.55031 672.156536,729.852647 672.193087,728.928469 L672.193087,716.506438 L670.191895,713 L674.303933,713 Z M669,713 L669,716.61 L668.733333,716.61 C668.733333,716.103333 668.617778,715.596667 668.386667,715.09 C667.871111,713.877619 666.884444,713.271429 665.426667,713.271429 L663,713.271429 L663,728.932857 C663,729.837619 663.231111,730.529762 663.693333,731.009286 C664.155556,731.48881 664.635556,731.728571 665.133333,731.728571 L665.133333,732 L656.866667,732 L656.866667,731.728571 C657.364444,731.728571 657.844444,731.48881 658.306667,731.009286 C658.768889,730.529762 659,729.837619 659,728.932857 L659,713.271429 L656.573333,713.271429 C655.097778,713.271429 654.102222,713.877619 653.586667,715.09 C653.373333,715.596667 653.266667,716.103333 653.266667,716.61 L653,716.61 L653,713 L669,713 Z M469.890977,712 C470.83584,712 471.642231,712.349528 472.31015,713.048583 C472.97807,713.747638 473.31203,714.579847 473.31203,715.545209 C473.31203,716.510571 472.97807,717.334458 472.31015,718.016869 C471.642231,718.69928 470.83584,719.040486 469.890977,719.040486 C468.946115,719.040486 468.139724,718.69928 467.471805,718.016869 C466.803885,717.334458 466.469925,716.510571 466.469925,715.545209 C466.469925,714.579847 466.803885,713.747638 467.471805,713.048583 C468.139724,712.349528 468.946115,712 469.890977,712 Z M589.890977,712 C590.83584,712 591.642231,712.349528 592.31015,713.048583 C592.97807,713.747638 593.31203,714.579847 593.31203,715.545209 C593.31203,716.510571 592.97807,717.334458 592.31015,718.016869 C591.642231,718.69928 590.83584,719.040486 589.890977,719.040486 C588.946115,719.040486 588.139724,718.69928 587.471805,718.016869 C586.803885,717.334458 586.469925,716.510571 586.469925,715.545209 C586.469925,714.579847 586.803885,713.747638 587.471805,713.048583 C588.139724,712.349528 588.946115,712 589.890977,712 Z M439.565074,599.901747 L439.565074,601.946721 C436.338279,601.946721 434.724881,603.805788 434.724881,607.523923 C434.724881,610.622369 435.655688,614.340504 437.5173,618.678328 L455.761104,661.43688 L477.35581,611.242058 C477.976348,609.630867 478.286617,608.143613 478.286617,606.780296 C478.286617,606.160607 478.162509,605.200089 477.914294,603.898742 C477.666079,602.597395 475.928574,601.946721 472.701779,601.946721 L472.701779,599.901747 L493.924162,599.901747 L493.924162,601.946721 C487.470572,601.946721 483.375024,604.611384 481.637519,609.940711 L446.26688,692.669214 L443.102138,692.669214 L412.571691,620.909209 C407.359176,608.26755 401.464069,601.946721 394.886371,601.946721 L394.886371,599.901747 L439.565074,599.901747 Z M536.214206,599.721616 C542.917832,599.721616 549.052848,600.970409 554.619252,603.467994 C560.185656,605.96558 564.764472,609.563293 568.355701,614.261132 C571.946929,618.958972 573.742543,624.935338 573.742543,632.190229 C573.742543,641.704841 568.355701,647.889339 557.582015,650.743723 C551.476927,652.40878 543.51637,653.241308 533.700346,653.241308 L524.363152,653.241308 C527.47555,669.654014 535.196691,677.860367 547.526576,677.860367 C552.793711,677.860367 557.163039,676.879173 560.634559,674.916784 C564.10608,672.954395 566.919209,670.724408 569.073946,668.226822 C570.989268,666.086035 572.425759,664.06418 573.38342,662.161257 L575.179035,658.593278 L573.562982,663.766848 C572.485613,667.215895 570.570291,671.140672 567.817016,675.54118 C565.063741,679.941688 561.143317,683.866466 556.055743,687.315513 C550.968169,690.76456 544.354324,692.489083 536.214206,692.489083 C525.081398,692.489083 515.564642,687.939909 507.66394,678.841561 C499.763237,669.743214 495.812886,658.831143 495.812886,646.105349 C495.812886,633.260623 499.763237,622.318819 507.66394,613.279938 C515.564642,604.241056 525.081398,599.721616 536.214206,599.721616 Z M140.808146,570 L140.808146,571.806703 C137.431017,571.806703 134.144346,573.432736 130.948134,576.684802 C127.751922,579.936868 126.153816,584.634296 126.153816,590.777087 L125.249227,654.192369 C125.249227,658.408009 125.79198,663.105438 126.877486,668.284653 C129.410333,680.811129 136.948569,685.267663 147.683017,685.267663 C160.588477,685.267663 168.417007,684.837512 177.643808,678.032263 C186.870609,671.227014 189.674833,663.909867 189.674833,654.274116 C189.674833,647.850283 190.150974,626.684606 191.103257,590.777087 C191.103257,584.634296 189.505151,579.936868 186.308939,576.684802 C183.112727,573.432736 179.826056,571.806703 176.448926,571.806703 L176.448926,570 L212.991594,570 L212.991594,571.806703 C209.493852,571.806703 206.177028,573.432736 203.041122,576.684802 C199.905216,579.936868 198.337263,584.634296 198.337263,590.777087 L196.908839,654.274116 C196.908839,664.391654 193.049262,674.840421 183.520932,682.00701 C173.992602,689.173599 161.191536,690.687773 147.683017,690.687773 C137.310405,690.687773 128.475592,687.917495 121.17858,684.183641 C113.881567,680.449788 108.303273,675.75236 104.443696,670.091357 C100.584119,664.430353 98.6543307,658.76935 98.6543307,653.108347 L98.6543307,590.777087 C98.6543307,584.634296 97.0863776,580.137816 93.9504715,576.88575 C90.8145653,573.633684 87.4977415,571.806703 84,571.806703 L84,570 L140.808146,570 Z M872.913482,570.360262 L872.913482,600.217648 L890.995664,600.217648 L890.995664,603.97217 L872.913482,603.97217 L872.913482,666.905103 C872.913482,669.6465 873.331222,672.656077 874.166702,675.933834 C875.002183,679.211591 876.225565,682.042381 877.836848,684.426204 C879.448132,686.810027 881.38764,688.001939 883.655372,688.001939 L883.655372,690.14738 L872.913482,690.14738 C865.15545,690.14738 861.52032,687.132495 857.663731,681.847414 C853.807142,676.562332 852.772437,670.174264 852.772437,662.54603 L853.309532,606.296397 L853.1305,603.97217 L836.48057,603.97217 L836.48057,600.217648 L852.772437,600.217648 C852.056311,597.714634 850.982122,595.777777 849.54987,594.407079 C848.117618,593.036381 846.59585,592.053054 844.984566,591.457098 C843.373283,590.861142 841.970869,590.503568 840.777326,590.384377 L839.166042,590.20559 L872.913482,570.360262 Z M746.930226,599.901747 L746.930226,620.149831 L745.060627,620.149831 L745.060627,619.640214 C745.060627,618.847478 744.890664,617.658374 744.550737,616.072901 C743.304338,611.656227 740.329977,608.343722 735.627654,606.135385 C730.925331,603.927048 725.571481,602.82288 719.566105,602.82288 C717.186616,602.82288 714.920436,602.992752 712.767565,603.332496 C706.762189,604.804721 703.759501,607.2229 703.759501,612.319062 C703.759501,613.904534 704.297718,615.914687 705.374154,618.34952 C706.450589,620.784353 708.348515,622.907754 711.067931,624.719722 L747.270153,648.671683 C754.182001,653.201605 757.637925,658.694135 757.637925,665.149273 C757.637925,671.71766 753.927056,677.35175 746.505317,682.051544 C739.083578,686.751338 730.103841,689.967249 719.566105,689.967249 C709.368296,689.967249 700.813467,687.87216 693.901619,683.681983 C691.408821,682.209758 689.87915,681.190526 689.312605,680.624285 C687.499661,679.152061 686.139953,678.246076 685.233481,677.906332 L684.043737,677.73646 C683.70381,677.73646 683.505519,677.821396 683.448864,677.991268 C683.39221,678.16114 683.335555,678.274389 683.278901,678.331013 C683.222246,678.387637 683.193919,678.444261 683.193919,678.500885 C683.193919,678.557509 682.57072,678.585821 681.324321,678.585821 L681.324321,655.959528 L683.193919,655.959528 L683.363883,658.337737 C683.477192,660.036457 683.817119,662.074922 684.383664,664.453131 C685.85668,670.681773 688.12286,675.155071 691.182203,677.873024 C699.680377,683.988418 709.141678,687.046116 719.566105,687.046116 C722.172212,687.046116 724.721664,686.819619 727.214462,686.366627 C732.766602,684.554659 735.542672,682.4196 735.542672,678.229422 C735.542672,677.77643 735.372709,676.21927 735.032782,673.557941 C734.692855,670.896612 732.426675,668.093723 728.234242,665.149273 L692.03202,641.367184 C684.893554,636.724015 681.324321,631.174861 681.324321,624.719722 C681.324321,618.038088 685.063517,612.375686 692.541911,607.732516 C700.020304,603.089346 709.028369,599.901747 719.566105,599.901747 C725.004936,599.901747 730.103841,600.581235 734.862818,601.940211 C737.620004,602.506452 739.489602,602.789572 740.471613,602.789572 C741.831321,602.789572 742.936084,602.534764 743.785901,602.025148 C744.635719,601.515531 745.060627,600.920979 745.060627,600.241491 L745.060627,599.901747 L746.930226,599.901747 Z M286.341365,599.901747 C301.848136,599.901747 315.037803,609.691475 315.037803,626.779001 L315.037803,680.533511 C315.037803,687.297323 320.563204,688.009303 321.810875,689.967249 L286.163126,689.967249 C287.410797,688.009303 292.936199,687.297323 292.936199,680.533511 L292.936199,626.779001 C292.936199,614.319347 284.380739,607.555534 274.22113,607.555534 C268.161013,607.73353 261.566179,610.581451 255.862539,617.167268 L255.862539,680.533511 C255.862539,687.297323 261.387941,688.009303 262.635612,689.967249 L226.987863,689.967249 C228.235534,688.009303 233.760935,687.297323 233.760935,680.533511 L233.760935,617.167268 C233.760935,610.403455 228.235534,609.691475 226.987863,607.73353 L255.862539,600.969717 L255.862539,611.827416 C264.774477,600.791722 276.003518,599.901747 286.341365,599.901747 Z M646.980932,599.901747 C649.481216,599.901747 652.517275,600.288166 656.089108,601.061006 C659.660942,601.833845 662.816062,604.241537 665.554468,606.500605 C668.292874,608.759674 669.662077,612.088828 669.662077,616.488067 C669.662077,619.341627 668.679823,621.749319 666.715314,623.711142 C664.750806,625.672965 662.339818,626.653876 659.482351,626.653876 C656.743945,626.653876 654.392487,625.672965 652.427979,623.711142 C650.46347,621.749319 649.481216,619.103831 649.481216,615.774677 C649.481216,614.942388 649.838399,613.485884 650.552766,611.405162 C651.267133,609.324441 651.624316,608.402979 651.624316,606.8573 L651.624316,605.073825 C651.624316,604.122638 650.076521,603.647045 646.980932,603.647045 C640.075387,603.647045 633.884208,605.192723 628.407396,608.284081 L628.407396,668.92224 C628.407396,672.726988 629.240824,676.858706 630.90768,681.317394 C632.574535,685.776082 634.955758,688.005426 638.051347,688.005426 L638.051347,689.967249 L593.582016,689.967249 L593.582016,688.005426 C596.677605,688.005426 599.058828,685.776082 600.725683,681.317394 C602.392539,676.858706 603.225967,672.726988 603.225967,668.92224 L603.225967,631.469259 C603.225967,628.972394 602.809253,626.921397 601.975825,625.31627 C601.142397,623.711142 600.100612,622.432985 598.850471,621.481798 C597.600329,620.530611 596.350187,619.87667 595.100045,619.519975 C593.849903,619.16328 592.808118,618.925483 591.97469,618.806585 L590.545957,618.628237 L628.407396,600.793484 L628.407396,604.360435 C633.884208,601.387976 640.075387,599.901747 646.980932,599.901747 Z M379.28895,599.901747 L379.28895,668.71179 C379.28895,672.434498 380.130712,676.547489 381.814236,681.050764 C383.49776,685.554039 385.962921,687.805677 389.209718,687.805677 L389.209718,689.787118 L344.295693,689.787118 L344.295693,687.805677 C347.422238,687.805677 349.827273,685.554039 351.510798,681.050764 C353.194322,676.547489 354.036084,672.434498 354.036084,668.71179 L354.036084,630.884279 C354.036084,628.242358 353.615203,626.110808 352.773441,624.489629 C351.931679,622.86845 350.879476,621.607533 349.616833,620.706878 C348.354189,619.806223 347.091546,619.145742 345.828903,618.725437 C344.566259,618.305131 343.453931,618.094978 342.491917,618.094978 L341.229274,617.914847 L379.28895,599.901747 Z M808.948418,599.901747 L808.948418,668.71179 C808.948418,672.434498 809.79018,676.547489 811.473704,681.050764 C813.157229,685.554039 815.622389,687.805677 818.869186,687.805677 L818.869186,689.787118 L773.955161,689.787118 L773.955161,687.805677 C777.081707,687.805677 779.486741,685.554039 781.170266,681.050764 C782.85379,676.547489 783.695552,672.434498 783.695552,668.71179 L783.695552,630.884279 C783.695552,628.242358 783.274671,626.110808 782.432909,624.489629 C781.591147,622.86845 780.538944,621.607533 779.276301,620.706878 C778.013658,619.806223 776.751014,619.145742 775.488371,618.725437 C774.225728,618.305131 773.113399,618.094978 772.151385,618.094978 L770.888742,617.914847 L808.948418,599.901747 Z M536.48744,603.324236 C532.545413,603.324236 529.559028,605.394515 527.528287,609.535072 C524.422447,615.923362 522.869528,622.903159 522.869528,634.023514 C522.869528,641.59482 523.407077,646.090283 524.482175,651.058952 C535.113703,651.058952 542.579664,649.46188 546.880057,642.718686 C548.910798,639.524541 549.926169,635.029078 549.926169,629.232297 C549.926169,627.339471 549.806714,625.328343 549.567803,623.198913 C548.731615,616.574021 547.328015,613.084122 545.357001,609.180168 C543.385988,605.276213 540.429467,603.324236 536.48744,603.324236 Z M364.714439,570.360262 C368.749743,570.360262 372.193667,571.808975 375.04621,574.706402 C377.898754,577.603828 379.325025,581.053145 379.325025,585.054353 C379.325025,589.055561 377.898754,592.470385 375.04621,595.298825 C372.193667,598.127265 368.749743,599.541485 364.714439,599.541485 C360.679134,599.541485 357.23521,598.127265 354.382667,595.298825 C351.530124,592.470385 350.103852,589.055561 350.103852,585.054353 C350.103852,581.053145 351.530124,577.603828 354.382667,574.706402 C357.23521,571.808975 360.679134,570.360262 364.714439,570.360262 Z M794.013152,570.360262 C798.048457,570.360262 801.49238,571.808975 804.344924,574.706402 C807.197467,577.603828 808.623738,581.053145 808.623738,585.054353 C808.623738,589.055561 807.197467,592.470385 804.344924,595.298825 C801.49238,598.127265 798.048457,599.541485 794.013152,599.541485 C789.977847,599.541485 786.533923,598.127265 783.68138,595.298825 C780.828837,592.470385 779.402565,589.055561 779.402565,585.054353 C779.402565,581.053145 780.828837,577.603828 783.68138,574.706402 C786.533923,571.808975 789.977847,570.360262 794.013152,570.360262 Z" id="MBA-University" fill="#FFFFFF" fill-rule="nonzero"></path>
    </g>
</svg>