<?xml version="1.0" encoding="UTF-8"?>
<svg width="1599px" height="254px" viewBox="0 0 1599 254" version="1.1" xmlns="http://www.w3.org/2000/svg" xmlns:xlink="http://www.w3.org/1999/xlink">
    <title>blue-menu-web-mbauniversity-2023-all-rights-reserved</title>
    <g id="blue-menu-web-mbauniversity-2023-all-rights-reserved" stroke="none" stroke-width="1" fill="none" fill-rule="evenodd">
        <g id="Group" transform="translate(15.299104, 15.000000)" fill="#002967" fill-rule="nonzero">
            <path d="M1223.98441,198.465 L1223.98441,198.815 C1223.35441,198.815 1223.03941,199.141667 1223.03941,199.795 C1223.03941,200.425 1223.22608,201.171667 1223.59941,202.035 L1227.09941,210.225 L1231.19441,200.6 C1231.33441,200.296667 1231.40441,200.005 1231.40441,199.725 C1231.40441,199.608333 1231.37524,199.4275 1231.31691,199.1825 C1231.25858,198.9375 1230.91441,198.815 1230.28441,198.815 L1230.28441,198.465 L1234.02941,198.465 L1234.02941,198.815 C1232.76941,198.815 1231.97608,199.328333 1231.64941,200.355 L1222.26941,222.405 C1222.01274,223.011667 1221.66274,223.525 1221.21941,223.945 C1220.58941,224.575 1219.87774,224.89 1219.08441,224.89 C1218.08108,224.89 1217.23524,224.440833 1216.54691,223.5425 C1215.85858,222.644167 1215.49108,221.518333 1215.44441,220.165 L1215.44441,220.13 C1215.44441,219.593333 1215.63691,219.126667 1216.02191,218.73 C1216.40691,218.333333 1216.87941,218.135 1217.43941,218.135 C1217.99941,218.135 1218.47191,218.333333 1218.85691,218.73 C1219.24191,219.126667 1219.43441,219.593333 1219.43441,220.13 C1219.43441,220.69 1219.24191,221.1625 1218.85691,221.5475 C1218.47191,221.9325 1217.99358,222.125 1217.42191,222.125 C1216.85024,222.125 1216.56441,222.311667 1216.56441,222.685 C1216.56441,222.988333 1216.77441,223.35 1217.19441,223.77 C1217.75441,224.26 1218.38441,224.505 1219.08441,224.505 C1219.62108,224.505 1220.12274,224.359167 1220.58941,224.0675 C1221.05608,223.775833 1221.42941,223.361667 1221.70941,222.825 L1224.61441,216.035 L1218.83941,202.49 C1217.81274,200.04 1216.68108,198.815 1215.44441,198.815 L1215.44441,198.465 L1223.98441,198.465 Z M1038.51941,198.5 C1039.63941,198.5 1040.70691,198.745 1041.72191,199.235 C1042.73691,199.725 1043.56524,200.425 1044.20691,201.335 C1044.84858,202.245 1045.16941,203.318333 1045.16941,204.555 L1045.16941,211.905 C1045.16941,212.651667 1045.32108,213.456667 1045.62441,214.32 C1045.92774,215.183333 1046.39441,215.615 1047.02441,215.615 L1047.02441,216 L1042.99941,216 C1042.50941,216 1042.08941,215.941667 1041.73941,215.825 C1041.38941,215.708333 1041.10358,215.58 1040.88191,215.44 C1040.66024,215.3 1040.50274,215.171667 1040.40941,215.055 L1040.26941,214.915 C1039.52274,215.358333 1038.82274,215.714167 1038.16941,215.9825 C1037.51608,216.250833 1036.71108,216.385 1035.75441,216.385 C1033.44441,216.385 1031.65358,215.953333 1030.38191,215.09 C1029.11024,214.226667 1028.47441,213.106667 1028.47441,211.73 C1028.47441,210.516667 1028.84774,209.548333 1029.59441,208.825 C1030.34108,208.101667 1031.26274,207.524167 1032.35941,207.0925 C1033.45608,206.660833 1034.56441,206.281667 1035.68441,205.955 C1036.94441,205.605 1038.02358,205.225833 1038.92191,204.8175 C1039.82024,204.409167 1040.26941,203.843333 1040.26941,203.12 L1040.26941,201.93 C1040.26941,200.04 1039.48774,199.095 1037.92441,199.095 L1037.53941,199.13 C1036.32608,199.34 1035.27608,199.83 1034.38941,200.6 C1034.94941,200.623333 1035.41608,200.821667 1035.78941,201.195 C1036.16274,201.568333 1036.34941,202.023333 1036.34941,202.56 C1036.34941,203.12 1036.15691,203.5925 1035.77191,203.9775 C1035.38691,204.3625 1034.92608,204.555 1034.38941,204.555 C1033.82941,204.555 1033.35691,204.3625 1032.97191,203.9775 C1032.58691,203.5925 1032.39441,203.12 1032.39441,202.56 C1032.39441,202.046667 1032.58108,201.591667 1032.95441,201.195 C1034.33108,199.398333 1036.18608,198.5 1038.51941,198.5 Z M1387.8659,191.15 C1390.15256,191.15 1392.2234,191.715833 1394.0784,192.8475 C1395.9334,193.979167 1397.4034,195.495833 1398.4884,197.3975 C1399.5734,199.299167 1400.1159,201.405 1400.1159,203.715 C1400.1159,206.048333 1399.5734,208.171667 1398.4884,210.085 C1397.4034,211.998333 1395.9334,213.520833 1394.0784,214.6525 C1392.2234,215.784167 1390.15256,216.35 1387.8659,216.35 C1385.5559,216.35 1383.46173,215.784167 1381.5834,214.6525 C1379.70506,213.520833 1378.21173,211.998333 1377.1034,210.085 C1375.99506,208.171667 1375.4409,206.048333 1375.4409,203.715 C1375.4409,201.405 1375.99506,199.299167 1377.1034,197.3975 C1378.21173,195.495833 1379.70506,193.979167 1381.5834,192.8475 C1383.46173,191.715833 1385.5559,191.15 1387.8659,191.15 Z M1313.7709,191.185 C1315.77756,191.185 1317.6034,191.750833 1319.2484,192.8825 C1320.8934,194.014167 1322.2059,195.530833 1323.1859,197.4325 C1324.1659,199.334167 1324.6559,201.44 1324.6559,203.75 C1324.6559,206.083333 1324.1659,208.200833 1323.1859,210.1025 C1322.2059,212.004167 1320.8934,213.520833 1319.2484,214.6525 C1317.6034,215.784167 1315.77756,216.35 1313.7709,216.35 C1311.7409,216.35 1309.9034,215.784167 1308.2584,214.6525 C1306.6134,213.520833 1305.3009,212.004167 1304.3209,210.1025 C1303.3409,208.200833 1302.8509,206.083333 1302.8509,203.75 C1302.8509,201.44 1303.3409,199.334167 1304.3209,197.4325 C1305.3009,195.530833 1306.6134,194.014167 1308.2584,192.8825 C1309.9034,191.750833 1311.7409,191.185 1313.7709,191.185 Z M1364.5909,191.5 L1357.6259,201.475 C1359.67923,201.895 1361.3534,202.781667 1362.6484,204.135 C1363.9434,205.488333 1364.5909,207.051667 1364.5909,208.825 C1364.5909,210.878333 1363.71006,212.645833 1361.9484,214.1275 C1360.18673,215.609167 1358.06923,216.35 1355.5959,216.35 C1353.23923,216.35 1351.23256,215.830833 1349.5759,214.7925 C1347.91923,213.754167 1346.92756,212.418333 1346.6009,210.785 L1346.5659,210.26 C1346.5659,209.63 1346.78756,209.035 1347.2309,208.475 C1347.67423,207.915 1348.33923,207.635 1349.2259,207.635 C1349.94923,207.635 1350.5734,207.891667 1351.0984,208.405 C1351.6234,208.918333 1351.8859,209.548333 1351.8859,210.295 C1351.8859,211.018333 1351.6234,211.6425 1351.0984,212.1675 C1350.5734,212.6925 1349.94923,212.955 1349.2259,212.955 C1348.85256,212.955 1348.50256,212.885 1348.1759,212.745 C1349.48256,213.725 1351.05756,214.215 1352.9009,214.215 C1353.69423,214.215 1354.56923,214.080833 1355.5259,213.8125 C1356.48256,213.544167 1357.35173,213.025 1358.1334,212.255 C1358.91506,211.485 1359.3059,210.516667 1359.3059,209.35 C1359.3059,208.16 1359.15423,207.191667 1358.8509,206.445 C1358.31423,205.231667 1357.54423,204.403333 1356.5409,203.96 C1356.1209,203.796667 1355.8409,203.715 1355.7009,203.715 L1360.5659,196.785 L1347.7909,196.785 L1351.5709,191.5 L1364.5909,191.5 Z M1053.98941,211.415 C1054.66608,211.415 1055.24941,211.654167 1055.73941,212.1325 C1056.22941,212.610833 1056.47441,213.188333 1056.47441,213.865 C1056.47441,214.565 1056.22941,215.154167 1055.73941,215.6325 C1055.24941,216.110833 1054.66608,216.35 1053.98941,216.35 C1053.31274,216.35 1052.73524,216.110833 1052.25691,215.6325 C1051.77858,215.154167 1051.53941,214.565 1051.53941,213.865 C1051.53941,213.188333 1051.77858,212.610833 1052.25691,212.1325 C1052.73524,211.654167 1053.31274,211.415 1053.98941,211.415 Z M1144.88441,198.15 C1146.19108,198.15 1147.38691,198.395 1148.47191,198.885 C1149.55691,199.375 1150.44941,200.080833 1151.14941,201.0025 C1151.84941,201.924167 1152.19941,203.096667 1152.19941,204.52 C1152.19941,206.386667 1151.14941,207.6 1149.04941,208.16 C1147.85941,208.486667 1146.30774,208.65 1144.39441,208.65 L1142.57441,208.65 C1143.18108,211.87 1144.68608,213.48 1147.08941,213.48 C1148.11608,213.48 1148.96774,213.2875 1149.64441,212.9025 C1150.32108,212.5175 1150.86941,212.08 1151.28941,211.59 C1151.66274,211.17 1151.94274,210.773333 1152.12941,210.4 L1152.47941,209.7 L1152.16441,210.715 C1151.95441,211.391667 1151.58108,212.161667 1151.04441,213.025 C1150.50774,213.888333 1149.74358,214.658333 1148.75191,215.335 C1147.76024,216.011667 1146.47108,216.35 1144.88441,216.35 C1142.71441,216.35 1140.85941,215.4575 1139.31941,213.6725 C1137.77941,211.8875 1137.00941,209.746667 1137.00941,207.25 C1137.00941,204.73 1137.77941,202.583333 1139.31941,200.81 C1140.85941,199.036667 1142.71441,198.15 1144.88441,198.15 Z M967.364411,211.415 C968.041078,211.415 968.624411,211.654167 969.114411,212.1325 C969.604411,212.610833 969.849411,213.188333 969.849411,213.865 C969.849411,214.565 969.604411,215.154167 969.114411,215.6325 C968.624411,216.110833 968.041078,216.35 967.364411,216.35 C966.687745,216.35 966.110245,216.110833 965.631911,215.6325 C965.153578,215.154167 964.914411,214.565 964.914411,213.865 C964.914411,213.188333 965.153578,212.610833 965.631911,212.1325 C966.110245,211.654167 966.687745,211.415 967.364411,211.415 Z M1186.04441,198.15 L1186.04441,201.965 L1185.65941,201.965 L1185.65941,201.86 C1185.65941,201.696667 1185.62441,201.451667 1185.55441,201.125 C1185.29774,200.215 1184.68524,199.5325 1183.71691,199.0775 C1182.74858,198.6225 1181.64608,198.395 1180.40941,198.395 C1179.91941,198.395 1179.45274,198.43 1179.00941,198.5 C1177.77274,198.803333 1177.15441,199.48 1177.15441,200.53 C1177.15441,200.856667 1177.26524,201.270833 1177.48691,201.7725 C1177.70858,202.274167 1178.09941,202.711667 1178.65941,203.085 L1186.11441,208.02 C1187.53774,208.953333 1188.24941,210.085 1188.24941,211.415 C1188.24941,212.768333 1187.48524,213.929167 1185.95691,214.8975 C1184.42858,215.865833 1182.57941,216.35 1180.40941,216.35 C1178.30941,216.35 1176.54774,215.918333 1175.12441,215.055 C1174.61108,214.751667 1174.29608,214.541667 1174.17941,214.425 C1173.80608,214.121667 1173.52608,213.935 1173.33941,213.865 L1173.09441,213.83 C1173.02441,213.83 1172.98358,213.8475 1172.97191,213.8825 C1172.96024,213.9175 1172.94858,213.940833 1172.93691,213.9525 C1172.92524,213.964167 1172.91941,213.975833 1172.91941,213.9875 C1172.91941,213.999167 1172.79108,214.005 1172.53441,214.005 L1172.53441,209.7 L1172.91941,209.7 L1172.95441,210.19 C1172.97774,210.54 1173.04774,210.96 1173.16441,211.45 C1173.46774,212.733333 1173.93441,213.655 1174.56441,214.215 C1176.31441,215.475 1178.26274,216.105 1180.40941,216.105 C1180.94608,216.105 1181.47108,216.058333 1181.98441,215.965 C1183.12774,215.591667 1183.69941,214.973333 1183.69941,214.11 C1183.69941,214.016667 1183.66441,213.695833 1183.59441,213.1475 C1183.52441,212.599167 1183.05774,212.021667 1182.19441,211.415 L1174.73941,206.515 C1173.26941,205.558333 1172.53441,204.415 1172.53441,203.085 C1172.53441,201.708333 1173.30441,200.541667 1174.84441,199.585 C1176.38441,198.628333 1178.23941,198.15 1180.40941,198.15 C1181.52941,198.15 1182.57941,198.29 1183.55941,198.57 L1183.55941,198.535 C1184.02608,198.675 1184.41108,198.745 1184.71441,198.745 C1184.99441,198.745 1185.22191,198.6925 1185.39691,198.5875 C1185.57191,198.4825 1185.65941,198.36 1185.65941,198.22 L1185.65941,198.15 L1186.04441,198.15 Z M1466.9009,66.2 L1466.9009,68.2 C1463.3009,68.2 1461.5009,70.0666667 1461.5009,73.8 C1461.5009,77.4 1462.56756,81.6666667 1464.7009,86.6 L1482.7009,133.4 L1506.1009,78.4 C1506.9009,76.6666667 1507.3009,75 1507.3009,73.4 C1507.3009,72.7333333 1507.13423,71.7 1506.8009,70.3 C1506.46756,68.9 1504.5009,68.2 1500.9009,68.2 L1500.9009,66.2 L1524.3009,66.2 L1524.3009,68.2 C1517.1009,68.2 1512.56756,71.1333333 1510.7009,77 C1493.67176,118.458895 1480.89991,149.3864 1472.38534,169.782514 C1469.21102,177.3864 1464.44954,188.458895 1458.1009,203 C1456.63423,206.466667 1454.63423,209.4 1452.1009,211.8 C1448.5009,215.4 1443.43423,216.2 1438.9009,216.2 C1433.16756,216.2 1428.33423,213.633333 1424.4009,208.5 C1420.46756,203.366667 1418.36756,196.933333 1418.1009,189.2 L1418.1009,189 C1418.1009,185.933333 1419.2009,183.266667 1421.4009,181 C1423.6009,178.733333 1427.3009,176.6 1430.5009,176.6 C1433.7009,176.6 1436.4009,177.733333 1438.6009,180 C1440.8009,182.266667 1441.9009,184.933333 1441.9009,188 C1441.9009,191.2 1440.8009,193.9 1438.6009,196.1 C1436.4009,198.3 1433.66756,199.4 1430.4009,199.4 C1427.13423,199.4 1426.5009,201.466667 1426.5009,203.6 C1426.5009,205.333333 1427.7009,206.4 1430.1009,208.8 C1433.3009,211.6 1435.9009,213 1439.9009,213 C1442.96756,213 1444.83423,213.166667 1447.5009,211.5 C1450.16756,209.833333 1452.3009,207.466667 1453.9009,204.4 L1470.5009,166.6 L1437.5009,89.2 C1431.63423,75.2 1425.16756,68.2 1418.1009,68.2 L1418.1009,66.2 L1466.9009,66.2 Z M885.429411,198.5 L885.429411,198.85 C884.822745,198.85 884.519411,199.165 884.519411,199.795 L884.519411,199.9 C884.519411,200.506667 884.694411,201.218333 885.044411,202.035 L888.474411,210.12 L893.444411,198.5 L898.379411,210.12 L902.439411,200.6 C902.556078,200.32 902.614411,200.051667 902.614411,199.795 C902.614411,199.655 902.591078,199.4625 902.544411,199.2175 C902.497745,198.9725 902.171078,198.85 901.564411,198.85 L901.564411,198.5 L905.239411,198.5 L905.239411,198.85 C904.002745,198.85 903.221078,199.351667 902.894411,200.355 L896.244411,216 L895.999411,216 L891.169411,204.66 L886.339411,216 L886.094411,216 L880.319411,202.455 C879.339411,200.051667 878.231078,198.85 876.994411,198.85 L876.994411,198.5 L885.429411,198.5 Z M1166.33941,198.5 C1166.82941,198.5 1167.42441,198.575833 1168.12441,198.7275 C1168.82441,198.879167 1169.44274,199.176667 1169.97941,199.62 C1170.51608,200.063333 1170.78441,200.716667 1170.78441,201.58 C1170.78441,202.14 1170.59191,202.6125 1170.20691,202.9975 C1169.82191,203.3825 1169.34941,203.575 1168.78941,203.575 C1168.25274,203.575 1167.79191,203.3825 1167.40691,202.9975 C1167.02191,202.6125 1166.82941,202.093333 1166.82941,201.44 C1166.82941,201.276667 1166.89941,200.990833 1167.03941,200.5825 C1167.17941,200.174167 1167.24941,199.818333 1167.24941,199.515 L1167.24941,199.165 C1167.24941,198.978333 1166.94608,198.885 1166.33941,198.885 C1164.98608,198.885 1163.77274,199.188333 1162.69941,199.795 L1162.69941,211.87 C1162.69941,212.616667 1162.86274,213.4275 1163.18941,214.3025 C1163.51608,215.1775 1163.98274,215.615 1164.58941,215.615 L1164.58941,216 L1155.87441,216 L1155.87441,215.615 C1156.48108,215.615 1156.94774,215.1775 1157.27441,214.3025 C1157.60108,213.4275 1157.76441,212.616667 1157.76441,211.87 L1157.76441,204.52 C1157.76441,204.03 1157.68274,203.6275 1157.51941,203.3125 C1157.35608,202.9975 1157.15191,202.746667 1156.90691,202.56 C1156.66191,202.373333 1156.41691,202.245 1156.17191,202.175 C1155.92691,202.105 1155.72274,202.058333 1155.55941,202.035 L1155.27941,202 L1162.69941,198.5 L1162.69941,199.375 C1163.77274,198.791667 1164.98608,198.5 1166.33941,198.5 Z M1291.7209,191.15 C1292.2809,191.15 1293.04506,191.249167 1294.0134,191.4475 C1294.98173,191.645833 1295.96756,192.013333 1296.9709,192.55 C1297.97423,193.086667 1298.8259,193.845 1299.5259,194.825 C1300.2259,195.805 1300.5759,197.088333 1300.5759,198.675 C1300.5759,200.378333 1300.13256,201.714167 1299.2459,202.6825 C1298.35923,203.650833 1297.2334,204.409167 1295.8684,204.9575 C1294.5034,205.505833 1293.0509,205.99 1291.5109,206.41 C1289.85423,206.853333 1288.30256,207.384167 1286.8559,208.0025 C1285.40923,208.620833 1284.3009,209.513333 1283.5309,210.68 L1300.5759,210.68 L1296.7959,216 L1282.1659,216 C1282.1659,213.55 1282.56256,211.595833 1283.3559,210.1375 C1284.14923,208.679167 1285.12923,207.506667 1286.2959,206.62 C1287.46256,205.733333 1288.66423,204.963333 1289.9009,204.31 C1290.8109,203.82 1291.6509,203.306667 1292.4209,202.77 C1293.1909,202.233333 1293.81506,201.609167 1294.2934,200.8975 C1294.77173,200.185833 1295.0109,199.293333 1295.0109,198.22 C1294.9409,196.19 1294.3809,194.743333 1293.3309,193.88 C1292.3509,193.086667 1291.25423,192.69 1290.0409,192.69 C1289.9709,192.69 1289.59173,192.701667 1288.9034,192.725 C1288.21506,192.748333 1287.46256,193.11 1286.6459,193.81 C1287.36923,193.833333 1287.9759,194.101667 1288.4659,194.615 C1288.9559,195.128333 1289.2009,195.746667 1289.2009,196.47 C1289.2009,197.193333 1288.94423,197.8175 1288.4309,198.3425 C1287.91756,198.8675 1287.28756,199.13 1286.5409,199.13 C1285.81756,199.13 1285.1934,198.8675 1284.6684,198.3425 C1284.1434,197.8175 1283.8809,197.193333 1283.8809,196.47 C1283.8809,196.096667 1283.9859,195.6125 1284.1959,195.0175 C1284.4059,194.4225 1284.7909,193.833333 1285.3509,193.25 C1285.9109,192.666667 1286.70423,192.170833 1287.7309,191.7625 C1288.75756,191.354167 1290.08756,191.15 1291.7209,191.15 Z M942.549411,198.5 L942.549411,198.85 C941.942745,198.85 941.639411,199.165 941.639411,199.795 L941.639411,199.9 C941.639411,200.506667 941.814411,201.218333 942.164411,202.035 L945.594411,210.12 L950.564411,198.5 L955.499411,210.12 L959.559411,200.6 C959.676078,200.32 959.734411,200.051667 959.734411,199.795 C959.734411,199.655 959.711078,199.4625 959.664411,199.2175 C959.617745,198.9725 959.291078,198.85 958.684411,198.85 L958.684411,198.5 L962.359411,198.5 L962.359411,198.85 C961.122745,198.85 960.341078,199.351667 960.014411,200.355 L953.364411,216 L953.119411,216 L948.289411,204.66 L943.459411,216 L943.214411,216 L937.439411,202.455 C936.459411,200.051667 935.351078,198.85 934.114411,198.85 L934.114411,198.5 L942.549411,198.5 Z M1015.27941,189.715 L1015.27941,198.78 C1016.11941,198.43 1016.99441,198.255 1017.90441,198.255 C1020.05108,198.255 1021.88274,199.124167 1023.39941,200.8625 C1024.91608,202.600833 1025.67441,204.695 1025.67441,207.145 C1025.67441,209.571667 1024.91608,211.654167 1023.39941,213.3925 C1021.88274,215.130833 1020.05108,216 1017.90441,216 C1016.99441,216 1016.11941,215.825 1015.27941,215.475 L1015.27941,216 L1008.41941,216 L1008.41941,215.615 C1009.04941,215.615 1009.52774,215.1775 1009.85441,214.3025 C1010.18108,213.4275 1010.34441,212.616667 1010.34441,211.87 L1010.34441,195.77 C1010.34441,195.256667 1010.25691,194.8425 1010.08191,194.5275 C1009.90691,194.2125 1009.69691,193.961667 1009.45191,193.775 C1009.20691,193.588333 1008.96191,193.46 1008.71691,193.39 C1008.47191,193.32 1008.25608,193.273333 1008.06941,193.25 L1007.82441,193.215 L1015.27941,189.715 Z M1095.21941,198.5 C1096.24608,198.5 1097.27858,198.715833 1098.31691,199.1475 C1099.35524,199.579167 1100.21274,200.209167 1100.88941,201.0375 C1101.56608,201.865833 1101.90441,202.863333 1101.90441,204.03 L1101.90441,211.87 C1101.90441,212.616667 1102.06774,213.4275 1102.39441,214.3025 C1102.72108,215.1775 1103.19941,215.615 1103.82941,215.615 L1103.82941,216 L1097.00441,216 L1097.00441,202.07 C1096.95774,199.946667 1096.26941,198.885 1094.93941,198.885 C1093.67941,198.931667 1092.55941,199.235 1091.57941,199.795 L1091.57941,211.87 C1091.57941,212.616667 1091.74274,213.4275 1092.06941,214.3025 C1092.39608,215.1775 1092.86274,215.615 1093.46941,215.615 L1093.46941,216 L1084.75441,216 L1084.75441,215.615 C1085.36108,215.615 1085.82774,215.1775 1086.15441,214.3025 C1086.48108,213.4275 1086.64441,212.616667 1086.64441,211.87 L1086.64441,204.52 C1086.64441,204.03 1086.56274,203.621667 1086.39941,203.295 C1086.23608,202.968333 1086.03191,202.7175 1085.78691,202.5425 C1085.54191,202.3675 1085.29691,202.245 1085.05191,202.175 C1084.80691,202.105 1084.59108,202.058333 1084.40441,202.035 L1084.15941,202 L1091.57941,198.5 L1091.57941,199.375 C1092.65274,198.791667 1093.86608,198.5 1095.21941,198.5 Z M1078.76941,198.5 L1078.76941,211.87 C1078.76941,212.616667 1078.93274,213.4275 1079.25941,214.3025 C1079.58608,215.1775 1080.06441,215.615 1080.69441,215.615 L1080.69441,216 L1073.83441,216 L1073.83441,215.125 C1072.78441,215.685 1071.58274,215.976667 1070.22941,216 C1068.36274,215.953333 1066.77608,215.416667 1065.46941,214.39 C1064.16274,213.363333 1063.50941,212.056667 1063.50941,210.47 L1063.50941,204.52 C1063.50941,203.633333 1063.21774,202.98 1062.63441,202.56 C1062.21441,202.256667 1061.75941,202.081667 1061.26941,202.035 L1061.02441,202 L1068.44441,198.5 L1068.44441,212.43 C1068.49108,214.553333 1069.16774,215.615 1070.47441,215.615 C1071.75774,215.568333 1072.87774,215.265 1073.83441,214.705 L1073.83441,204.52 C1073.83441,204.006667 1073.75274,203.5925 1073.58941,203.2775 C1073.42608,202.9625 1073.22191,202.7175 1072.97691,202.5425 C1072.73191,202.3675 1072.48691,202.239167 1072.24191,202.1575 C1071.99691,202.075833 1071.79274,202.035 1071.62941,202.035 L1071.34941,202 L1078.76941,198.5 Z M913.989411,198.5 L913.989411,198.85 C913.382745,198.85 913.079411,199.165 913.079411,199.795 L913.079411,199.9 C913.079411,200.506667 913.254411,201.218333 913.604411,202.035 L917.034411,210.12 L922.004411,198.5 L926.939411,210.12 L930.999411,200.6 C931.116078,200.32 931.174411,200.051667 931.174411,199.795 C931.174411,199.655 931.151078,199.4625 931.104411,199.2175 C931.057745,198.9725 930.731078,198.85 930.124411,198.85 L930.124411,198.5 L933.799411,198.5 L933.799411,198.85 C932.562745,198.85 931.781078,199.351667 931.454411,200.355 L924.804411,216 L924.559411,216 L919.729411,204.66 L914.899411,216 L914.654411,216 L908.879411,202.455 C907.899411,200.051667 906.791078,198.85 905.554411,198.85 L905.554411,198.5 L913.989411,198.5 Z M1114.36441,198.535 L1114.36441,211.905 C1114.36441,212.628333 1114.52774,213.4275 1114.85441,214.3025 C1115.18108,215.1775 1115.65941,215.615 1116.28941,215.615 L1116.28941,216 L1107.57441,216 L1107.57441,215.615 C1108.18108,215.615 1108.64774,215.1775 1108.97441,214.3025 C1109.30108,213.4275 1109.46441,212.628333 1109.46441,211.905 L1109.46441,204.555 C1109.46441,204.041667 1109.38274,203.6275 1109.21941,203.3125 C1109.05608,202.9975 1108.85191,202.7525 1108.60691,202.5775 C1108.36191,202.4025 1108.11691,202.274167 1107.87191,202.1925 C1107.62691,202.110833 1107.41108,202.07 1107.22441,202.07 L1106.97941,202.035 L1114.36441,198.535 Z M1197.73441,198.535 L1197.73441,211.905 C1197.73441,212.628333 1197.89774,213.4275 1198.22441,214.3025 C1198.55108,215.1775 1199.02941,215.615 1199.65941,215.615 L1199.65941,216 L1190.94441,216 L1190.94441,215.615 C1191.55108,215.615 1192.01774,215.1775 1192.34441,214.3025 C1192.67108,213.4275 1192.83441,212.628333 1192.83441,211.905 L1192.83441,204.555 C1192.83441,204.041667 1192.75274,203.6275 1192.58941,203.3125 C1192.42608,202.9975 1192.22191,202.7525 1191.97691,202.5775 C1191.73191,202.4025 1191.48691,202.274167 1191.24191,202.1925 C1190.99691,202.110833 1190.78108,202.07 1190.59441,202.07 L1190.34941,202.035 L1197.73441,198.535 Z M995.784411,198.5 C996.881078,198.5 997.942745,198.7275 998.969411,199.1825 C999.996078,199.6375 1000.84191,200.285 1001.50691,201.125 C1002.17191,201.965 1002.50441,202.933333 1002.50441,204.03 L1002.50441,211.87 C1002.50441,212.616667 1002.66774,213.4275 1002.99441,214.3025 C1003.32108,215.1775 1003.78774,215.615 1004.39441,215.615 L1004.39441,216 L997.569411,216 L997.569411,202.07 C997.522745,199.946667 996.834411,198.885 995.504411,198.885 C993.591078,198.978333 992.051078,199.608333 990.884411,200.775 C991.724411,201.731667 992.144411,202.816667 992.144411,204.03 L992.144411,211.87 C992.144411,212.616667 992.307745,213.4275 992.634411,214.3025 C992.961078,215.1775 993.439411,215.615 994.069411,215.615 L994.069411,216 L987.244411,216 L987.244411,202.07 C987.197745,199.946667 986.509411,198.885 985.179411,198.885 C983.919411,198.931667 982.799411,199.235 981.819411,199.795 L981.819411,211.87 C981.819411,212.616667 981.982745,213.4275 982.309411,214.3025 C982.636078,215.1775 983.102745,215.615 983.709411,215.615 L983.709411,216 L974.994411,216 L974.994411,215.615 C975.601078,215.615 976.067745,215.1775 976.394411,214.3025 C976.721078,213.4275 976.884411,212.616667 976.884411,211.87 L976.884411,204.52 C976.884411,204.03 976.802745,203.621667 976.639411,203.295 C976.476078,202.968333 976.271911,202.7175 976.026911,202.5425 C975.781911,202.3675 975.536911,202.245 975.291911,202.175 C975.046911,202.105 974.831078,202.058333 974.644411,202.035 L974.399411,202 L981.819411,198.5 L981.819411,199.375 C982.892745,198.791667 984.106078,198.5 985.459411,198.5 C987.512745,198.5 989.227745,199.165 990.604411,200.495 C991.981078,199.165 993.707745,198.5 995.784411,198.5 Z M1335.7859,191.15 C1336.3459,191.15 1337.11006,191.249167 1338.0784,191.4475 C1339.04673,191.645833 1340.03256,192.013333 1341.0359,192.55 C1342.03923,193.086667 1342.8909,193.845 1343.5909,194.825 C1344.2909,195.805 1344.6409,197.088333 1344.6409,198.675 C1344.6409,200.378333 1344.19756,201.714167 1343.3109,202.6825 C1342.42423,203.650833 1341.2984,204.409167 1339.9334,204.9575 C1338.5684,205.505833 1337.1159,205.99 1335.5759,206.41 C1333.91923,206.853333 1332.36756,207.384167 1330.9209,208.0025 C1329.47423,208.620833 1328.3659,209.513333 1327.5959,210.68 L1344.6409,210.68 L1340.8609,216 L1326.2309,216 C1326.2309,213.55 1326.62756,211.595833 1327.4209,210.1375 C1328.21423,208.679167 1329.19423,207.506667 1330.3609,206.62 C1331.52756,205.733333 1332.72923,204.963333 1333.9659,204.31 C1334.8759,203.82 1335.7159,203.306667 1336.4859,202.77 C1337.2559,202.233333 1337.88006,201.609167 1338.3584,200.8975 C1338.83673,200.185833 1339.0759,199.293333 1339.0759,198.22 C1339.0059,196.19 1338.4459,194.743333 1337.3959,193.88 C1336.4159,193.086667 1335.31923,192.69 1334.1059,192.69 C1334.0359,192.69 1333.65673,192.701667 1332.9684,192.725 C1332.28006,192.748333 1331.52756,193.11 1330.7109,193.81 C1331.43423,193.833333 1332.0409,194.101667 1332.5309,194.615 C1333.0209,195.128333 1333.2659,195.746667 1333.2659,196.47 C1333.2659,197.193333 1333.00923,197.8175 1332.4959,198.3425 C1331.98256,198.8675 1331.35256,199.13 1330.6059,199.13 C1329.88256,199.13 1329.2584,198.8675 1328.7334,198.3425 C1328.2084,197.8175 1327.9459,197.193333 1327.9459,196.47 C1327.9459,196.096667 1328.0509,195.6125 1328.2609,195.0175 C1328.4709,194.4225 1328.8559,193.833333 1329.4159,193.25 C1329.9759,192.666667 1330.76923,192.170833 1331.7959,191.7625 C1332.82256,191.354167 1334.15256,191.15 1335.7859,191.15 Z M1313.7709,191.535 C1312.1609,191.535 1310.7959,192.730833 1309.6759,195.1225 C1308.5559,197.514167 1307.9959,200.39 1307.9959,203.75 C1307.9959,207.133333 1308.5559,210.020833 1309.6759,212.4125 C1310.7959,214.804167 1312.1609,216 1313.7709,216 C1315.35756,216 1316.7109,214.804167 1317.8309,212.4125 C1318.9509,210.020833 1319.5109,207.133333 1319.5109,203.75 C1319.5109,200.39 1318.9509,197.514167 1317.8309,195.1225 C1316.7109,192.730833 1315.35756,191.535 1313.7709,191.535 Z M1210.15941,191.5 L1210.15941,197.345 L1213.69441,197.345 L1213.69441,197.73 L1210.15941,197.73 L1210.15941,211.45 C1210.15941,211.986667 1210.24108,212.575833 1210.40441,213.2175 C1210.56774,213.859167 1210.80691,214.413333 1211.12191,214.88 C1211.43691,215.346667 1211.81608,215.58 1212.25941,215.58 L1212.25941,216 L1210.15941,216 C1208.64274,216 1207.35358,215.463333 1206.29191,214.39 C1205.23024,213.316667 1204.69941,212.033333 1204.69941,210.54 L1204.69941,198.185 L1204.66441,197.73 L1201.40941,197.73 L1201.40941,197.345 L1204.59441,197.345 C1204.45441,196.855 1204.24441,196.475833 1203.96441,196.2075 C1203.68441,195.939167 1203.38691,195.746667 1203.07191,195.63 C1202.75691,195.513333 1202.48274,195.443333 1202.24941,195.42 L1201.93441,195.385 L1210.15941,191.5 Z M1126.08941,198.535 L1126.08941,198.92 C1125.48274,198.92 1125.17941,199.27 1125.17941,199.97 C1125.17941,200.553333 1125.35441,201.253333 1125.70441,202.07 L1129.13441,210.12 L1133.19441,200.67 C1133.31108,200.366667 1133.36941,200.086667 1133.36941,199.83 C1133.36941,199.713333 1133.34608,199.5325 1133.29941,199.2875 C1133.25274,199.0425 1132.92608,198.92 1132.31941,198.92 L1132.31941,198.535 L1135.95941,198.535 L1135.95941,198.92 C1134.74608,198.92 1133.97608,199.421667 1133.64941,200.425 L1126.99941,216 L1126.75441,216 L1121.01441,202.49 C1120.03441,200.11 1118.92608,198.92 1117.68941,198.92 L1117.68941,198.535 L1126.08941,198.535 Z M1016.64441,198.64 C1016.17774,198.64 1015.72274,198.791667 1015.27941,199.095 L1015.27941,215.195 C1015.72274,215.475 1016.17774,215.615 1016.64441,215.615 C1017.81108,215.615 1018.81441,214.786667 1019.65441,213.13 C1020.49441,211.473333 1020.91441,209.478333 1020.91441,207.145 C1020.91441,204.788333 1020.49441,202.781667 1019.65441,201.125 C1018.81441,199.468333 1017.81108,198.64 1016.64441,198.64 Z M1040.26941,203.61 C1040.26941,204.193333 1040.00108,204.73 1039.46441,205.22 C1038.92774,205.71 1038.28608,206.211667 1037.53941,206.725 C1036.93274,207.121667 1036.34358,207.553333 1035.77191,208.02 C1035.20024,208.486667 1034.72774,209 1034.35441,209.56 C1033.98108,210.12 1033.79441,210.761667 1033.79441,211.485 C1033.79441,212.838333 1034.09191,213.865 1034.68691,214.565 C1035.28191,215.265 1036.03441,215.615 1036.94441,215.615 C1037.71441,215.615 1038.46108,215.4225 1039.18441,215.0375 C1039.90774,214.6525 1040.26941,213.993333 1040.26941,213.06 L1040.26941,203.61 Z M1387.8659,192.13 C1384.7859,192.13 1382.0909,193.261667 1379.7809,195.525 C1377.56423,197.881667 1376.4559,200.611667 1376.4559,203.715 C1376.4559,206.841667 1377.56423,209.595 1379.7809,211.975 C1382.0909,214.238333 1384.7859,215.37 1387.8659,215.37 C1390.89923,215.37 1393.55923,214.238333 1395.8459,211.975 C1398.03923,209.595 1399.1359,206.841667 1399.1359,203.715 C1399.1359,200.611667 1398.03923,197.881667 1395.8459,195.525 C1393.55923,193.261667 1390.89923,192.13 1387.8659,192.13 Z M1387.8309,196.435 C1389.13756,196.435 1390.25756,196.843333 1391.1909,197.66 C1392.12423,198.476667 1392.81256,199.538333 1393.2559,200.845 C1393.3259,200.985 1393.37256,201.113333 1393.3959,201.23 L1393.4309,201.545 C1393.4309,202.011667 1393.26756,202.408333 1392.9409,202.735 C1392.61423,203.061667 1392.21756,203.225 1391.7509,203.225 C1391.28423,203.225 1390.88756,203.061667 1390.5609,202.735 C1390.23423,202.408333 1390.0709,202.011667 1390.0709,201.545 C1390.0709,201.358333 1390.09423,201.183333 1390.1409,201.02 L1390.1759,200.145 C1390.1759,198.931667 1389.88423,197.998333 1389.3009,197.345 C1388.85756,196.878333 1388.36756,196.645 1387.8309,196.645 C1387.08423,196.645 1386.54756,197.1 1386.2209,198.01 C1385.89423,198.92 1385.6959,200.098333 1385.6259,201.545 C1385.6259,206.491667 1386.96756,208.965 1389.6509,208.965 L1389.6859,208.965 C1390.71256,208.918333 1391.5409,208.661667 1392.1709,208.195 C1392.9479,207.607 1393.517,206.93395 1393.8782,206.17585 L1393.9909,205.92 C1393.75756,206.946667 1393.3259,207.926667 1392.6959,208.86 C1391.55256,210.493333 1389.9309,211.31 1387.8309,211.31 C1386.05756,211.31 1384.5409,210.580833 1383.2809,209.1225 C1382.0209,207.664167 1381.3909,205.908333 1381.3909,203.855 C1381.3909,201.825 1382.0209,200.080833 1383.2809,198.6225 C1384.5409,197.164167 1386.05756,196.435 1387.8309,196.435 Z M1144.88441,198.395 C1144.11441,198.395 1143.53108,198.803333 1143.13441,199.62 C1142.52774,200.88 1142.22441,202.606667 1142.22441,204.8 C1142.22441,206.293333 1142.32941,207.53 1142.53941,208.51 C1144.61608,208.51 1146.07441,207.845 1146.91441,206.515 C1147.31108,205.885 1147.50941,204.998333 1147.50941,203.855 C1147.50941,203.481667 1147.48608,203.085 1147.43941,202.665 C1147.27608,201.358333 1147.00191,200.32 1146.61691,199.55 C1146.23191,198.78 1145.65441,198.395 1144.88441,198.395 Z M1249.7009,191 L1249.7009,193.47 L1249.51756,193.47 C1249.51756,193.123333 1249.43812,192.776667 1249.27923,192.43 C1248.92478,191.600476 1248.24645,191.185714 1247.24423,191.185714 L1245.5759,191.185714 L1245.5759,201.901429 C1245.5759,202.520476 1245.73478,202.994048 1246.05256,203.322143 C1246.37034,203.650238 1246.70034,203.814286 1247.04256,203.814286 L1247.04256,204 L1241.35923,204 L1241.35923,203.814286 C1241.70145,203.814286 1242.03145,203.650238 1242.34923,203.322143 C1242.66701,202.994048 1242.8259,202.520476 1242.8259,201.901429 L1242.8259,191.185714 L1241.15756,191.185714 C1240.14312,191.185714 1239.45867,191.600476 1239.10423,192.43 C1238.95756,192.776667 1238.88423,193.123333 1238.88423,193.47 L1238.7009,193.47 L1238.7009,191 L1249.7009,191 Z M1253.69494,191 L1258.00483,198.457797 L1262.31472,191 L1266.7009,191 L1266.7009,191.18598 C1266.3322,191.18598 1265.98576,191.347163 1265.66156,191.669528 C1265.33737,191.991893 1265.17527,192.469242 1265.17527,193.101574 L1265.17527,201.898426 C1265.17527,202.530758 1265.33737,203.008107 1265.66156,203.330472 C1265.98576,203.652837 1266.3322,203.81402 1266.7009,203.81402 L1266.7009,204 L1260.7891,204 L1260.7891,203.81402 C1261.14508,203.81402 1261.48834,203.652837 1261.81889,203.330472 C1262.14945,203.008107 1262.31472,202.530758 1262.31472,201.898426 L1262.31472,191.316166 L1256.66991,201.080114 L1252.41722,193.733906 L1252.41722,201.898426 C1252.41722,202.530758 1252.57932,203.008107 1252.90352,203.330472 C1253.22771,203.652837 1253.57416,203.81402 1253.94285,203.81402 L1253.94285,204 L1250.7009,204 L1250.7009,203.81402 C1251.05688,203.81402 1251.39378,203.652837 1251.71162,203.330472 C1252.02946,203.008107 1252.20109,202.530758 1252.22652,201.898426 L1252.22652,193.399142 L1250.83439,191 L1253.69494,191 Z M1111.91441,190.065 C1112.59108,190.065 1113.16858,190.31 1113.64691,190.8 C1114.12524,191.29 1114.36441,191.873333 1114.36441,192.55 C1114.36441,193.226667 1114.12524,193.804167 1113.64691,194.2825 C1113.16858,194.760833 1112.59108,195 1111.91441,195 C1111.23774,195 1110.66024,194.760833 1110.18191,194.2825 C1109.70358,193.804167 1109.46441,193.226667 1109.46441,192.55 C1109.46441,191.873333 1109.70358,191.29 1110.18191,190.8 C1110.66024,190.31 1111.23774,190.065 1111.91441,190.065 Z M1195.28441,190.065 C1195.96108,190.065 1196.53858,190.31 1197.01691,190.8 C1197.49524,191.29 1197.73441,191.873333 1197.73441,192.55 C1197.73441,193.226667 1197.49524,193.804167 1197.01691,194.2825 C1196.53858,194.760833 1195.96108,195 1195.28441,195 C1194.60774,195 1194.03024,194.760833 1193.55191,194.2825 C1193.07358,193.804167 1192.83441,193.226667 1192.83441,192.55 C1192.83441,191.873333 1193.07358,191.29 1193.55191,190.8 C1194.03024,190.31 1194.60774,190.065 1195.28441,190.065 Z M907.334162,66.2 L907.334162,68.4705411 C903.75634,68.4705411 901.967429,70.5346693 901.967429,74.6629259 C901.967429,78.1031396 902.999493,82.2313961 905.063621,87.0476954 L925.292078,134.522645 L949.235966,78.7911824 C949.924009,77.0022712 950.26803,75.3509686 950.26803,73.8372745 C950.26803,73.1492318 950.130421,72.0827655 949.855204,70.6378758 C949.579987,69.192986 947.653468,68.4705411 944.075645,68.4705411 L944.075645,66.2 L967.606707,66.2 L967.606707,68.4705411 C960.451063,68.4705411 955.909981,71.4291249 953.983461,77.3462926 L914.765024,169.2 L911.256006,169.2 L877.404303,89.5246493 C871.624743,75.4885772 865.088337,68.4705411 857.795084,68.4705411 L857.795084,66.2 L907.334162,66.2 Z M1014.49728,66 C1021.93016,66 1028.73257,67.3865385 1034.90452,70.1596154 C1041.07646,72.9326923 1046.15338,76.9272436 1050.13528,82.1432692 C1054.11719,87.3592949 1056.10814,93.9948718 1056.10814,102.05 C1056.10814,112.614103 1050.13528,119.480769 1038.18958,122.65 C1031.42035,124.498718 1022.59381,125.423077 1011.70995,125.423077 L1001.357,125.423077 C1004.80798,143.646154 1013.36907,152.757692 1027.04026,152.757692 C1032.88038,152.757692 1037.72503,151.668269 1041.5742,149.489423 C1045.42337,147.310577 1048.54252,144.834615 1050.93166,142.061538 C1053.05535,139.684615 1054.64811,137.439744 1055.70995,135.326923 L1057.7009,131.365385 L1055.90904,137.109615 C1054.71447,140.939103 1052.59079,145.296795 1049.538,150.182692 C1046.48521,155.06859 1042.1383,159.426282 1036.49728,163.255769 C1030.85625,167.085256 1023.52292,169 1014.49728,169 C1002.15338,169 991.601348,163.949038 982.841167,153.847115 C974.080986,143.745192 969.700896,131.629487 969.700896,117.5 C969.700896,103.238462 974.080986,91.0897436 982.841167,81.0538462 C991.601348,71.0179487 1002.15338,66 1014.49728,66 Z M576.076944,33 L576.076944,35.005988 C572.332433,35.005988 568.688221,36.8113772 565.144309,40.4221557 C561.600397,44.0329341 559.828441,49.248503 559.828441,56.0688623 L558.825447,126.479042 C558.825447,131.159681 559.427243,136.37525 560.630836,142.125749 C563.439219,156.033932 571.797503,160.982036 583.699698,160.982036 C598.009079,160.982036 606.689236,160.504437 616.919775,152.948549 C627.150314,145.392661 630.259596,137.268409 630.259596,126.569807 C630.259596,119.437405 630.787534,95.9370899 631.843411,56.0688623 C631.843411,49.248503 630.071455,44.0329341 626.527542,40.4221557 C622.98363,36.8113772 619.339419,35.005988 615.594908,35.005988 L615.594908,33 L656.112872,33 L656.112872,35.005988 C652.234628,35.005988 648.556984,36.8113772 645.079938,40.4221557 C641.602892,44.0329341 639.864369,49.248503 639.864369,56.0688623 L638.280554,126.569807 C638.280554,137.80334 634.001113,149.404637 623.436242,157.361723 C612.871372,165.318809 598.677742,167 583.699698,167 C572.1987,167 562.402792,163.924152 554.311974,159.778443 C546.221155,155.632735 540.036025,150.417166 535.756584,144.131737 C531.477143,137.846307 529.337423,131.560878 529.337423,125.275449 L529.337423,56.0688623 C529.337423,49.248503 527.5989,44.2560477 524.121854,40.6452693 C520.644808,37.0344908 516.967163,35.005988 513.08892,35.005988 L513.08892,33 L576.076944,33 Z M1387.8244,33.4 L1387.8244,66.5507463 L1407.87366,66.5507463 L1407.87366,70.719403 L1387.8244,70.719403 L1387.8244,140.59403 C1387.8244,143.637811 1388.28759,146.979353 1389.21396,150.618657 C1390.14032,154.25796 1391.49679,157.400995 1393.28336,160.047761 C1395.06993,162.694527 1397.22042,164.01791 1399.73485,164.01791 L1399.73485,166.4 L1387.8244,166.4 C1379.22241,166.4 1375.19183,163.052564 1370.91571,157.184522 C1366.63958,151.316481 1365.49231,144.223789 1365.49231,135.754138 L1366.08784,73.3 L1365.88933,70.719403 L1347.42813,70.719403 L1347.42813,66.5507463 L1365.49231,66.5507463 C1364.69828,63.7716418 1363.50724,61.6211443 1361.91918,60.0992537 C1360.33112,58.5773632 1358.64381,57.4855721 1356.85724,56.8238806 C1355.07067,56.1621891 1353.5157,55.7651741 1352.19231,55.6328358 L1350.40575,55.4343284 L1387.8244,33.4 Z M1137.31377,66.2 C1140.08604,66.2 1143.45238,66.6290429 1147.41278,67.4871287 C1151.37317,68.3452145 1154.87152,71.0184818 1157.90783,73.5267327 C1160.94413,76.0349835 1162.46228,79.7313531 1162.46228,84.6158416 C1162.46228,87.7841584 1161.37317,90.4574257 1159.19496,92.6356436 C1157.01674,94.8138614 1154.34347,95.9029703 1151.17515,95.9029703 C1148.13885,95.9029703 1145.53159,94.8138614 1143.35337,92.6356436 C1141.17515,90.4574257 1140.08604,87.520132 1140.08604,83.8237624 C1140.08604,82.89967 1140.48208,81.2825083 1141.27416,78.9722772 C1142.06624,76.6620462 1142.46228,75.6389439 1142.46228,73.9227723 L1142.46228,71.9425743 C1142.46228,70.8864686 1140.74611,70.3584158 1137.31377,70.3584158 C1129.657,70.3584158 1122.79231,72.0745875 1116.71971,75.5069307 L1116.71971,142.833663 C1116.71971,147.058086 1117.6438,151.645545 1119.49198,156.59604 C1121.34017,161.546535 1123.98043,164.021782 1127.41278,164.021782 L1127.41278,166.2 L1078.10585,166.2 L1078.10585,164.021782 C1081.53819,164.021782 1084.17845,161.546535 1086.02664,156.59604 C1087.87482,151.645545 1088.79892,147.058086 1088.79892,142.833663 L1088.79892,101.249505 C1088.79892,98.4772277 1088.33687,96.2 1087.41278,94.4178218 C1086.48868,92.6356436 1085.33357,91.2165017 1083.94743,90.160396 C1082.56129,89.1042904 1081.17515,88.3782178 1079.78901,87.9821782 C1078.40288,87.5861386 1077.24776,87.3221122 1076.32367,87.190099 L1074.73951,86.9920792 L1116.71971,67.190099 L1116.71971,71.150495 C1122.79231,67.850165 1129.657,66.2 1137.31377,66.2 Z M1248.13605,66.2 L1248.13605,88.6815089 L1246.06307,88.6815089 L1246.06307,88.1156805 C1246.06307,87.235503 1245.87462,85.9152367 1245.49771,84.1548817 C1244.11572,79.2510355 1240.81779,75.5731509 1235.60393,73.1212278 C1230.39006,70.6693047 1224.45379,69.4433432 1217.79512,69.4433432 C1215.15678,69.4433432 1212.64407,69.6319527 1210.257,70.0091716 C1203.59833,71.643787 1200.269,74.3286982 1200.269,79.9869822 C1200.269,81.7473373 1200.86576,83.979216 1202.0593,86.6826183 C1203.25283,89.3860207 1205.35723,91.7436391 1208.37247,93.7554734 L1248.51296,120.349408 C1256.17671,125.378994 1260.00859,131.477367 1260.00859,138.644527 C1260.00859,145.937426 1255.89403,152.192973 1247.66492,157.411169 C1239.43581,162.629364 1229.47921,166.2 1217.79512,166.2 C1206.48794,166.2 1197.00248,163.873817 1189.33872,159.22145 C1186.57475,157.586834 1184.87867,156.455178 1184.25049,155.826479 C1182.24033,154.191864 1180.7327,153.185947 1179.72762,152.808728 L1178.40845,152.620118 C1178.03155,152.620118 1177.81168,152.714423 1177.74887,152.903033 C1177.68605,153.091642 1177.62323,153.217382 1177.56041,153.280251 C1177.49759,153.343121 1177.46619,153.405991 1177.46619,153.468861 C1177.46619,153.531731 1176.77519,153.563166 1175.3932,153.563166 L1175.3932,128.441124 L1177.46619,128.441124 L1177.65464,131.081657 C1177.78027,132.967751 1178.15718,135.231065 1178.78536,137.871598 C1180.41862,144.787278 1182.93132,149.753994 1186.32348,152.771746 C1195.74612,159.561686 1206.23667,162.956657 1217.79512,162.956657 C1220.68473,162.956657 1223.51153,162.705178 1226.27551,162.202219 C1232.43164,160.190385 1235.5097,157.819822 1235.5097,153.167456 C1235.5097,152.664497 1235.32125,150.935577 1234.94434,147.980695 C1234.56744,145.025814 1232.05473,141.913757 1227.40622,138.644527 L1187.26574,112.239201 C1179.35072,107.083876 1175.3932,100.922633 1175.3932,93.7554734 C1175.3932,86.3368343 1179.53917,80.0498521 1187.8311,74.8945266 C1196.12303,69.7392012 1206.11104,66.2 1217.79512,66.2 C1223.82562,66.2 1229.47921,66.9544379 1234.75589,68.4633136 C1237.81302,69.0920118 1239.886,69.4063609 1240.97484,69.4063609 C1242.48246,69.4063609 1243.70741,69.1234467 1244.64967,68.5576183 C1245.59194,67.9917899 1246.06307,67.3316568 1246.06307,66.5772189 L1246.06307,66.2 L1248.13605,66.2 Z M737.442002,66.2 C754.635678,66.2 769.260184,77.0695652 769.260184,96.0418972 L769.260184,155.725692 C769.260184,163.235573 775.386666,164.026087 776.770066,166.2 L737.244374,166.2 C738.627773,164.026087 744.754255,163.235573 744.754255,155.725692 L744.754255,96.0418972 C744.754255,82.2079051 735.268089,74.6980237 724.003267,74.6980237 C717.2839,74.8956522 709.971647,78.0577075 703.647536,85.3699605 L703.647536,155.725692 C703.647536,163.235573 709.774018,164.026087 711.157417,166.2 L671.631726,166.2 C673.015125,164.026087 679.141607,163.235573 679.141607,155.725692 L679.141607,85.3699605 C679.141607,77.8600791 673.015125,77.0695652 671.631726,74.8956522 L703.647536,67.3857708 L703.647536,79.4411067 C713.528959,67.1881423 725.979552,66.2 737.442002,66.2 Z M840.500896,66.2 L840.500896,142.6 C840.500896,146.733333 841.434229,151.3 843.300896,156.3 C845.167562,161.3 847.900896,163.8 851.500896,163.8 L851.500896,166 L801.700896,166 L801.700896,163.8 C805.167562,163.8 807.834229,161.3 809.700896,156.3 C811.567562,151.3 812.500896,146.733333 812.500896,142.6 L812.500896,100.6 C812.500896,97.6666667 812.034229,95.3 811.100896,93.5 C810.167562,91.7 809.000896,90.3 807.600896,89.3 C806.200896,88.3 804.800896,87.5666667 803.400896,87.1 C802.000896,86.6333333 800.767562,86.4 799.700896,86.4 L798.300896,86.2 L840.500896,66.2 Z M1316.9009,66.2 L1316.9009,142.6 C1316.9009,146.733333 1317.83423,151.3 1319.7009,156.3 C1321.56756,161.3 1324.3009,163.8 1327.9009,163.8 L1327.9009,166 L1278.1009,166 L1278.1009,163.8 C1281.56756,163.8 1284.23423,161.3 1286.1009,156.3 C1287.96756,151.3 1288.9009,146.733333 1288.9009,142.6 L1288.9009,100.6 C1288.9009,97.6666667 1288.43423,95.3 1287.5009,93.5 C1286.56756,91.7 1285.4009,90.3 1284.0009,89.3 C1282.6009,88.3 1281.2009,87.5666667 1279.8009,87.1 C1278.4009,86.6333333 1277.16756,86.4 1276.1009,86.4 L1274.7009,86.2 L1316.9009,66.2 Z M376.869213,32 L419.64149,140.54 C422.569354,147.559048 426.292833,153.20619 430.811928,157.481429 C435.331023,161.756667 439.627346,163.958095 443.700896,164.085714 L443.700896,166 L381.833852,166 L381.833852,164.085714 C385.27091,164.085714 388.389722,162.554286 391.190288,159.491429 C392.972466,157.449524 393.863555,154.897143 393.863555,151.834286 C393.863555,150.047619 393.608958,148.133333 393.099764,146.091429 L388.326073,133.648571 L339.061575,133.648571 L333.142197,149.154286 C332.251108,151.579048 331.805563,153.748571 331.805563,155.662857 C331.805563,157.577143 332.569354,159.459524 334.096935,161.31 C335.624517,163.160476 338.170486,164.085714 341.734842,164.085714 L341.734842,166 L308.700896,166 L308.700896,164.085714 C318.375577,163.702857 325.313343,158.661905 329.514191,148.962857 L375.532579,32 L376.869213,32 Z M253.854742,32 C265.264998,32 275.008588,34.9990476 283.085511,40.9971429 C291.162434,46.9952381 295.200896,54.2695238 295.200896,62.82 C295.200896,69.8390476 292.476537,76.0285714 287.027819,81.3885714 C281.579101,86.7485714 274.495768,90.4495238 265.777819,92.4914286 C277.957306,94.2780952 287.989357,98.5214286 295.873973,105.221429 C303.758588,111.921429 307.700896,119.801905 307.700896,128.862857 C307.700896,139.2 302.700896,147.97381 292.700896,155.184286 C282.700896,162.394762 270.649614,166 256.54705,166 L182.700896,166 L182.700896,164.085714 C186.290639,164.085714 189.752178,162.394762 193.085511,159.012857 C196.418844,155.630952 198.085511,150.749524 198.085511,144.368571 L198.085511,53.6314286 C198.085511,47.1228571 196.418844,42.2095238 193.085511,38.8914286 C189.752178,35.5733333 186.290639,33.9142857 182.700896,33.9142857 L182.700896,32 L253.854742,32 Z M29.0971429,32.1914286 L72.36,108.954286 L115.622857,32.1914286 L159.651429,32.1914286 L159.651429,34.1057143 C155.950476,34.1057143 152.472857,35.7647619 149.218571,39.0828571 C145.964286,42.4009524 144.337143,47.3142857 144.337143,53.8228571 L144.337143,144.368571 C144.337143,150.877143 145.964286,155.790476 149.218571,159.108571 C152.472857,162.426667 155.950476,164.085714 159.651429,164.085714 L159.651429,166 L100.308571,166 L100.308571,164.085714 C103.881905,164.085714 107.327619,162.426667 110.645714,159.108571 C113.96381,155.790476 115.622857,150.877143 115.622857,144.368571 L117.537143,37.36 L60.8742857,137.86 L19.1428571,60.3314286 L19.1428571,144.368571 C19.1428571,150.877143 20.77,155.790476 24.0242857,159.108571 C27.2785714,162.426667 30.7561905,164.085714 34.4571429,164.085714 L34.4571429,166 L0,166 L0,164.085714 C3.57333333,164.085714 6.9552381,162.426667 10.1457143,159.108571 C13.3361905,155.790476 15.0590476,150.877143 15.3142857,144.368571 L15.3142857,56.8857143 L1.34,32.1914286 L29.0971429,32.1914286 Z M244.073589,94 L227.700896,94 L227.700896,164 L244.073589,164 C253.608645,164 261.763626,160.519337 268.538534,153.558011 C275.313442,146.596685 278.700896,138.217311 278.700896,128.41989 C278.700896,118.622468 275.313442,110.275322 268.538534,103.378453 C261.763626,96.4815838 253.608645,94 244.073589,94 Z M365.18,71.001 L340.700896,131 L387.700896,131 L365.18,71.001 Z M1014.80023,70 C1010.42937,70 1007.11811,72.2986369 1004.86646,76.8959108 C1001.42275,83.9888476 999.700896,91.7385378 999.700896,104.085502 C999.700896,112.491945 1000.29692,117.483271 1001.48898,123 C1013.27705,123 1021.5552,121.226766 1026.32341,113.739777 C1028.57507,110.193309 1029.7009,105.201983 1029.7009,98.7657993 C1029.7009,96.6641884 1029.56845,94.4312268 1029.30354,92.0669145 C1028.37639,84.7112763 1026.8201,80.8364312 1024.63467,76.5018587 C1022.44924,72.1672862 1019.17109,70 1014.80023,70 Z M240.188701,34 L227.700896,34 L227.700896,91 L240.188701,91 C248.12366,90.2348993 254.692766,88.0671141 259.896018,82.5838926 C265.09927,77.1006711 267.700896,70.533557 267.700896,62.8825503 C267.700896,55.2315436 265.09927,48.6644295 259.896018,43.1812081 C254.692766,37.6979866 248.12366,34.6375839 240.188701,34 Z M824.340896,33.4 C828.815181,33.4 832.633753,35.0085106 835.79661,38.2255319 C838.959467,41.4425532 840.540896,45.2723404 840.540896,49.7148936 C840.540896,54.1574468 838.959467,57.9489362 835.79661,61.0893617 C832.633753,64.2297872 828.815181,65.8 824.340896,65.8 C819.86661,65.8 816.048039,64.2297872 812.885181,61.0893617 C809.722324,57.9489362 808.140896,54.1574468 808.140896,49.7148936 C808.140896,45.2723404 809.722324,41.4425532 812.885181,38.2255319 C816.048039,35.0085106 819.86661,33.4 824.340896,33.4 Z M1300.3409,33.4 C1304.81518,33.4 1308.63375,35.0085106 1311.79661,38.2255319 C1314.95947,41.4425532 1316.5409,45.2723404 1316.5409,49.7148936 C1316.5409,54.1574468 1314.95947,57.9489362 1311.79661,61.0893617 C1308.63375,64.2297872 1304.81518,65.8 1300.3409,65.8 C1295.86661,65.8 1292.04804,64.2297872 1288.88518,61.0893617 C1285.72232,57.9489362 1284.1409,54.1574468 1284.1409,49.7148936 C1284.1409,45.2723404 1285.72232,41.4425532 1288.88518,38.2255319 C1292.04804,35.0085106 1295.86661,33.4 1300.3409,33.4 Z" id="MBA-University"></path>
            <path d="M1552.31082,32 C1549.4087,32 1546.77773,31.2814815 1544.41792,29.8444444 C1542.05811,28.4074074 1540.18198,26.4740741 1538.78955,24.0444444 C1537.39711,21.6148148 1536.7009,18.9185185 1536.7009,15.9555556 C1536.7009,13.0222222 1537.39711,10.3481481 1538.78955,7.93333333 C1540.18198,5.51851852 1542.05811,3.59259259 1544.41792,2.15555556 C1546.77773,0.718518519 1549.4087,0 1552.31082,0 C1555.18364,0 1557.78529,0.718518519 1560.11579,2.15555556 C1562.44629,3.59259259 1564.29309,5.51851852 1565.65621,7.93333333 C1567.01934,10.3481481 1567.7009,13.0222222 1567.7009,15.9555556 C1567.7009,18.9185185 1567.01934,21.6148148 1565.65621,24.0444444 C1564.29309,26.4740741 1562.44629,28.4074074 1560.11579,29.8444444 C1557.78529,31.2814815 1555.18364,32 1552.31082,32 Z M1552.2904,31 C1556.169,31 1559.57024,29.5391566 1562.49411,26.6174699 C1565.29863,23.5451807 1566.7009,19.9909639 1566.7009,15.9548193 C1566.7009,11.9487952 1565.29863,8.4246988 1562.49411,5.38253012 C1559.57024,2.46084337 1556.169,1 1552.2904,1 C1548.35213,1 1544.90614,2.46084337 1541.95244,5.38253012 C1539.11808,8.4246988 1537.7009,11.9487952 1537.7009,15.9548193 C1537.7009,19.9909639 1539.11808,23.5451807 1541.95244,26.6174699 C1544.90614,29.5391566 1548.35213,31 1552.2904,31 Z M1551.85602,26 C1549.61041,26 1547.68982,25.0686275 1546.09425,23.2058824 C1544.49868,21.3431373 1543.7009,19.1003922 1543.7009,16.4776471 C1543.7009,13.8847059 1544.49868,11.6568627 1546.09425,9.79411765 C1547.68982,7.93137255 1549.61041,7 1551.85602,7 C1553.51068,7 1554.92897,7.52156863 1556.11087,8.56470588 C1557.29277,9.60784314 1558.16442,10.9639216 1558.72583,12.6329412 C1558.81447,12.8117647 1558.87356,12.9756863 1558.90311,13.1247059 L1558.94743,13.5270588 C1558.94743,14.1231373 1558.7406,14.6298039 1558.32693,15.0470588 C1557.91327,15.4643137 1557.41096,15.6729412 1556.82001,15.6729412 C1556.22906,15.6729412 1555.72675,15.4643137 1555.31308,15.0470588 C1554.89942,14.6298039 1554.69259,14.1231373 1554.69259,13.5270588 C1554.69259,13.2886275 1554.72213,13.065098 1554.78123,12.8564706 L1554.82555,11.7388235 C1554.82555,10.1890196 1554.45621,8.99686275 1553.71752,8.16235294 C1553.15611,7.56627451 1552.53561,7.26823529 1551.85602,7.26823529 C1550.9105,7.26823529 1550.2309,7.84941176 1549.81724,9.01176471 C1549.40357,10.1741176 1549.15242,11.6792157 1549.06378,13.5270588 C1549.06378,19.8454902 1550.76276,23.0047059 1554.16073,23.0047059 L1554.20505,23.0047059 C1555.50514,22.945098 1556.55408,22.6172549 1557.35187,22.0211765 C1558.44512,21.1866667 1559.21336,20.2180392 1559.65657,19.1152941 C1559.68612,19.0854902 1559.7009,19.0556863 1559.7009,19.0258824 L1559.7009,19.0705882 C1559.7009,19.1003922 1559.68612,19.1152941 1559.65657,19.1152941 C1559.3611,20.4266667 1558.81447,21.6784314 1558.01669,22.8705882 C1556.56886,24.9568627 1554.5153,26 1551.85602,26 Z" id="Shape"></path>
        </g>
    </g>
</svg>